<svg width="19" height="19" viewBox="0 0 19 19" fill="none" xmlns="http://www.w3.org/2000/svg">
<path d="M5.025 3.29167L2.075 6.24167C-0.691667 9.00833 -0.691667 13.4917 2.075 16.2583C4.84167 19.025 9.325 19.025 12.0917 16.2583L17.1 11.25C17.9083 10.4417 17.9083 9.11667 17.1 8.3C17 8.2 16.8917 8.10833 16.775 8.03333L17.1 7.70833C17.9083 6.9 17.9083 5.575 17.1 4.75833C16.9667 4.625 16.8083 4.50833 16.65 4.41667C16.9833 3.65 16.8417 2.73333 16.2167 2.10833C15.4917 1.38333 14.3667 1.30833 13.55 1.875C13.4667 1.75 13.375 1.63333 13.2667 1.525C12.4583 0.716667 11.1333 0.716667 10.3167 1.525L8.225 3.61667C8.15 3.5 8.05833 3.39167 7.95833 3.29167C7.15 2.48333 5.83333 2.48333 5.025 3.29167ZM6.2 4.475C6.36667 4.30833 6.625 4.30833 6.79167 4.475C6.95833 4.64167 6.95833 4.9 6.79167 5.06667L4.14167 7.71667C5.11667 8.69167 5.11667 10.275 4.14167 11.25L5.31667 12.425C6.525 11.2167 6.83333 9.45 6.25 7.95833L11.5 2.70833C11.6667 2.54167 11.925 2.54167 12.0917 2.70833C12.2583 2.875 12.2583 3.13333 12.0917 3.3L8.25833 7.13333L9.43333 8.30833L14.4417 3.3C14.6083 3.13333 14.8667 3.13333 15.0333 3.3C15.2 3.46667 15.2 3.725 15.0333 3.89167L10.025 8.9L11.2 10.075L15.325 5.95C15.4917 5.78333 15.75 5.78333 15.9167 5.95C16.0833 6.11667 16.0833 6.375 15.9167 6.54167L11.2 11.2583L12.375 12.4333L15.325 9.48333C15.4917 9.31667 15.75 9.31667 15.9167 9.48333C16.0833 9.65 16.0833 9.90833 15.9167 10.075L10.9167 15.0833C8.8 17.2 5.375 17.2 3.25833 15.0833C1.14167 12.9667 1.14167 9.54167 3.25833 7.425L6.2 4.475ZM18.3333 13.3333C18.3333 16.0917 16.0917 18.3333 13.3333 18.3333V17.0833C15.4 17.0833 17.0833 15.4 17.0833 13.3333H18.3333ZM0 5C0 2.24167 2.24167 0 5 0V1.25C2.93333 1.25 1.25 2.93333 1.25 5H0Z" fill="white"/>
</svg>
