<svg width="544" height="522" viewBox="0 0 544 522" fill="none" xmlns="http://www.w3.org/2000/svg">
<g clip-path="url(#clip0_1303_9609)">
<path d="M228.734 108.851H226.214V39.9044C226.214 29.3211 222.003 19.1713 214.509 11.6877C207.014 4.20421 196.849 1.02781e-05 186.251 1.27226e-10H39.9631C34.7151 -1.32316e-05 29.5185 1.03213 24.6699 3.0375C19.8214 5.04287 15.4159 7.98219 11.705 11.6876C7.99404 15.3931 5.05038 19.7921 3.04204 24.6335C1.0337 29.4749 1.22318e-05 34.6639 0 39.9042V418.15C-8.23444e-06 428.733 4.21037 438.883 11.7049 446.367C19.1994 453.85 29.3642 458.055 39.963 458.055H186.25C191.498 458.055 196.695 457.022 201.544 455.017C206.392 453.012 210.798 450.072 214.509 446.367C218.219 442.661 221.163 438.262 223.171 433.421C225.18 428.58 226.214 423.391 226.214 418.15V157.928H228.734L228.734 108.851Z" fill="#3F3D56"/>
<path d="M187.863 10.3819H168.768C169.646 12.5316 169.981 14.864 169.744 17.1736C169.506 19.4832 168.704 21.6991 167.407 23.6261C166.11 25.5531 164.359 27.132 162.307 28.2238C160.255 29.3156 157.965 29.8867 155.64 29.8869H71.8338C69.5087 29.8867 67.2193 29.3156 65.1673 28.2238C63.1153 27.132 61.3636 25.5531 60.0667 23.6261C58.7698 21.6991 57.9673 19.4832 57.7301 17.1736C57.4928 14.864 57.828 12.5316 58.7062 10.3818H40.8711C32.956 10.3818 25.365 13.5215 19.7682 19.1101C14.1714 24.6987 11.0271 32.2784 11.0271 40.1819V417.873C11.0271 421.786 11.799 425.661 13.2988 429.277C14.7986 432.892 16.9969 436.177 19.7682 438.945C22.5395 441.712 25.8294 443.907 29.4503 445.405C33.0711 446.902 36.9519 447.673 40.871 447.673H187.863C191.782 447.673 195.663 446.902 199.284 445.405C202.905 443.907 206.195 441.712 208.966 438.945C211.737 436.177 213.935 432.892 215.435 429.277C216.935 425.661 217.707 421.786 217.707 417.873V40.1819C217.707 36.2685 216.935 32.3934 215.435 28.7779C213.935 25.1624 211.737 21.8773 208.966 19.1101C206.195 16.3429 202.905 14.1478 199.284 12.6502C195.663 11.1527 191.782 10.3819 187.863 10.3819Z" fill="white"/>
<path d="M182.227 168.935H46.5064C45.5992 168.934 44.7295 168.574 44.0881 167.933C43.4466 167.293 43.0858 166.424 43.0848 165.518V85.7998C43.0858 84.894 43.4466 84.0256 44.0881 83.3851C44.7295 82.7446 45.5992 82.3843 46.5064 82.3833H182.227C183.135 82.3843 184.004 82.7446 184.646 83.3851C185.287 84.0256 185.648 84.894 185.649 85.7998V165.518C185.648 166.424 185.287 167.293 184.646 167.933C184.004 168.574 183.135 168.934 182.227 168.935Z" fill="white"/>
<path d="M136.903 124.943C136.213 124.205 135.38 123.612 134.456 123.201C133.531 122.791 132.533 122.57 131.521 122.551C130.509 122.533 129.504 122.719 128.565 123.096C127.627 123.474 126.774 124.036 126.057 124.749L87.8614 162.889C86.8523 163.894 85.4856 164.46 84.0602 164.462C82.6347 164.464 81.2664 163.903 80.2543 162.901L74.5974 157.263C73.898 156.565 73.0676 156.01 72.1537 155.632C71.2398 155.254 70.2602 155.06 69.271 155.06C68.2817 155.06 67.3021 155.254 66.3882 155.632C65.4743 156.01 64.6439 156.565 63.9446 157.263L52.9961 168.208H175.738V166.647L136.903 124.943Z" fill="#6C63FF"/>
<path d="M182.227 170.098H46.5064C45.2906 170.096 44.1249 169.613 43.2652 168.755C42.4055 167.896 41.9219 166.732 41.9205 165.518V85.7999C41.9219 84.5859 42.4055 83.4219 43.2652 82.5635C44.1249 81.705 45.2906 81.2221 46.5064 81.2207H182.227C183.443 81.2221 184.609 81.705 185.469 82.5634C186.328 83.4219 186.812 84.5859 186.813 85.7999V165.518C186.812 166.732 186.328 167.896 185.469 168.755C184.609 169.613 183.443 170.096 182.227 170.098ZM46.5064 83.5459C45.9079 83.5466 45.3342 83.7843 44.911 84.2069C44.4878 84.6295 44.2498 85.2024 44.2491 85.8V165.518C44.2498 166.116 44.4878 166.689 44.911 167.111C45.3342 167.534 45.9079 167.772 46.5064 167.772H182.227C182.826 167.772 183.4 167.534 183.823 167.111C184.246 166.689 184.484 166.116 184.485 165.518V85.7999C184.484 85.2023 184.246 84.6294 183.823 84.2068C183.4 83.7843 182.826 83.5466 182.227 83.5459L46.5064 83.5459Z" fill="#CBCBCB"/>
<path d="M173.872 412.991C170.533 412.991 167.269 412.002 164.492 410.15C161.716 408.297 159.552 405.664 158.274 402.584C156.996 399.503 156.661 396.113 157.313 392.843C157.964 389.573 159.572 386.569 161.934 384.211C164.295 381.853 167.303 380.247 170.579 379.597C173.854 378.946 177.249 379.28 180.334 380.556C183.419 381.832 186.056 383.993 187.911 386.766C189.766 389.538 190.756 392.798 190.756 396.132C190.751 400.602 188.971 404.887 185.806 408.048C182.64 411.208 178.349 412.986 173.872 412.991ZM173.872 380.57C170.79 380.57 167.777 381.483 165.214 383.193C162.651 384.903 160.653 387.333 159.474 390.177C158.294 393.02 157.985 396.149 158.587 399.168C159.188 402.187 160.672 404.96 162.852 407.136C165.032 409.313 167.809 410.795 170.832 411.395C173.855 411.996 176.989 411.688 179.837 410.51C182.684 409.332 185.119 407.337 186.831 404.778C188.544 402.219 189.458 399.21 189.458 396.132C189.453 392.006 187.809 388.051 184.888 385.133C181.966 382.216 178.004 380.575 173.872 380.57Z" fill="#CBCBCB"/>
<path d="M166.58 401.808C166.461 401.808 166.345 401.769 166.251 401.697C166.156 401.625 166.089 401.523 166.058 401.409C166.027 401.294 166.035 401.172 166.08 401.062C166.126 400.953 166.206 400.861 166.309 400.802L174.41 396.132L166.309 391.462C166.185 391.39 166.095 391.273 166.058 391.134C166.021 390.996 166.04 390.849 166.112 390.725C166.183 390.601 166.301 390.511 166.439 390.474C166.578 390.437 166.725 390.456 166.849 390.528L175.76 395.665C175.842 395.712 175.91 395.78 175.957 395.862C176.005 395.944 176.03 396.037 176.03 396.132C176.03 396.226 176.005 396.32 175.957 396.402C175.91 396.484 175.842 396.552 175.76 396.599L166.849 401.736C166.767 401.783 166.674 401.808 166.58 401.808Z" fill="#CBCBCB"/>
<path d="M178.527 403.681C178.384 403.681 178.247 403.625 178.146 403.524C178.044 403.422 177.987 403.285 177.987 403.142V389.122C177.988 388.98 178.045 388.843 178.146 388.742C178.248 388.642 178.385 388.585 178.527 388.585C178.67 388.585 178.807 388.642 178.909 388.742C179.01 388.843 179.067 388.98 179.067 389.122V403.142C179.067 403.285 179.011 403.422 178.909 403.524C178.808 403.625 178.671 403.681 178.527 403.681Z" fill="#CBCBCB"/>
<path d="M79.7123 202.889C79.0395 202.889 78.3943 203.156 77.9186 203.631C77.4429 204.106 77.1757 204.75 77.1757 205.422C77.1757 206.093 77.4429 206.738 77.9186 207.213C78.3943 207.688 79.0395 207.954 79.7123 207.954H149.022C149.694 207.954 150.339 207.688 150.815 207.213C151.291 206.738 151.558 206.093 151.558 205.422C151.558 204.75 151.291 204.106 150.815 203.631C150.339 203.156 149.694 202.889 149.022 202.889H79.7123Z" fill="#CCCCCC"/>
<path d="M40.5142 237.766C39.8414 237.766 39.1962 238.033 38.7205 238.508C38.2448 238.983 37.9775 239.627 37.9775 240.299C37.9775 240.971 38.2448 241.615 38.7205 242.09C39.1962 242.565 39.8414 242.832 40.5142 242.832H188.22C188.892 242.832 189.538 242.565 190.013 242.09C190.489 241.615 190.756 240.971 190.756 240.299C190.756 239.627 190.489 238.983 190.013 238.508C189.538 238.033 188.892 237.766 188.22 237.766H40.5142Z" fill="#CCCCCC"/>
<path d="M40.5142 257.918C39.8414 257.918 39.1962 258.185 38.7205 258.66C38.2448 259.135 37.9775 259.779 37.9775 260.451C37.9775 261.123 38.2448 261.767 38.7205 262.242C39.1962 262.717 39.8414 262.984 40.5142 262.984H188.22C188.892 262.984 189.538 262.717 190.013 262.242C190.489 261.767 190.756 261.123 190.756 260.451C190.756 259.779 190.489 259.135 190.013 258.66C189.538 258.185 188.892 257.918 188.22 257.918H40.5142Z" fill="#CCCCCC"/>
<path d="M40.5142 278.069C39.8414 278.069 39.1962 278.336 38.7205 278.811C38.2448 279.286 37.9775 279.93 37.9775 280.602C37.9775 281.274 38.2448 281.918 38.7205 282.393C39.1962 282.868 39.8414 283.135 40.5142 283.135H188.22C188.892 283.135 189.538 282.868 190.013 282.393C190.489 281.918 190.756 281.274 190.756 280.602C190.756 279.93 190.489 279.286 190.013 278.811C189.538 278.336 188.892 278.069 188.22 278.069H40.5142Z" fill="#CCCCCC"/>
<path d="M40.5142 298.221C39.8414 298.221 39.1962 298.488 38.7205 298.963C38.2448 299.438 37.9775 300.082 37.9775 300.754C37.9775 301.426 38.2448 302.07 38.7205 302.545C39.1962 303.02 39.8414 303.287 40.5142 303.287H188.22C188.892 303.287 189.538 303.02 190.013 302.545C190.489 302.07 190.756 301.426 190.756 300.754C190.756 300.082 190.489 299.438 190.013 298.963C189.538 298.488 188.892 298.221 188.22 298.221H40.5142Z" fill="#CCCCCC"/>
<path d="M40.5142 318.373C40.1811 318.373 39.8512 318.438 39.5434 318.565C39.2357 318.693 38.9561 318.879 38.7205 319.114C38.485 319.35 38.2981 319.629 38.1706 319.936C38.0432 320.243 37.9775 320.573 37.9775 320.905C37.9775 321.238 38.0432 321.567 38.1706 321.875C38.2981 322.182 38.485 322.461 38.7205 322.697C38.9561 322.932 39.2357 323.118 39.5434 323.246C39.8512 323.373 40.1811 323.438 40.5142 323.438H188.22C188.892 323.438 189.538 323.172 190.013 322.697C190.489 322.221 190.756 321.577 190.756 320.905C190.756 320.234 190.489 319.589 190.013 319.114C189.538 318.639 188.892 318.373 188.22 318.373H40.5142Z" fill="#CCCCCC"/>
<path d="M40.5142 338.524C39.8414 338.524 39.1962 338.791 38.7205 339.266C38.2448 339.741 37.9775 340.385 37.9775 341.057C37.9775 341.729 38.2448 342.373 38.7205 342.848C39.1962 343.323 39.8414 343.59 40.5142 343.59H188.22C188.892 343.59 189.538 343.323 190.013 342.848C190.489 342.373 190.756 341.729 190.756 341.057C190.756 340.385 190.489 339.741 190.013 339.266C189.538 338.791 188.892 338.524 188.22 338.524H40.5142Z" fill="#CCCCCC"/>
<path d="M399.184 361.21C399.973 360.55 400.608 359.725 401.043 358.793C401.479 357.861 401.704 356.846 401.704 355.818C401.704 354.789 401.478 353.774 401.042 352.842C400.607 351.911 399.972 351.086 399.182 350.426L393.946 258.413L379.007 261.785L388.883 351.649C387.861 353.047 387.387 354.77 387.553 356.493C387.718 358.216 388.511 359.819 389.78 360.998C391.05 362.176 392.709 362.849 394.442 362.888C396.175 362.927 397.862 362.33 399.184 361.21H399.184Z" fill="#9F616A"/>
<path d="M459.845 373.191C459.032 372.56 458.368 371.759 457.899 370.844C457.43 369.928 457.168 368.921 457.131 367.894C457.093 366.867 457.282 365.843 457.684 364.897C458.086 363.95 458.69 363.103 459.455 362.415L461.352 270.272L476.404 273.103L469.792 363.264C470.864 364.624 471.4 366.33 471.297 368.058C471.194 369.786 470.46 371.416 469.234 372.64C468.008 373.863 466.375 374.595 464.645 374.697C462.914 374.799 461.206 374.263 459.845 373.191H459.845Z" fill="#9F616A"/>
<path d="M467.81 510.133L479.53 510.132L482.873 482.829L467.807 482.83L467.81 510.133Z" fill="#9F616A"/>
<path d="M464.82 506.312L487.903 506.311H487.904C491.805 506.311 495.546 507.859 498.305 510.613C501.064 513.368 502.614 517.104 502.614 520.999V521.477L464.821 521.478L464.82 506.312Z" fill="#2F2E41"/>
<path d="M394.671 510.133L406.391 510.132L409.734 464.989L394.668 464.99L394.671 510.133Z" fill="#9F616A"/>
<path d="M391.681 506.312L414.764 506.311H414.765C418.666 506.311 422.407 507.859 425.166 510.613C427.925 513.368 429.475 517.104 429.475 520.999V521.477L391.681 521.478L391.681 506.312Z" fill="#2F2E41"/>
<path d="M442.82 223.381C453.411 223.381 461.996 214.809 461.996 204.234C461.996 193.659 453.411 185.086 442.82 185.086C432.23 185.086 423.645 193.659 423.645 204.234C423.645 214.809 432.23 223.381 442.82 223.381Z" fill="#9F616A"/>
<path d="M466.257 243.753C466.257 243.753 474.78 244.462 475.49 248.717C476.2 252.972 475.49 265.737 475.49 265.737C475.49 265.737 481.172 282.757 475.49 287.012C469.808 291.267 454.894 291.976 454.894 291.976L466.257 243.753Z" fill="#6C63FF"/>
<path d="M393.816 340.2L386.003 352.965C386.003 352.965 388.844 408.989 389.554 410.407C390.119 411.24 390.37 412.244 390.265 413.244V421.045L392.395 489.125C392.395 489.125 386.714 491.962 393.816 494.089C400.918 496.217 410.151 496.926 411.571 489.834C412.991 482.742 413.059 423.662 412.992 421.754L413.702 418.917L425.065 377.076L451.343 435.228L466.968 500.471C466.968 500.471 490.615 503.198 486.353 493.979C482.092 484.76 471.939 416.081 471.939 416.081C471.939 416.081 469.808 408.989 469.808 407.571C469.808 406.152 469.098 405.443 469.098 404.025C469.098 402.606 468.388 398.351 468.388 398.351L463.416 353.674L393.816 340.2Z" fill="#2F2E41"/>
<path d="M423.645 226.419C423.645 226.419 424.071 227.477 455.638 231.404C455.638 231.404 473.359 243.044 474.069 245.88C474.78 248.717 460.575 284.884 460.575 284.884L459.155 312.542C459.155 312.542 466.254 324.501 462.706 361.475C451.608 362.09 406.673 347.502 395.591 341.263C393.908 340.316 389.984 344.494 390.265 343.745C392.395 338.072 390.265 338.781 392.395 337.363C394.526 335.945 398.077 286.303 398.077 286.303C398.077 286.303 393.816 232.406 398.787 230.988C403.759 229.569 423.645 226.419 423.645 226.419Z" fill="#6C63FF"/>
<path d="M400.918 231.697C400.918 231.697 392.395 230.988 390.265 238.079C388.134 245.171 370.379 272.119 373.93 274.956C377.481 277.793 404.469 287.721 405.179 287.012C405.889 286.303 400.918 231.697 400.918 231.697Z" fill="#6C63FF"/>
<path d="M465.15 192.024C464.346 189.032 463.212 186.042 460.901 183.976C458.56 181.898 455.555 180.716 452.423 180.642C448.85 178.574 444.839 177.375 440.715 177.141C436.591 176.908 432.47 177.647 428.685 179.298C428.276 178.472 427.613 177.798 426.794 177.373C426.566 179.343 426.338 181.312 426.11 183.281C425.229 182.619 424.348 181.957 423.467 181.295C423.424 182.461 423.381 183.626 423.337 184.792C422.53 184.099 421.722 183.406 420.915 182.713C420.743 186.84 424.183 190.413 428.072 191.82C431.962 193.227 436.227 192.967 440.359 192.772C442.4 192.676 444.724 192.711 446.101 194.218C447.544 195.796 447.272 198.215 447.308 200.352C447.357 203.357 450.447 201.885 451.996 204.462C452.552 205.386 453.219 206.336 453.199 207.414C453.052 208.39 452.698 209.324 452.159 210.152C451.018 212.504 448.75 219.824 449.833 222.203C451.837 221.083 453.841 219.963 455.845 218.844C455.845 218.844 469.046 206.503 465.15 192.024Z" fill="#2F2E41"/>
<path d="M543.224 522H304.93C304.724 522 304.527 521.918 304.381 521.773C304.236 521.627 304.154 521.43 304.154 521.225C304.154 521.019 304.236 520.822 304.381 520.677C304.527 520.531 304.724 520.45 304.93 520.45H543.224C543.43 520.45 543.627 520.531 543.773 520.677C543.918 520.822 544 521.019 544 521.225C544 521.43 543.918 521.627 543.773 521.773C543.627 521.918 543.43 522 543.224 522Z" fill="#CBCBCB"/>
<path d="M342.5 520.759C342.5 520.759 330.906 499.391 302.868 508.631L342.5 520.759Z" fill="#F1F1F1"/>
<path d="M343.199 520.237C343.199 520.237 328.861 502.039 349.556 479.336L343.199 520.237Z" fill="#F1F1F1"/>
</g>
<defs>
<clipPath id="clip0_1303_9609">
<rect width="544" height="522" fill="white"/>
</clipPath>
</defs>
</svg>
