<svg width="610" height="478" viewBox="0 0 610 478" fill="none" xmlns="http://www.w3.org/2000/svg">
<g clip-path="url(#clip0_1303_8884)">
<path opacity="0.1" d="M192.598 16.8688C209.163 2.06954 235.175 -0.9267 258.887 0.210394C333.305 3.91732 400.479 39.895 458.587 80.5972C479.625 95.3283 500.335 111.208 513.987 131.499C541.804 172.804 533.538 230.023 494.89 264.05C481.737 275.626 465.797 284.518 449.43 292.37C420.331 306.356 388.932 317.585 355.904 320.797C332.357 323.071 308.514 321.223 285.097 318.045C219.683 309.159 155.472 289.51 101.65 255.897C78.0452 241.155 55.7863 222.825 46.0675 198.974C36.3488 175.124 42.5649 144.9 66.6688 130.783C76.6374 124.944 88.5587 122.306 100.225 119.827C117.403 116.183 134.853 112.589 150.351 105.181C166.366 97.5285 185.321 82.7293 182.142 65.7866C178.747 47.6101 176.022 31.651 192.598 16.8688Z" fill="#6C63FF"/>
<path opacity="0.1" d="M261.663 472.224C303.405 472.224 337.244 461.614 337.244 448.527C337.244 435.439 303.405 424.83 261.663 424.83C219.92 424.83 186.081 435.439 186.081 448.527C186.081 461.614 219.92 472.224 261.663 472.224Z" fill="#6C63FF"/>
<path d="M416.652 204.813L419.394 350.771L425.224 351.459L423.027 204.233L416.652 204.813Z" fill="#F5C5CC"/>
<path d="M402.557 202.067L405.299 348.025L411.129 348.712L408.932 201.487L402.557 202.067Z" fill="#F5C5CC"/>
<path d="M406.002 194.437L406.286 353.63L412.247 353.062L409.976 191.31L406.002 194.437Z" fill="#CC929B"/>
<path d="M241.584 167.858L244.099 300.164L249.929 300.778L247.965 167.323L241.584 167.858Z" fill="#F5C5CC"/>
<path d="M244.95 165.385L247.834 303.087L249.929 300.778L247.965 167.323L244.95 165.385Z" fill="#CC929B"/>
<path d="M253.988 171.207L256.503 303.507L262.333 304.121L260.369 170.672L253.988 171.207Z" fill="#F5C5CC"/>
<path d="M257.354 168.728L260.244 306.43L262.333 304.121L260.369 170.672L257.354 168.728Z" fill="#CC929B"/>
<path d="M266.114 174.834L268.628 307.14L274.458 307.754L272.494 174.305L266.114 174.834Z" fill="#F5C5CC"/>
<path d="M269.48 172.366L272.37 310.063L274.459 307.754L272.494 174.305L269.48 172.366Z" fill="#CC929B"/>
<path d="M277.91 175.573L280.499 312.524L286.329 313.161L284.285 175.027L277.91 175.573Z" fill="#F5C5CC"/>
<path d="M281.271 173.014L284.24 315.549L286.329 313.161L284.285 175.027L281.271 173.014Z" fill="#CC929B"/>
<path d="M290.7 176.642L293.294 313.588L299.124 314.224L297.081 176.09L290.7 176.642Z" fill="#F5C5CC"/>
<path d="M294.066 174.083L297.035 316.612L299.124 314.224L297.081 176.09L294.066 174.083Z" fill="#CC929B"/>
<path d="M303.269 181.116L305.857 318.068L311.687 318.705L309.649 180.571L303.269 181.116Z" fill="#F5C5CC"/>
<path d="M306.629 178.558L309.598 321.093L311.687 318.705L309.649 180.571L306.629 178.558Z" fill="#CC929B"/>
<path d="M317.654 184.073L320.311 324.845L326.141 325.499L324.035 183.51L317.654 184.073Z" fill="#F5C5CC"/>
<path d="M321.014 181.446L324.052 327.955L326.141 325.499L324.035 183.51L321.014 181.446Z" fill="#CC929B"/>
<path d="M330.171 185.568L332.822 326.34L338.658 326.994L336.546 185.005L330.171 185.568Z" fill="#F5C5CC"/>
<path d="M333.532 182.936L336.569 329.45L338.658 326.994L336.546 185.005L333.532 182.936Z" fill="#CC929B"/>
<path d="M343.432 189.32L346.089 330.093L351.919 330.752L349.813 188.763L343.432 189.32Z" fill="#F5C5CC"/>
<path d="M346.799 186.694L349.83 333.208L351.919 330.752L349.813 188.763L346.799 186.694Z" fill="#CC929B"/>
<path d="M230.225 167.625L229.941 159.244L232.893 157.63L444.605 201.118L444.997 211.755L230.225 167.625Z" fill="#F5C5CC"/>
<path d="M232.893 157.63L445.383 201.084L445.167 205.069L230.378 159" fill="#CC929B"/>
<path d="M241.658 376.19L235.697 378.362H230.02L229.736 154.048L232.859 149.704L235.873 148.817L239.671 148.243L241.658 376.19Z" fill="#F5C5CC"/>
<path d="M241.658 376.19L235.697 378.362L235.328 154.491L235.873 148.817L239.671 148.243L241.658 376.19Z" fill="#CC929B"/>
<path d="M357.84 193.488L360.497 334.254L366.327 334.914L364.221 192.925L357.84 193.488Z" fill="#F5C5CC"/>
<path d="M361.201 190.855L364.238 337.37L366.327 334.914L364.221 192.925L361.201 190.855Z" fill="#CC929B"/>
<path d="M372.356 195.711L375.064 339.491L380.894 340.162L378.731 195.142L372.356 195.711Z" fill="#F5C5CC"/>
<path d="M387.303 198.343L390.045 344.3L395.875 344.988L393.684 197.763L387.303 198.343Z" fill="#F5C5CC"/>
<path d="M390.664 195.62L393.792 347.536L395.875 344.988L393.684 197.763L390.664 195.62Z" fill="#CC929B"/>
<path d="M159.059 333.163L153.099 333.731L152.821 176.704L152.815 174.538L156.789 171.411L156.851 175.766L159.059 333.163Z" fill="#F5C5CC"/>
<path d="M180.064 324.35L174.103 324.919L173.825 170.456L173.819 165.726L177.793 162.599L177.884 168.944L180.064 324.35Z" fill="#F5C5CC"/>
<path d="M214.693 310.137L208.732 310.705L208.46 158.192L208.448 151.512L212.422 148.385L212.547 157.243L214.693 310.137Z" fill="#F5C5CC"/>
<path d="M229.736 304.451L223.776 305.02L223.509 156.231L223.492 145.826L227.465 142.699L227.67 157.152L229.736 304.451Z" fill="#F5C5CC"/>
<path d="M169.562 331.457L163.601 332.026L163.317 173.97V172.833L167.291 169.706L167.331 172.702L169.562 331.457Z" fill="#F5C5CC"/>
<path d="M200.217 317.243L194.256 317.812L193.978 162.735L193.972 158.619L197.946 155.492L198.025 161.325L200.217 317.243Z" fill="#F5C5CC"/>
<path d="M190.282 320.086L184.321 320.655L184.049 166.516L184.038 161.461L188.011 158.334L188.102 164.918L190.282 320.086Z" fill="#F5C5CC"/>
<path d="M152.702 306.93L151.282 309.915C151.282 309.915 147.592 315.458 148.018 323.986C148.444 332.515 142.074 355.114 142.074 355.114C142.074 355.114 147.893 357.815 152.293 357.531C156.692 357.246 166.201 361.937 166.201 361.937L185.911 368.06L225.791 377.441C225.791 377.441 249.208 390.518 255.594 390.518C261.981 390.518 287.385 399.188 287.385 399.188C287.385 399.188 321.73 406.721 324.426 409.564C327.123 412.407 338.493 416.233 339.629 416.387C340.764 416.54 358.079 418.234 358.079 418.234C358.079 418.234 378.231 422.925 381.07 417.95C382.724 415.153 383.832 412.066 384.334 408.853C384.334 408.853 393.275 410.843 395.688 407.858C398.1 404.874 398.242 398.477 401.081 398.762C403.919 399.046 415.557 402.599 416.834 401.32C418.111 400.041 424.923 384.974 429.749 387.249C434.574 389.523 442.947 393.076 442.947 393.076L438.122 343.897L435.993 330.394C435.993 330.394 358.646 361.948 355.95 361.948C353.253 361.948 152.702 306.93 152.702 306.93Z" fill="#6C63FF"/>
<path d="M435.568 263.863L435.142 333.225L354.797 364.08L151.282 309.926C151.282 309.926 137.516 290.454 150.289 272.26C150.289 272.26 133.826 249.518 154.263 234.736L154.768 234.617L232.035 215.974L266.397 222.262L418.225 250.075C418.225 250.075 433.138 255.619 435.568 263.863Z" fill="#6C63FF"/>
<path opacity="0.1" d="M263.684 228.897C259.852 230.887 232.035 238.136 226.5 242.542C220.966 246.948 182.647 250.371 182.647 250.371L178.389 251.224C178.389 251.224 178.673 248.381 161.784 240.137C159.086 238.808 156.696 236.927 154.768 234.617L232.035 215.974L266.397 222.262C266.443 224.985 265.977 227.703 263.684 228.897Z" fill="black"/>
<path d="M146.883 201.476C146.883 201.476 145.463 229.05 162.352 237.294C179.241 245.538 178.974 248.37 178.974 248.37L183.232 247.517C183.232 247.517 168.472 231.029 169.465 228.186C170.459 225.343 156.266 210.988 154.263 210.419C152.259 209.851 146.883 201.476 146.883 201.476Z" fill="#6C63FF"/>
<path opacity="0.1" d="M147.184 201.891C147.184 201.891 145.764 229.465 162.653 237.709C179.542 245.953 179.258 248.796 179.258 248.796L183.515 247.943C183.515 247.943 168.756 231.455 169.749 228.613C170.743 225.77 156.533 211.414 154.564 210.845C152.594 210.277 147.184 201.891 147.184 201.891Z" fill="black"/>
<path opacity="0.1" d="M151.157 213.546C151.157 213.546 164.782 234.156 167.195 234.867C169.607 235.577 154.405 213.83 151.157 213.546Z" fill="black"/>
<path d="M144.913 197.627C144.913 197.627 153.712 190.52 154.847 189.099C155.983 187.677 168.472 187.109 168.898 187.109C169.323 187.109 178.832 181.281 189.476 179.433C200.12 177.586 204.378 176.733 204.378 176.733C204.378 176.733 219.989 170.194 220.841 168.773C221.692 167.352 228.93 165.788 237.871 172.753C246.812 179.718 266.539 210.988 266.681 214.399C266.823 217.81 268.1 224.064 264.269 226.054C260.437 228.044 232.62 235.293 227.085 239.699C221.55 244.106 183.215 247.528 183.215 247.528L168.756 231.74L161.092 219.374L148.319 205.871L144.913 197.627Z" fill="#6C63FF"/>
<path opacity="0.1" d="M168.642 320.387C168.642 320.387 163.346 321.525 166.371 324.555C169.397 327.585 168.642 320.387 168.642 320.387Z" fill="black"/>
<path opacity="0.1" d="M187.188 326.454C187.188 326.454 181.512 333.276 182.647 335.17C183.782 337.063 187.188 326.454 187.188 326.454Z" fill="black"/>
<path opacity="0.1" d="M220.494 335.17C220.494 335.17 214.818 341.992 215.953 343.885C217.088 345.779 220.494 335.17 220.494 335.17Z" fill="black"/>
<path opacity="0.1" d="M260.987 346.541C260.987 346.541 255.311 353.363 256.446 355.256C257.581 357.15 260.987 346.541 260.987 346.541Z" fill="black"/>
<path opacity="0.1" d="M315.485 360.186C315.485 360.186 309.808 367.008 310.944 368.902C312.079 370.795 315.485 360.186 315.485 360.186Z" fill="black"/>
<path opacity="0.1" d="M203.464 328.347C203.464 328.347 197.787 335.17 198.922 337.063C200.058 338.956 203.464 328.347 203.464 328.347Z" fill="black"/>
<path opacity="0.1" d="M282.559 352.226C282.559 352.226 276.882 359.049 278.018 360.942C279.153 362.835 282.559 352.226 282.559 352.226Z" fill="black"/>
<path opacity="0.1" d="M299.21 357.531C299.21 357.531 293.533 364.353 294.668 366.252C295.804 368.151 299.21 357.531 299.21 357.531Z" fill="black"/>
<path opacity="0.1" d="M235.254 339.718C235.254 339.718 229.578 346.541 230.713 348.434C231.848 350.327 235.254 339.718 235.254 339.718Z" fill="black"/>
<path opacity="0.1" d="M378.311 381.034L384.317 408.842C384.317 408.842 384.362 389.369 378.311 381.034Z" fill="black"/>
<path opacity="0.1" d="M396.851 385.202L401.064 398.762C401.064 398.762 400.638 393.542 396.851 385.202Z" fill="black"/>
<path opacity="0.1" d="M416.834 401.309C416.834 401.309 407.847 368.526 405.951 366.252C404.055 363.978 411.424 399.228 416.834 401.309Z" fill="black"/>
<path opacity="0.1" d="M427.506 385.958C427.506 385.958 416.913 367.389 421.075 363.978C425.236 360.567 427.506 385.958 427.506 385.958Z" fill="black"/>
<path opacity="0.1" d="M150.289 272.249L355.978 318.494L435.079 295.372L355.223 316.22C355.223 316.22 156.533 270.355 150.289 272.249Z" fill="black"/>
<path d="M156.505 222.012L156.789 354.341L162.608 355.052L162.892 221.585L156.505 222.012Z" fill="#F5C5CC"/>
<path d="M159.911 219.595L160.479 357.326L162.608 355.052L162.891 221.585L159.911 219.595Z" fill="#CC929B"/>
<path d="M168.852 225.565L169.136 357.895L174.955 358.605L175.239 225.139L168.852 225.565Z" fill="#F5C5CC"/>
<path d="M172.258 223.149L172.826 360.879L174.955 358.605L175.239 225.139L172.258 223.149Z" fill="#CC929B"/>
<path d="M180.916 229.403L181.199 361.732L187.018 362.443L187.302 228.977L180.916 229.403Z" fill="#F5C5CC"/>
<path d="M184.322 226.987L184.889 364.717L187.018 362.443L187.302 228.976L184.322 226.987Z" fill="#CC929B"/>
<path d="M192.695 230.341L192.979 367.315L198.797 368.049L199.081 229.897L192.695 230.341Z" fill="#F5C5CC"/>
<path d="M196.101 227.839L196.669 370.402L198.798 368.049L199.081 229.897L196.101 227.839Z" fill="#CC929B"/>
<path d="M205.468 231.62L205.752 368.594L211.57 369.328L211.854 231.177L205.468 231.62Z" fill="#F5C5CC"/>
<path d="M208.874 229.119L209.442 371.682L211.571 369.328L211.854 231.177L208.874 229.119Z" fill="#CC929B"/>
<path d="M217.957 236.311L218.241 373.285L224.059 374.018L224.343 235.867L217.957 236.311Z" fill="#F5C5CC"/>
<path d="M221.363 233.809L221.931 376.372L224.06 374.018L224.343 235.867L221.363 233.809Z" fill="#CC929B"/>
<path d="M235.697 236.936L236.265 383.479L238.394 381.057L238.677 239.051L235.697 236.936Z" fill="#CC929B"/>
<path d="M244.78 241.212L245.064 382.007L250.883 382.763L251.166 240.757L244.78 241.212Z" fill="#F5C5CC"/>
<path d="M248.186 238.642L248.754 385.185L250.883 382.763L251.166 240.757L248.186 238.642Z" fill="#CC929B"/>
<path d="M257.979 245.191L258.263 385.986L264.081 386.742L264.365 244.737L257.979 245.191Z" fill="#F5C5CC"/>
<path d="M261.385 242.622L261.952 389.165L264.081 386.743L264.365 244.737L261.385 242.622Z" fill="#CC929B"/>
<path d="M272.313 249.598L272.597 390.393L278.415 391.149L278.699 249.143L272.313 249.598Z" fill="#F5C5CC"/>
<path d="M275.719 247.028L276.286 393.571L278.415 391.149L278.699 249.143L275.719 247.028Z" fill="#CC929B"/>
<path d="M286.789 252.071L287.072 395.868L292.891 396.641L293.175 251.605L286.789 252.071Z" fill="#F5C5CC"/>
<path d="M290.195 249.444L290.763 399.114L292.891 396.641L293.175 251.605L290.195 249.444Z" fill="#CC929B"/>
<path d="M301.69 254.953L301.974 400.939L307.793 401.724L308.077 254.481L301.69 254.953Z" fill="#CC929B"/>
<path d="M316.876 258.933L317.16 404.919L322.979 405.704L323.262 258.461L316.876 258.933Z" fill="#F5C5CC"/>
<path d="M320.282 256.267L320.85 408.211L322.979 405.704L323.262 258.461L320.282 256.267Z" fill="#CC929B"/>
<path d="M330.926 261.918L331.21 407.904L337.029 408.689L337.313 261.446L330.926 261.918Z" fill="#CC929B"/>
<path d="M148.841 380.068L142.881 382.342H137.204L136.92 173.685L140.042 169.137L143.057 168.21L147.422 166.863L148.841 380.068Z" fill="#F5C5CC"/>
<path d="M148.841 380.068L142.88 382.342L142.511 174.146L143.056 168.21L147.422 166.863L148.841 380.068Z" fill="#CC929B"/>
<path d="M143.448 388.88C147.21 388.88 150.26 385.826 150.26 382.058C150.26 378.29 147.21 375.235 143.448 375.235C139.686 375.235 136.636 378.29 136.636 382.058C136.636 385.826 139.686 388.88 143.448 388.88Z" fill="#40414D"/>
<path d="M453.688 412.009L447.727 414.181H442.05L441.767 184.749L444.889 185.522L447.903 184.636L452.269 183.351L453.688 412.009Z" fill="#F5C5CC"/>
<path d="M453.688 412.009L447.727 414.181L447.358 190.31L447.903 184.636L452.269 183.351L453.688 412.009Z" fill="#CC929B"/>
<path d="M371.09 368.981L365.129 369.55L364.857 216.275L364.845 210.356L368.819 207.229L368.933 215.4L371.09 368.981Z" fill="#F5C5CC"/>
<path d="M392.094 360.169L386.133 360.737L385.867 210.294L385.85 201.544L389.823 198.417L389.971 208.799L392.094 360.169Z" fill="#F5C5CC"/>
<path d="M426.723 345.955L420.762 346.523L420.496 196.433L420.479 187.33L424.452 184.203L424.6 194.727L426.723 345.955Z" fill="#F5C5CC"/>
<path d="M435.522 181.645L435.806 340.838L441.766 340.27L439.496 178.518L435.522 181.645Z" fill="#F5C5CC"/>
<path d="M381.592 367.275L375.631 367.844L375.359 213.7L375.347 208.651L379.321 205.524L379.418 212.466L381.592 367.275Z" fill="#F5C5CC"/>
<path d="M402.312 355.905L396.352 356.473L396.085 206.428L396.068 197.28L400.042 194.153L400.189 204.774L402.312 355.905Z" fill="#F5C5CC"/>
<path d="M413.854 352.112L407.893 352.681L407.626 202.636V201.743L407.609 193.488L411.583 190.361L411.719 200.06L411.731 200.981L413.854 352.112Z" fill="#F5C5CC"/>
<path d="M359.168 367.941L441.483 332.878L447.16 334.203L447.347 347.28L360.684 380.824L359.168 367.941Z" fill="#F5C5CC"/>
<path d="M441.483 332.878L359.168 367.941L446.853 334.129" fill="#CC929B"/>
<path d="M145.906 349.366L353.492 412.475L353.111 422.709L145.151 358.463L145.906 349.366Z" fill="#F5C5CC"/>
<path d="M362.575 448.293L356.614 450.568H350.937L350.653 216.895V215.758L351.096 215.11L353.776 211.209L356.79 210.283L361.155 208.935L361.201 216.895L362.575 448.293Z" fill="#F5C5CC"/>
<path d="M362.575 448.293L356.614 450.568L356.245 216.218L356.79 210.283L361.155 208.935L362.575 448.293Z" fill="#CC929B"/>
<path opacity="0.1" d="M361.156 208.935L361.201 216.895C359.558 217.135 357.904 217.291 356.245 217.361C352.158 217.52 350.653 216.901 350.653 216.901C350.653 216.821 350.812 216.184 351.096 215.121L353.776 211.221L356.79 210.294L361.156 208.935Z" fill="black"/>
<path opacity="0.1" d="M368.819 207.229L368.933 215.4C367.468 215.741 366.109 216.033 364.857 216.275V210.357L368.819 207.229Z" fill="black"/>
<path opacity="0.1" d="M379.321 205.524L379.418 212.466C378.004 212.915 376.648 213.324 375.359 213.7V208.651L379.321 205.524Z" fill="black"/>
<path opacity="0.1" d="M389.823 198.417L389.971 208.799C388.552 209.326 387.184 209.824 385.867 210.294V201.544L389.823 198.417Z" fill="black"/>
<path opacity="0.1" d="M400.042 194.153L400.189 204.774L396.919 206.093L396.085 206.428V197.28L400.042 194.153Z" fill="black"/>
<path opacity="0.1" d="M424.6 194.727L420.495 196.433V187.336L424.469 184.209L424.6 194.727Z" fill="black"/>
<path opacity="0.1" d="M411.725 200.06L407.632 201.766V193.511L411.605 190.384L411.725 200.06Z" fill="black"/>
<path d="M455.675 188.468C455.675 188.468 445.173 188.468 442.334 187.615C439.496 186.762 433.535 190.173 396.92 204.955C374.78 213.899 362.49 215.974 356.245 216.218C352.158 216.378 350.653 215.758 350.653 215.758C350.653 215.758 358.13 181.406 381.938 174.987C384.593 174.263 387.203 173.384 389.755 172.355L390.215 172.179C392.215 171.403 394.265 170.767 396.352 170.274C403.993 168.517 409.448 165.157 423.26 165.055C431.83 164.911 440.193 167.69 446.978 172.935C451.713 176.665 455.794 181.821 455.675 188.468Z" fill="#CC929B"/>
<path d="M391.243 171.98C361.78 184.704 357.284 208.486 356.245 216.218C352.158 216.378 350.653 215.758 350.653 215.758C350.653 215.758 358.13 181.406 381.938 174.987C384.593 174.263 387.203 173.384 389.755 172.355L390.215 172.179C390.556 172.128 390.896 172.059 391.243 171.98Z" fill="#F5C5CC"/>
<path opacity="0.1" d="M156.789 171.411L156.851 175.766C155.415 176.124 154.075 176.437 152.821 176.704V174.538L156.789 171.411Z" fill="black"/>
<path opacity="0.1" d="M167.291 169.706L167.331 172.702C165.934 173.164 164.596 173.587 163.317 173.97V172.833L167.291 169.706Z" fill="black"/>
<path opacity="0.1" d="M177.793 162.599L177.884 168.944C176.487 169.478 175.134 169.982 173.825 170.456V165.726L177.793 162.599Z" fill="black"/>
<path opacity="0.1" d="M188.012 158.334L188.102 164.918C186.797 165.422 185.446 165.955 184.049 166.516V161.461L188.012 158.334Z" fill="black"/>
<path opacity="0.1" d="M197.946 155.492L198.025 161.325C196.739 161.757 195.389 162.227 193.978 162.735V158.619L197.946 155.492Z" fill="black"/>
<path opacity="0.1" d="M212.422 148.385L212.547 157.243C211.292 157.505 209.935 157.812 208.459 158.192V151.512L212.422 148.385Z" fill="black"/>
<path opacity="0.1" d="M227.67 157.129C226.334 156.625 224.933 156.315 223.509 156.208V145.804L227.483 142.677L227.67 157.129Z" fill="black"/>
<path d="M241.942 157.197C241.942 157.197 231.439 157.197 228.601 156.345C225.763 155.492 219.802 150.943 183.186 165.726C161.047 174.669 148.756 176.744 142.512 176.989C138.424 177.148 136.92 176.528 136.92 176.528C136.92 176.528 142.557 146.679 167.416 141.642C168.803 141.371 170.174 141.02 171.52 140.59C173.047 140.09 175.454 139.373 178.69 138.629C187.035 136.707 200.87 134.598 219.257 135.49C225.63 135.729 231.675 138.383 236.168 142.916C238.048 144.779 239.53 147.006 240.523 149.461C241.515 151.917 241.998 154.549 241.942 157.197Z" fill="#CC929B"/>
<path d="M178.69 138.629C149.227 151.353 143.55 169.256 142.512 176.989C138.424 177.148 136.92 176.528 136.92 176.528C136.92 176.528 142.557 146.679 167.416 141.642C168.803 141.371 170.174 141.02 171.52 140.59C173.047 140.073 175.454 139.373 178.69 138.629Z" fill="#F5C5CC"/>
<path d="M145.151 221.585L145.009 213.199L147.99 211.636L351.788 257.404L351.221 268.064L145.151 221.585Z" fill="#F5C5CC"/>
<path d="M147.99 211.636L351.789 257.404L351.505 261.384L145.452 212.966" fill="#CC929B"/>
<path d="M447.727 421.003C451.49 421.003 454.539 417.949 454.539 414.181C454.539 410.413 451.49 407.358 447.727 407.358C443.965 407.358 440.915 410.413 440.915 414.181C440.915 417.949 443.965 421.003 447.727 421.003Z" fill="#40414D"/>
<path d="M357.466 459.664C361.228 459.664 364.278 456.61 364.278 452.842C364.278 449.074 361.228 446.019 357.466 446.019C353.703 446.019 350.653 449.074 350.653 452.842C350.653 456.61 353.703 459.664 357.466 459.664Z" fill="#40414D"/>
<path d="M152.912 312.598C152.912 312.598 146.854 319.421 144.964 325.487C143.074 331.554 147.235 354.296 147.235 354.296C149.368 350.512 150.9 346.419 151.776 342.163C153.286 334.965 152.912 312.598 152.912 312.598Z" fill="#6C63FF"/>
<path d="M440.347 369.265C440.347 369.265 444.037 388.027 444.321 390.87C444.605 393.713 434.954 389.449 434.954 389.449L440.347 369.265Z" fill="#6C63FF"/>
<path d="M328.513 137.122H328.417C328.394 136.929 328.321 136.745 328.207 136.588C327.948 136.284 327.626 136.04 327.265 135.871L324.602 134.387L326.901 135.223C326.793 135.038 326.674 134.859 326.544 134.689L326.81 134.837L326.629 134.581L326.385 134.495C325.158 133.057 323.115 132.46 321.134 132.488H321.168C321.423 132.454 321.684 132.432 321.94 132.415C321.372 132.379 320.802 132.396 320.237 132.466C320.3 132.493 320.367 132.512 320.435 132.523C320.254 132.523 320.072 132.557 319.868 132.579C319.576 132.659 319.268 132.659 318.976 132.579C318.797 132.488 318.641 132.355 318.521 132.192C318.402 132.029 318.323 131.841 318.289 131.641C318.006 130.504 318.454 129.282 318.585 128.094C318.649 127.536 318.589 126.971 318.409 126.439C318.409 126.325 318.409 126.212 318.409 126.098C318.315 125.846 318.163 125.621 317.966 125.439C317.769 125.257 317.531 125.124 317.273 125.052C317.271 125.095 317.271 125.139 317.273 125.183L317.177 125.143C317.177 126.161 317.177 127.184 317.177 128.202C316.295 127.505 315.514 126.69 314.855 125.78C314.737 125.641 314.657 125.475 314.622 125.296C314.565 124.779 315.224 124.421 315.264 123.898C315.261 123.73 315.205 123.567 315.103 123.434C315 123.3 314.858 123.204 314.696 123.159L314.866 123.096C314.664 123.002 314.441 122.963 314.219 122.982C313.733 123.093 313.255 123.238 312.789 123.414L312.936 123.443C312.826 123.479 312.714 123.51 312.601 123.534C311.176 123.83 309.905 122.692 308.877 121.663L308.656 121.442C308.168 117.16 307.379 112.254 307.379 112.254C307.379 112.254 306.669 106.648 305.676 103.635C304.682 100.621 303.252 95.2998 303.252 95.2998C303.252 95.2998 299.982 88.8355 299.278 88.5512C299.003 88.4139 298.736 88.262 298.477 88.0963C298.17 87.1295 297.98 86.1293 297.91 85.1171C297.734 79.4658 303.762 75.4519 304.671 69.8517C305.414 65.3033 302.553 60.7549 302.968 56.144C303.161 54.1257 303.972 52.2267 304.41 50.2482C304.825 48.3288 304.88 46.349 304.574 44.4092C304.43 43.3662 304.115 42.354 303.643 41.413C304.468 40.3452 305.157 39.1782 305.693 37.9391C306.612 35.3125 305.619 32.3788 304.183 29.9795C299.567 22.3439 290.217 16.3344 281.475 15.5555C277.95 15.2314 274.413 15.1688 270.882 15.112C266.829 15.0381 262.639 14.9926 258.893 16.5618C251.445 19.6831 247.919 28.0237 243.395 34.7553C239.657 40.3226 234.871 45.1063 229.305 48.8382C226.688 50.5893 223.628 52.4541 223.015 55.5641C222.957 55.8623 222.921 56.1645 222.907 56.4681C222.831 56.1948 222.768 55.9177 222.72 55.638C222.101 58.8844 224.389 61.892 225.558 64.9906C226.169 66.61 226.522 68.3157 226.603 70.045C226.648 69.2269 226.648 68.4069 226.603 67.5889C227.738 73.4904 225.655 79.824 224.366 85.8563C224.27 86.2997 224.196 86.7432 224.105 87.1867C223.047 87.482 222.04 87.9364 221.119 88.5341C219.097 89.8816 216.808 90.7738 214.409 91.1494C211.19 91.6557 208.295 93.3971 206.336 96.0048C205.973 96.4938 205.621 96.8292 205.315 96.8633C204.037 97.0112 196.918 119.275 196.918 119.275C196.918 119.275 195.437 128.446 195.437 130.595C195.437 132.744 192.877 148.266 192.877 148.266C192.877 148.266 192.019 151.108 192.309 152.285C192.473 152.939 192.082 155.128 191.713 156.89C191.558 156.826 191.422 156.725 191.315 156.595C190.89 155.736 183.056 156.595 185.48 162.343C186.082 163.889 187.019 165.283 188.222 166.425C187.143 169.131 186.206 171.65 186.331 171.968C186.331 171.968 186.331 174.021 186.513 176.557C184.849 177.694 183.487 178.717 183.487 178.717C183.368 181.855 185.457 182.356 187.421 182.242C187.926 184.061 188.664 185.505 189.749 185.898C193.308 187.194 195.584 186.62 196.725 187.603C197.866 188.587 203.952 190.497 203.952 190.497C206.537 190.887 209.14 191.136 211.752 191.242L212.797 191.765L212.672 191.197C213.007 191.134 212.853 190.736 212.433 190.06C212.246 189.19 212.008 188.053 211.741 186.756L213.302 186.188L213.728 186.819C213.16 189.798 212.797 191.782 212.797 191.782C212.797 191.782 209.958 201.982 211.23 203.563C212.501 205.143 211.23 207.156 211.23 207.156C211.23 207.156 210.946 209.737 211.661 209.737C212.377 209.737 213.222 213.04 212.513 213.188C211.803 213.336 208.539 216.059 209.674 216.633C210.81 217.208 209.674 218.498 209.674 219.795C209.674 220.738 211.411 222.137 212.354 222.825C212.184 223.439 212.008 224.093 211.843 224.735C211.355 226.634 210.974 228.465 211.094 229.13C211.377 230.711 210.384 235.162 210.668 236.601C210.952 238.039 211.951 241.195 211.235 242.491C210.52 243.787 211.377 248.091 211.377 248.091L212.66 260.298C212.66 260.298 211.809 263.749 212.66 264.607C213.512 265.466 214.227 275.529 215.079 276.678C215.93 277.826 217.219 283.858 216.214 285.871C215.209 287.884 217.497 292.045 217.497 292.045C217.497 292.045 217.355 296.929 217.355 298.22C217.355 299.51 218.632 301.523 218.632 301.523C218.632 301.523 219.915 308.42 219.768 310.142C219.62 311.865 220.619 314.31 220.619 314.31C220.619 314.31 221.477 319.336 221.335 320.484C221.193 321.633 222.47 323.213 222.47 323.213C222.47 323.213 224.037 326.948 223.605 328.529C223.174 330.11 224.599 331.69 224.599 331.69C224.599 331.69 224.457 335.136 224.457 335.568C224.457 336 227.449 339.445 227.449 339.445C227.449 339.445 226.166 342.032 226.881 343.038C227.596 344.045 227.449 347.632 228.584 348.786C229.719 349.941 229.435 354.671 230.855 355.535C232.274 356.399 233.557 357.116 233.841 358.98C234.125 360.845 235.266 363.58 236.549 364.012C236.792 364.18 237.004 364.389 237.173 364.632L236.605 367.048L234.851 374.354C234.851 374.354 233.148 384.98 233.284 386.561C233.421 388.141 231.581 389.722 231.581 389.722C231.581 389.722 230.014 398.915 229.731 400.064C229.447 401.212 229.873 403.367 229.873 403.367C229.873 403.367 228.879 408.825 229.589 409.115C230.298 409.405 233.29 412.418 233.29 412.418H233.523L233.216 413.498L228.306 430.953C228.306 430.953 223.764 438.566 234.289 442.443C234.641 443.125 234.965 443.142 234.584 443.012C234.931 443.307 241.964 449.266 242.532 452.057C243.1 454.849 247.942 457.8 249.651 458.089C251.359 458.379 262.747 467.567 266.874 458.522C271.001 449.476 259.614 443.58 259.614 443.58L250.945 437.991C250.945 437.991 246.534 431.527 245.836 430.379C245.138 429.23 243.843 423.624 244.7 422.766C245.138 422.322 246.506 418.388 247.743 414.647C247.857 414.289 247.976 413.936 248.09 413.584C250.508 414.152 253.244 413.015 253.244 413.015L259.585 402.997L260.721 401.241L260.925 401.65C260.925 401.65 266.193 402.082 268.753 402.514C269.567 402.547 270.38 402.445 271.16 402.213C271.257 402.423 271.353 402.639 271.444 402.855C272.065 404.187 272.593 405.56 273.022 406.966C273.448 408.831 273.88 415.437 273.88 415.437C273.88 415.437 271.041 424.92 270.32 426.643C269.599 428.366 271.03 442.733 285.125 436.985C285.125 436.985 286.828 434.256 288.395 434.256C289.962 434.256 293.805 430.379 292.369 426.211C290.933 422.044 284.989 409.263 289.099 402.514C292.414 397.079 292.148 389.79 287.691 386.401C287.504 386.259 287.305 386.134 287.124 386.009C287.172 385.286 287.172 384.56 287.124 383.837C286.124 370.05 279.744 369.328 279.744 369.328C279.744 369.328 276.042 368.469 275.617 367.054C275.367 366.224 272.159 361.937 269.503 358.452C269.593 358.304 269.679 358.156 269.764 358.008C269.764 357.957 269.821 357.906 269.843 357.855C269.968 357.622 270.087 357.383 270.201 357.133C272.267 352.482 271.734 345.716 271.626 344.505C271.484 342.925 271.626 340.912 271.626 338.615C271.626 336.318 273.897 332.867 273.618 331.576C273.34 330.286 276.326 324.97 276.326 323.674C276.326 322.377 278.421 314.617 278.421 314.617C278.421 314.617 282.548 305.708 283.405 303.121C284.223 300.642 298.801 255.454 299.982 251.792C300.004 251.711 300.03 251.632 300.061 251.554C300.061 251.554 304.716 236.299 301.6 226.282C301.397 225.62 301.153 224.973 300.867 224.343C301.821 223.882 302.479 223.547 302.479 223.547C302.479 223.547 300.629 218.089 301.48 216.076C302.332 214.064 301.764 210.186 301.764 210.186C301.764 210.186 298.358 208.173 298.21 207.315C298.063 206.456 296.644 205.302 297.075 204.154C297.507 203.005 299.914 203.585 299.635 200.993C299.357 198.4 296.365 195.677 296.649 194.096C296.933 192.516 298.069 189.644 296.649 187.922C295.23 186.199 294.657 183.47 294.515 181.315C294.475 180.747 294.6 179.07 294.799 176.858C296.316 177.804 297.883 178.667 299.493 179.445C299.493 179.445 305.613 180.309 305.903 179.735C306.45 179.003 307.07 178.329 307.753 177.722C315.44 175.857 312.022 161.803 312.022 161.803C312.022 161.803 311.909 160.774 311.727 159.079C311.92 159.031 312.102 158.944 312.261 158.824C312.913 158.346 313.072 157.436 313.47 156.72C313.922 156.043 314.452 155.421 315.048 154.866C316.456 153.331 317.29 151.37 318.096 149.443C318.607 148.214 319.13 146.986 319.646 145.753C320.163 144.519 320.782 143.046 321.917 142.154C323.223 141.102 324.994 140.897 326.657 140.744C326.59 139.468 326.114 138.248 325.3 137.264C325.8 137.111 326.328 137.072 326.845 137.151C327.362 137.23 327.855 137.424 328.286 137.719C328.309 137.68 328.33 137.641 328.349 137.6H328.383C328.478 137.459 328.524 137.291 328.513 137.122ZM206.955 176.46C206.989 176.176 207.04 175.891 207.103 175.607C207.381 175.346 207.716 175.039 208.073 174.754L210.06 174.948C209.572 175.346 209.146 175.709 208.8 176.005C208.187 175.692 207.517 175.999 206.955 176.46ZM210.929 172.52C211.21 172.499 211.487 172.44 211.752 172.344C212.132 172.344 212.524 172.344 212.921 172.344H213.489C212.541 173.009 211.582 173.748 210.73 174.436L210.929 172.565V172.52ZM214.204 143.524C214.204 143.524 214.074 147.606 214.363 151.711C213.921 152.024 213.461 152.365 213.007 152.723L214.011 143.257L214.204 143.524Z" fill="url(#paint0_linear_1303_8884)"/>
<path d="M288.35 433.653C286.789 433.653 285.085 436.354 285.085 436.354C271.035 442.039 269.616 427.826 270.326 426.12C271.035 424.414 273.874 415.033 273.874 415.033C273.874 415.033 273.448 408.495 273.022 406.647C272.592 405.258 272.066 403.899 271.45 402.582C270.496 400.405 269.474 398.261 269.474 398.261C269.474 398.261 275.577 383.195 283.666 384.616C285.108 384.858 286.471 385.443 287.64 386.322C292.085 389.676 292.352 396.891 289.042 402.241C284.927 408.921 290.887 421.572 292.306 425.694C293.726 429.816 289.911 433.653 288.35 433.653Z" fill="#FDC2CC"/>
<path d="M266.92 457.674C262.804 466.629 251.45 457.532 249.747 457.248C248.044 456.964 243.219 454.121 242.651 451.278C242.084 448.436 235.061 442.619 234.704 442.329C235.084 442.449 234.76 442.432 234.408 441.761C223.906 437.923 228.448 430.39 228.448 430.39L233.341 413.117L234.692 408.359L250.02 407.364C250.02 407.364 248.97 410.724 247.8 414.255C246.568 417.956 245.206 421.85 244.769 422.288C243.917 423.141 245.194 428.684 245.904 429.821C246.614 430.958 251.013 437.355 251.013 437.355L259.67 442.898C259.67 442.898 271.035 448.72 266.92 457.674Z" fill="#FDC2CC"/>
<path opacity="0.1" d="M250.031 407.358C250.031 407.358 248.981 410.718 247.811 414.249C247.011 414.019 246.3 413.548 245.773 412.901L233.426 413.186L233.353 413.112L234.704 408.353L250.031 407.358Z" fill="black"/>
<path d="M299.987 252.856C299.987 252.856 299.987 252.935 299.913 253.089C298.733 256.71 284.2 301.415 283.382 303.883C282.531 306.441 278.415 315.254 278.415 315.254C278.415 315.254 276.286 322.929 276.286 324.208C276.286 325.487 273.306 330.746 273.59 332.026C273.874 333.305 271.603 336.716 271.603 338.99C271.603 341.265 271.461 343.255 271.603 344.818C271.711 346.018 272.239 352.715 270.178 357.326C269.729 358.399 269.062 359.367 268.22 360.169C267.99 360.377 267.745 360.567 267.487 360.737C262.378 364.149 261.952 399.114 261.952 399.114L261.714 399.49L259.642 402.742L253.295 412.634C253.295 412.634 248.186 414.766 245.773 411.781L233.426 412.066C233.426 412.066 230.446 409.081 229.736 408.797C229.027 408.512 230.02 403.111 230.02 403.111C230.02 403.111 229.594 400.979 229.878 399.842C230.162 398.705 231.723 389.608 231.723 389.608C231.723 389.608 233.568 388.045 233.426 386.481C233.284 384.918 234.987 374.4 234.987 374.4L236.736 367.173L237.599 363.608L239.387 356.217L251.45 249.473L266.778 244.782L296.297 246.204L299.533 252.06L299.987 252.856Z" fill="#5F5D7E"/>
<path opacity="0.1" d="M258.404 305.304C258.262 308.004 257.553 312.126 257.837 314.543C258.12 316.959 259.114 326.056 258.688 327.761C258.262 329.467 260.249 331.457 260.959 332.31C261.668 333.163 261.243 335.721 261.385 337.711C261.527 339.701 263.372 341.549 263.372 341.549C263.372 341.549 261.243 346.097 262.804 346.808C264.365 347.518 267.629 354.057 267.629 354.057C267.629 354.057 268.725 355.438 270.178 357.314C269.622 358.684 268.689 359.867 267.487 360.726C262.378 364.137 261.952 399.103 261.952 399.103L261.714 399.478L258.546 393.133C258.546 393.133 239.671 364.563 238.393 364.137C238.086 364.016 237.813 363.821 237.599 363.568L239.387 356.177L251.45 249.433L266.778 244.742L296.297 246.164L280.754 247.727C280.754 247.727 273.845 252.69 273.8 252.844L261.385 258.103L259.114 292.216C259.114 292.216 258.546 302.603 258.404 305.304Z" fill="black"/>
<path opacity="0.1" d="M299.533 252.031C299.141 253.612 258.262 248.876 258.262 248.876L258.546 259.82L256.276 293.933C256.276 293.933 255.708 304.309 255.566 307.01C255.424 309.71 254.714 313.832 254.998 316.249C255.282 318.665 256.276 327.762 255.85 329.467C255.424 331.173 257.411 333.163 258.12 334.016C258.83 334.868 258.404 337.427 258.546 339.417C258.688 341.407 260.533 343.255 260.533 343.255C260.533 343.255 258.404 347.803 259.965 348.514C261.527 349.224 264.791 355.763 264.791 355.763C264.791 355.763 266.352 357.735 268.197 360.157C267.968 360.365 267.723 360.555 267.465 360.726C262.355 364.137 261.93 399.103 261.93 399.103L261.691 399.478L259.642 402.742L255.708 394.867C255.708 394.867 241.147 372.825 236.736 367.173L237.599 363.608L239.387 356.217L251.45 249.473L266.778 244.782L296.297 246.204L299.533 252.031Z" fill="black"/>
<path opacity="0.1" d="M287.657 386.299C287.089 396.476 276.383 401.456 271.45 402.582C270.496 400.405 269.474 398.261 269.474 398.261C269.474 398.261 275.577 383.195 283.666 384.616C285.112 384.848 286.481 385.426 287.657 386.299Z" fill="black"/>
<path d="M256.701 305.304C256.559 308.005 255.85 312.127 256.134 314.543C256.418 316.959 257.411 326.056 256.985 327.762C256.559 329.467 258.546 331.457 259.256 332.31C259.966 333.163 259.54 335.721 259.682 337.711C259.824 339.701 261.669 341.549 261.669 341.549C261.669 341.549 259.54 346.097 261.101 346.808C262.662 347.519 265.926 354.057 265.926 354.057C265.926 354.057 275.151 365.712 275.577 367.133C276.003 368.555 279.693 369.408 279.693 369.408C279.693 369.408 286.079 370.118 287.073 383.763C288.066 397.409 271.319 402.668 268.765 402.241C266.21 401.815 260.959 401.388 260.959 401.388L256.843 393.144C256.843 393.144 237.968 364.575 236.691 364.149C235.413 363.722 234.278 361.022 233.994 359.174C233.71 357.326 232.433 356.615 231.014 355.762C229.594 354.91 229.878 350.219 228.743 349.082C227.608 347.945 227.75 344.392 227.04 343.397C226.33 342.402 227.608 339.843 227.608 339.843C227.608 339.843 224.627 336.432 224.627 336.005C224.627 335.579 224.769 332.168 224.769 332.168C224.769 332.168 223.35 330.604 223.776 329.041C224.201 327.477 222.64 323.782 222.64 323.782C222.64 323.782 221.363 322.218 221.505 321.081C221.647 319.944 220.795 314.969 220.795 314.969C220.795 314.969 219.802 312.553 219.944 310.847C220.086 309.142 218.808 302.319 218.808 302.319C218.808 302.319 217.531 300.329 217.531 299.05C217.531 297.771 217.673 292.938 217.673 292.938C217.673 292.938 215.402 288.816 216.396 286.826C217.389 284.836 216.112 278.867 215.26 277.729C214.409 276.592 213.699 266.643 212.848 265.79C211.996 264.937 212.848 261.526 212.848 261.526L211.571 249.444C211.571 249.444 210.719 245.18 211.429 243.901C212.138 242.622 211.145 239.495 210.861 238.073C210.577 236.652 211.571 232.246 211.287 230.682C211.167 230.023 211.548 228.215 212.03 226.333C212.7 223.74 213.557 221.017 213.557 221.017C213.557 221.017 286.505 214.194 297.007 221.301C299.278 222.825 300.68 225.139 301.548 227.845C304.654 237.761 300.01 252.861 300.01 252.861L259.704 258.12L257.434 292.233C257.434 292.233 256.843 302.603 256.701 305.304Z" fill="#5F5D7E"/>
<path opacity="0.1" d="M245.064 355.905C245.064 355.905 257.695 352.067 260.675 354.625C263.655 357.184 245.064 355.905 245.064 355.905Z" fill="black"/>
<path opacity="0.1" d="M249.605 372.108C249.605 372.108 253.437 367.986 259.114 369.265C262.444 370.043 265.938 369.693 269.048 368.271L249.605 372.108Z" fill="black"/>
<path opacity="0.1" d="M262.946 376.799C262.946 376.799 273.306 375.377 273.732 376.656C274.158 377.936 262.946 376.799 262.946 376.799Z" fill="black"/>
<path opacity="0.1" d="M259.966 385.185C259.966 385.185 271.461 381.773 272.029 383.195C272.597 384.616 259.398 385.043 259.398 385.043L259.966 385.185Z" fill="black"/>
<path opacity="0.1" d="M272.88 308.573C272.88 308.573 262.094 318.096 263.655 319.091C265.217 320.086 272.88 308.573 272.88 308.573Z" fill="black"/>
<path opacity="0.1" d="M264.081 332.168C264.081 332.168 271.603 332.168 270.184 333.873C268.765 335.579 264.081 332.168 264.081 332.168Z" fill="black"/>
<path opacity="0.1" d="M268.623 338.848C268.623 338.848 265.642 341.407 266.352 341.975C267.062 342.544 268.623 338.848 268.623 338.848Z" fill="black"/>
<path opacity="0.1" d="M235.839 399.825C235.839 399.825 245.206 402.952 245.348 404.942C245.49 406.932 235.839 399.825 235.839 399.825Z" fill="black"/>
<path d="M281.254 102.617L278.273 120.384C278.273 120.384 252.444 134.029 252.018 134.029C251.592 134.029 233.142 130.902 232.433 130.902C231.723 130.902 219.66 94.3731 228.175 92.0989C230.48 91.4848 233.824 90.0066 237.474 88.1702C247.317 83.2409 259.398 75.7531 259.398 75.7531C259.398 75.7531 277.422 73.7632 273.022 86.2713C271.319 91.1778 272.193 94.7483 273.914 97.2783C276.616 101.201 281.254 102.617 281.254 102.617Z" fill="#FDC2CC"/>
<path opacity="0.1" d="M281.254 102.617L278.273 120.384C278.273 120.384 252.444 134.029 252.018 134.029C251.592 134.029 233.142 130.902 232.433 130.902C231.723 130.902 219.66 94.373 228.175 92.0988C230.48 91.4848 233.824 90.0066 237.474 88.1702C239.796 88.3237 241.374 88.5454 241.374 88.5454C241.374 88.5454 247.051 110.292 247.476 116.973C247.902 123.653 262.662 124.364 263.655 124.08C264.649 123.795 268.765 107.45 268.765 107.45C268.765 107.45 268.339 101.764 269.616 101.764C270.683 101.764 273.147 98.3528 273.914 97.2783C276.616 101.201 281.254 102.617 281.254 102.617Z" fill="black"/>
<path opacity="0.1" d="M301.526 227.845C299.55 228.812 294.827 231.018 293.578 230.688C292.017 230.261 288.185 230.261 288.185 230.261C288.185 230.261 285.914 232.82 283.502 232.251C281.089 231.683 271.58 232.109 271.58 232.109C271.58 232.109 254.55 232.82 251.286 231.683C248.022 230.546 236.384 229.551 236.384 229.551C236.384 229.551 220.489 227.703 217.792 226.566C217.032 226.234 216.197 226.111 215.373 226.211C214.55 226.311 213.768 226.63 213.109 227.134C213.109 227.134 212.615 226.81 212.008 226.338C212.677 223.746 213.535 221.022 213.535 221.022C213.535 221.022 286.482 214.2 296.984 221.307C299.255 222.825 300.68 225.139 301.526 227.845Z" fill="black"/>
<path d="M241.374 89.6826C241.374 89.6826 227.04 87.6927 221.363 91.5304C219.346 92.8647 217.065 93.7471 214.676 94.1173C211.472 94.6145 208.587 96.3367 206.626 98.9215C206.263 99.4104 205.911 99.7402 205.61 99.7743C204.332 99.9164 197.236 121.948 197.236 121.948L214.409 145.969C214.409 145.969 213.983 159.33 216.396 161.888C218.808 164.446 212.99 193.727 212.99 193.727C212.99 193.727 210.151 203.818 211.428 205.382C212.706 206.945 211.428 208.935 211.428 208.935C211.428 208.935 211.145 211.494 211.854 211.494C212.564 211.494 213.415 214.763 212.706 214.905C211.996 215.047 208.732 217.748 209.867 218.316C211.003 218.885 209.867 220.164 209.867 221.443C209.867 222.723 213.132 224.855 213.132 224.855C213.791 224.35 214.572 224.031 215.396 223.931C216.219 223.831 217.055 223.954 217.815 224.286C220.511 225.423 236.407 227.271 236.407 227.271C236.407 227.271 248.044 228.266 251.308 229.403C254.572 230.54 271.603 229.829 271.603 229.829C271.603 229.829 281.112 229.403 283.524 229.972C285.937 230.54 288.208 227.982 288.208 227.982C288.208 227.982 292.04 227.982 293.601 228.408C295.162 228.834 302.4 225.139 302.4 225.139C302.4 225.139 300.555 219.738 301.406 217.748C302.258 215.758 301.69 211.92 301.69 211.92C301.69 211.92 298.284 209.93 298.142 209.077C298 208.225 296.581 207.088 297.007 205.95C297.433 204.813 299.845 205.382 299.561 202.823C299.278 200.265 296.297 197.564 296.581 196.001C296.865 194.437 298 191.595 296.581 189.889C295.162 188.183 294.594 185.483 294.452 183.351C294.31 181.219 296.581 161.888 296.581 161.888L291.33 122.943L307.367 114.983C307.367 114.983 306.658 109.44 305.664 106.455C304.671 103.47 303.251 98.2108 303.251 98.2108C303.251 98.2108 299.987 91.8147 299.278 91.5304C298.568 91.2461 291.046 86.2713 289.343 86.982C287.64 87.6927 274.158 98.0687 274.158 98.0687C274.158 98.0687 270.893 102.901 269.616 102.901C268.339 102.901 268.765 108.587 268.765 108.587C268.765 108.587 264.649 124.933 263.655 125.217C262.662 125.501 247.902 124.79 247.476 118.11C247.051 111.43 241.374 89.6826 241.374 89.6826Z" fill="#D39999"/>
<path d="M219.121 173.719C217.152 174.153 215.147 174.401 213.132 174.459C210.219 174.538 207.659 174.169 207.029 173.117C205.326 170.274 205.326 164.873 205.326 164.873C205.326 164.873 213.024 166.652 218.337 168.597L219.217 168.927C221.278 169.728 222.845 170.547 223.191 171.263C223.685 172.224 221.783 173.122 219.121 173.719Z" fill="#FDC2CC"/>
<path opacity="0.1" d="M274.867 94.6573C289.211 94.6573 300.839 83.0118 300.839 68.6463C300.839 54.2808 289.211 42.6353 274.867 42.6353C260.524 42.6353 248.896 54.2808 248.896 68.6463C248.896 83.0118 260.524 94.6573 274.867 94.6573Z" fill="black"/>
<path d="M274.867 93.5203C289.211 93.5203 300.839 81.8748 300.839 67.5093C300.839 53.1438 289.211 41.4983 274.867 41.4983C260.524 41.4983 248.896 53.1438 248.896 67.5093C248.896 81.8748 260.524 93.5203 274.867 93.5203Z" fill="#FDC2CC"/>
<path opacity="0.1" d="M217.389 207.94C217.389 207.94 224.769 207.94 227.607 208.651C230.446 209.362 236.407 209.504 236.407 209.504C236.407 209.504 219.944 208.935 217.389 207.94Z" fill="black"/>
<path opacity="0.1" d="M217.673 212.489C217.673 212.489 227.182 213.199 227.324 214.621C227.466 216.042 217.673 212.489 217.673 212.489Z" fill="black"/>
<path opacity="0.1" d="M290.053 195.006C290.053 195.006 295.871 197.138 295.73 197.849C295.588 198.559 290.62 196.711 290.053 195.006Z" fill="black"/>
<path d="M200.926 119.389L197.236 121.948C197.236 121.948 195.675 131.044 195.675 133.176C195.675 135.308 193.121 150.659 193.121 150.659C193.121 150.659 192.269 153.502 192.553 154.639C192.837 155.776 191.418 161.604 191.418 161.604C191.418 161.604 186.308 173.401 186.592 174.112C186.876 174.822 210.861 177.097 210.861 177.097L214.267 145.258L200.926 119.389Z" fill="#D39999"/>
<path d="M190.14 170.274L186.592 174.112C186.592 174.112 186.45 186.62 189.998 187.899C193.546 189.178 195.817 188.61 196.953 189.605C198.088 190.6 204.191 192.447 204.191 192.447C204.191 192.447 210.861 193.442 212.848 193.158C214.835 192.874 201.21 181.929 210.151 172.69L190.14 170.274Z" fill="#D39999"/>
<path d="M302.4 109.439L307.367 114.983C307.367 114.983 309.496 128.201 308.928 130.049C308.361 131.897 311.909 164.02 311.909 164.02C311.909 164.02 315.315 177.949 307.651 179.797C306.97 180.396 306.352 181.063 305.806 181.787C305.522 182.356 299.42 181.503 299.42 181.503L290.053 119.958L302.4 109.439Z" fill="#D39999"/>
<path opacity="0.1" d="M234.846 160.324C234.846 160.324 253.437 149.238 256.843 148.669C260.249 148.101 281.396 138.009 281.396 138.009C281.396 138.009 291.898 143.41 292.891 147.532C293.885 151.654 288.492 168.142 288.492 168.142C288.492 168.142 271.177 180.224 270.184 182.782C269.19 185.341 254.289 192.874 254.289 194.153C254.289 195.432 230.73 209.362 220.37 197.138C210.009 184.914 210.151 181.361 210.151 181.361L236.407 175.249L238.961 163.878L234.846 160.324Z" fill="black"/>
<path d="M234.846 159.188C234.846 159.188 253.437 148.101 256.843 147.532C260.249 146.964 281.396 136.872 281.396 136.872C281.396 136.872 291.898 142.273 292.891 146.395C293.885 150.517 288.492 167.005 288.492 167.005C288.492 167.005 271.177 179.087 270.184 181.645C269.19 184.204 254.289 191.737 254.289 193.016C254.289 194.295 230.73 208.225 220.37 196.001C210.009 183.777 210.151 180.224 210.151 180.224L236.407 174.112L238.961 162.741L234.846 159.188Z" fill="#C4C8E2"/>
<path d="M206.177 164.162L205.326 171.269L198.576 170.774L191.985 170.285C191.985 170.285 188.154 170.285 185.741 164.6C183.328 158.914 191.134 158.062 191.56 158.914C191.883 159.557 200.075 162.235 204.049 163.503L206.177 164.162Z" fill="#FDC2CC"/>
<path opacity="0.1" d="M206.177 164.162L205.326 171.269L198.576 170.774C199.677 169.137 201.982 166.141 204.054 163.503L206.177 164.162Z" fill="black"/>
<path opacity="0.1" d="M205.326 164.873C205.326 164.873 213.024 166.652 218.337 168.597C217.985 169.165 215.635 172.85 213.132 174.459C210.219 174.538 207.659 174.169 207.029 173.117C205.326 170.274 205.326 164.873 205.326 164.873Z" fill="black"/>
<path opacity="0.1" d="M219.121 173.72L218.996 172.736C218.996 172.736 218.939 172.526 218.888 172.207C218.786 171.559 218.712 170.467 219.189 169.802C219.467 169.41 219.404 169.131 219.223 168.932C221.284 169.734 222.85 170.553 223.197 171.269C223.685 172.224 221.783 173.123 219.121 173.72Z" fill="black"/>
<path d="M243.219 169.069C243.219 169.069 235.51 176.795 235.033 178.45C234.556 180.104 219.989 180.155 219.989 180.155L218.996 172.196C218.996 172.196 218.939 171.985 218.888 171.667C218.786 171.019 218.712 169.927 219.189 169.262C219.898 168.267 218.383 167.983 218.383 167.983C218.383 167.983 214.454 174.47 211.145 174.663C211.145 174.663 206.558 177.978 206.603 178.643C206.603 178.643 204.378 180.678 204.332 183.14C204.287 185.602 201.449 186.603 199.365 185.892C197.282 185.181 192.127 183.663 190.47 183.902C188.812 184.141 183.567 185.699 183.754 180.821C183.754 180.821 190.566 175.704 192.269 175.846C193.972 175.988 197.946 173.998 198.514 172.434C199.081 170.871 208.732 158.931 208.732 158.931C208.732 158.931 214.835 153.149 217.293 152.581C217.293 152.581 222.215 148.743 229.64 154.571C229.64 154.571 239.909 160.916 240.239 161.769C240.5 162.439 243.48 165.305 243.73 167.454C243.787 167.744 243.771 168.045 243.681 168.327C243.592 168.609 243.433 168.864 243.219 169.069Z" fill="#FDC2CC"/>
<path opacity="0.1" d="M219.138 157.766C219.138 157.766 219.893 162.127 219.518 163.69C219.143 165.254 218.383 167.954 218.383 167.954C218.383 167.954 222.969 160.751 219.138 157.766Z" fill="black"/>
<path opacity="0.1" d="M219.467 168.381C219.467 168.381 221.834 165.771 222.356 166.436C222.879 167.102 219.467 168.381 219.467 168.381Z" fill="black"/>
<path d="M316.382 141.778C316.382 145.395 315.205 148.914 313.029 151.801C310.854 154.688 307.798 156.786 304.324 157.777C302.872 158.196 301.368 158.41 299.857 158.414H299.772C297.591 158.413 295.432 157.982 293.418 157.146C291.403 156.31 289.573 155.084 288.032 153.539C286.49 151.994 285.268 150.161 284.434 148.143C283.6 146.125 283.172 143.962 283.172 141.778C283.17 140.802 283.257 139.828 283.434 138.867C284.081 135.231 285.921 131.914 288.662 129.443C291.403 126.972 294.889 125.486 298.568 125.222C298.965 125.188 299.368 125.171 299.772 125.171C304.172 125.17 308.394 126.918 311.509 130.032C314.623 133.146 316.376 137.371 316.382 141.778Z" fill="#F8BDC5"/>
<path d="M325.142 139.737C325.952 140.709 326.426 141.918 326.493 143.183C324.835 143.336 323.087 143.535 321.769 144.576C320.634 145.463 320.066 146.85 319.499 148.14C318.98 149.357 318.466 150.574 317.955 151.791C317.149 153.695 316.32 155.64 314.918 157.158C314.323 157.705 313.793 158.319 313.339 158.988C312.948 159.699 312.772 160.597 312.136 161.075C311.816 161.271 311.452 161.384 311.078 161.405C310.703 161.426 310.33 161.353 309.99 161.194C309.292 160.933 308.667 160.495 307.969 160.216C307.52 160.043 307.054 159.921 306.578 159.853C304.501 159.546 302.213 159.995 300.447 158.875C300.243 158.739 300.053 158.583 299.88 158.408C299.19 157.731 298.691 156.884 298.432 155.952C298.302 155.574 298.256 155.173 298.296 154.775C298.377 154.412 298.537 154.071 298.765 153.776C298.992 153.481 299.282 153.24 299.613 153.07C299.709 153.013 299.806 152.956 299.908 152.905C301.611 152.012 303.978 151.802 304.87 150.062C305.721 148.413 304.665 146.406 303.371 145.076C302.758 144.451 302.031 143.74 302.116 142.864C302.196 142.091 302.883 141.551 303.456 141.034C305.078 139.564 306.172 137.6 306.567 135.445C306.718 134.779 306.706 134.087 306.533 133.426C306.356 132.953 306.113 132.507 305.812 132.102L303.973 129.373C303.405 128.409 302.629 127.586 301.702 126.962C300.935 126.502 300.056 126.342 299.283 125.888C298.99 125.727 298.743 125.491 298.568 125.205C298.471 125.045 298.438 124.854 298.477 124.671C298.574 124.216 299.045 123.994 299.516 123.864C300.735 123.509 302.01 123.388 303.274 123.505C303.675 123.591 304.089 123.591 304.489 123.505C304.688 123.452 304.86 123.329 304.976 123.159C305.092 122.989 305.143 122.783 305.119 122.579C306.516 122.215 307.838 123.306 308.86 124.33C309.882 125.353 311.131 126.473 312.573 126.183C313.09 126.081 313.566 125.785 314.089 125.728C314.611 125.672 315.258 126.013 315.224 126.541C315.19 127.07 314.532 127.411 314.588 127.923C314.622 128.1 314.703 128.265 314.821 128.401C315.476 129.304 316.254 130.111 317.131 130.8C317.131 129.793 317.131 128.781 317.131 127.775C318.267 128.059 318.681 129.515 318.551 130.692C318.42 131.869 317.983 133.057 318.255 134.205C318.29 134.402 318.369 134.588 318.487 134.749C318.605 134.91 318.759 135.041 318.937 135.132C319.229 135.211 319.536 135.211 319.828 135.132C322.434 134.763 325.476 135.456 326.771 137.747L324.5 136.923L327.14 138.367C327.501 138.534 327.822 138.776 328.082 139.078C328.208 139.231 328.282 139.42 328.294 139.618C328.306 139.816 328.256 140.013 328.15 140.181C327.714 139.887 327.217 139.694 326.696 139.617C326.175 139.541 325.644 139.582 325.142 139.737Z" fill="#585268"/>
<g opacity="0.1">
<path opacity="0.1" d="M320.14 135.001C320.432 135.081 320.74 135.081 321.031 135.001C321.287 134.967 321.542 134.945 321.803 134.927C321.235 134.891 320.665 134.909 320.1 134.979L320.14 135.001Z" fill="black"/>
<path opacity="0.1" d="M325.681 136.809L326.657 137.349L326.475 137.094L325.681 136.809Z" fill="black"/>
<path opacity="0.1" d="M318.358 130.669C318.358 130.009 318.358 129.344 318.358 128.679C318.259 128.431 318.106 128.21 317.909 128.03C317.713 127.851 317.478 127.719 317.222 127.644V129.646C317.579 130.01 317.958 130.352 318.358 130.669Z" fill="black"/>
<path opacity="0.1" d="M326.816 139.538C327.317 139.625 327.794 139.819 328.213 140.107C328.313 139.975 328.363 139.812 328.355 139.646C327.856 139.5 327.331 139.463 326.816 139.538Z" fill="black"/>
<path opacity="0.1" d="M311.244 161.109C310.546 160.848 309.922 160.41 309.224 160.131C308.775 159.958 308.308 159.836 307.833 159.767C305.755 159.46 303.467 159.909 301.702 158.789C301.497 158.653 301.307 158.497 301.134 158.323C300.444 157.646 299.945 156.799 299.686 155.867C299.557 155.489 299.51 155.088 299.55 154.69C299.631 154.327 299.792 153.985 300.019 153.69C300.247 153.396 300.536 153.155 300.867 152.984C300.964 152.928 301.06 152.871 301.162 152.82C302.894 151.927 305.233 151.717 306.124 149.977C306.975 148.328 305.92 146.321 304.625 144.991C304.012 144.365 303.286 143.655 303.371 142.779C303.45 142.006 304.137 141.466 304.71 140.948C306.333 139.479 307.426 137.514 307.821 135.36C307.972 134.694 307.96 134.001 307.787 133.341C307.611 132.868 307.368 132.422 307.066 132.016L305.227 129.287C304.659 128.324 303.884 127.5 302.956 126.877C302.19 126.416 301.31 126.257 300.538 125.802C300.244 125.641 299.998 125.406 299.823 125.12C299.725 124.96 299.693 124.769 299.732 124.586C299.828 124.131 300.328 123.909 300.771 123.778C301.512 123.57 302.273 123.444 303.041 123.403C301.893 123.335 300.742 123.462 299.635 123.778C299.193 123.909 298.693 124.131 298.596 124.586C298.557 124.769 298.59 124.96 298.687 125.12C298.862 125.406 299.109 125.641 299.403 125.802C300.175 126.257 301.055 126.416 301.821 126.877C302.748 127.5 303.524 128.324 304.092 129.287L305.931 132.016C306.233 132.422 306.475 132.868 306.652 133.341C306.825 134.001 306.837 134.694 306.686 135.36C306.291 137.514 305.198 139.479 303.575 140.948C303.007 141.466 302.315 142.006 302.235 142.779C302.15 143.655 302.877 144.365 303.49 144.991C304.784 146.321 305.84 148.328 304.989 149.977C304.097 151.711 301.758 151.921 300.027 152.82C299.925 152.871 299.828 152.928 299.732 152.984C299.401 153.155 299.111 153.396 298.884 153.69C298.656 153.985 298.496 154.327 298.415 154.69C298.375 155.088 298.421 155.489 298.551 155.867C298.81 156.799 299.309 157.646 299.999 158.323C300.172 158.497 300.362 158.653 300.566 158.789C302.332 159.926 304.62 159.46 306.697 159.767C307.173 159.836 307.64 159.958 308.088 160.131C308.786 160.41 309.411 160.848 310.109 161.109C310.616 161.317 311.175 161.365 311.71 161.245C311.552 161.211 311.396 161.166 311.244 161.109Z" fill="black"/>
<path opacity="0.1" d="M313.799 126.052C314.149 125.963 314.492 125.851 314.827 125.717C314.626 125.619 314.402 125.577 314.179 125.598C313.698 125.712 313.224 125.856 312.76 126.03C313.101 126.114 313.455 126.122 313.799 126.052Z" fill="black"/>
<path opacity="0.1" d="M304.5 123.403C304.903 123.479 305.317 123.469 305.715 123.375C305.913 123.322 306.085 123.2 306.2 123.031C306.316 122.862 306.367 122.657 306.345 122.454C305.973 122.357 305.582 122.357 305.21 122.454C305.233 122.658 305.183 122.864 305.067 123.034C304.951 123.204 304.778 123.327 304.58 123.38C304.541 123.392 304.501 123.402 304.461 123.409L304.5 123.403Z" fill="black"/>
</g>
<path d="M284.802 132.682C282.684 134.268 279.307 134.956 276.201 135.183C273.774 135.376 271.334 135.376 268.907 135.183L263.44 133.125C263.44 133.125 263.883 132.244 264.632 131.078C266.125 128.759 268.838 125.308 271.671 125.45C275.929 125.66 280.402 125.871 280.828 125.871C281.254 125.871 289.553 129.128 284.802 132.682Z" fill="#FDC2CC"/>
<path d="M270.973 18.8757C266.931 18.8018 262.759 18.7564 259.052 20.3142C251.598 23.4014 248.084 31.651 243.576 38.303C239.838 43.8155 235.067 48.5482 229.526 52.2381C226.915 53.9437 223.883 55.8199 223.253 58.8901C222.583 62.1365 224.9 65.1441 226.092 68.2199C228.618 74.7639 226.092 82.0129 224.599 88.8695C223.9 92.1627 223.451 95.5038 223.253 98.8646C223.091 100.421 223.193 101.993 223.554 103.515C224.69 107.529 228.981 110.429 229.015 114.602C229.015 117.445 227.017 120.128 227.602 122.891C228.357 126.422 232.637 127.696 236.185 128.304C237.035 128.538 237.935 128.51 238.768 128.224C239.336 127.951 239.801 127.428 240.38 127.138C242.35 126.161 244.536 128.224 246.738 128.185C249.503 128.133 251.059 124.864 251.127 122.095C251.195 119.327 250.457 116.41 251.45 113.851C252.773 110.44 256.559 108.82 259.755 107.029C263.292 105.045 266.659 102.179 267.703 98.2619C268.356 95.8399 268.061 93.2758 267.8 90.7855C267.402 86.9649 267.09 83.1272 266.874 79.2952C266.307 69.5162 274.419 61.3689 284.166 62.1308H284.348C287.186 62.3639 290.535 62.6368 292.539 60.5673C293.334 59.7429 293.839 58.6058 294.81 58.0373C296.706 56.957 299.312 58.4978 301.219 57.4346C302.712 56.5988 303.03 54.5919 302.797 52.8862C302.565 51.1806 301.968 49.4749 302.286 47.8034C302.741 45.4326 304.892 43.7383 305.693 41.4584C306.612 38.8602 305.619 35.9549 304.188 33.6011C299.607 26.0338 290.28 20.1095 281.538 19.3135C278.024 18.9724 274.498 18.9326 270.973 18.8757Z" fill="#865A61"/>
<path opacity="0.1" d="M264.632 131.061C268.004 131.755 272.108 133.296 276.201 135.178C273.774 135.37 271.334 135.37 268.907 135.178L263.44 133.119C263.44 133.119 263.883 132.227 264.632 131.061Z" fill="black"/>
<path opacity="0.1" d="M306.584 159.853C304.506 159.546 302.218 159.995 300.453 158.875C300.248 158.739 300.058 158.583 299.885 158.409H299.8C297.617 158.412 295.456 157.984 293.439 157.149C291.421 156.315 289.588 155.09 288.044 153.546C286.5 152.001 285.274 150.167 284.439 148.148C283.603 146.129 283.172 143.964 283.172 141.779C283.17 140.802 283.257 139.828 283.434 138.868C289.252 142.125 293.97 145.474 294.878 147.112C296.221 149.267 297.801 151.263 299.59 153.064C301.174 154.77 302.871 156.407 304.324 157.778C305.187 158.579 305.965 159.29 306.584 159.853Z" fill="black"/>
<path d="M307.509 161.746C307.509 161.746 297.149 152.791 294.311 147.674C291.472 142.557 251.592 120.81 256.701 137.298C261.811 153.786 279.409 155.35 279.409 155.35C279.409 155.35 285.086 161.746 285.653 164.873C286.221 168 288.208 172.548 288.208 172.548L297.717 176.812L302.116 175.817C302.116 175.817 312.477 170.132 307.509 161.746Z" fill="#FDC2CC"/>
<path opacity="0.1" d="M287.64 171.98C287.64 171.98 304.387 181.503 306.09 159.188L310.348 160.609L306.09 175.675L298.852 180.934C298.852 180.934 288.776 176.244 287.64 171.98Z" fill="black"/>
<path d="M288.208 172.548C288.208 172.548 304.955 182.071 306.658 159.756L310.915 161.177L306.658 176.244L299.42 181.503C299.42 181.503 289.343 176.812 288.208 172.548Z" fill="#D39999"/>
<path d="M302.996 59.4642C303.189 57.4686 304.001 55.5868 304.427 53.6253C304.846 51.7277 304.904 49.7679 304.597 47.8488C304.425 46.4627 303.91 45.1416 303.098 44.0055C302.531 43.2948 300.828 41.7313 299.834 42.4363C299.266 42.8399 299.113 45.1767 298.886 45.8475C298.089 48.1009 297.022 50.2487 295.707 52.2437C298.514 56.1235 300.197 60.7047 300.569 65.4816C300.941 70.2586 299.988 75.0456 297.815 79.3144C295.642 83.5832 292.334 87.1677 288.255 89.6725C284.177 92.1773 279.487 93.5049 274.703 93.5088C274.084 93.5088 273.471 93.4804 272.863 93.4349C272.296 94.4242 271.779 95.4248 271.257 96.4255C270.64 97.4416 270.224 98.5668 270.031 99.7401C269.983 100.862 270.155 101.982 270.536 103.038C271.593 106.511 273.052 109.848 274.884 112.982C275.523 113.954 276.047 114.998 276.445 116.091C276.769 117.143 276.826 118.269 277.246 119.281C278.188 121.555 280.652 122.692 282.923 123.642C284.279 124.21 285.699 124.779 287.163 124.659C287.301 124.67 287.438 124.651 287.568 124.605C287.698 124.559 287.816 124.486 287.916 124.391C288.016 124.297 288.095 124.182 288.149 124.055C288.202 123.928 288.228 123.791 288.225 123.653C288.304 123.057 288.242 122.451 288.045 121.884C287.848 121.316 287.521 120.802 287.09 120.384C289.015 120.989 291.037 121.23 293.05 121.095C293.23 121.132 293.418 121.117 293.59 121.051C293.762 120.985 293.911 120.871 294.02 120.723C294.129 120.574 294.193 120.397 294.204 120.213C294.215 120.029 294.173 119.846 294.083 119.685C293.561 117.54 292.763 115.472 291.711 113.533C290.677 111.623 289.36 109.4 290.303 107.45C290.842 106.312 291.977 105.676 293.01 104.999C296.502 102.725 299.596 99.018 299.323 94.8506C299.176 92.5764 298.029 90.4102 297.961 88.119C297.785 82.5302 303.791 78.5333 304.699 73.0127C305.42 68.4984 302.559 64.0297 302.996 59.4642Z" fill="#865A61"/>
<g opacity="0.1">
<path opacity="0.1" d="M228.709 112.328C228.675 108.155 224.389 105.255 223.248 101.241C223.072 100.608 222.963 99.9583 222.924 99.3025C222.798 100.715 222.907 102.139 223.248 103.515C224.292 107.183 227.948 109.923 228.601 113.556C228.674 113.151 228.71 112.74 228.709 112.328Z" fill="black"/>
<path opacity="0.1" d="M246.432 125.91C244.229 125.95 242.044 123.886 240.074 124.864C239.506 125.154 239.052 125.677 238.462 125.95C237.628 126.236 236.728 126.264 235.879 126.03C232.342 125.422 228.073 124.154 227.307 120.651C227.162 121.391 227.162 122.152 227.307 122.891C228.062 126.422 232.342 127.696 235.89 128.304C236.739 128.538 237.639 128.51 238.473 128.224C239.041 127.952 239.506 127.428 240.085 127.139C242.055 126.161 244.241 128.224 246.443 128.185C249.208 128.133 250.763 124.864 250.831 122.096C250.831 121.527 250.831 120.958 250.792 120.39C250.502 123.017 249.003 125.859 246.432 125.91Z" fill="black"/>
<path opacity="0.1" d="M267.408 95.9822C266.352 99.8995 262.986 102.765 259.46 104.749C256.264 106.546 252.478 108.16 251.155 111.572C250.668 113.045 250.502 114.606 250.667 116.149C250.716 115.361 250.881 114.585 251.155 113.846C252.478 110.435 256.264 108.814 259.46 107.023C262.997 105.039 266.363 102.174 267.408 98.2564C267.768 96.769 267.889 95.2335 267.765 93.708C267.721 94.476 267.601 95.2378 267.408 95.9822Z" fill="black"/>
<path opacity="0.1" d="M298.489 55.5301C297.121 55.4278 295.696 55.1094 294.515 55.7689C293.521 56.3374 293.016 57.4745 292.244 58.2989C290.24 60.3684 286.919 60.0955 284.052 59.8624H283.871C274.124 59.1006 266.023 67.2535 266.579 77.0268C266.579 77.1008 266.579 77.1803 266.579 77.2543C266.714 75.1224 267.27 73.0385 268.213 71.1226C269.157 69.2067 270.469 67.4968 272.076 66.0915C273.682 64.6862 275.55 63.6132 277.573 62.9344C279.595 62.2556 281.732 61.9845 283.859 62.1366H284.041C286.879 62.3697 290.229 62.6426 292.233 60.5731C293.027 59.7487 293.533 58.6116 294.503 58.0431C295.639 57.3836 297.086 57.7019 298.477 57.8043C299.569 60.5221 300.193 63.4057 300.322 66.3325C300.322 65.9629 300.351 65.5934 300.351 65.1954C300.351 61.8842 299.719 58.6035 298.489 55.5301Z" fill="black"/>
<path opacity="0.1" d="M226.847 73.2344C227.017 70.7624 226.663 68.2823 225.808 65.957C224.911 63.6317 223.373 61.3518 222.97 58.981C222.351 62.1932 224.639 65.1667 225.808 68.2312C226.415 69.8339 226.765 71.5224 226.847 73.2344Z" fill="black"/>
<path opacity="0.1" d="M304.461 49.1736C304.409 49.9063 304.303 50.6342 304.143 51.3511C303.717 53.3126 302.905 55.1945 302.712 57.1901C302.644 57.901 302.644 58.6169 302.712 59.3278C302.928 57.3834 303.706 55.5413 304.126 53.6424C304.454 52.1771 304.567 50.6716 304.461 49.1736Z" fill="black"/>
<path opacity="0.1" d="M304.393 70.75C303.484 76.2706 297.478 80.2675 297.654 85.8563C297.663 86.1589 297.69 86.4607 297.734 86.7603C298.449 81.8651 303.564 78.0843 304.393 73.0242C304.533 72.1078 304.552 71.1768 304.449 70.2554C304.432 70.4202 304.432 70.5851 304.393 70.75Z" fill="black"/>
<path opacity="0.1" d="M305.426 39.1729C304.89 40.3911 304.203 41.5371 303.382 42.5842C303.618 43.0421 303.808 43.5219 303.95 44.0169C304.548 43.2191 305.039 42.3455 305.409 41.4187C305.765 40.3576 305.854 39.2251 305.67 38.1211C305.62 38.4783 305.538 38.8303 305.426 39.1729Z" fill="black"/>
<path opacity="0.1" d="M298.948 94.2424C298.443 97.7219 295.724 100.752 292.704 102.737C291.671 103.413 290.535 104.073 289.996 105.187C289.623 106.025 289.568 106.972 289.843 107.848C289.883 107.715 289.934 107.585 289.996 107.461C290.535 106.324 291.671 105.687 292.704 105.011C296.195 102.737 299.289 99.0296 299.017 94.8621C299.005 94.6518 298.977 94.4471 298.948 94.2424Z" fill="black"/>
<path opacity="0.1" d="M287.595 122.147C287.384 122.308 287.127 122.395 286.862 122.397C285.398 122.522 283.978 121.948 282.622 121.379C280.351 120.435 277.876 119.287 276.945 117.018C276.525 116.006 276.468 114.88 276.144 113.829C275.746 112.735 275.222 111.691 274.583 110.719C272.751 107.585 271.292 104.248 270.235 100.775C270.07 100.25 269.934 99.7168 269.826 99.1772C269.786 99.3649 269.752 99.5582 269.73 99.7458C269.682 100.867 269.854 101.988 270.235 103.043C271.292 106.517 272.751 109.854 274.583 112.987C275.222 113.96 275.746 115.004 276.144 116.097C276.468 117.149 276.525 118.275 276.945 119.287C277.887 121.561 280.351 122.698 282.622 123.647C283.978 124.216 285.398 124.785 286.862 124.665C287 124.676 287.137 124.657 287.267 124.611C287.397 124.565 287.515 124.492 287.615 124.397C287.715 124.302 287.794 124.188 287.847 124.061C287.901 123.934 287.927 123.797 287.924 123.659C287.999 123.085 287.94 122.501 287.754 121.953C287.713 122.027 287.659 122.092 287.595 122.147Z" fill="black"/>
<path opacity="0.1" d="M293.487 118.656C293.255 118.767 293.001 118.827 292.744 118.832C290.73 118.967 288.709 118.726 286.783 118.121C287.487 118.803 287.903 119.729 287.947 120.708C289.517 121.079 291.134 121.213 292.744 121.106C292.924 121.144 293.111 121.129 293.283 121.063C293.455 120.997 293.604 120.883 293.713 120.734C293.822 120.585 293.886 120.409 293.897 120.225C293.909 120.041 293.867 119.857 293.777 119.696C293.692 119.344 293.589 118.997 293.487 118.656Z" fill="black"/>
</g>
<path opacity="0.1" d="M214.267 131.187C214.267 131.187 213.699 142.842 215.402 143.695C217.105 144.547 214.267 131.187 214.267 131.187Z" fill="black"/>
<path opacity="0.1" d="M246.483 161.888C247.051 161.888 249.321 163.025 249.605 164.304C249.889 165.584 246.483 161.888 246.483 161.888Z" fill="black"/>
<path opacity="0.1" d="M245.064 163.736C245.631 163.736 247.902 164.873 248.186 166.152C248.47 167.431 245.064 163.736 245.064 163.736Z" fill="black"/>
<path opacity="0.1" d="M250.315 168.853C250.883 168.853 253.153 169.99 253.437 171.269C253.721 172.548 250.315 168.853 250.315 168.853Z" fill="black"/>
<path opacity="0.1" d="M243.219 169.069C243.219 169.069 235.51 176.795 235.033 178.45C234.556 180.104 219.989 180.155 219.989 180.155L218.996 172.196C218.996 172.196 218.939 171.985 218.888 171.667C222.913 170.632 235.964 165.805 243.73 167.517C243.777 167.797 243.755 168.085 243.666 168.356C243.577 168.626 243.423 168.871 243.219 169.069Z" fill="black"/>
<path d="M208.113 178.848C208.113 178.848 215.544 172.264 217.815 172.406C220.086 172.548 247.76 160.751 249.605 173.97C251.45 187.188 214.267 187.899 214.267 187.899L208.59 190.031C208.59 190.031 203.856 179.701 208.113 178.848Z" fill="#FDC2CC"/>
<path d="M205.939 179.797C205.939 179.797 209.345 175.061 210.384 180.838C211.423 186.614 212.99 193.727 212.99 193.727L205.371 189.934L205.939 179.797Z" fill="#D39999"/>
<path opacity="0.1" d="M521.35 381.699C535.393 381.699 546.777 379.951 546.777 377.794C546.777 375.636 535.393 373.888 521.35 373.888C507.308 373.888 495.924 375.636 495.924 377.794C495.924 379.951 507.308 381.699 521.35 381.699Z" fill="#6C63FF"/>
<path opacity="0.1" d="M449.578 454.422C471.525 454.422 489.316 451.689 489.316 448.316C489.316 444.944 471.525 442.21 449.578 442.21C427.631 442.21 409.84 444.944 409.84 448.316C409.84 451.689 427.631 454.422 449.578 454.422Z" fill="#6C63FF"/>
<path opacity="0.1" d="M557.438 478C586.467 478 610 474.383 610 469.921C610 465.459 586.467 461.842 557.438 461.842C528.409 461.842 504.876 465.459 504.876 469.921C504.876 474.383 528.409 478 557.438 478Z" fill="#6C63FF"/>
<path opacity="0.1" d="M39.7379 391.888C61.6846 391.888 79.4759 389.154 79.4759 385.782C79.4759 382.409 61.6846 379.676 39.7379 379.676C17.7913 379.676 0 382.409 0 385.782C0 389.154 17.7913 391.888 39.7379 391.888Z" fill="#6C63FF"/>
<path d="M501.3 340.321C501.3 340.321 497.706 357.093 513.704 359.083L514.697 357.218C514.697 357.218 502.293 345.54 501.3 340.321Z" fill="#6C63FF"/>
<path d="M519.784 357.087L516.065 357.877L515.691 357.963C515.691 357.963 505.767 349.889 505.892 331.872C507.222 334.527 508.81 337.045 510.632 339.388C514.566 344.596 519.017 351.572 519.784 357.087Z" fill="#6C63FF"/>
<path d="M521.044 358.816C520.751 359.007 520.419 359.13 520.072 359.175C519.725 359.221 519.372 359.187 519.04 359.077C509.486 356.843 512.716 325.664 512.716 325.664C513.244 325.914 513.851 329.876 516.02 334.999C519.874 343.994 524.126 356.558 521.044 358.816Z" fill="#6C63FF"/>
<path d="M542.23 340.321C542.23 340.321 542.854 357.093 526.851 359.083L525.858 357.218C525.858 357.218 541.242 345.54 542.23 340.321Z" fill="#6C63FF"/>
<path d="M537.643 331.872C537.762 349.889 524.87 357.963 524.87 357.963L524.495 357.877L520.777 357.087C521.509 351.555 525.994 344.579 529.922 339.388C532.148 336.548 534.745 334.02 537.643 331.872Z" fill="#6C63FF"/>
<path d="M524.438 357.184C523.863 357.884 523.135 358.442 522.31 358.816C522.061 358.931 521.8 359.018 521.532 359.077C519.176 359.646 518.359 357.94 518.495 355.046C518.716 349.929 521.941 341.003 524.836 334.34C526.919 329.541 530.325 325.902 530.831 325.664C530.819 325.664 530.677 349.941 524.438 357.184Z" fill="#6C63FF"/>
<path d="M521.765 314.73C521.765 314.73 511.098 352.618 520.277 358.332C529.457 364.046 524.126 318.085 521.765 314.73Z" fill="#6C63FF"/>
<path opacity="0.1" d="M501.3 340.321C501.3 340.321 497.706 357.093 513.704 359.083L514.697 357.218C514.697 357.218 502.293 345.54 501.3 340.321Z" fill="black"/>
<path opacity="0.1" d="M519.784 357.087L516.065 357.877L515.691 357.963C515.691 357.963 505.767 349.889 505.892 331.872C507.222 334.527 508.81 337.045 510.632 339.388C514.566 344.596 519.017 351.572 519.784 357.087Z" fill="black"/>
<path opacity="0.1" d="M521.044 358.816C520.751 359.007 520.419 359.13 520.072 359.175C519.725 359.221 519.372 359.187 519.04 359.077C509.486 356.843 512.716 325.664 512.716 325.664C513.244 325.914 513.851 329.876 516.02 334.999C519.874 343.994 524.126 356.558 521.044 358.816Z" fill="black"/>
<path opacity="0.1" d="M542.23 340.321C542.23 340.321 542.854 357.093 526.851 359.083L525.858 357.218C525.858 357.218 541.242 345.54 542.23 340.321Z" fill="black"/>
<path opacity="0.1" d="M537.643 331.872C537.762 349.889 524.87 357.963 524.87 357.963L524.495 357.877L520.777 357.087C521.509 351.555 525.994 344.579 529.922 339.388C532.148 336.548 534.745 334.02 537.643 331.872Z" fill="black"/>
<path opacity="0.1" d="M524.438 357.184C523.863 357.884 523.135 358.442 522.31 358.816C522.061 358.931 521.8 359.018 521.532 359.077C519.176 359.646 518.359 357.94 518.495 355.046C518.716 349.929 521.941 341.003 524.836 334.34C526.919 329.541 530.325 325.902 530.831 325.664C530.819 325.664 530.677 349.941 524.438 357.184Z" fill="black"/>
<path opacity="0.1" d="M521.765 314.73C521.765 314.73 511.098 352.618 520.277 358.332C529.457 364.046 524.126 318.085 521.765 314.73Z" fill="black"/>
<path d="M501.3 340.321C501.3 340.321 499.194 357.093 515.191 359.083L516.184 357.218C516.184 357.218 502.293 345.54 501.3 340.321Z" fill="#6C63FF"/>
<path d="M521.288 357.087L517.569 357.877L517.195 357.963C517.195 357.963 505.784 349.889 505.909 331.872C505.909 331.872 508.833 335.01 512.154 339.388C516.059 344.596 520.527 351.572 521.288 357.087Z" fill="#6C63FF"/>
<path opacity="0.1" d="M521.288 357.087L517.569 357.877C514.044 354.779 512.642 346.683 512.137 339.388C516.059 344.596 520.527 351.572 521.288 357.087Z" fill="black"/>
<path d="M522.531 358.816C522.238 359.007 521.906 359.13 521.559 359.175C521.212 359.221 520.859 359.187 520.527 359.077C510.973 356.843 512.716 325.664 512.716 325.664C513.244 325.914 515.31 329.876 517.507 334.999C521.362 343.994 525.597 356.558 522.531 358.816Z" fill="#6C63FF"/>
<path d="M542.23 340.321C542.23 340.321 544.342 357.093 528.339 359.083L527.351 357.218C527.351 357.218 541.242 345.54 542.23 340.321Z" fill="#6C63FF"/>
<path d="M537.643 331.872C537.762 349.889 526.357 357.963 526.357 357.963L525.983 357.877L522.264 357.087C523.002 351.555 527.481 344.579 531.41 339.388C534.719 335.01 537.643 331.872 537.643 331.872Z" fill="#6C63FF"/>
<path opacity="0.1" d="M531.41 339.388C530.933 346.211 529.707 353.681 526.669 357.184C526.461 357.434 526.231 357.666 525.983 357.877L522.264 357.087C522.991 351.572 527.481 344.596 531.41 339.388Z" fill="black"/>
<path d="M525.926 357.184C525.352 357.885 524.623 358.444 523.797 358.816C523.546 358.93 523.283 359.017 523.014 359.077C520.663 359.646 519.84 357.94 519.976 355.046C520.198 349.929 523.422 341.003 526.317 334.34C528.401 329.541 530.291 325.902 530.825 325.664C530.819 325.664 532.17 349.941 525.926 357.184Z" fill="#6C63FF"/>
<path opacity="0.1" d="M522.531 358.816C521.99 358.815 521.463 358.646 521.021 358.332C516.525 355.529 516.434 345.006 517.507 335.022C521.362 343.994 525.597 356.559 522.531 358.816Z" fill="black"/>
<path opacity="0.1" d="M525.926 357.184C525.409 358.321 524.711 358.889 523.797 358.816C523.338 358.756 522.898 358.591 522.514 358.332C521.348 357.528 520.461 356.379 519.977 355.046C520.198 349.929 523.422 341.003 526.318 334.34C527.345 343.613 527.686 353.392 525.926 357.184Z" fill="black"/>
<path d="M521.765 314.73C521.765 314.73 512.591 352.618 521.765 358.332C530.939 364.046 524.126 318.085 521.765 314.73Z" fill="#6C63FF"/>
<path d="M539.38 356.473H501.18V362.807H507.005L507.152 363.552L509.486 375.849H531.693L534.027 363.552L534.169 362.807H539.38V356.473Z" fill="#4B4770"/>
<path opacity="0.1" d="M539.38 356.473H501.18V362.807H507.005L507.152 363.552L509.486 375.849H531.693L534.027 363.552L534.169 362.807H539.38V356.473Z" fill="black"/>
<path d="M536.155 360.197L535.52 363.551L533.181 375.849H510.973L508.64 363.551L507.998 360.197H536.155Z" fill="#4B4770"/>
<path opacity="0.1" d="M536.155 360.197L535.52 363.551H508.64L507.998 360.197H536.155Z" fill="black"/>
<path d="M540.867 356.473H502.668V362.807H540.867V356.473Z" fill="#4B4770"/>
<path d="M61.9629 319.046C61.4182 319.793 60.9824 320.614 60.6685 321.485C60.5891 321.695 60.5096 321.94 60.4301 322.173C60.2869 322.105 60.1364 322.053 59.9816 322.019C59.3202 321.85 58.6356 321.791 57.955 321.843C57.955 321.581 57.9891 321.274 57.9947 321.007C58.0799 318.011 57.7279 313.838 54.8725 315.606C52.1362 317.312 54.0891 320.154 55.8546 321.974C56.0078 322.133 56.1611 322.281 56.3087 322.423C54.6965 323.56 54.39 326.249 54.1231 329.041C53.8563 331.832 51.4891 334.885 49.9166 336.625C49.7576 336.801 49.6157 336.961 49.4738 337.108C48.8424 336.603 48.1114 336.236 47.3287 336.034C46.546 335.831 45.7294 335.796 44.9323 335.932C44.8699 335.687 44.8018 335.431 44.7223 335.158C43.4223 330.536 40.7882 322.576 37.4162 320.871C37.5581 320.694 37.7057 320.513 37.859 320.302C39.2895 318.426 40.9018 315.64 38.5232 314.929C36.1446 314.219 35.9288 317.346 36.0594 319.688C36.0594 319.978 36.1048 320.257 36.1275 320.518C35.6539 320.54 35.1896 320.657 34.7631 320.865C34.3365 321.072 33.9567 321.364 33.6467 321.724L33.2778 321.286C31.3476 319.012 27.811 315.396 26.738 318.13C25.7446 320.672 28.8555 323.981 31.0468 325.897L31.183 326.016C29.7127 331.997 36.1332 336.87 39.5904 338.996L40.0389 339.275C35.2703 344.898 32.324 355.45 32.324 355.45L45.6817 357.838C45.6817 357.838 54.5319 350.185 53.3965 343.004H53.4873C62.3375 341.225 64.3471 331.775 62.9733 326.17L63.1266 326.101C64.7378 325.441 66.1501 324.374 67.2253 323.003C69.6947 319.552 64.5061 315.663 61.9629 319.046Z" fill="#6C63FF"/>
<path opacity="0.1" d="M61.9629 319.046C61.4182 319.793 60.9824 320.614 60.6685 321.485C60.5891 321.695 60.5096 321.94 60.4301 322.173C60.2869 322.105 60.1364 322.053 59.9816 322.019C59.3202 321.85 58.6356 321.791 57.955 321.843C57.955 321.581 57.9891 321.274 57.9947 321.007C58.0799 318.011 57.7279 313.838 54.8725 315.606C52.1362 317.312 54.0891 320.154 55.8546 321.974C56.0078 322.133 56.1611 322.281 56.3087 322.423C54.6965 323.56 54.39 326.249 54.1231 329.041C53.8563 331.832 51.4891 334.885 49.9166 336.625C49.7576 336.801 49.6157 336.961 49.4738 337.108C48.8424 336.603 48.1114 336.236 47.3287 336.034C46.546 335.831 45.7294 335.796 44.9323 335.932C44.8699 335.687 44.8018 335.431 44.7223 335.158C43.4223 330.536 40.7882 322.576 37.4162 320.871C37.5581 320.694 37.7057 320.513 37.859 320.302C39.2895 318.426 40.9018 315.64 38.5232 314.929C36.1446 314.219 35.9288 317.346 36.0594 319.688C36.0594 319.978 36.1048 320.257 36.1275 320.518C35.6539 320.54 35.1896 320.657 34.7631 320.865C34.3365 321.072 33.9567 321.364 33.6467 321.724L33.2778 321.286C31.3476 319.012 27.811 315.396 26.738 318.13C25.7446 320.672 28.8555 323.981 31.0468 325.897L31.183 326.016C29.7127 331.997 36.1332 336.87 39.5904 338.996L40.0389 339.275C35.2703 344.898 32.324 355.45 32.324 355.45L45.6817 357.838C45.6817 357.838 54.5319 350.185 53.3965 343.004H53.4873C62.3375 341.225 64.3471 331.775 62.9733 326.17L63.1266 326.101C64.7378 325.441 66.1501 324.374 67.2253 323.003C69.6947 319.552 64.5061 315.663 61.9629 319.046Z" fill="black"/>
<path d="M35.3838 322.9L33.8227 327.449C33.8227 327.449 32.9541 326.835 31.8585 325.868C29.6673 323.952 26.5563 320.643 27.5498 318.102C28.6227 315.367 32.1594 318.977 34.0895 321.257C34.8672 322.195 35.3838 322.9 35.3838 322.9Z" fill="#6C63FF"/>
<path d="M38.6763 320.302C38.2013 320.926 37.6934 321.524 37.1549 322.093C37.0219 321.297 36.929 320.494 36.8768 319.688C36.7462 317.346 36.996 314.236 39.3405 314.929C41.685 315.623 40.1069 318.415 38.6763 320.302Z" fill="#6C63FF"/>
<path d="M58.8121 321.007C58.7667 322.514 58.6191 323.719 58.6191 323.719C57.9308 323.183 57.2802 322.6 56.672 321.974C54.9065 320.143 52.9536 317.312 55.6899 315.606C58.5453 313.838 58.8973 318.028 58.8121 321.007Z" fill="#6C63FF"/>
<path d="M68.0371 322.986C66.9619 324.357 65.5496 325.424 63.9384 326.084C63.4921 326.281 63.0331 326.448 62.5646 326.585L60.7253 323.998C60.9201 323.143 61.1743 322.304 61.486 321.485C61.7999 320.614 62.2357 319.793 62.7804 319.046C65.3236 315.663 70.5122 319.552 68.0371 322.986Z" fill="#6C63FF"/>
<path opacity="0.1" d="M34.0894 321.286C34.8671 322.195 35.3837 322.9 35.3837 322.9L33.8226 327.449C33.8226 327.449 32.954 326.835 31.8584 325.868C32.1018 324.402 32.7067 323.021 33.6182 321.848C33.7715 321.667 33.9361 321.468 34.0894 321.286Z" fill="black"/>
<path opacity="0.1" d="M38.6763 320.302C38.2012 320.926 37.6934 321.524 37.1549 322.093C37.0218 321.297 36.929 320.494 36.8767 319.688C37.526 319.699 38.1554 319.914 38.6763 320.302Z" fill="black"/>
<path d="M46.357 338.456L42.4684 340.162C42.4684 340.162 41.6225 339.752 40.402 338.99C36.3204 336.477 28.1173 330.149 33.5898 322.69C39.0623 315.231 43.6775 328.609 45.5112 335.153C46.0618 337.114 46.357 338.456 46.357 338.456Z" fill="#6C63FF"/>
<path opacity="0.1" d="M56.6719 321.974C57.2373 321.392 58.0022 321.046 58.8121 321.007C58.7666 322.514 58.619 323.719 58.619 323.719C57.9307 323.183 57.2801 322.6 56.6719 321.974Z" fill="black"/>
<path opacity="0.1" d="M63.9384 326.084C63.4921 326.281 63.0331 326.449 62.5646 326.585L60.7253 323.998C60.9201 323.143 61.1743 322.304 61.486 321.485C62.6725 322.178 63.5467 323.907 63.9384 326.084Z" fill="black"/>
<path d="M54.2991 342.987L53.6463 343.101C40.6292 345.079 49.3546 338.047 49.3546 338.047C49.3546 338.047 49.9222 337.478 50.734 336.625C52.3065 334.885 54.6681 331.849 54.9406 329.041C55.3493 324.816 55.8205 320.854 60.7991 322.019C65.6869 323.145 66.6235 340.514 54.2991 342.987Z" fill="#6C63FF"/>
<path d="M54.0548 375.446H29.1846V381.995H54.0548V375.446Z" fill="#D4DFEC"/>
<path d="M57.7279 354.153H25.2336V377.009H57.7279V354.153Z" fill="#D4DFEC"/>
<path opacity="0.1" d="M54.0548 375.446H29.1846V381.995H54.0548V375.446Z" fill="black"/>
<path opacity="0.1" d="M57.7279 354.153H25.2336V377.009H57.7279V354.153Z" fill="black"/>
<path d="M55.6899 375.446H30.8196V381.995H55.6899V375.446Z" fill="#D4DFEC"/>
<path opacity="0.1" d="M45.5113 335.158C46.0789 337.114 46.3571 338.456 46.3571 338.456L42.4685 340.161C42.4685 340.161 41.6226 339.752 40.4021 338.99C41.9235 337.069 43.6379 335.607 45.5113 335.158Z" fill="black"/>
<path opacity="0.1" d="M54.2991 342.987L53.6463 343.101C40.6292 345.08 49.3546 338.047 49.3546 338.047C49.3546 338.047 49.9222 337.478 50.734 336.625C53.1637 338.57 54.1685 340.77 54.2991 342.987Z" fill="black"/>
<path d="M33.1357 355.45C33.1357 355.45 40.4248 329.297 50.6488 337.37C60.8728 345.443 46.4934 357.838 46.4934 357.838L33.1357 355.45Z" fill="#6C63FF"/>
<path opacity="0.1" d="M36.8143 327.614C37.2658 327.614 37.6318 327.247 37.6318 326.795C37.6318 326.343 37.2658 325.976 36.8143 325.976C36.3628 325.976 35.9968 326.343 35.9968 326.795C35.9968 327.247 36.3628 327.614 36.8143 327.614Z" fill="black"/>
<path opacity="0.1" d="M36.7462 331.434C37.1977 331.434 37.5636 331.068 37.5636 330.616C37.5636 330.163 37.1977 329.797 36.7462 329.797C36.2947 329.797 35.9287 330.163 35.9287 330.616C35.9287 331.068 36.2947 331.434 36.7462 331.434Z" fill="black"/>
<path opacity="0.1" d="M60.4583 328.364C60.9098 328.364 61.2758 327.998 61.2758 327.546C61.2758 327.093 60.9098 326.727 60.4583 326.727C60.0069 326.727 59.6409 327.093 59.6409 327.546C59.6409 327.998 60.0069 328.364 60.4583 328.364Z" fill="black"/>
<path opacity="0.1" d="M41.3785 347.945C41.83 347.945 42.196 347.578 42.196 347.126C42.196 346.674 41.83 346.308 41.3785 346.308C40.927 346.308 40.561 346.674 40.561 347.126C40.561 347.578 40.927 347.945 41.3785 347.945Z" fill="black"/>
<path opacity="0.1" d="M58.7555 334.709C59.2069 334.709 59.5729 334.343 59.5729 333.89C59.5729 333.438 59.2069 333.072 58.7555 333.072C58.304 333.072 57.938 333.438 57.938 333.89C57.938 334.343 58.304 334.709 58.7555 334.709Z" fill="black"/>
<path opacity="0.1" d="M50.3082 343.169C50.7597 343.169 51.1257 342.803 51.1257 342.35C51.1257 341.898 50.7597 341.532 50.3082 341.532C49.8567 341.532 49.4907 341.898 49.4907 342.35C49.4907 342.803 49.8567 343.169 50.3082 343.169Z" fill="black"/>
<path opacity="0.1" d="M39.6073 329.251C40.0587 329.251 40.4247 328.885 40.4247 328.432C40.4247 327.98 40.0587 327.614 39.6073 327.614C39.1558 327.614 38.7898 327.98 38.7898 328.432C38.7898 328.885 39.1558 329.251 39.6073 329.251Z" fill="black"/>
<path opacity="0.1" d="M58.2103 330.82C58.6618 330.82 59.0278 330.454 59.0278 330.002C59.0278 329.549 58.6618 329.183 58.2103 329.183C57.7588 329.183 57.3928 329.549 57.3928 330.002C57.3928 330.454 57.7588 330.82 58.2103 330.82Z" fill="black"/>
<path opacity="0.1" d="M55.4173 337.165C55.8688 337.165 56.2348 336.799 56.2348 336.347C56.2348 335.894 55.8688 335.528 55.4173 335.528C54.9658 335.528 54.5999 335.894 54.5999 336.347C54.5999 336.799 54.9658 337.165 55.4173 337.165Z" fill="black"/>
<path opacity="0.1" d="M46.8341 347.331C47.2855 347.331 47.6515 346.964 47.6515 346.512C47.6515 346.06 47.2855 345.694 46.8341 345.694C46.3826 345.694 46.0166 346.06 46.0166 346.512C46.0166 346.964 46.3826 347.331 46.8341 347.331Z" fill="black"/>
<path opacity="0.1" d="M45.0628 343.306C45.5143 343.306 45.8803 342.939 45.8803 342.487C45.8803 342.035 45.5143 341.668 45.0628 341.668C44.6114 341.668 44.2454 342.035 44.2454 342.487C44.2454 342.939 44.6114 343.306 45.0628 343.306Z" fill="black"/>
<path opacity="0.1" d="M40.8336 334.232C41.2851 334.232 41.6511 333.865 41.6511 333.413C41.6511 332.961 41.2851 332.594 40.8336 332.594C40.3821 332.594 40.0161 332.961 40.0161 333.413C40.0161 333.865 40.3821 334.232 40.8336 334.232Z" fill="black"/>
<path opacity="0.1" d="M55.6899 375.446H30.8196V377.839H55.6899V375.446Z" fill="black"/>
<path d="M59.3627 354.153H26.8684V377.009H59.3627V354.153Z" fill="#D4DFEC"/>
<path opacity="0.1" d="M47.9239 351.015C48.3754 351.015 48.7414 350.649 48.7414 350.196C48.7414 349.744 48.3754 349.378 47.9239 349.378C47.4724 349.378 47.1064 349.744 47.1064 350.196C47.1064 350.649 47.4724 351.015 47.9239 351.015Z" fill="black"/>
<path opacity="0.1" d="M43.0191 352.039C43.4706 352.039 43.8366 351.672 43.8366 351.22C43.8366 350.768 43.4706 350.401 43.0191 350.401C42.5677 350.401 42.2017 350.768 42.2017 351.22C42.2017 351.672 42.5677 352.039 43.0191 352.039Z" fill="black"/>
</g>
<defs>
<linearGradient id="paint0_linear_1303_8884" x1="255.992" y1="462.507" x2="255.992" y2="15.0608" gradientUnits="userSpaceOnUse">
<stop stop-color="#808080" stop-opacity="0.25"/>
<stop offset="0.54" stop-color="#808080" stop-opacity="0.12"/>
<stop offset="1" stop-color="#808080" stop-opacity="0.1"/>
</linearGradient>
<clipPath id="clip0_1303_8884">
<rect width="610" height="478" fill="white"/>
</clipPath>
</defs>
</svg>
