<svg width="528" height="619" viewBox="0 0 528 619" fill="none" xmlns="http://www.w3.org/2000/svg">
<g clip-path="url(#clip0_1303_8756)">
<path d="M457.409 600.745C459.427 600.871 460.543 598.364 459.016 596.903L458.864 596.299C458.884 596.25 458.904 596.202 458.924 596.154C460.965 591.287 467.882 591.321 469.906 596.195C471.702 600.52 473.989 604.854 474.552 609.427C474.804 611.446 474.69 613.503 474.242 615.484C478.451 606.291 480.665 596.253 480.665 586.158C480.665 583.621 480.527 581.085 480.243 578.555C480.009 576.485 479.687 574.429 479.271 572.391C477.019 561.374 472.141 550.882 465.106 542.118C461.724 540.269 458.904 537.379 457.201 533.916C456.589 532.666 456.109 531.322 455.882 529.953C456.267 530.004 457.333 524.142 457.043 523.783C457.579 522.969 458.539 522.564 459.125 521.77C462.038 517.82 466.052 518.51 468.147 523.877C472.624 526.136 472.667 529.883 469.92 533.487C468.173 535.779 467.933 538.881 466.4 541.335C466.557 541.537 466.722 541.733 466.879 541.935C469.772 545.645 472.274 549.633 474.383 553.822C473.787 549.166 474.667 543.557 476.167 539.941C477.875 535.821 481.075 532.352 483.894 528.79C487.28 524.512 494.223 526.379 494.82 531.802C494.825 531.855 494.831 531.907 494.836 531.96C494.418 532.196 494.008 532.447 493.607 532.712C491.322 534.223 492.111 537.766 494.819 538.184L494.881 538.193C494.729 539.701 494.471 541.197 494.092 542.667C497.708 556.651 489.901 561.745 478.754 561.974C478.508 562.1 478.268 562.226 478.022 562.346C479.151 565.526 480.053 568.788 480.722 572.094C481.322 575.015 481.738 577.968 481.971 580.934C482.262 584.675 482.236 588.436 481.921 592.171L481.94 592.038C482.741 587.925 484.975 584.082 488.218 581.419C493.049 577.451 499.875 575.989 505.087 572.799C507.596 571.264 510.811 573.248 510.373 576.157L510.351 576.296C509.575 576.612 508.818 576.978 508.086 577.388C507.668 577.624 507.257 577.875 506.857 578.14C504.571 579.651 505.361 583.194 508.069 583.612L508.131 583.621C508.175 583.628 508.213 583.634 508.257 583.64C506.925 586.801 505.07 589.735 502.749 592.265C500.487 604.474 490.776 605.632 480.388 602.077H480.382C479.246 607.023 477.586 611.856 475.454 616.462H457.85C457.787 616.267 457.731 616.065 457.674 615.869C459.302 615.97 460.942 615.875 462.545 615.579C461.239 613.976 459.933 612.361 458.626 610.758C458.595 610.727 458.57 610.695 458.544 610.664C457.882 609.844 457.213 609.03 456.551 608.21L456.55 608.209C456.509 605.691 456.811 603.181 457.409 600.745L457.409 600.745Z" fill="#F2F2F2"/>
<path d="M75.7966 600.745C73.7785 600.871 72.6632 598.364 74.19 596.903L74.3419 596.299C74.3219 596.25 74.3018 596.202 74.2816 596.154C72.2406 591.287 65.3237 591.321 63.3002 596.195C61.5041 600.52 59.2174 604.854 58.6544 609.427C58.402 611.446 58.5156 613.503 58.9636 615.484C54.7551 606.291 52.5405 596.253 52.5405 586.158C52.5405 583.621 52.6794 581.085 52.9633 578.555C53.1967 576.485 53.5185 574.429 53.935 572.391C56.1874 561.374 61.0646 550.882 68.0997 542.118C71.4816 540.269 74.3019 537.379 76.0054 533.916C76.6174 532.666 77.097 531.322 77.3241 529.953C76.9392 530.004 75.8729 524.142 76.1632 523.783C75.6268 522.969 74.6668 522.564 74.081 521.77C71.1677 517.82 67.1539 518.51 65.0585 523.877C60.5822 526.136 60.5389 529.883 63.2855 533.487C65.0329 535.779 65.273 538.881 66.8062 541.335C66.6484 541.537 66.4844 541.733 66.3267 541.935C63.4341 545.645 60.9323 549.633 58.8233 553.822C59.4194 549.166 58.5394 543.557 57.0391 539.941C55.3314 535.821 52.1305 532.352 49.3117 528.79C45.9258 524.512 38.9829 526.379 38.3864 531.802C38.3806 531.855 38.375 531.907 38.3695 531.96C38.7881 532.196 39.1983 532.447 39.599 532.712C41.8844 534.223 41.0945 537.766 38.3866 538.184L38.3253 538.193C38.4767 539.701 38.7354 541.197 39.114 542.667C35.4978 556.651 43.3048 561.745 54.4522 561.974C54.6983 562.1 54.9381 562.226 55.1842 562.346C54.0548 565.526 53.1525 568.788 52.4837 572.094C51.8843 575.015 51.4679 577.968 51.2345 580.934C50.9442 584.675 50.9695 588.436 51.285 592.171L51.266 592.038C50.4647 587.925 48.2312 584.082 44.9881 581.419C40.1569 577.451 33.3313 575.989 28.1192 572.799C25.6103 571.264 22.3953 573.248 22.8332 576.157L22.8545 576.296C23.6306 576.612 24.3877 576.978 25.1196 577.388C25.5383 577.624 25.9484 577.875 26.3491 578.14C28.6345 579.651 27.8447 583.194 25.1368 583.612L25.0754 583.621C25.0312 583.628 24.9934 583.634 24.9493 583.64C26.2806 586.801 28.1355 589.735 30.4574 592.265C32.7185 604.474 42.4299 605.632 52.8181 602.077H52.8244C53.9601 607.023 55.6195 611.856 57.7522 616.462H75.3555C75.4187 616.267 75.4754 616.065 75.5322 615.869C73.9044 615.97 72.2639 615.875 70.6613 615.579C71.9674 613.976 73.2734 612.361 74.5795 610.758C74.611 610.727 74.6363 610.695 74.6615 610.664C75.324 609.844 75.9928 609.03 76.6553 608.21L76.6556 608.209C76.6971 605.691 76.3953 603.181 75.7972 600.745L75.7966 600.745Z" fill="#F2F2F2"/>
<path d="M0 617.838C0 618.482 0.51777 619 1.16253 619H526.024C526.669 619 527.187 618.482 527.187 617.838C527.187 617.193 526.669 616.675 526.024 616.675H1.16253C0.51777 616.675 0 617.193 0 617.838Z" fill="#CCCCCC"/>
<path d="M378.411 595.476L388.779 595.389L393.368 554.466L378.066 554.595L378.411 595.476Z" fill="#A0616A"/>
<path d="M409.589 608.168L393.03 596.936L392.968 589.517L389.407 589.755L378.369 590.516L375.663 590.696L373.699 616.919L381.477 616.848L382.802 609.496L386.411 616.811L407.025 616.639C409.586 616.615 411.643 614.515 411.62 611.963C411.608 610.441 410.849 609.024 409.589 608.168H409.589Z" fill="#2F2E41"/>
<path d="M325.66 595.476L336.028 595.389L340.617 554.466L325.315 554.595L325.66 595.476Z" fill="#A0616A"/>
<path d="M356.838 608.168L340.279 596.936L340.217 589.517L336.656 589.755L325.618 590.516L322.912 590.696L320.948 616.919L328.726 616.848L330.051 609.496L333.66 616.811L354.274 616.639C356.835 616.615 358.892 614.515 358.87 611.963C358.857 610.441 358.098 609.024 356.838 608.168H356.838Z" fill="#2F2E41"/>
<path d="M407.426 50.5819C404.393 55.6831 406.07 62.2769 411.171 65.3094C413.509 66.699 416.157 67.089 418.635 66.6245L418.645 66.6354L431.965 81.228L447.615 75.5567L427.084 53.1351L427.011 53.2115C426.299 50.6321 424.635 48.3113 422.153 46.8359C417.052 43.8034 410.458 45.4805 407.426 50.5819Z" fill="#A0616A"/>
<path d="M419.096 264.615L377.07 265.942L337.255 274.789C337.255 274.789 341.237 279.656 327.965 292.927C327.965 292.927 310.27 323.894 322.657 353.976L326.128 432.653C326.128 432.653 329.089 438.885 326.42 439.286C323.752 439.687 323.943 444.353 326.778 447.393C329.613 450.433 327.04 453.338 327.04 453.338C332.501 456.978 328.473 466.784 327.965 474.303C327.965 474.303 312.487 559.127 324.313 586.123L339.943 587.1L366.391 475.282L379.281 354.86L385.475 473.419C385.475 473.419 361.781 554.795 376.743 587.1L393.671 586.123L422.635 473.419C422.635 473.419 427.51 422.232 430.706 377.966C430.94 374.729 429.595 367.424 431.378 368.388C433.161 369.353 428.663 361.657 431.889 360.621C435.115 359.584 429.688 351.574 432.401 352.16C435.115 352.746 430.663 288.463 430.23 282.411C428.461 257.638 419.096 264.615 419.096 264.615Z" fill="#2F2E41"/>
<path d="M397.07 160.059C392.602 160.059 388.292 158.327 384.978 155.082C380.532 150.729 378.77 144.524 380.265 138.484C381.987 131.528 387.688 126.407 394.787 125.437L453.622 117.403L423.398 74.9126L440.399 66.2844L484.495 116.912C487.579 120.454 488.605 125.25 487.239 129.744C485.872 134.237 482.35 137.65 477.816 138.875L401.672 159.443C400.142 159.856 398.597 160.059 397.07 160.059Z" fill="#E6E6E6"/>
<path d="M433.722 282.317L327.244 287.201C324.319 282.76 325.111 276.083 329.207 267.721C344.67 236.148 332.926 176.42 325.026 145.319C322.81 136.593 328.76 127.918 337.718 127.022L347.758 126.018L357.038 97.6887H389.54L403.024 113.093L425.907 126.995C421.742 169.899 403.995 230.482 429.278 260.865C434.808 267.51 436.376 274.695 433.722 282.317Z" fill="#E6E6E6"/>
<path d="M371.303 93.5899C368.838 94.5009 366.318 95.3566 363.695 95.9958C360.287 96.8263 358.363 97.2113 355.074 95.9347C354.958 95.8899 354.848 95.8456 354.744 95.802C342.459 90.6773 333.746 78.4558 333.477 64.1188C333.461 63.8864 333.461 63.6421 333.461 63.4037C333.461 62.2477 333.51 61.0976 333.625 59.9655C333.773 58.3923 334.02 56.849 334.371 55.3414L334.338 55.3354C331.675 52.6122 330.65 48.882 330.99 45.1339C331.422 40.2357 334.179 35.3018 338.606 32.525C341.9 30.4632 345.653 29.0867 349.681 28.616C350.727 28.4968 351.785 28.4313 352.865 28.4313H362.86C364.98 27.9426 367.09 27.603 369.134 27.4421H369.15C389.266 25.7736 405.13 39.1095 403.651 55.3354C403.64 55.3533 403.623 55.3712 403.612 55.3891C403.185 56.0863 402.807 56.7477 402.472 57.3793C402.149 57.9693 401.875 58.5353 401.639 59.0717C399.804 63.219 408.527 127.565 405.399 128.542C403.618 129.097 396.439 81.2147 397.727 90.3198C399.349 101.743 380.57 90.1642 371.303 93.5899V93.5899Z" fill="#2F2E41"/>
<path d="M371.568 89.1307C384.635 89.1307 395.229 78.5376 395.229 65.4704C395.229 52.4032 384.635 41.8101 371.568 41.8101C358.501 41.8101 347.908 52.4032 347.908 65.4704C347.908 78.5376 358.501 89.1307 371.568 89.1307Z" fill="#A0616A"/>
<path d="M392.143 55.465C391.749 55.6732 391.36 55.865 390.965 56.0567C390.554 56.254 390.143 56.4513 389.727 56.6376C381.808 60.2268 375.359 60.6268 371.446 55.465C371.337 52.7634 370.734 50.0784 369.643 47.5851C369.846 50.3469 369.09 53.1635 367.556 55.465H359.676C351.56 60.8515 347.396 65.7997 353.029 83.4827C353.396 84.6444 355.911 125.918 356.629 129.09C344.344 124.378 333.746 74.3425 333.477 61.1584C333.461 60.9447 333.461 60.72 333.461 60.5008C333.461 59.4378 333.51 58.3801 333.625 57.339C333.773 55.8924 334.02 54.4731 334.371 53.0868L334.338 53.0813C331.675 50.577 330.65 47.1467 330.99 43.7C333.039 41.0149 335.587 38.7244 338.508 36.96C341.122 35.6887 343.878 34.6585 346.738 33.8694C346.81 33.853 346.87 33.8365 346.941 33.8201C347.807 33.5844 348.695 33.3707 349.582 33.1844C351.396 32.8063 353.237 32.5214 355.122 32.346C355.259 32.3406 355.391 32.3296 355.511 32.3296C356.284 32.3296 357.002 32.5433 357.626 32.9104C357.632 32.9104 357.632 32.9159 357.643 32.9159C358.098 33.1844 358.503 33.5406 358.821 33.968C359.364 34.6585 359.676 35.5243 359.676 36.4668H368.454C368.778 36.4668 369.101 36.4777 369.424 36.4942C381.649 36.9819 391.475 42.2095 392.105 54.2265C392.132 54.643 392.143 55.0485 392.143 55.465Z" fill="#2F2E41"/>
<path d="M340.243 56.4161C348.852 56.4161 355.831 49.4373 355.831 40.8285C355.831 32.2198 348.852 25.241 340.243 25.241C331.634 25.241 324.656 32.2198 324.656 40.8285C324.656 49.4373 331.634 56.4161 340.243 56.4161Z" fill="#2F2E41"/>
<path d="M361.643 33.6189C359.872 42.0436 351.135 47.0823 342.777 45.0211C334.419 42.96 329.314 34.5133 331.375 26.1549C333.436 17.7965 343.58 20.2062 350.241 14.7527C359.664 7.03798 364.031 22.2576 361.643 33.6189Z" fill="#2F2E41"/>
<path d="M390.324 212.221C389.1 206.414 383.4 202.699 377.593 203.924C374.932 204.485 372.719 205.992 371.211 208.012L371.196 208.011L351.513 206.299L343.842 221.071L374.133 223.658L374.135 223.553C376.407 224.968 379.202 225.548 382.027 224.952C387.834 223.728 391.549 218.028 390.324 212.221V212.221Z" fill="#A0616A"/>
<path d="M300.149 224.939C294.523 224.939 289.375 222.109 286.359 217.352C283.327 212.568 282.977 206.661 285.424 201.553L317.572 134.446C320.26 128.834 325.566 125.166 331.766 124.636C337.956 124.103 343.818 126.817 347.422 131.89C351.571 137.733 351.735 145.394 347.838 151.408L315.553 201.243L367.474 206.05L362.925 224.564L300.25 224.939L300.149 224.939Z" fill="#E6E6E6"/>
<path d="M421.035 74.1922C421.035 74.1732 421.036 74.1556 421.039 74.1405C421.075 73.8876 421.347 73.8399 421.437 73.824C421.912 73.7405 424.557 73.8032 424.921 74.4853C425.032 74.6942 425.71 74.6381 426.204 74.5972C426.551 74.5685 426.91 74.5387 427.221 74.5647C435.205 75.2261 441.354 75.1084 445.002 74.2247C447.764 73.5554 450.076 71.8389 451.511 69.3913C452.943 66.9513 453.324 64.1112 452.551 61.3818L450.369 53.5684C449.616 50.8695 447.849 48.6406 445.392 47.2924C442.919 45.9351 440.066 45.6405 437.358 46.4623C432.305 47.9964 424.999 52.5799 419.761 56.1547C419.547 56.301 419.244 56.4582 418.951 56.6103C418.7 56.7402 418.346 56.924 418.18 57.0456C418.216 57.1283 418.199 57.2025 418.193 57.2318C418.136 57.4604 417.913 57.4995 417.631 57.5485C417.456 57.5791 417.046 57.6506 416.977 57.7649C416.967 57.7816 416.976 57.8194 416.984 57.84C417.065 58.0822 416.955 58.2089 416.885 58.2621C416.674 58.4209 416.47 58.2832 416.101 58.0327C415.819 57.8419 415.158 57.3945 414.952 57.5321C414.898 57.5678 414.648 57.822 414.956 59.3371C415.044 59.7684 414.959 60.1544 414.71 60.4528C414.11 61.1745 412.737 61.1593 412.679 61.1584L408.981 60.8148C402.155 60.1787 395.514 62.6464 390.76 67.5856L390.703 67.6441L387.144 68.5614L389.862 79.1063L393.519 78.1637L393.612 78.2058C399.168 80.7366 405.713 79.5753 413.623 74.6555L415.868 73.2586L415.95 73.2584C417.429 73.2558 419.256 73.3407 419.565 73.7592C419.614 73.8255 419.641 73.9017 419.642 73.98C419.866 74.1002 420.584 74.1918 421.035 74.1923L421.035 74.1922Z" fill="#6C63FF"/>
<path d="M384.402 80.8843C384.51 81.3048 384.94 81.5587 385.361 81.4503L390.495 80.1268C390.916 80.0184 391.17 79.5883 391.061 79.1677L388.022 67.373C387.913 66.9525 387.483 66.6986 387.062 66.807L381.928 68.1304C381.507 68.2388 381.253 68.669 381.362 69.0896L384.402 80.8843Z" fill="#3F3D56"/>
<path d="M384.113 78.2059C385.731 78.2059 387.043 76.8939 387.043 75.2753C387.043 73.6568 385.731 72.3447 384.113 72.3447C382.494 72.3447 381.182 73.6568 381.182 75.2753C381.182 76.8939 382.494 78.2059 384.113 78.2059Z" fill="#3F3D56"/>
<path d="M217.539 602.916L204.116 602.915L197.731 551.14L217.542 551.141L217.539 602.916Z" fill="#FFB6B6"/>
<path d="M218.012 616.919L176.734 616.917V616.395C176.735 607.522 183.928 600.329 192.801 600.329H192.802L200.342 594.609L214.409 600.33L218.013 600.33L218.012 616.919Z" fill="#2F2E41"/>
<path d="M163.812 602.916L150.389 602.915L144.003 551.14L163.814 551.141L163.812 602.916Z" fill="#FFB6B6"/>
<path d="M164.284 616.919L123.006 616.917V616.395C123.007 607.522 130.2 600.329 139.073 600.329H139.074L146.614 594.609L160.681 600.33L164.285 600.33L164.284 616.919Z" fill="#2F2E41"/>
<path d="M162.5 40.6691C166.621 45.1915 166.296 52.199 161.774 56.3207C159.702 58.2093 157.108 59.153 154.509 59.1983L154.501 59.2114L130.893 99.6425L114.185 91.5068L143.176 47.3288L143.265 47.3909C143.45 44.6379 144.648 41.9487 146.848 39.9434C151.37 35.8217 158.378 36.1467 162.5 40.6691L162.5 40.6691Z" fill="#FFB6B6"/>
<path d="M149.454 260.826C149.454 260.826 128.637 410.727 140.723 439.936L142.398 569.865H165.183L184.979 446.986C184.979 446.986 182.965 443.964 186.994 439.936C191.022 435.907 191.022 439.936 191.022 435.907C191.022 431.878 179.943 417.777 179.943 417.777L189.736 360.367L197.794 569.865L218.945 568.858C218.945 568.858 239.089 501.375 236.067 470.152C236.067 470.152 234.053 449.001 234.053 445.979C234.053 442.957 231.031 437.921 234.053 434.9C237.075 431.878 237.929 424.28 236.494 423.043C235.06 421.806 235.06 416.191 235.06 416.191L257.219 335.187V273.153L149.454 260.826H149.454Z" fill="#2F2E41"/>
<path d="M220.959 74.3213L190.743 77.3429L176.119 96.7206L158.513 109.63V216.527L162.153 241.288C154.238 246.977 142.977 256.421 147.5 266.687C147.5 266.687 233.53 294.559 257.702 270.386L255.688 209.286L261.79 125.282C263 108.63 252.393 93.4037 236.355 88.7663L223.608 85.0806L220.959 74.3213L220.959 74.3213Z" fill="#E6E6E6"/>
<path d="M251.826 326.691C257.85 325.617 261.863 319.863 260.789 313.839C260.297 311.079 258.815 308.75 256.782 307.13L256.784 307.115L260.817 251.057L243.235 242.358L240.564 309.635L240.672 309.64C239.141 311.935 238.452 314.797 238.974 317.728C240.048 323.752 245.802 327.764 251.826 326.691L251.826 326.691Z" fill="#FFB6B6"/>
<path d="M261.793 271.571L242.256 272.548L234.855 232.923L218.232 123.33C217.273 117.006 219.054 110.546 223.117 105.605C227.18 100.666 233.176 97.6726 239.566 97.3941C251.641 96.8574 261.949 105.886 263.032 117.924L271.107 207.722L261.793 271.571Z" fill="#E6E6E6"/>
<path d="M159.52 108.566L161.534 150.869L115.329 151.969C98.475 152.371 87.9017 133.91 96.7756 119.576L121.299 76.356L137.24 90.4766L125.275 119.646L159.52 108.566L159.52 108.566Z" fill="#E6E6E6"/>
<path d="M199.856 66.8891C215.438 66.8891 228.07 54.2572 228.07 38.675C228.07 23.0928 215.438 10.4609 199.856 10.4609C184.274 10.4609 171.642 23.0928 171.642 38.675C171.642 54.2572 184.274 66.8891 199.856 66.8891Z" fill="#FFB6B6"/>
<path d="M227.945 57.9498C224.868 61.7986 222.24 64.0552 218 65.667C217.932 65.0809 217.893 64.485 217.903 63.8891C217.317 64.6901 216.74 65.4911 216.144 66.2922C213.507 67.103 210.283 67.7379 206.112 68.3827L204.061 62.1209C203.738 59.2881 205.614 56.6798 207.704 54.7358C209.795 52.8016 212.237 51.1409 213.673 48.6792C215.109 46.2175 215.089 42.5445 212.696 41.001C210.342 39.4673 207.108 40.7275 204.451 39.8191C201.384 38.7738 199.948 35.0226 200.456 31.8185C200.964 28.6144 202.908 25.8498 204.793 23.222C200.397 25.1367 193.745 25.3809 187.268 24.238C187.503 22.2159 187.014 20.0961 185.793 18.4647C185.676 20.3305 184.806 22.1279 183.439 23.3881C177.216 21.7177 171.648 18.748 169.108 14.7428C170.232 14.4498 171.355 14.1469 172.478 13.8539C172.156 11.5485 171.834 9.25282 171.511 6.9572C172.879 7.63124 174.256 8.31506 175.634 8.9891C175.897 8.20756 176.298 7.5238 176.806 6.91809C177.968 6.54693 179.17 6.32221 180.391 6.23433C180.782 6.21477 181.182 6.19521 181.583 6.19521C182.169 6.19521 182.775 6.21477 183.361 6.28316C182.628 5.6189 181.886 4.96435 181.153 4.29037C181.065 4.2122 180.987 4.13404 180.899 4.05587C182.237 3.47955 183.683 3.03995 185.051 2.65896C191.029 0.998272 197.222 -0.672134 203.357 0.275399C207.276 0.881673 211.175 2.86351 213.718 5.81927C215.988 8.45791 219.194 10.0215 222.606 10.7121C224.245 11.0439 225.833 11.7774 227.154 12.7989C226.323 13.3361 225.444 13.8051 224.526 14.1763C226.265 14.5963 227.994 15.0164 229.733 15.4462C231.354 17.5855 232.458 20.1352 233.298 22.6945C237.186 34.4854 235.701 48.2592 227.945 57.9498H227.945Z" fill="#2F2E41"/>
<path d="M129.862 51.092C129.864 51.1115 129.864 51.1298 129.862 51.1455C129.844 51.4082 129.568 51.478 129.477 51.5011C128.994 51.6231 126.27 51.7592 125.844 51.0855C125.713 50.8791 125.021 50.9882 124.516 51.0678C124.162 51.1236 123.795 51.1815 123.472 51.1784C115.213 51.1041 108.9 51.6917 105.215 52.8771C102.426 53.7749 100.179 55.7153 98.8885 58.341C97.6022 60.9586 97.4251 63.9079 98.4275 66.6557L101.263 74.5243C102.243 77.2424 104.229 79.4002 106.858 80.6001C109.503 81.8081 112.46 81.8945 115.181 80.844C120.262 78.8831 127.425 73.6158 132.541 69.5425C132.75 69.3759 133.049 69.1912 133.339 69.0125C133.587 68.86 133.937 68.6442 134.098 68.5065C134.055 68.4242 134.067 68.3466 134.072 68.316C134.112 68.0767 134.339 68.0196 134.625 67.9477C134.803 67.903 135.219 67.7984 135.281 67.6757C135.29 67.6577 135.277 67.6195 135.268 67.5989C135.167 67.3561 135.269 67.2174 135.338 67.1573C135.543 66.9781 135.763 67.1042 136.162 67.3338C136.466 67.5086 137.179 67.9185 137.381 67.7613C137.433 67.7206 137.672 67.4402 137.24 65.9057C137.117 65.4689 137.175 65.0655 137.408 64.7398C137.97 63.9522 139.383 63.8636 139.443 63.8601L143.272 63.9328C150.339 64.069 156.98 61.0276 161.494 55.5883L161.547 55.5238L165.138 54.3105L161.543 43.6738L157.854 44.9206L157.756 44.8843C151.85 42.7036 145.208 44.3943 137.448 50.0533L135.246 51.66L135.162 51.6664C133.641 51.7813 131.756 51.8326 131.407 51.4257C131.351 51.3613 131.318 51.2849 131.311 51.2045C131.071 51.098 130.326 51.0583 129.862 51.092V51.092Z" fill="#6C63FF"/>
<path d="M167.023 41.4315C166.879 41.0072 166.418 40.7788 165.994 40.9222L160.814 42.6727C160.39 42.816 160.162 43.2776 160.305 43.7018L164.326 55.5991C164.469 56.0234 164.931 56.2518 165.355 56.1084L170.534 54.358C170.959 54.2146 171.187 53.753 171.044 53.3288L167.023 41.4315Z" fill="#3F3D56"/>
<path d="M167.745 50.1985C169.414 50.1985 170.767 48.8457 170.767 47.1769C170.767 45.5081 169.414 44.1553 167.745 44.1553C166.077 44.1553 164.724 45.5081 164.724 47.1769C164.724 48.8457 166.077 50.1985 167.745 50.1985Z" fill="#3F3D56"/>
</g>
<defs>
<clipPath id="clip0_1303_8756">
<rect width="527.187" height="619" fill="white"/>
</clipPath>
</defs>
</svg>
