<svg width="841" height="712" viewBox="0 0 841 712" fill="none" xmlns="http://www.w3.org/2000/svg">
<g clip-path="url(#clip0_1303_8616)">
<path d="M785.45 622.755C785.45 622.755 662.836 566.286 705.91 527.126C748.984 487.967 785.45 622.755 785.45 622.755Z" fill="#E6E6E6"/>
<path d="M783.316 635.932C783.316 635.932 726.958 450.679 809.947 459.539C892.936 468.398 783.316 635.932 783.316 635.932Z" fill="#E6E6E6"/>
<path d="M742.225 619.502L744.59 650.491L744.628 651.026C744.625 655.865 744.87 660.702 745.36 665.516C748.57 697.124 762.368 711.53 778.494 711.53C794.62 711.53 807.818 697.124 811.028 665.516C811.518 660.702 811.762 655.865 811.76 651.026L811.779 650.594L811.788 650.491L814.163 619.502H742.225Z" fill="#E6E6E6"/>
<path d="M811.788 650.491L811.779 650.594L811.76 651.026C811.762 655.865 811.518 660.702 811.028 665.516H745.36C744.87 660.702 744.625 655.865 744.628 651.026L744.59 650.491H811.788Z" fill="white"/>
<path d="M92.5942 649.723C92.5942 649.723 47.0014 628.726 63.0182 614.165C79.0349 599.604 92.5942 649.723 92.5942 649.723Z" fill="#E6E6E6"/>
<path d="M62.4004 647.499L64.0462 669.06L64.0723 669.433C64.0708 672.8 64.2408 676.165 64.5818 679.514C66.8153 701.507 76.4158 711.53 87.6358 711.53C98.8559 711.53 108.038 701.507 110.272 679.514C110.613 676.165 110.783 672.8 110.781 669.433L110.794 669.132L110.801 669.06L112.453 647.499L62.4004 647.499Z" fill="#E6E6E6"/>
<path d="M571.442 335.223C573.152 334.041 574.497 332.403 575.324 330.495C576.151 328.587 576.427 326.485 576.121 324.428C575.814 322.371 574.938 320.441 573.591 318.857C572.244 317.273 570.48 316.099 568.499 315.467L542.973 307.322L528.946 319.482L559.911 335.9C561.71 336.855 563.738 337.296 565.771 337.177C567.805 337.057 569.766 336.381 571.442 335.223Z" fill="#FFB9B9"/>
<path d="M528.516 327.422L545.344 307.901L482.682 239.291L453.83 172.371C451.929 167.962 448.545 164.357 444.265 162.184C439.985 160.01 435.079 159.404 430.399 160.471C427.338 161.169 424.478 162.559 422.038 164.535C419.598 166.511 417.643 169.02 416.323 171.87C415.004 174.719 414.354 177.834 414.425 180.973C414.495 184.113 415.284 187.195 416.73 189.982L454.387 262.546L528.516 327.422Z" fill="#E6E6E6"/>
<path d="M568.718 586.014L565.493 581.006H559.538V578.821H566.683L570.555 584.83L568.718 586.014Z" fill="#3F3D56"/>
<path d="M555.354 581.006H542.802V578.821H555.354V581.006ZM538.617 581.006H526.064V578.821H538.617V581.006ZM521.881 581.006H509.328V578.821H521.881L521.881 581.006ZM505.144 581.006H492.591V578.821H505.144V581.006ZM488.408 581.006H475.855V578.821H488.408V581.006ZM471.671 581.006L460.042 580.996L458.984 580.855L459.272 578.69L460.258 578.821H471.671V581.006ZM454.836 580.304L442.393 578.651L442.681 576.485L455.124 578.139L454.836 580.304ZM438.245 578.099L425.802 576.445L426.09 574.279L438.533 575.934L438.245 578.099ZM421.655 575.893L409.212 574.24L409.5 572.075L421.943 573.728L421.655 575.893ZM405.064 573.689L392.621 572.034L392.909 569.869L405.352 571.523L405.064 573.689Z" fill="#3F3D56"/>
<path d="M383.027 576.119L380.845 576.058L381.066 568.294L388.761 569.318L388.473 571.482L383.18 570.78L383.027 576.119Z" fill="#3F3D56"/>
<path d="M381.357 634.601L379.175 634.539L379.592 619.918L381.775 619.98L381.357 634.601ZM381.914 615.106L379.732 615.045L380.149 600.424L382.331 600.486L381.914 615.106ZM382.471 595.612L380.288 595.551L380.706 580.93L382.888 580.992L382.471 595.612Z" fill="#3F3D56"/>
<path d="M378.814 647.177L379.036 639.413L381.218 639.474L381.065 644.812L386.385 644.398L386.556 646.576L378.814 647.177Z" fill="#3F3D56"/>
<path d="M390.734 646.252L390.564 644.074L403.1 643.099L403.269 645.277L390.734 646.252ZM407.448 644.953L407.278 642.774L419.814 641.8L419.984 643.978L407.448 644.953ZM424.162 643.653L423.993 641.475L436.529 640.5L436.697 642.678L424.162 643.653ZM440.876 642.354L440.707 640.176L453.242 639.201L453.411 641.379L440.876 642.354ZM457.589 641.055L457.421 638.877L469.957 637.902L470.126 640.08L457.589 641.055ZM474.304 639.756L474.136 637.578L486.671 636.603L486.839 638.781L474.304 639.756ZM491.018 638.457L490.849 636.278L503.385 635.304L503.554 637.482L491.018 638.457ZM507.732 637.157L507.564 634.979L520.099 634.004L520.268 636.183L507.732 637.157ZM524.446 635.858L524.277 633.68L536.814 632.705L536.982 634.883L524.446 635.858ZM541.161 634.559L540.992 632.381L553.527 631.406L553.696 633.584L541.161 634.559ZM557.874 633.26L557.706 631.082L570.242 630.107L570.411 632.285L557.874 633.26ZM574.589 631.961L574.42 629.783L586.956 628.808L587.124 630.986L574.589 631.961Z" fill="#3F3D56"/>
<path d="M591.303 630.662L591.134 628.484L595.841 628.118L593.283 624.149L595.12 622.965L599.658 630.012L591.303 630.662Z" fill="#3F3D56"/>
<path d="M590.554 619.911L582.366 607.2L584.202 606.016L592.39 618.727L590.554 619.911ZM579.636 602.963L571.448 590.252L573.284 589.068L581.472 601.779L579.636 602.963Z" fill="#3F3D56"/>
<path d="M550.257 677.67C591.259 677.67 624.498 644.417 624.498 603.397C624.498 562.377 591.259 529.124 550.257 529.124C509.255 529.124 476.016 562.377 476.016 603.397C476.016 644.417 509.255 677.67 550.257 677.67Z" fill="#6C63FF"/>
<path d="M611.397 689.685L502.765 496.903L478.746 520.932L585.74 689.138L611.397 689.685Z" fill="#3F3D56"/>
<path d="M282.225 684.769L526.238 437.375L546.436 477.242L314.979 695.692L282.225 684.769Z" fill="#3F3D56"/>
<path d="M381.577 658.555C408.711 658.555 430.707 636.55 430.707 609.404C430.707 582.259 408.711 560.253 381.577 560.253C354.443 560.253 332.447 582.259 332.447 609.404C332.447 636.55 354.443 658.555 381.577 658.555Z" fill="#3F3D56"/>
<path d="M316.07 623.603C315.781 623.604 315.503 623.719 315.299 623.924C315.094 624.128 314.979 624.406 314.979 624.696V633.434C314.979 633.723 315.094 634.001 315.299 634.206C315.503 634.41 315.781 634.526 316.07 634.526H343.365C343.654 634.526 343.932 634.41 344.137 634.206C344.341 634.001 344.456 633.723 344.457 633.434V624.696C344.456 624.406 344.341 624.128 344.137 623.924C343.932 623.719 343.654 623.604 343.365 623.603H316.07Z" fill="#6C63FF"/>
<path d="M378.848 501.818C378.558 501.818 378.281 501.933 378.076 502.138C377.871 502.343 377.756 502.62 377.756 502.91V511.648C377.756 511.937 377.871 512.215 378.076 512.42C378.281 512.625 378.558 512.74 378.848 512.74H406.142C406.432 512.74 406.709 512.625 406.914 512.42C407.119 512.215 407.234 511.937 407.234 511.648V502.91C407.234 502.62 407.119 502.343 406.914 502.138C406.709 501.933 406.432 501.818 406.142 501.818H378.848Z" fill="#6C63FF"/>
<path d="M511.499 483.796H483.113V461.951L494.031 457.582L511.499 470.689V483.796Z" fill="#3F3D56"/>
<path d="M486.705 452.049L483.744 453.45L489.347 465.299L492.307 463.897L486.705 452.049Z" fill="#3F3D56"/>
<path d="M489.844 437.873C489.635 437.873 489.431 437.933 489.256 438.046L469.972 450.454C469.729 450.611 469.558 450.858 469.496 451.141C469.435 451.424 469.488 451.72 469.645 451.964L474.369 459.313C474.526 459.556 474.773 459.728 475.055 459.789C475.338 459.851 475.634 459.797 475.878 459.641L495.162 447.233V447.234C495.405 447.076 495.576 446.829 495.637 446.546C495.699 446.263 495.645 445.967 495.489 445.724L490.765 438.374C490.687 438.254 490.587 438.149 490.469 438.068C490.351 437.986 490.218 437.928 490.078 437.898C490.001 437.881 489.922 437.873 489.844 437.873Z" fill="#6C63FF"/>
<path d="M533.335 481.611L510.953 372.932L537.156 368.563L555.022 456.113C555.79 459.287 555.796 462.597 555.04 465.774C554.284 468.95 552.787 471.903 550.672 474.39C548.557 476.877 545.883 478.828 542.87 480.083C539.856 481.338 536.589 481.861 533.335 481.611Z" fill="#3F3D56"/>
<path d="M615.799 351.519L589.878 349.667C589.532 349.642 589.196 349.535 588.899 349.354C588.602 349.174 588.353 348.925 588.171 348.628C587.99 348.332 587.882 347.997 587.856 347.65C587.83 347.303 587.888 346.956 588.023 346.636L625.674 257.698C625.816 257.363 626.039 257.069 626.323 256.842C626.607 256.616 626.943 256.463 627.301 256.4L652.868 251.832C653.25 251.764 653.643 251.799 654.007 251.933C654.372 252.067 654.693 252.297 654.94 252.597C655.186 252.897 655.348 253.257 655.408 253.641C655.469 254.024 655.427 254.417 655.285 254.779L617.988 350.136C617.818 350.57 617.514 350.938 617.12 351.187C616.726 351.436 616.263 351.552 615.799 351.519Z" fill="#3F3D56"/>
<path d="M593.383 342.895L614.126 345.08L647.972 259.885L626.136 263.161L593.383 342.895Z" fill="#6C63FF"/>
<path d="M367.384 576.637L340.089 603.943L300.785 432.46L322.621 435.737L367.384 576.637Z" fill="#3F3D56"/>
<path d="M335.576 435.477L330.862 434.062C321.599 438.147 311.52 440.045 301.406 439.607C299.222 439.516 297.158 438.581 295.649 436.999C294.139 435.416 293.303 433.309 293.315 431.122C293.315 428.87 294.209 426.71 295.801 425.117C297.393 423.524 299.553 422.63 301.804 422.63H342.983C344.098 422.63 345.167 423.073 345.955 423.861C346.743 424.65 347.186 425.719 347.186 426.835C347.186 428.241 346.858 429.628 346.226 430.885C345.595 432.142 344.679 433.234 343.551 434.073C342.423 434.913 341.115 435.477 339.73 435.721C338.345 435.964 336.923 435.881 335.576 435.477Z" fill="#3F3D56"/>
<path d="M596.405 328.236C595.351 328.234 594.325 328.58 593.487 329.22L559.968 354.863L522.448 359.759C515.988 360.602 511.514 367.633 510.953 374.025L555.119 367.889C561.254 367.297 567.053 364.807 571.708 360.766L599.55 336.676C600.293 336.035 600.821 335.182 601.065 334.232C601.308 333.282 601.255 332.28 600.913 331.361C600.57 330.442 599.955 329.65 599.149 329.091C598.343 328.533 597.386 328.234 596.405 328.236Z" fill="#3F3D56"/>
<path d="M580.029 311.852C578.974 311.851 577.949 312.197 577.111 312.837L543.592 338.48L506.071 343.376C499.611 344.219 495.137 351.249 494.577 357.641L538.743 351.505C544.878 350.913 550.676 348.424 555.331 344.382L583.174 320.292C583.916 319.651 584.445 318.799 584.688 317.849C584.932 316.898 584.879 315.897 584.536 314.978C584.194 314.059 583.578 313.266 582.772 312.708C581.967 312.149 581.009 311.85 580.029 311.852Z" fill="#3F3D56"/>
<path d="M600.479 377.847C592.674 377.831 584.981 375.983 578.02 372.451C571.058 368.919 565.022 363.803 560.397 357.513L564.798 354.283C568.329 359.107 572.8 363.166 577.943 366.213C583.085 369.26 588.792 371.233 594.717 372.012C600.643 372.79 606.665 372.359 612.42 370.745C618.174 369.13 623.542 366.365 628.199 362.616C632.855 358.868 636.704 354.214 639.512 348.936C642.32 343.658 644.029 337.865 644.537 331.907C645.044 325.949 644.339 319.95 642.464 314.273C640.59 308.596 637.584 303.357 633.628 298.875L637.72 295.259C644.049 302.43 648.174 311.277 649.6 320.736C651.026 330.195 649.693 339.865 645.761 348.585C641.829 357.305 635.465 364.705 627.433 369.895C619.401 375.086 610.042 377.847 600.479 377.847V377.847Z" fill="#3F3D56"/>
<path d="M638.691 684.223H252.201V711.53H638.691V684.223Z" fill="#3F3D56"/>
<path d="M543.977 363.322C545.907 362.549 547.582 361.251 548.812 359.575C550.042 357.898 550.778 355.91 550.936 353.837C551.095 351.763 550.669 349.687 549.707 347.843C548.745 345.999 547.287 344.462 545.496 343.405L522.417 329.788L506.04 338.526L532.583 361.418C534.126 362.749 536.004 363.63 538.014 363.966C540.023 364.301 542.085 364.079 543.977 363.322Z" fill="#FFB9B9"/>
<path d="M363.017 459.766L378.302 468.504L472.684 399.003C476.145 396.637 479.079 393.581 481.303 390.026C483.527 386.471 484.992 382.494 485.607 378.346C486.374 373.101 485.763 367.746 483.833 362.809C481.903 357.872 478.721 353.524 474.601 350.191C453.757 333.255 427.997 317.893 400.683 303.028L360.288 322.689C376.935 356.839 395.416 384.996 422.519 384.947L363.017 459.766Z" fill="#6C63FF"/>
<path d="M356.354 482.015C369.036 494.869 385.735 504.065 404.388 511.484C405.794 512.041 407.338 512.148 408.807 511.791C410.277 511.434 411.599 510.63 412.593 509.49C413.8 508.106 414.442 506.318 414.391 504.482C414.341 502.646 413.602 500.896 412.321 499.581L400.23 487.163L392.925 461.133C377.238 468.891 366.952 467.154 364.924 450.902L355.036 464.392C353.125 467.007 352.207 470.217 352.449 473.447C352.691 476.677 354.075 479.714 356.354 482.015Z" fill="#2F2E41"/>
<path d="M313.887 597.39L336.814 598.482L389.22 328.696L299.148 299.752C290.155 333.388 303.507 388.445 326.988 453.213L313.887 597.39Z" fill="#6C63FF"/>
<path d="M490.209 152.298C510.108 152.298 526.238 136.16 526.238 116.254C526.238 96.3471 510.108 80.2096 490.209 80.2096C470.311 80.2096 454.181 96.3471 454.181 116.254C454.181 136.16 470.311 152.298 490.209 152.298Z" fill="#FFB9B9"/>
<path d="M424.157 160.49L447.084 176.874L482.021 141.922L464.553 120.077L424.157 160.49Z" fill="#FFB9B9"/>
<path d="M295.327 302.482C323.602 325.534 354.478 340.686 392.495 334.157C403.983 315.784 412.465 277.078 426.886 260.431C458.379 224.077 473.998 191.673 464.007 162.128C454.294 155.776 454.722 155.786 447.63 134.822C392.084 145.103 338.309 207.833 295.327 302.482Z" fill="#E6E6E6"/>
<path d="M313.52 619.868C329.84 627.589 348.679 630.496 368.744 631.063C370.256 631.104 371.743 630.675 373.001 629.835C374.258 628.995 375.225 627.786 375.767 626.373C376.426 624.659 376.416 622.76 375.74 621.052C375.063 619.345 373.768 617.955 372.114 617.159L356.498 609.645L340.711 587.702C328.636 600.373 318.378 602.272 310.9 587.702L306.238 603.767C305.34 606.879 305.579 610.209 306.914 613.16C308.248 616.111 310.591 618.489 313.52 619.868Z" fill="#2F2E41"/>
<path d="M503.857 346.172L524.6 330.881L478.746 250.054L465.481 178.394C464.607 173.672 462.108 169.405 458.418 166.334C454.727 163.263 450.079 161.582 445.279 161.582C442.14 161.582 439.042 162.302 436.224 163.686C433.406 165.07 430.943 167.082 429.023 169.566C427.103 172.051 425.778 174.943 425.15 178.02C424.521 181.097 424.605 184.277 425.397 187.316L445.992 266.438L503.857 346.172Z" fill="#E6E6E6"/>
<path d="M399.592 511.648H387.582V577.183H399.592V511.648Z" fill="#3F3D56"/>
<path d="M518.726 105.8C520.137 107.491 521.946 108.805 523.991 109.622C526.036 110.44 528.251 110.735 530.439 110.482C534.776 109.806 538.636 106.104 538.913 101.722C539.153 97.9378 536.929 94.4669 534.596 91.4786C529.448 84.8888 523.334 79.115 516.462 74.3524C513.185 72.0828 509.569 69.9934 505.591 69.7487C503.623 69.6276 501.65 69.9671 499.68 69.8824C496.057 69.7267 492.662 68.1583 489.128 67.346C485.499 66.5373 481.739 66.5177 478.102 67.2887C474.465 68.0597 471.036 69.6032 468.047 71.8148C466.053 73.3385 464.251 75.0965 462.677 77.051C458.325 82.376 455.406 88.7257 454.198 95.497C452.299 106.23 454.67 118.002 449.515 127.605C455.564 127.04 460.414 122.425 466.161 120.453C470.425 119.004 475.055 119.046 479.292 120.57C480.384 121.13 481.615 121.36 482.835 121.233C483.843 120.877 484.724 120.232 485.369 119.379L496.358 107.417C498.595 104.982 501.135 102.388 504.423 102.051C506.386 101.984 508.338 102.371 510.127 103.183C514.533 104.85 518.795 106.876 522.869 109.241" fill="#2F2E41"/>
<path d="M497.852 355.456L494.576 357.641L516.412 379.486L529.513 367.471L507.678 349.995L497.852 355.456Z" fill="#3F3D56"/>
</g>
<defs>
<clipPath id="clip0_1303_8616">
<rect width="841" height="710.89" fill="white" transform="translate(0 0.63916)"/>
</clipPath>
</defs>
</svg>
