<svg width="623" height="575" viewBox="0 0 623 575" fill="none" xmlns="http://www.w3.org/2000/svg">
<g clip-path="url(#clip0_1303_8309)">
<path d="M566.861 460.666L516.353 385.642C516.353 385.642 592.844 412.345 584.163 460.666H566.861Z" fill="#E5E5E5"/>
<path d="M43.2981 461.164L41.3806 461.126C42.1222 439.807 44.3969 418.569 48.1871 397.576C56.4786 352.63 70.2658 323.112 89.1658 309.842L90.2668 311.411C46.1162 342.41 43.3205 459.979 43.2981 461.164Z" fill="#E5E5E5"/>
<path d="M67.2661 460.705L65.3486 460.668C65.3899 458.544 66.5883 408.5 86.2897 394.668L87.3907 396.237C68.4841 409.511 67.2754 460.195 67.2661 460.705Z" fill="#E5E5E5"/>
<path d="M101.175 311.585C106.47 311.585 110.762 307.293 110.762 301.998C110.762 296.703 106.47 292.411 101.175 292.411C95.8802 292.411 91.5879 296.703 91.5879 301.998C91.5879 307.293 95.8802 311.585 101.175 311.585Z" fill="#6C63FF"/>
<path d="M96.4273 394.035C101.722 394.035 106.014 389.742 106.014 384.448C106.014 379.153 101.722 374.86 96.4273 374.86C91.1324 374.86 86.8401 379.153 86.8401 384.448C86.8401 389.742 91.1324 394.035 96.4273 394.035Z" fill="#6C63FF"/>
<path d="M62.797 317.332C64.5988 328.841 59.9028 339.134 59.9028 339.134C59.9028 339.134 52.2855 330.768 50.4837 319.26C48.6819 307.751 53.378 297.458 53.378 297.458C53.378 297.458 60.9953 305.824 62.797 317.332Z" fill="#E5E5E5"/>
<path d="M94.135 345.282C83.1164 349.062 72.1624 346.231 72.1624 346.231C72.1624 346.231 79.0727 337.273 90.0912 333.493C101.11 329.714 112.064 332.545 112.064 332.545C112.064 332.545 105.153 341.503 94.135 345.282Z" fill="#E5E5E5"/>
<path d="M94.4889 418.3C89.502 419.866 84.1913 420.095 79.0879 418.965C82.3283 414.839 86.6924 411.738 91.6546 410.036C96.6168 408.334 101.965 408.103 107.056 409.371C103.721 413.396 99.3873 416.475 94.4889 418.3Z" fill="#E5E5E5"/>
<path d="M621.25 462.584H0.958719C0.704451 462.584 0.460611 462.483 0.280816 462.303C0.101021 462.123 0 461.879 0 461.625C0 461.371 0.101021 461.127 0.280816 460.947C0.460611 460.767 0.704451 460.666 0.958719 460.666H621.25C621.504 460.666 621.748 460.767 621.927 460.947C622.107 461.127 622.208 461.371 622.208 461.625C622.208 461.879 622.107 462.123 621.927 462.303C621.748 462.483 621.504 462.584 621.25 462.584Z" fill="#CBCBCB"/>
<path d="M392.875 506.78L385.032 527.195L302.559 506.656L314.135 476.526L392.875 506.78Z" fill="#FFB7B7"/>
<path d="M414.664 509.176L389.374 575L388.541 574.68C381.746 572.069 376.267 566.866 373.308 560.216C370.349 553.565 370.153 546.012 372.763 539.217L372.764 539.215L388.21 499.012L414.664 509.176Z" fill="#2F2E41"/>
<path d="M267.554 251.176L231.614 254.542L229.831 361.479C230.307 366.72 232.817 371.566 236.822 374.979C240.828 378.392 246.011 380.101 251.261 379.739L274.048 378.169L267.554 251.176Z" fill="#E5E5E5"/>
<path d="M394.261 245.913L369.669 245.597L368.212 372.661C373.646 372.842 379.06 371.902 384.114 369.898C389.169 367.895 393.757 364.872 397.591 361.017C401.426 357.162 404.425 352.558 406.401 347.493C408.378 342.427 409.289 337.009 409.079 331.576L394.261 245.913Z" fill="#E5E5E5"/>
<path d="M251.568 417.801C250.986 421.487 250.141 425.126 249.039 428.691C247.798 432.18 245.882 435.407 244.747 438.933C241.131 450.17 246.144 462.7 254.152 471.374C261.097 478.865 270.06 484.188 279.962 486.7C287.186 488.516 294.698 488.778 302.142 489.03C322.757 489.729 343.903 490.355 363.437 483.73C369.608 481.585 375.569 478.877 381.245 475.64C383.036 474.786 384.615 473.543 385.865 472.001C387.355 469.88 387.546 467.129 387.533 464.537C387.489 455.798 385.717 447.104 386.138 438.374C386.371 433.539 387.276 428.708 386.83 423.888C386.214 418.413 383.921 413.263 380.264 409.142C376.608 405.021 371.768 402.131 366.406 400.867C360.864 399.677 355.117 400.325 349.475 400.868C334.831 402.275 320.124 402.932 305.413 402.838C290.382 402.742 275.443 400.447 260.487 400.208C256.064 400.137 256.153 401.501 254.745 405.781C253.448 409.721 252.387 413.735 251.568 417.801Z" fill="#2F2E41"/>
<path d="M192.791 410.698C188.749 409.682 184.584 409.24 180.419 409.383C176.042 409.625 171.768 410.796 167.879 412.818C163.99 414.84 160.576 417.666 157.864 421.11C155.152 424.553 153.205 428.534 152.151 432.789C151.097 437.043 150.96 441.473 151.751 445.784C152.76 450.454 154.41 454.962 156.653 459.181C159.934 465.839 163.87 472.483 169.944 476.75C173.497 479.246 177.609 480.802 181.673 482.333L213.664 494.384C218.37 496.157 223.077 497.93 227.83 499.574C251.708 507.828 276.602 512.777 301.821 514.284C309.503 514.741 317.301 514.869 324.795 513.12C326.573 512.705 328.47 512.086 329.5 510.578C330.11 509.516 330.469 508.328 330.551 507.106L332.52 493.325C332.797 491.384 333.063 489.342 332.352 487.515C331.45 485.199 329.19 483.742 327.035 482.504C306.003 470.424 281.445 463.76 263.743 447.181C259.575 443.278 256.087 437.091 251.024 434.44C245.282 431.434 238.52 429.718 232.585 426.947C219.61 420.891 206.853 413.931 192.791 410.698Z" fill="#2F2E41"/>
<path opacity="0.1" d="M224.729 429.277C236.037 432.821 283.777 457.368 291.96 465.939C290.863 466.334 253.649 445.478 252.532 445.143C242.381 442.097 232.174 439.03 222.535 434.572C220.596 433.675 209.937 429.46 210.42 427.013C210.964 424.252 222.722 428.648 224.729 429.277Z" fill="black"/>
<path d="M292.971 215.234L262.526 238.35C262.526 238.35 230.401 239.355 231.487 259.891C232.572 280.427 245.43 377.658 245.43 377.658L248.219 411.113L301.134 426.19C329.724 434.336 359.93 434.984 388.843 428.07L382.555 394.507C382.555 394.507 408.018 242.078 392.678 235.367C377.339 228.656 367.751 230.574 367.751 230.574L348.524 213.796L292.971 215.234Z" fill="#E5E5E5"/>
<path d="M383.091 177.895C383.091 207.904 355.343 203.365 321.114 203.365C286.885 203.365 259.137 207.904 259.137 177.895C259.137 147.886 272.691 94.6933 321.114 94.6933C371.205 94.6933 383.091 147.886 383.091 177.895Z" fill="#2F2E41"/>
<path d="M353.331 188.065C369.618 171.778 369.618 145.373 353.331 129.086C337.045 112.799 310.639 112.799 294.352 129.086C278.065 145.373 278.065 171.778 294.352 188.065C310.639 204.352 337.045 204.352 353.331 188.065Z" fill="#FFB7B7"/>
<path d="M272.721 157.519H289.216L296.493 137.143L297.948 157.519H305.832L310.077 145.633L310.926 157.519H369.507C369.507 145.81 364.856 134.581 356.577 126.302C348.297 118.023 337.068 113.371 325.359 113.371H316.869C305.16 113.371 293.931 118.023 285.652 126.302C277.372 134.581 272.721 145.81 272.721 157.519Z" fill="#2F2E41"/>
<path d="M362.958 220.027H279.55V320.693H362.958V220.027Z" fill="#6C63FF"/>
<path d="M284.146 505.822L291.99 526.236L374.463 505.697L362.887 475.568L284.146 505.822Z" fill="#FFB7B7"/>
<path d="M288.811 498.053L304.257 538.256L304.258 538.258C306.868 545.053 306.672 552.607 303.713 559.257C300.754 565.908 295.275 571.111 288.48 573.721L287.648 574.041L262.357 508.217L288.811 498.053Z" fill="#2F2E41"/>
<path d="M449.001 402.884C455.627 401.223 462.495 400.754 469.285 401.499C474.707 402.096 480.294 403.605 484.253 407.358C489.072 411.926 490.62 418.991 490.75 425.63C490.961 438.853 486.576 451.739 478.342 462.087C476.331 464.705 473.94 467.006 471.248 468.916C468.344 470.733 465.249 472.224 462.019 473.364L390.376 501.622C371.528 509.056 352.614 516.511 332.955 521.412C331.886 521.928 330.656 521.999 329.536 521.608C328.415 521.217 327.495 520.397 326.979 519.328C326.964 519.295 326.948 519.262 326.933 519.229C320.656 510.263 315.39 500.63 311.231 490.506C311.034 490.265 310.898 489.981 310.834 489.676C310.771 489.372 310.781 489.057 310.865 488.757C310.949 488.458 311.104 488.183 311.317 487.956C311.529 487.73 311.793 487.557 312.087 487.454L362.76 458.339C366.39 456.253 370.06 454.137 373.074 451.232C375.264 449.11 377.057 446.613 378.369 443.86C379.42 441.666 379.518 436.489 380.859 434.867C382.173 433.279 386.667 433.153 388.742 432.528C391.669 431.632 394.536 430.548 397.324 429.284C408.659 424.213 418.753 416.845 429.619 410.908C435.714 407.423 442.227 404.727 449.001 402.884Z" fill="#2F2E41"/>
<path opacity="0.1" d="M420.274 424.628C411.568 431.167 400.295 437.177 391.667 443.888C388.722 446.179 339.631 473.778 338.937 477.443C346.987 478.8 398.266 442.926 405.602 439.347C412.939 435.767 419.443 430.719 425.887 425.709C427.53 424.432 434.49 420.593 429.775 419.166C427.119 418.363 422.235 423.321 420.274 424.628Z" fill="black"/>
<path d="M576.752 172.296C593.298 172.296 606.71 158.884 606.71 142.338C606.71 125.793 593.298 112.38 576.752 112.38C560.207 112.38 546.794 125.793 546.794 142.338C546.794 158.884 560.207 172.296 576.752 172.296Z" fill="#F1F1F1"/>
<path d="M521.308 177.662C532.914 177.662 542.323 168.253 542.323 156.647C542.323 145.04 532.914 135.631 521.308 135.631C509.701 135.631 500.292 145.04 500.292 156.647C500.292 168.253 509.701 177.662 521.308 177.662Z" fill="#F1F1F1"/>
<path d="M136.343 163.953C145.649 163.953 153.193 156.409 153.193 147.103C153.193 137.796 145.649 130.252 136.343 130.252C127.036 130.252 119.492 137.796 119.492 147.103C119.492 156.409 127.036 163.953 136.343 163.953Z" fill="#F1F1F1"/>
<path d="M164.085 175.284C170.613 175.284 175.906 169.992 175.906 163.464C175.906 156.935 170.613 151.643 164.085 151.643C157.557 151.643 152.265 156.935 152.265 163.464C152.265 169.992 157.557 175.284 164.085 175.284Z" fill="#F1F1F1"/>
<path d="M327.55 25.7613C334.663 25.7613 340.43 19.9944 340.43 12.8806C340.43 5.76686 334.663 0 327.55 0C320.436 0 314.669 5.76686 314.669 12.8806C314.669 19.9944 320.436 25.7613 327.55 25.7613Z" fill="#F1F1F1"/>
<path opacity="0.17" d="M250.788 284.262L251.939 275.374C251.939 275.374 294.889 278.51 288.178 289.055C281.467 299.601 265.169 300.56 265.169 300.56L250.788 284.262Z" fill="#2F2E41"/>
<path d="M283.208 245.618C285.668 245.889 288.038 246.701 290.147 247.996C292.256 249.292 294.053 251.037 295.407 253.109C296.642 254.999 297.481 257.12 297.875 259.342C298.27 261.565 298.211 263.845 297.702 266.045C297.193 268.244 296.245 270.318 294.914 272.142C293.584 273.966 291.898 275.502 289.959 276.658C289.248 277.078 288.506 277.443 287.739 277.749L261.34 358.5C260.575 360.093 259.502 361.519 258.184 362.697C256.866 363.874 255.328 364.78 253.659 365.361C251.99 365.942 250.223 366.188 248.458 366.084C246.694 365.979 244.967 365.528 243.378 364.754C241.789 363.98 240.369 362.9 239.198 361.576C238.028 360.251 237.131 358.708 236.559 357.036C235.987 355.364 235.751 353.595 235.865 351.831C235.979 350.067 236.44 348.344 237.222 346.759L265.297 266.905C264.533 264.262 264.431 261.473 265.001 258.782C265.572 256.091 266.796 253.582 268.567 251.478C270.338 249.373 272.601 247.737 275.154 246.715C277.708 245.693 280.474 245.317 283.208 245.618Z" fill="#FFB7B7"/>
<path d="M251.182 276.132C251.182 276.132 266.309 301.976 288.178 289.055L266.984 370.161H249.127L230.655 366.712L235.827 333.202L251.182 276.132Z" fill="#E5E5E5"/>
<path d="M359.191 293.796L346.66 276.592C346.66 276.592 352.682 258.747 376.036 265.273C376.036 265.273 390.897 298.537 359.191 293.796Z" fill="#E5E5E5"/>
<path opacity="0.17" d="M359.191 293.796L346.66 276.592C346.66 276.592 352.682 258.747 376.036 265.273C376.036 265.273 390.897 298.537 359.191 293.796Z" fill="#2F2E41"/>
<path d="M362.509 233.688C366.124 235.369 369.016 238.291 370.658 241.924C372.301 245.557 372.584 249.658 371.458 253.483L399.533 333.337C400.315 334.922 400.777 336.646 400.891 338.409C401.005 340.173 400.769 341.942 400.197 343.615C399.625 345.287 398.728 346.83 397.558 348.154C396.387 349.479 394.967 350.559 393.377 351.333C391.788 352.107 390.062 352.558 388.297 352.663C386.533 352.767 384.765 352.521 383.096 351.94C381.427 351.359 379.889 350.453 378.571 349.275C377.253 348.098 376.18 346.671 375.416 345.078L349.016 264.327C348.249 264.021 347.507 263.656 346.796 263.236C344.857 262.08 343.172 260.544 341.841 258.72C340.511 256.896 339.562 254.822 339.053 252.623C338.545 250.423 338.486 248.143 338.88 245.921C339.274 243.698 340.114 241.577 341.348 239.687C342.702 237.616 344.499 235.87 346.608 234.574C348.717 233.279 351.087 232.467 353.547 232.196C356.615 231.849 359.719 232.365 362.509 233.688Z" fill="#FFB7B7"/>
<path d="M346.66 276.592C346.66 276.592 367.335 289.137 376.036 265.273L405.17 341.984L396.513 357.124L395.261 357.229C390.097 357.659 384.905 356.83 380.131 354.812C375.358 352.793 371.146 349.646 367.857 345.641C361.149 337.473 356.582 327.761 354.57 317.383L346.66 276.592Z" fill="#E5E5E5"/>
</g>
<defs>
<clipPath id="clip0_1303_8309">
<rect width="622.208" height="575" fill="white"/>
</clipPath>
</defs>
</svg>
