<svg width="752" height="637" viewBox="0 0 752 637" fill="none" xmlns="http://www.w3.org/2000/svg">
<path opacity="0.1" d="M367.946 637C566.474 637 727.414 620.481 727.414 600.103C727.414 579.726 566.474 563.206 367.946 563.206C169.417 563.206 8.47803 579.726 8.47803 600.103C8.47803 620.481 169.417 637 367.946 637Z" fill="#6C63FF"/>
<path d="M663.532 588.169C663.538 590.381 663.311 592.587 662.854 594.751C662.769 595.158 662.676 595.599 662.582 595.947C660.175 605.608 653.384 612.674 645.279 613.123C645.007 613.123 644.736 613.123 644.431 613.123C635.86 613.123 628.611 605.727 626.22 595.54C626.152 595.268 626.093 594.997 626.034 594.692C625.576 592.528 625.349 590.321 625.355 588.11C625.355 574.309 633.893 563.13 644.431 563.13C654.969 563.13 663.532 574.386 663.532 588.169Z" fill="#3F3D56"/>
<path opacity="0.1" d="M731.356 588.169C731.362 590.381 731.135 592.587 730.678 594.751C730.593 595.158 730.5 595.599 730.406 595.947C730.118 595.947 729.838 595.947 729.559 595.947C727.459 595.834 725.372 595.55 723.319 595.099C721.499 595.661 719.64 596.087 717.757 596.371C716.313 596.588 714.858 596.724 713.399 596.778H711.924C710.178 596.778 708.433 596.662 706.702 596.43C703.902 596.056 701.153 595.374 698.504 594.395C697.053 594.878 695.575 595.274 694.078 595.582C694.01 595.311 693.951 595.039 693.892 594.734C693.434 592.57 693.207 590.364 693.213 588.152C693.213 574.352 701.751 563.172 712.289 563.172C722.827 563.172 731.356 574.386 731.356 588.169Z" fill="black"/>
<path d="M704.226 541.645C704.233 535.575 702.81 529.589 700.072 524.172L677.639 531.153L697.334 519.566C694.032 514.791 689.7 510.819 684.658 507.943C679.616 505.067 673.993 503.361 668.203 502.95C667.28 501.553 666.269 500.216 665.177 498.947L632.96 508.981L659.386 493.442C654.331 489.562 648.398 486.989 642.113 485.949C635.827 484.908 629.382 485.434 623.347 487.478C617.313 489.522 611.875 493.023 607.514 497.67C603.153 502.317 600.004 507.967 598.344 514.121L625.94 545.912L596.005 524.24C588.414 529.618 583.008 537.547 580.773 546.58C578.539 555.613 579.624 565.149 583.831 573.449C588.038 581.748 595.086 588.259 603.691 591.792C612.296 595.326 621.883 595.648 630.705 592.699C638.685 595.625 647.401 595.863 655.529 593.377C661.195 594.631 667.07 594.597 672.721 593.277C678.372 591.957 683.655 589.385 688.181 585.75C692.706 582.116 696.358 577.512 698.868 572.277C701.378 567.042 702.682 561.311 702.683 555.505C702.683 554.657 702.683 553.808 702.599 552.96C703.697 549.29 704.246 545.477 704.226 541.645Z" fill="#6C63FF"/>
<path opacity="0.1" d="M703.557 548.846C691.71 546.596 679.561 546.441 667.661 548.388C654.189 550.619 640.421 555.522 627.246 551.934C619.514 549.83 612.833 544.962 605.279 542.264C597.993 539.714 590.141 539.241 582.601 540.899C579.725 547.775 578.89 555.335 580.195 562.674C581.499 570.013 584.889 576.821 589.958 582.284C595.027 587.747 601.561 591.635 608.779 593.481C615.997 595.328 623.595 595.056 630.663 592.698C638.642 595.625 647.359 595.863 655.486 593.377C661.152 594.631 667.028 594.597 672.679 593.277C678.33 591.957 683.613 589.385 688.138 585.75C692.664 582.116 696.316 577.512 698.826 572.277C701.336 567.042 702.64 561.311 702.641 555.505C702.641 554.657 702.641 553.808 702.556 552.96C702.965 551.608 703.299 550.235 703.557 548.846Z" fill="black"/>
<path d="M503.255 145.865H498.397C497.325 145.865 496.456 146.735 496.456 147.808V216.037C496.456 217.11 497.325 217.98 498.397 217.98H503.255C504.327 217.98 505.197 217.11 505.197 216.037V147.808C505.197 146.735 504.327 145.865 503.255 145.865Z" fill="#3F3D56"/>
<path d="M209.449 89.3666H207.084C206.382 89.3666 205.812 89.9362 205.812 90.6389V111.835C205.812 112.538 206.382 113.108 207.084 113.108H209.449C210.152 113.108 210.721 112.538 210.721 111.835V90.6389C210.721 89.9362 210.152 89.3666 209.449 89.3666Z" fill="#3F3D56"/>
<path d="M209.729 132.837H207.067C206.276 132.837 205.634 133.479 205.634 134.27V172.728C205.634 173.52 206.276 174.161 207.067 174.161H209.729C210.521 174.161 211.162 173.52 211.162 172.728V134.27C211.162 133.479 210.521 132.837 209.729 132.837Z" fill="#3F3D56"/>
<path d="M209.619 188.615H207.084C206.33 188.615 205.719 189.226 205.719 189.98V228.93C205.719 229.684 206.33 230.295 207.084 230.295H209.619C210.373 230.295 210.984 229.684 210.984 228.93V189.98C210.984 189.226 210.373 188.615 209.619 188.615Z" fill="#3F3D56"/>
<path d="M470.911 10.9164H238.851C222.14 10.9164 208.593 24.4697 208.593 41.1887V575.548C208.593 592.267 222.14 605.82 238.851 605.82H470.911C487.622 605.82 501.169 592.267 501.169 575.548V41.1887C501.169 24.4697 487.622 10.9164 470.911 10.9164Z" fill="#3F3D56"/>
<path d="M365.36 28.6777H328.811C327.622 28.6777 326.658 29.6423 326.658 30.8322V34.8272C326.658 36.0171 327.622 36.9816 328.811 36.9816H365.36C366.549 36.9816 367.514 36.0171 367.514 34.8272V30.8322C367.514 29.6423 366.549 28.6777 365.36 28.6777Z" fill="#E6E8EC"/>
<path d="M378.399 37.533C380.998 37.533 383.105 35.4253 383.105 32.8254C383.105 30.2255 380.998 28.1179 378.399 28.1179C375.801 28.1179 373.694 30.2255 373.694 32.8254C373.694 35.4253 375.801 37.533 378.399 37.533Z" fill="#E6E8EC"/>
<path d="M483.103 49.6538V567.057C483.101 573.222 480.651 579.133 476.293 583.491C471.936 587.85 466.026 590.298 459.865 590.298H249.898C243.736 590.298 237.827 587.85 233.469 583.491C229.111 579.133 226.662 573.222 226.66 567.057V49.6538C226.66 46.6006 227.261 43.5774 228.429 40.7567C229.596 37.9359 231.308 35.373 233.466 33.2141C235.624 31.0552 238.186 29.3427 241.005 28.1743C243.824 27.0059 246.846 26.4045 249.898 26.4045H281.318V30.442C281.326 35.5142 283.346 40.3757 286.933 43.9599C290.521 47.5441 295.383 49.5582 300.452 49.5605H407.275C409.788 49.5605 412.276 49.0653 414.598 48.1032C416.92 47.1412 419.029 45.731 420.806 43.9533C422.583 42.1757 423.992 40.0653 424.954 37.7426C425.915 35.42 426.41 32.9306 426.41 30.4165V26.4045H459.907C466.063 26.4158 471.963 28.8702 476.311 33.2291C480.66 37.5879 483.103 43.495 483.103 49.6538Z" fill="white"/>
<path opacity="0.2" d="M484.942 263.308V439.25H483.103V439.428H226.66V224.477C228.304 222.599 229.972 220.651 231.662 218.633C267.676 175.603 316.628 164.28 354.517 163.092C380.476 162.244 406.317 167.613 430.988 178.275C444.019 183.907 462.722 190.082 483.103 190.693V257.209C484.349 260.763 484.942 263.308 484.942 263.308Z" fill="#6C63FF"/>
<path opacity="0.2" d="M484.942 263.307V439.25H226.66V323.996C235.858 321.681 248.703 312.775 265.184 288.168C284.895 258.727 311.677 250.983 332.406 250.169C346.607 249.609 360.748 253.256 374.245 260.559C389.429 268.761 418.695 278.651 440.933 249.94C465.519 218.192 478.592 244.376 483.103 257.209C484.349 260.763 484.942 263.307 484.942 263.307Z" fill="#6C63FF"/>
<path d="M447.639 407.027H262.819C257.2 407.027 252.645 411.584 252.645 417.205V461.312C252.645 466.933 257.2 471.49 262.819 471.49H447.639C453.258 471.49 457.813 466.933 457.813 461.312V417.205C457.813 411.584 453.258 407.027 447.639 407.027Z" fill="#736E9E"/>
<path d="M111.961 579.933L128.188 570.357C125.993 566.607 123.188 563.25 119.888 560.424L89.2735 569.983L113.266 555.869C107.327 552.614 100.643 550.963 93.8719 551.077C87.1009 551.191 80.4763 553.068 74.6502 556.521C68.8241 559.975 63.9973 564.887 60.6449 570.774C57.2925 576.66 55.53 583.319 55.531 590.094C55.531 611.647 72.9872 612.394 94.5299 612.394C116.073 612.394 133.529 611.647 133.529 590.094C133.536 584.642 132.395 579.249 130.18 574.267L111.961 579.933Z" fill="#6C63FF"/>
<path opacity="0.1" d="M116.089 600.892C114.362 599.159 112.432 597.641 110.341 596.371C107.391 594.412 104.347 592.418 100.871 591.748C97.8194 591.163 94.674 591.655 91.5456 591.485C86.148 591.153 81.0675 588.821 77.2941 584.946C75.0813 582.656 73.3348 579.857 70.6727 578.084C67.7987 576.201 64.1531 575.794 60.745 576.26C59.7573 576.409 58.7782 576.61 57.8116 576.862C56.2815 581.109 55.5012 585.589 55.5056 590.103C55.5056 611.656 72.9618 612.402 94.5045 612.402C104.958 612.402 114.445 612.224 121.448 609.578L120.278 607.389C119.162 605.055 117.754 602.872 116.089 600.892Z" fill="black"/>
<g opacity="0.1">
<path opacity="0.1" d="M38.4478 219.15C44.0725 218.67 49.6325 217.61 55.0393 215.986C53.5132 216.198 51.9872 216.376 50.4527 216.504C39.8212 217.394 28.1894 216.504 18.6093 220.244C25.1373 219.574 31.9791 219.693 38.4478 219.15Z" fill="black"/>
<path opacity="0.1" d="M28.9863 315.531C26.3158 317.737 24.9084 321.079 23.2467 324.124C18.1089 333.389 9.88105 340.555 0 344.37C0.754543 344.319 1.50909 344.251 2.26363 344.158C16.0234 342.462 28.6218 333.64 35.3279 321.477C37.0235 318.432 38.3885 315.09 41.0675 312.885L41.5253 312.529C36.8709 312.418 32.4115 312.698 28.9863 315.531Z" fill="black"/>
<path opacity="0.1" d="M145.449 203.085C141.21 198.216 134.97 195.511 128.688 194.035C120.21 192.05 111.121 192.075 102.999 195.197L102.457 195.417C107.235 195.145 112.027 195.571 116.683 196.681C122.965 198.157 129.213 200.863 133.444 205.74C137.675 210.617 139.455 217.988 136.488 223.722C133.664 229.167 127.925 227.471 124.695 230.991C121.727 234.206 121.931 238.557 119.93 242.442C116.174 249.711 110.486 255.835 102.889 258.744C105.543 258.116 108.391 257.837 111.037 257.26C120.6 255.156 127.56 248.243 131.926 239.795C133.936 235.911 133.732 231.559 136.691 228.345C139.93 224.825 145.669 226.512 148.484 221.075C151.451 215.359 149.679 207.979 145.449 203.085Z" fill="black"/>
<path opacity="0.1" d="M99.0402 259.915C93.8347 261.051 87.8831 261.026 84.0765 264.749C79.3542 269.372 80.4733 277.023 79.8968 283.597C78.8879 295.09 70.8084 305.378 60.355 310.052H61.1265C76.548 309.577 90.5452 296.345 91.8932 280.967C92.4782 274.385 91.3591 266.734 96.0813 262.12C97.1635 261.087 98.4363 260.275 99.8286 259.728L99.0402 259.915Z" fill="black"/>
</g>
<path d="M494.268 509.659H217.885V595.328H494.268V509.659Z" fill="#3F3D56"/>
<path d="M132.257 28.9491L119.099 37.2955L127.085 22.7658C124.822 20.9582 122.02 19.9582 119.125 19.9243H118.913C117.998 19.9376 117.085 19.8695 116.183 19.7207L111.723 22.5452L113.639 19.0676C110.476 17.9665 107.744 15.8871 105.84 13.1302L97.8533 18.2194L102.898 9.05032C98.2263 3.4437 91.9356 0.00848389 85.0176 0.00848389C76.7176 0.00848389 69.3248 4.94502 64.5516 12.6382C63.1401 14.9482 61.14 16.8411 58.7564 18.123C56.3727 19.4048 53.6912 20.0294 50.9868 19.9328H50.5375C41.3727 19.9328 33.946 30.3232 33.946 43.1481C33.946 55.9729 41.3727 66.3633 50.5375 66.3633C52.5536 66.3539 54.5374 65.8563 56.3195 64.9129C59.4372 63.3948 62.8478 62.5735 66.3145 62.5061C69.7812 62.4387 73.2211 63.1269 76.3954 64.5228C79.0812 65.7248 81.9904 66.3462 84.9328 66.3462C87.8751 66.3462 90.7843 65.7248 93.4701 64.5228C96.6221 63.1557 100.031 62.4829 103.466 62.5503C106.9 62.6176 110.281 63.4234 113.377 64.9129C115.14 65.8364 117.1 66.3222 119.091 66.3294C128.255 66.3294 135.682 55.9305 135.682 43.1141C135.745 38.1799 134.567 33.309 132.257 28.9491Z" fill="#F2F2F2"/>
<path opacity="0.03" d="M107.45 62.9196C102.671 62.0129 97.7307 62.5503 93.2582 64.4634C90.5716 65.6629 87.6627 66.2828 84.7208 66.2828C81.7789 66.2828 78.87 65.6629 76.1834 64.4634C73.0081 63.0705 69.5681 62.3847 66.1016 62.4536C62.6352 62.5224 59.2251 63.3442 56.1075 64.862C54.3244 65.8018 52.3408 66.2965 50.3255 66.304C42.1866 66.304 35.4127 58.1019 34.0053 47.2788C35.6279 46.0889 37.009 44.6006 38.0748 42.8936C42.8479 35.1919 50.2407 30.2554 58.5407 30.2554C66.8407 30.2554 74.1402 35.1325 78.8879 42.7494C80.3166 45.0403 82.3117 46.9238 84.6805 48.2179C87.0493 49.5121 89.7116 50.1731 92.4104 50.1372H92.6223C99.108 50.1372 104.72 55.3367 107.45 62.9196Z" fill="black"/>
<path d="M582.44 218.132L575.878 222.297L579.862 215.045C578.734 214.145 577.338 213.647 575.895 213.628H575.784C575.33 213.636 574.877 213.605 574.428 213.535L572.164 214.96L573.122 213.221C571.546 212.674 570.183 211.641 569.231 210.269L565.246 212.814L567.79 208.242C566.731 206.875 565.381 205.761 563.839 204.98C562.296 204.2 560.599 203.773 558.871 203.73C554.733 203.73 551.046 206.19 548.697 210.032C547.99 211.185 546.99 212.13 545.798 212.769C544.606 213.409 543.266 213.72 541.915 213.671H541.694C537.125 213.671 533.42 218.862 533.42 225.249C533.42 231.636 537.125 236.835 541.694 236.835C542.699 236.831 543.688 236.583 544.577 236.114C546.131 235.357 547.832 234.946 549.561 234.911C551.29 234.876 553.005 235.217 554.589 235.911C555.922 236.514 557.366 236.829 558.828 236.835C560.288 236.83 561.731 236.524 563.067 235.936C564.639 235.254 566.339 234.918 568.052 234.95C569.764 234.982 571.45 235.382 572.995 236.123C573.873 236.586 574.851 236.831 575.844 236.835C580.413 236.835 584.118 231.644 584.118 225.249C584.168 222.773 583.59 220.325 582.44 218.132Z" fill="#F2F2F2"/>
<path opacity="0.03" d="M570.036 235.079C567.65 234.621 565.181 234.89 562.949 235.851C561.615 236.446 560.17 236.754 558.71 236.754C557.249 236.754 555.805 236.446 554.471 235.851C552.887 235.158 551.171 234.817 549.443 234.851C547.715 234.884 546.014 235.292 544.458 236.046C543.57 236.519 542.581 236.769 541.576 236.776C537.515 236.776 534.14 232.679 533.437 227.284C534.246 226.692 534.934 225.949 535.463 225.096C537.845 221.254 541.533 218.794 545.637 218.794C549.74 218.794 553.419 221.228 555.81 225.02C556.523 226.172 557.522 227.12 558.711 227.77C559.9 228.42 561.238 228.749 562.593 228.726H562.694C565.874 228.701 568.68 231.296 570.036 235.079Z" fill="black"/>
<path d="M596.962 109.978L607.501 116.67L601.091 105.024C602.905 103.58 605.148 102.78 607.467 102.751H607.636C608.369 102.762 609.101 102.708 609.824 102.59L613.401 104.855L611.867 102.073C614.396 101.185 616.582 99.523 618.115 97.3228L624.516 101.377L620.472 94.0317C624.211 89.5363 629.255 86.7881 634.8 86.7881C641.455 86.7881 647.373 90.7407 651.196 96.9071C652.327 98.7524 653.926 100.265 655.831 101.292C657.735 102.318 659.878 102.822 662.04 102.751H662.396C669.738 102.751 675.689 111.081 675.689 121.352C675.689 131.624 669.755 139.953 662.396 139.953C660.782 139.945 659.194 139.546 657.767 138.791C655.266 137.572 652.529 136.912 649.747 136.857C646.965 136.803 644.205 137.356 641.659 138.478C639.507 139.439 637.177 139.936 634.821 139.936C632.465 139.936 630.135 139.439 627.984 138.478C625.459 137.381 622.728 136.84 619.977 136.893C617.225 136.946 614.517 137.59 612.036 138.783C610.619 139.521 609.047 139.911 607.45 139.919C600.108 139.919 594.156 131.59 594.156 121.318C594.129 117.363 595.094 113.464 596.962 109.978Z" fill="#F2F2F2"/>
<path opacity="0.03" d="M616.827 137.197C620.663 136.466 624.631 136.897 628.221 138.435C630.372 139.397 632.702 139.894 635.059 139.894C637.415 139.894 639.745 139.397 641.896 138.435C644.444 137.317 647.204 136.767 649.986 136.823C652.767 136.878 655.503 137.538 658.004 138.757C659.432 139.51 661.02 139.906 662.633 139.911C669.153 139.911 674.579 133.337 675.715 124.643C674.407 123.695 673.298 122.499 672.451 121.123C668.627 114.965 662.701 111.004 656.054 111.004C649.408 111.004 643.549 114.914 639.726 121.013C638.583 122.852 636.985 124.365 635.087 125.405C633.189 126.445 631.055 126.977 628.891 126.95H628.721C623.516 126.959 619.014 131.124 616.827 137.197Z" fill="black"/>
<ellipse cx="354.805" cy="555.997" rx="28.4014" ry="28.4148" fill="#2F2D41"/>
<ellipse cx="355.229" cy="556.421" rx="20.3472" ry="20.3569" fill="#1D1C26"/>
</svg>
