<svg width="665" height="742" viewBox="0 0 665 742" fill="none" xmlns="http://www.w3.org/2000/svg">
<g clip-path="url(#clip0_164_191)">
<path opacity="0.1" d="M65.6918 290.825H152.926V409.778H72.0701C71.8638 411.008 71.6575 412.229 71.4254 413.459H152.926V509.374C152.788 509.374 152.651 509.271 152.522 509.219C150.229 508.308 147.937 507.342 145.645 506.321C145.155 506.098 144.673 505.866 144.175 505.651C141.882 504.567 139.59 503.421 137.298 502.211C136.498 501.79 135.699 501.351 134.917 500.904C122.191 493.8 110.624 484.793 100.618 474.195C100.317 473.911 100.042 473.601 99.7584 473.335C98.3658 471.821 96.999 470.291 95.6752 468.726C95.1766 468.15 94.6952 467.565 94.2052 467.006C92.6407 465.097 91.1278 463.119 89.6665 461.133C89.443 460.832 89.2367 460.539 89.0218 460.273C83.0354 451.986 78.071 443.006 74.2364 433.529C74.116 433.245 74.0043 432.936 73.8925 432.669C72.7063 429.659 71.6317 426.607 70.7033 423.494C70.3079 422.195 69.9211 420.914 69.5944 419.564C69.4741 419.177 69.3795 418.781 69.2764 418.394C64.4454 399.347 63.8866 379.552 63.8866 359.851C63.8866 357.558 63.8866 355.265 63.8866 352.972C63.9554 344.929 64.0499 336.894 64.1703 328.868C64.2161 326.804 64.2591 324.732 64.2992 322.651C64.4196 317.382 64.5915 312.103 64.815 306.811C64.8666 305.349 64.9353 303.879 65.0127 302.426C65.0471 301.583 65.0901 300.74 65.1416 299.897C65.2964 296.853 65.4798 293.829 65.6918 290.825Z" fill="#6C63FF"/>
<path opacity="0.1" d="M152.925 158.38H105.071C112.853 146.208 121.353 134.51 130.524 123.347C137.641 114.61 145.137 106.097 152.925 97.8933V158.38Z" fill="#6C63FF"/>
<path opacity="0.1" d="M152.926 162.043V287.145H65.9669C65.9669 286.784 66.0185 286.414 66.0528 286.053C66.1302 285.064 66.2076 284.083 66.2935 283.094C66.3795 281.942 66.4913 280.79 66.603 279.655C66.7148 278.52 66.8265 277.144 66.964 275.897C67.1016 274.65 67.2133 273.386 67.3509 272.139C67.4884 270.892 67.6259 269.645 67.7807 268.407C67.9354 267.169 68.0729 265.913 68.2449 264.675C68.3738 263.652 68.5028 262.62 68.6489 261.588C68.8466 260.135 69.0529 258.681 69.2678 257.237C69.2678 257.013 69.3366 256.798 69.371 256.583C70.942 246.009 73.0769 235.526 75.7665 225.179C78.5909 214.327 82.1964 203.693 86.5547 193.362C91.1858 182.537 96.6104 172.069 102.784 162.043H152.926Z" fill="#6C63FF"/>
<path opacity="0.1" d="M173.763 290.825V409.778H360.093V290.825H173.763ZM173.763 413.459V515.617C174.829 515.832 175.877 516.047 176.935 516.228C178.353 516.503 179.78 516.752 181.233 516.967L182.092 517.088C182.66 517.182 183.236 517.26 183.812 517.328C185.247 517.535 186.683 517.69 188.11 517.827C188.78 517.896 189.476 517.948 190.156 518.008L191.815 518.128C192.717 518.197 193.611 518.249 194.505 518.283C195.055 518.283 195.606 518.326 196.164 518.343C196.723 518.36 197.024 518.343 197.471 518.343H199.096C199.835 518.343 200.574 518.343 201.305 518.343H202.25C202.99 518.343 203.729 518.343 204.46 518.274H204.503C205.018 518.274 205.525 518.274 206.041 518.214C206.187 518.223 206.334 518.223 206.48 518.214C206.909 518.214 207.339 518.214 207.752 518.163C207.849 518.155 207.947 518.155 208.044 518.163C208.998 518.102 209.961 518.025 210.932 517.939C211.904 517.853 212.824 517.75 213.795 517.647L215.746 517.406C223.72 516.289 231.605 514.611 239.343 512.384C256.733 507.534 273.727 500.749 291.109 495.787C313.562 489.381 338.388 486.225 360.084 494.025V413.459H173.763ZM360.093 158.38V0.0171809C339.695 -0.20732 319.352 2.17677 299.559 7.11153C252.375 18.9698 210.004 44.6901 173.763 77.5391V158.372H183.141V162.043H173.763V287.145H360.093V162.043H221.506V158.363L360.093 158.38ZM599.479 104.885C587.805 104.472 576.2 100.783 565.696 95.0642C545.632 84.1519 529.592 67.2802 511.678 53.0571C474.456 23.4156 428.295 5.52067 380.939 1.08348V158.38H646.912L647.574 157.684L599.479 104.885ZM623.711 100.585L649.405 128.799V93.1638C640.757 94.2559 633.227 96.7927 623.711 100.551V100.585ZM649.405 540.985V413.459H594.613C594.476 412.917 594.321 412.366 594.149 411.816C594.312 412.366 594.458 412.917 594.605 413.459H380.939V505.676C382.967 507.181 384.97 508.772 386.956 510.372C389.099 512.126 391.228 513.9 393.343 515.695L395.475 517.457C396.498 518.317 397.538 519.177 398.569 519.994C400.638 521.662 402.721 523.313 404.819 524.947C405.867 525.773 406.922 526.584 407.982 527.381C424.772 540.217 442.482 551.803 460.969 562.044C465.112 564.357 469.298 566.585 473.511 568.76C476.313 570.205 479.135 571.621 481.978 573.008C486.242 575.089 490.54 577.096 494.872 579.028C534.815 596.964 577.052 609.269 620.376 615.592C629.992 617.008 639.651 618.125 649.354 618.945V540.968H650.213L649.405 540.985ZM380.939 162.043V287.145H649.405V162.043H380.939ZM380.939 290.808V409.778H649.405V290.825L380.939 290.808ZM670.242 92.9918V132.806L703.028 96.8013C692.162 95.0069 681.234 93.7371 670.242 92.9918ZM670.242 290.825V409.778H931.35V290.825H670.242ZM930.431 550.418L931.35 413.459H670.242V620.33C687.061 621.029 703.905 620.826 720.702 619.719H720.994C729.017 619.203 737.003 618.469 744.951 617.518H745.132C787.55 612.578 829.025 601.496 868.255 584.617L930.431 550.418ZM981.724 310.363C980.732 308.07 979.715 305.776 978.672 303.483C976.729 299.184 974.684 295.004 972.569 290.834H952.196V409.778H1003.7C1003.65 376.086 995.125 341.69 981.724 310.363ZM952.196 413.459V531.268C966.698 517.363 978.965 501.446 987.784 483.25C998.4 461.33 1003.26 437.614 1003.66 413.45L952.196 413.459ZM952.196 256.162V287.119H970.661C965.063 276.477 958.9 266.143 952.196 256.162ZM775.115 116.339C773.757 115.814 772.39 115.29 771.024 114.791C756.612 109.463 741.885 105.034 726.925 101.531L676.741 156.617L675.761 157.675L676.406 158.372H855.017C830.139 141.247 803.318 127.138 775.115 116.339ZM860.26 162.043H673.904L670.242 165.389V287.145H702.349H931.35V228.154C910.644 203.104 886.743 180.878 860.26 162.043Z" fill="#6C63FF"/>
<path opacity="0.1" d="M152.926 225.153V287.145H65.9669C65.9669 286.784 66.0185 286.414 66.0528 286.053C66.1302 285.064 66.2076 284.083 66.2935 283.095C66.3795 281.942 66.4913 280.79 66.603 279.655C66.7148 278.52 66.8265 277.144 66.964 275.897C67.1016 274.65 67.2133 273.386 67.3509 272.139C67.4884 270.892 67.6259 269.645 67.7807 268.407C67.9354 267.169 68.0729 265.913 68.2449 264.675C68.3738 263.652 68.5028 262.62 68.6489 261.588C68.8466 260.135 69.0529 258.681 69.2678 257.237C69.2678 257.013 69.3366 256.798 69.371 256.583C70.942 246.009 73.0769 235.526 75.7665 225.179L152.926 225.153Z" fill="#6C63FF"/>
<path opacity="0.1" d="M65.6918 290.825H152.926V409.778H72.0701C71.8638 411.008 71.6575 412.229 71.4254 413.459H152.926V509.374C152.788 509.374 152.651 509.271 152.522 509.219C150.229 508.308 147.937 507.342 145.645 506.321C145.155 506.098 144.673 505.866 144.175 505.651C141.882 504.567 139.59 503.421 137.298 502.211C136.498 501.79 135.699 501.351 134.917 500.904C122.191 493.8 110.624 484.793 100.618 474.195C100.317 473.911 100.042 473.601 99.7584 473.335C98.3658 471.821 96.999 470.291 95.6752 468.726C95.1766 468.15 94.6952 467.565 94.2052 467.006C92.6407 465.097 91.1278 463.119 89.6665 461.133C89.443 460.832 89.2367 460.539 89.0218 460.273C83.0354 451.986 78.071 443.006 74.2364 433.529C74.116 433.245 74.0043 432.936 73.8925 432.669C72.7063 429.659 71.6317 426.607 70.7033 423.494C70.3079 422.195 69.9211 420.914 69.5944 419.564C69.4741 419.177 69.3795 418.781 69.2764 418.394C64.4454 399.347 63.8866 379.552 63.8866 359.851C63.8866 357.558 63.8866 355.265 63.8866 352.972C63.9554 344.929 64.0499 336.894 64.1703 328.868C64.2161 326.804 64.2591 324.732 64.2992 322.651C64.4196 317.382 64.5915 312.103 64.815 306.811C64.8666 305.349 64.9353 303.879 65.0127 302.426C65.0471 301.583 65.0901 300.74 65.1416 299.897C65.2964 296.853 65.4798 293.829 65.6918 290.825Z" fill="#6C63FF"/>
<path opacity="0.1" d="M239.351 179.964V287.145H173.754V179.964H183.107V143.676H221.497V179.964H239.351Z" fill="#6C63FF"/>
<path opacity="0.1" d="M239.343 290.817H173.754V409.77H239.343V290.817Z" fill="#6C63FF"/>
<path opacity="0.1" d="M173.763 413.459H239.351V512.35C231.615 514.578 223.729 516.253 215.755 517.363C215.102 517.457 214.457 517.535 213.804 517.604C212.841 517.715 211.887 517.819 210.932 517.905L208.053 518.137H207.76L206.488 518.206H206.05C205.534 518.206 205.027 518.266 204.511 518.274H204.468C203.729 518.274 202.998 518.326 202.259 518.343H201.313C200.583 518.343 199.852 518.343 199.104 518.343H197.488H196.173C195.614 518.343 195.064 518.343 194.505 518.274C193.623 518.24 192.729 518.188 191.823 518.12L190.164 517.999C189.476 517.948 188.789 517.879 188.11 517.81C186.666 517.684 185.233 517.521 183.812 517.32L182.092 517.079L181.233 516.959C179.797 516.744 178.37 516.503 176.935 516.228C175.869 516.039 174.82 515.824 173.763 515.6V413.459Z" fill="#6C63FF"/>
<path opacity="0.1" d="M649.397 167.306H595.31V287.136H649.397V167.306Z" fill="#6C63FF"/>
<path opacity="0.1" d="M649.405 290.817V409.778H380.939V358.467H523.936V388.736H595.31V290.817H649.405Z" fill="#6C63FF"/>
<path opacity="0.1" d="M650.256 541.011C649.972 541.011 649.689 541.011 649.397 540.959V618.997C639.706 618.2 630.049 617.085 620.427 615.652C577.089 609.332 534.835 597.032 494.872 579.105C483.336 573.9 472.035 568.227 460.969 562.087C442.488 551.841 424.781 540.256 407.991 527.424C403.761 524.191 399.595 520.886 395.492 517.509C392.647 515.153 389.827 512.745 386.956 510.415C384.979 508.807 382.976 507.216 380.939 505.702V413.459H594.605C594.45 412.908 594.312 412.367 594.158 411.816C594.321 412.367 594.476 412.908 594.613 413.459H649.405V540.95C649.689 540.959 649.972 540.985 650.256 541.011Z" fill="#6C63FF"/>
<path opacity="0.1" d="M649.405 200.62H620.427V238.19H649.405V200.62Z" fill="#6C63FF"/>
<path opacity="0.1" d="M649.405 278.494H620.427V287.145H649.405V278.494Z" fill="#6C63FF"/>
<path opacity="0.1" d="M649.405 290.817H620.427V316.055H649.405V290.817Z" fill="#6C63FF"/>
<path opacity="0.1" d="M649.405 356.368H620.427V393.938H649.405V356.368Z" fill="#6C63FF"/>
<path opacity="0.1" d="M649.405 434.243H620.427V471.813H649.405V434.243Z" fill="#6C63FF"/>
<path opacity="0.1" d="M649.405 540.95C649.689 540.95 649.972 540.95 650.265 541.011C649.981 541.011 649.697 541.011 649.405 540.959V549.687H620.427V512.117H649.405V540.95Z" fill="#6C63FF"/>
<path opacity="0.1" d="M649.405 589.983V618.997C639.709 618.2 630.049 617.085 620.427 615.652V589.983H649.405Z" fill="#6C63FF"/>
<path opacity="0.1" d="M505.127 407.018H380.939V409.778H505.127V407.018Z" fill="#6C63FF"/>
<path opacity="0.1" d="M505.127 413.45H380.938V424.027H505.127V413.45Z" fill="#6C63FF"/>
<path opacity="0.1" d="M505.127 458.699H380.939V475.708H505.127V458.699Z" fill="#6C63FF"/>
<path opacity="0.1" d="M505.127 510.38V527.39H407.991C403.761 524.168 399.595 520.86 395.492 517.466C392.638 515.119 389.818 512.711 386.956 510.38H505.127Z" fill="#6C63FF"/>
<path opacity="0.1" d="M505.127 562.053V579.105H494.872C483.336 573.9 472.035 568.227 460.969 562.087L505.127 562.053Z" fill="#6C63FF"/>
<path opacity="0.1" d="M215.815 188.4H191.368V212.856H215.815V188.4Z" fill="#6C63FF"/>
<path opacity="0.1" d="M215.815 245.206H191.368V269.663H215.815V245.206Z" fill="#6C63FF"/>
<path opacity="0.1" d="M215.815 302.013H191.368V326.469H215.815V302.013Z" fill="#6C63FF"/>
<path opacity="0.1" d="M215.815 358.811H191.368V383.267H215.815V358.811Z" fill="#6C63FF"/>
<path opacity="0.1" d="M215.815 415.617H191.368V440.073H215.815V415.617Z" fill="#6C63FF"/>
<path opacity="0.1" d="M215.815 472.423H191.368V496.879H215.815V472.423Z" fill="#6C63FF"/>
<path opacity="0.1" d="M69.2678 256.557V270.548H152.926V256.557H69.2678ZM77.5975 269.671H70.7206V257.443H77.5975V269.671ZM85.9272 269.671H79.0503V257.443H85.9272V269.671ZM94.2397 269.671H87.3627V257.443H94.2397V269.671ZM102.569 269.671H95.6924V257.443H102.569V269.671ZM110.89 269.671H104.013V257.443H110.89V269.671ZM119.22 269.671H112.343V257.443H119.22V269.671ZM127.55 269.671H120.673V257.443H127.55V269.671ZM135.871 269.671H128.994V257.443H135.871V269.671ZM144.192 269.671H137.315V257.443H144.192V269.671ZM152.522 269.671H145.645V257.443H152.522V269.671Z" fill="#6C63FF"/>
<path opacity="0.1" d="M69.2678 297.283V311.274H152.926V297.283H69.2678ZM77.5975 310.397H70.7206V298.169H77.5975V310.397ZM85.9272 310.397H79.0503V298.169H85.9272V310.397ZM94.2397 310.397H87.3627V298.169H94.2397V310.397ZM102.569 310.397H95.6924V298.169H102.569V310.397ZM110.89 310.397H104.013V298.169H110.89V310.397ZM119.22 310.397H112.343V298.169H119.22V310.397ZM127.55 310.397H120.673V298.169H127.55V310.397ZM135.871 310.397H128.994V298.169H135.871V310.397ZM144.192 310.397H137.315V298.169H144.192V310.397ZM152.522 310.397H145.645V298.169H152.522V310.397Z" fill="#6C63FF"/>
<path opacity="0.1" d="M69.2678 338.018V352H152.926V338.018H69.2678ZM77.5975 351.114H70.7206V338.886H77.5975V351.114ZM85.9272 351.114H79.0503V338.886H85.9272V351.114ZM94.2397 351.114H87.3627V338.886H94.2397V351.114ZM102.569 351.114H95.6924V338.886H102.569V351.114ZM110.89 351.114H104.013V338.886H110.89V351.114ZM119.22 351.114H112.343V338.886H119.22V351.114ZM127.55 351.114H120.673V338.886H127.55V351.114ZM135.871 351.114H128.994V338.886H135.871V351.114ZM144.192 351.114H137.315V338.886H144.192V351.114ZM152.522 351.114H145.645V338.886H152.522V351.114Z" fill="#6C63FF"/>
<path opacity="0.1" d="M69.2678 378.744V392.726H152.926V378.744H69.2678ZM77.5975 391.849H70.7206V379.604H77.5975V391.849ZM85.9272 391.849H79.0503V379.604H85.9272V391.849ZM94.2397 391.849H87.3627V379.604H94.2397V391.849ZM102.569 391.849H95.6924V379.604H102.569V391.849ZM110.89 391.849H104.013V379.604H110.89V391.849ZM119.22 391.849H112.343V379.604H119.22V391.849ZM127.55 391.849H120.673V379.604H127.55V391.849ZM135.871 391.849H128.994V379.604H135.871V391.849ZM144.192 391.849H137.315V379.604H144.192V391.849ZM152.522 391.849H145.645V379.604H152.522V391.849Z" fill="#6C63FF"/>
<path opacity="0.1" d="M69.6718 419.452C69.9985 420.777 70.3853 422.084 70.7807 423.382V420.338H77.6576V432.557H73.9699C74.073 432.85 74.1848 433.151 74.3051 433.417H152.96V419.452H69.6718ZM86.0045 432.557H79.1276V420.338H86.0045V432.557ZM94.317 432.557H87.4401V420.338H94.317V432.557ZM102.647 432.557H95.7697V420.338H102.647V432.557ZM110.968 432.557H104.091V420.338H110.968V432.557ZM119.297 432.557H112.42V420.338H119.297V432.557ZM127.627 432.557H120.75V420.338H127.627V432.557ZM135.948 432.557H129.071V420.338H135.948V432.557ZM144.269 432.557H137.392V420.338H144.269V432.557ZM152.599 432.557H145.722V420.338H152.599V432.557Z" fill="#6C63FF"/>
<path opacity="0.1" d="M89.0477 460.178C89.2712 460.453 89.4775 460.763 89.6924 461.038H94.2398V466.911L95.7098 468.631V461.003H102.587V473.335H99.7585C100.034 473.619 100.3 473.919 100.618 474.195H152.909V460.178H89.0477ZM110.934 473.335H104.057V461.055H110.934V473.335ZM119.263 473.335H112.386V461.055H119.263V473.335ZM127.593 473.335H120.716V461.055H127.593V473.335ZM135.914 473.335H129.037V461.055H135.914V473.335ZM144.235 473.335H137.358V461.055H144.235V473.335ZM152.565 473.335H145.688V461.055H152.565V473.335Z" fill="#6C63FF"/>
<path opacity="0.1" d="M134.943 500.904C135.733 501.351 136.533 501.764 137.332 502.203V501.773H144.209V505.651C144.708 505.866 145.181 506.098 145.671 506.322V501.773H152.548V509.219C152.678 509.278 152.813 509.327 152.952 509.366V500.904H134.943Z" fill="#6C63FF"/>
<path opacity="0.1" d="M649.397 540.95H650.256H649.397ZM594.149 411.816C594.312 412.366 594.458 412.917 594.605 413.458C594.476 412.917 594.321 412.366 594.149 411.816ZM183.141 158.38V162.043H221.54V158.363L183.141 158.38ZM649.405 540.95H650.265H649.405ZM594.149 411.816C594.312 412.366 594.458 412.917 594.605 413.458C594.476 412.917 594.321 412.366 594.149 411.816ZM649.397 540.95H650.256H649.397ZM594.149 411.816C594.312 412.366 594.458 412.917 594.605 413.458C594.476 412.917 594.321 412.366 594.149 411.816Z" fill="#6C63FF"/>
<path opacity="0.1" d="M378.205 728.542C424.465 728.542 461.966 722.517 461.966 715.085C461.966 707.652 424.465 701.627 378.205 701.627C331.945 701.627 294.444 707.652 294.444 715.085C294.444 722.517 331.945 728.542 378.205 728.542Z" fill="#6C63FF"/>
<path d="M474.637 359.232C474.616 359.147 474.571 359.069 474.508 359.008C473.227 357.744 456.894 334.638 456.894 334.638C456.894 334.638 456.035 332.058 454.642 328.705C455.088 328.127 455.424 327.471 455.631 326.77C455.706 326.473 455.76 326.171 455.794 325.867C455.794 325.772 455.863 325.695 455.888 325.6C456.187 324.434 456.157 323.208 455.803 322.058C455.707 322.353 455.589 322.64 455.45 322.917C455.127 321.916 454.694 320.953 454.161 320.045C451.994 316.313 448.9 313.166 446.622 309.529C443.172 303.877 441.801 297.199 442.745 290.645C442.745 290.98 442.745 291.324 442.745 291.659C442.831 290.36 443.003 289.067 443.261 287.79C443.62 286.336 444.1 284.915 444.696 283.542C446.742 278.855 450.052 274.771 452.063 270.067C452.738 268.48 453.251 266.829 453.593 265.139C454.302 262.317 454.56 259.4 454.358 256.497C454.358 257.185 454.247 257.873 454.143 258.552C453.926 251.573 451.108 244.926 446.244 239.918C439.221 232.858 429.137 230.115 419.492 228.67C415.439 228.197 411.569 226.719 408.231 224.371C404.526 221.971 399.738 221.395 395.406 221.92C390.426 222.458 385.799 224.747 382.348 228.378C377.767 233.417 375.781 240.554 370.434 244.802C367.193 247.382 363.084 248.586 359.311 250.34C355.537 252.094 351.97 254.64 350.758 258.406C350.758 258.406 350.758 258.355 350.758 258.329V258.544L350.706 258.681C349.451 263.136 351.875 267.668 353.139 272.113C354.454 276.714 354.54 281.573 354.609 286.328C354.703 292.141 354.789 297.963 354.695 303.784C354.652 306.072 354.574 308.385 354.402 310.664C352.368 311.279 350.391 312.073 348.497 313.037C346.571 314.292 339.368 322.075 339.368 322.075L325.279 375.923L325.468 376.138L325.279 376.869L325.992 376.706C327.986 378.855 333.943 384.978 340.373 388.796L340.975 399.356C340.975 399.356 341.697 409.95 351.437 414.327C351.66 417.999 352.356 432.91 349.133 438.818C346.901 443.133 345.851 447.964 346.09 452.817C346.09 452.817 347.216 461.778 345.935 466.49C345.187 469.639 345.131 472.914 345.772 476.087C345.772 476.087 345.772 477.127 345.772 478.916C345.772 488.452 345.884 519.014 345.772 522.471C345.608 526.555 345.772 586.965 345.772 586.965C345.772 586.965 344.972 617.157 342.411 625.335C339.849 633.512 340.494 660.591 340.494 660.591C340.494 660.591 338.886 692.847 344.568 699.21C344.568 699.494 344.517 699.786 344.508 700.07C344.508 700.199 344.508 700.345 344.508 700.474C344.439 702.925 344.912 705.531 347.018 706.33C351.316 707.982 356.998 712.935 358.073 714.354C359.147 715.772 365.397 719.307 373.546 718.361C378.651 717.787 383.788 717.551 388.924 717.656C388.924 717.656 392.139 717.071 391.099 713.072C390.429 710.578 387.919 706.743 386.131 704.224C386.457 704.31 386.775 704.378 387.076 704.439L387.386 704.499H387.626C387.758 704.507 387.89 704.507 388.022 704.499H388.194C388.354 704.512 388.515 704.512 388.675 704.499C390.833 704.292 398.879 708.042 400.314 710.518C401.75 712.995 406.813 714.878 410.63 715.351C412.899 715.626 418.624 715.162 423.429 714.543C425.849 714.293 428.246 713.856 430.599 713.236C431.733 712.806 431.974 711.43 431.647 709.882C431.261 707.916 430.211 706.143 428.673 704.86C427.28 703.871 425.441 701.266 424.083 699.133L423.722 698.557C426.12 696.269 430.452 688.788 431.768 687.24C433.367 685.357 429.189 616.486 429.189 616.486V581.96L435.593 549.283L440.072 531.99L443.914 505.883C443.914 505.883 450.636 475.39 448.565 472.398C448.565 472.337 446.845 440.942 445.04 433.4C444.258 430.038 444.456 422.471 444.92 415.11C445.405 414.628 445.743 414.018 445.895 413.351C446.047 412.684 446.007 411.988 445.779 411.343C445.651 410.902 445.484 410.474 445.281 410.062C445.281 409.933 445.281 409.795 445.281 409.666C448.994 407.957 452.875 406.637 456.86 405.728C463.264 404.472 461.665 401.17 461.665 401.17C461.665 401.17 463.109 398.341 464.063 396.613C465.018 394.884 464.227 379.629 464.063 378.374C464.003 377.866 463.608 375.063 463.152 371.881C465.207 370.42 467.88 368.605 470.794 366.885C476.339 363.6 475.092 360.135 474.637 359.232ZM391.082 577.248C391.082 577.248 386.277 589.51 388.202 592.649C390.128 595.788 387.884 607.44 387.884 607.44L386.277 624.733C386.277 624.733 381.798 656.808 383.397 664.349C384.652 670.265 385.116 687.937 385.263 695.306C385.152 695.349 385.046 695.401 384.944 695.461L384.73 695.573C385.469 692.675 385.159 686.81 381.489 675.012L381.179 626.28C381.179 626.28 380.612 569.99 385.056 563.695C389.5 557.401 391.074 546.712 391.074 546.712C391.074 546.712 390.111 562.13 389.483 566.215C388.856 570.3 391.082 577.248 391.082 577.248ZM382.133 698.376C382.091 698.479 382.039 698.583 382.005 698.677L381.764 698.368C381.887 698.379 382.01 698.382 382.133 698.376Z" fill="url(#paint0_linear_164_191)"/>
<path d="M431.14 717.69C428.656 718.644 415.186 720.27 411.421 719.814C407.655 719.358 402.67 717.449 401.251 714.955C399.833 712.462 391.881 708.695 389.75 708.936C388.876 708.962 388.004 708.84 387.171 708.575C385.7 708.129 384.264 707.577 382.873 706.924C382.678 705.84 382.711 704.727 382.967 703.656C383.017 703.44 383.08 703.228 383.156 703.02C383.658 701.609 384.696 700.453 386.045 699.804L386.354 699.658C386.95 699.4 387.573 699.21 388.211 699.09C394.967 697.792 422.845 700.397 422.845 700.397C422.845 700.397 423.627 701.799 424.702 703.536C426.043 705.686 427.865 708.308 429.24 709.297C430.764 710.6 431.798 712.384 432.172 714.353C432.498 715.876 432.258 717.269 431.14 717.69Z" fill="white"/>
<path opacity="0.1" d="M431.14 717.69C428.656 718.644 415.194 720.27 411.429 719.814C407.664 719.358 402.678 717.441 401.251 714.955C399.824 712.47 391.89 708.695 389.758 708.936C387.626 709.177 382.881 706.924 382.881 706.924C382.881 706.924 382.142 703.484 384.291 701.136L388.589 704.189C388.589 704.189 400.091 707.758 402.222 711.069C404.354 714.379 408.24 716.228 413.853 716.563C418.048 716.839 427.684 715.205 432.197 714.388C432.498 715.876 432.266 717.269 431.14 717.69Z" fill="black"/>
<path d="M389.99 722.076C384.92 721.977 379.848 722.215 374.81 722.79C366.738 723.735 360.574 720.21 359.5 718.756C358.425 717.303 352.864 712.393 348.591 710.673C346.502 709.865 346.012 707.233 346.107 704.774C346.107 704.645 346.107 704.499 346.107 704.37C346.186 702.812 346.416 701.265 346.795 699.752L380.242 699.038L383.139 702.968L383.586 703.57L385.348 705.969C385.348 705.969 386.148 707.018 387.197 708.549C388.967 711.129 391.443 714.938 392.105 717.458C393.162 721.491 389.99 722.076 389.99 722.076Z" fill="white"/>
<path opacity="0.1" d="M389.99 722.076C384.92 721.977 379.848 722.215 374.81 722.79C366.746 723.736 360.574 720.21 359.508 718.757C358.442 717.303 352.864 712.35 348.591 710.69C346.502 709.882 346.012 707.251 346.107 704.791C348.497 705.35 353.517 706.778 355.485 709.263C358.064 712.582 362.68 718.163 369.239 718.516C374.534 718.8 387.429 717.854 392.157 717.475C393.171 721.491 389.99 722.076 389.99 722.076Z" fill="black"/>
<path opacity="0.1" d="M386.01 699.769C385.624 702.642 384.429 703.415 383.569 703.587C383.359 703.629 383.143 703.629 382.933 703.587C382.82 703.579 382.708 703.562 382.598 703.536C382.598 703.536 352.563 710.174 346.494 704.8C346.34 704.662 346.196 704.512 346.064 704.353C346.143 702.795 346.374 701.248 346.752 699.735L380.199 699.021L383.096 702.951C383.598 701.54 384.636 700.385 385.985 699.735L386.01 699.769Z" fill="black"/>
<path opacity="0.1" d="M424.693 703.501C424.022 704.241 423.464 704.662 423.111 704.516C421.53 703.88 408.567 701.67 404.449 703.57C400.331 705.471 386.397 703.88 386.397 703.88C386.397 703.88 386.397 702.229 386.32 699.58C386.916 699.323 387.538 699.132 388.176 699.013C394.933 697.714 422.81 700.32 422.81 700.32C422.81 700.32 423.627 701.764 424.693 703.501Z" fill="black"/>
<path d="M444.309 508.987L440.51 535.249L436.092 552.654L429.765 585.555V620.381C429.765 620.381 433.874 689.674 432.292 691.566C430.71 693.458 424.702 704.232 423.12 703.605C421.538 702.977 408.575 700.758 404.458 702.65C400.34 704.542 386.406 702.968 386.406 702.968C386.406 702.968 386.088 676.079 384.506 668.485C382.924 660.892 387.351 628.619 387.351 628.619L388.933 611.223C388.933 611.223 391.151 599.511 389.251 596.347C387.351 593.182 392.096 580.868 392.096 580.868C392.096 580.868 389.887 573.894 390.523 569.784C391.159 565.673 392.096 550.169 392.096 550.169C392.096 550.169 390.523 560.935 386.131 567.255C381.738 573.576 382.297 630.219 382.297 630.219L382.606 679.234C390.523 705.187 382.606 702.65 382.606 702.65C382.606 702.65 352.571 709.297 346.502 703.914C340.434 698.531 342.17 664.65 342.17 664.65C342.17 664.65 341.542 637.442 344.07 629.221C346.597 621.001 347.396 590.62 347.396 590.62C347.396 590.62 347.233 529.866 347.396 525.764C347.517 522.325 347.396 491.531 347.396 481.908C347.396 480.12 347.396 479.062 347.396 479.062L351.024 470.05L394.005 464.667H414.567C414.567 464.667 445.513 471.942 448.711 475.081C448.779 475.133 448.837 475.197 448.883 475.27C450.954 478.305 444.309 508.987 444.309 508.987Z" fill="#6C63FF"/>
<path opacity="0.1" d="M392.122 646.936C392.122 646.936 401.578 669.715 406.039 671.297C410.501 672.88 392.122 646.936 392.122 646.936Z" fill="black"/>
<path opacity="0.1" d="M395.621 680.473C395.621 680.473 427.547 682.055 427.229 685.538C426.911 689.02 395.621 680.473 395.621 680.473Z" fill="black"/>
<path opacity="0.1" d="M352.907 671.366C354.17 672.561 377.259 674.806 375.36 676.99C373.46 679.174 354.806 683.422 354.806 683.422L352.907 671.366Z" fill="black"/>
<path opacity="0.1" d="M349.115 632.068C349.115 633.014 353.861 662.44 355.133 663.704C356.405 664.968 366.832 666.232 366.832 666.232L349.115 632.068Z" fill="black"/>
<path d="M383.543 229.848C379.013 234.913 377.053 242.094 371.775 246.376C368.569 248.956 364.511 250.185 360.781 251.94C357.05 253.694 353.353 256.368 352.245 260.341C351.007 264.813 353.396 269.379 354.652 273.85C355.95 278.477 356.027 283.31 356.104 288.151C356.19 294.007 356.285 299.863 356.182 305.719C356.027 314.843 355.27 324.388 350.431 332.119C367.907 337.682 386.492 338.439 404.819 339.153C408.341 339.404 411.879 339.315 415.383 338.886C418.42 338.281 421.424 337.52 424.384 336.607C430.234 335.059 436.263 334.287 442.315 334.311C444.954 334.311 447.645 334.475 450.189 333.787C452.734 333.099 455.184 331.336 455.871 328.791C456.482 326.503 455.588 324.07 454.419 322.015C452.287 318.265 449.261 315.135 446.974 311.438C444.64 307.532 443.255 303.132 442.931 298.593C442.607 294.054 443.353 289.502 445.109 285.305C447.138 280.584 450.404 276.473 452.398 271.744C454.441 266.666 454.984 261.108 453.963 255.73C452.942 250.353 450.4 245.381 446.639 241.406C439.702 234.303 429.748 231.551 420.223 230.089C416.213 229.615 412.387 228.136 409.1 225.789C405.446 223.382 400.71 222.797 396.429 223.33C391.49 223.884 386.916 226.197 383.543 229.848Z" fill="#3F3D56"/>
<g opacity="0.1">
<path opacity="0.1" d="M445.375 280.343C443.623 284.486 442.872 288.985 443.183 293.474C443.376 290.264 444.117 287.111 445.375 284.152C447.395 279.431 450.662 275.321 452.656 270.591C454.287 266.642 454.972 262.366 454.659 258.105C454.482 261.092 453.805 264.028 452.656 266.79C450.662 271.52 447.395 275.622 445.375 280.343Z" fill="black"/>
<path opacity="0.1" d="M356.362 286.981C356.414 290.352 356.465 293.732 356.474 297.103C356.474 292.459 356.431 287.824 356.362 283.189C356.293 278.382 356.207 273.515 354.909 268.88C354.05 265.939 352.778 262.955 352.331 259.988C351.565 264.202 353.74 268.476 354.909 272.681C356.207 277.273 356.293 282.174 356.362 286.981Z" fill="black"/>
<path opacity="0.1" d="M450.481 328.868C447.903 329.565 445.255 329.41 442.616 329.393C436.569 329.354 430.543 330.112 424.693 331.646C421.733 332.555 418.729 333.312 415.693 333.916C412.186 334.351 408.645 334.444 405.12 334.191C387.411 333.494 369.454 332.746 352.494 327.681C351.99 328.806 351.416 329.897 350.775 330.949C368.251 336.504 386.836 337.269 405.154 337.983C408.679 338.236 412.22 338.144 415.727 337.708C418.753 337.11 421.746 336.355 424.693 335.446C430.53 333.907 436.545 333.141 442.582 333.168C445.221 333.168 447.903 333.331 450.447 332.635C452.992 331.938 455.441 330.192 456.129 327.647C456.419 326.468 456.389 325.233 456.043 324.07C455.278 326.477 452.914 328.154 450.481 328.868Z" fill="black"/>
</g>
<path d="M425.02 318.678C424.384 320.106 421.702 332.437 421.066 333.701C420.43 334.965 416.957 355.199 416.639 356.334C416.321 357.469 393.747 351.587 393.747 351.587L380.157 340.193L366.188 326.288C366.188 326.288 365.775 313.742 376.065 309.718C376.764 309.443 377.482 309.219 378.214 309.047C390.696 306.046 389.441 268.08 389.441 268.08L415.057 279.147C415.057 279.147 410.312 301.299 410.475 305.573C410.518 307.009 411.644 307.903 413.114 308.445C415.387 309.092 417.753 309.348 420.112 309.202C420.112 309.202 425.656 317.259 425.02 318.678Z" fill="#FBBEBE"/>
<path d="M470.88 360.281L474.516 361.236C474.516 361.236 477.207 365.329 470.88 369.138C466.863 371.579 463.007 374.276 459.335 377.213L440.639 382.906L437.037 371.598L454.436 358.389L470.88 360.281Z" fill="#6C63FF"/>
<path opacity="0.1" d="M470.88 360.281L474.516 361.236C474.516 361.236 477.207 365.329 470.88 369.138C466.863 371.579 463.007 374.276 459.335 377.213L440.639 382.906L437.037 371.598L454.436 358.389L470.88 360.281Z" fill="black"/>
<path d="M334.433 371.202L327.161 378.322C327.161 378.322 340.279 393.508 350.371 394.454C360.463 395.4 366.97 382.906 366.97 382.906L358.236 369.147L334.433 371.202Z" fill="#6C63FF"/>
<path opacity="0.1" d="M334.433 371.202L327.161 378.322C327.161 378.322 340.279 393.508 350.371 394.454C360.463 395.4 366.97 382.906 366.97 382.906L358.236 369.147L334.433 371.202Z" fill="black"/>
<path opacity="0.1" d="M403.512 292.889C417.484 292.889 428.811 281.559 428.811 267.582C428.811 253.605 417.484 242.274 403.512 242.274C389.54 242.274 378.214 253.605 378.214 267.582C378.214 281.559 389.54 292.889 403.512 292.889Z" fill="black"/>
<path d="M403.512 290.989C417.484 290.989 428.811 279.658 428.811 265.681C428.811 251.704 417.484 240.374 403.512 240.374C389.54 240.374 378.214 251.704 378.214 265.681C378.214 279.658 389.54 290.989 403.512 290.989Z" fill="#FBBEBE"/>
<path opacity="0.1" d="M448.9 478.142C443.139 478.801 437.465 480.072 431.974 481.934C422.518 485.081 348.419 481.986 347.388 481.934C347.388 480.145 347.388 479.088 347.388 479.088L351.015 470.076L393.996 464.693H414.558C414.558 464.693 445.504 471.968 448.702 475.106C448.831 476.998 448.9 478.142 448.9 478.142Z" fill="black"/>
<path opacity="0.1" d="M425.02 318.678C424.384 320.105 421.702 332.437 421.066 333.701C420.43 334.965 416.957 355.199 416.639 356.334C416.321 357.469 393.747 351.587 393.747 351.587L380.157 340.193L366.188 326.288C366.188 326.288 365.775 313.742 376.065 309.718L401.613 339.101L413.114 308.445C415.387 309.092 417.753 309.348 420.112 309.202C420.112 309.202 425.656 317.259 425.02 318.678Z" fill="black"/>
<path d="M401.612 340.047L375.463 309.95C373.932 308.972 372.183 308.391 370.372 308.257C368.561 308.124 366.745 308.442 365.087 309.185C359.233 311.721 351.961 313.777 350.061 315.041C348.161 316.305 341.044 324.13 341.044 324.13L362.242 379.604L352.907 416.142C352.907 416.142 354.333 434.81 350.697 441.612C348.483 445.962 347.446 450.815 347.689 455.689C347.689 455.689 348.798 464.71 347.534 469.448C346.796 472.616 346.74 475.905 347.371 479.096C347.371 479.096 422.492 482.261 431.974 479.096C437.464 477.23 443.138 475.958 448.9 475.304C448.9 475.304 447.181 443.659 445.461 436.066C443.742 428.473 446.888 399.528 446.888 399.528L444.834 368.519L457.161 336.702C457.161 336.702 450.481 316.305 443.519 314.25C443.519 314.25 430.874 311.24 428.183 309.821C425.492 308.402 417.584 307.129 417.584 307.129L413.432 308.522L401.612 340.047Z" fill="#6C63FF"/>
<path opacity="0.1" d="M438.096 367.472L383.07 363.729C381.678 363.634 380.472 364.687 380.378 366.08L374.47 452.989C374.375 454.382 375.427 455.588 376.82 455.683L431.846 459.426C433.239 459.521 434.444 458.468 434.539 457.075L440.446 370.166C440.541 368.773 439.489 367.567 438.096 367.472Z" fill="black"/>
<path d="M439.991 365.585L384.965 361.842C383.573 361.747 382.367 362.799 382.272 364.193L376.365 451.102C376.27 452.495 377.322 453.701 378.715 453.796L433.741 457.539C435.133 457.633 436.339 456.581 436.433 455.188L442.341 368.279C442.436 366.885 441.384 365.679 439.991 365.585Z" fill="#3F3D56"/>
<path d="M438.175 372.397L385.842 368.837L380.464 447.957L432.797 451.516L438.175 372.397Z" fill="white"/>
<path opacity="0.1" d="M433.483 392.592L390.734 389.599L389.9 401.517L432.649 404.511L433.483 392.592Z" fill="black"/>
<path opacity="0.1" d="M431.936 439.955L425.152 439.494L424.73 445.705L431.514 446.167L431.936 439.955Z" fill="black"/>
<path opacity="0.1" d="M425.244 424.964L390.519 422.602L390.097 428.814L424.822 431.176L425.244 424.964Z" fill="black"/>
<path d="M431.698 369.439L395.54 366.979L394.891 376.528L431.049 378.988L431.698 369.439Z" fill="#3F3D56"/>
<path opacity="0.1" d="M431.698 369.439L395.54 366.979L394.891 376.528L431.049 378.988L431.698 369.439Z" fill="black"/>
<path opacity="0.1" d="M404.776 476.396C404.776 476.396 404.458 523.228 392.122 550.117C392.122 550.117 406.993 514.68 406.993 513.261C406.993 511.842 415.211 496.966 413.011 492.537C410.81 488.108 404.776 476.396 404.776 476.396Z" fill="black"/>
<path opacity="0.1" d="M405.446 259.352C404.974 255.207 405.988 251.029 408.309 247.563C408.033 251.037 409.015 254.495 411.076 257.305C413.137 260.115 416.139 262.09 419.535 262.869C419.245 262.618 419.039 262.284 418.942 261.913C418.845 261.541 418.863 261.149 418.994 260.788C420.756 262.783 422.106 265.148 424.1 266.902C426.094 268.656 429.086 269.706 431.432 268.459C434.622 266.739 434.656 262.207 433.831 258.681C432.06 251.173 428.426 244.232 423.266 238.499C421.979 236.766 420.307 235.355 418.383 234.376C416.46 233.398 414.335 232.878 412.177 232.858C407.294 232.48 402.223 232.91 397.847 235.102C395.385 236.446 393.079 238.058 390.97 239.909L378.936 249.73C377.778 250.564 376.786 251.608 376.013 252.808C375.496 253.811 375.187 254.908 375.102 256.033C374.794 259.249 375.389 262.487 376.82 265.384C378.25 268.281 380.459 270.721 383.199 272.432C383.141 269.89 383.84 267.388 385.207 265.244C386.574 263.1 388.547 261.412 390.876 260.393C391.24 260.698 391.536 261.077 391.742 261.506C391.948 261.935 392.06 262.402 392.071 262.878L394.606 258.355C394.984 257.532 395.578 256.827 396.326 256.317C397.89 255.457 399.841 256.471 401.174 257.684C402.506 258.896 403.804 260.41 405.592 260.599L405.661 253.866" fill="black"/>
<path d="M405.446 258.406C404.972 254.258 405.987 250.077 408.309 246.608C407.535 253.487 412.719 260.59 419.544 261.915C419.254 261.665 419.047 261.333 418.95 260.963C418.853 260.593 418.872 260.202 419.003 259.842C420.765 261.837 422.114 264.193 424.109 265.956C426.103 267.719 429.094 268.76 431.441 267.504C434.63 265.784 434.665 261.253 433.84 257.735C432.069 250.227 428.435 243.286 423.275 237.553C421.674 235.601 419.656 234.032 417.369 232.961C415.714 232.349 413.974 231.995 412.212 231.912C407.329 231.534 402.257 231.955 397.882 234.148C395.421 235.498 393.115 237.113 391.005 238.963L378.97 248.784C377.81 249.616 376.819 250.661 376.048 251.862C375.53 252.865 375.22 253.962 375.136 255.087C374.83 258.302 375.425 261.539 376.855 264.434C378.286 267.329 380.494 269.768 383.234 271.477C383.178 268.936 383.878 266.435 385.245 264.291C386.611 262.148 388.583 260.459 390.91 259.438C391.274 259.744 391.568 260.124 391.774 260.553C391.98 260.981 392.093 261.448 392.105 261.923L394.632 257.417C395.007 256.593 395.602 255.888 396.352 255.379C397.916 254.519 399.867 255.534 401.2 256.747C402.532 257.959 403.83 259.464 405.618 259.662L405.687 252.92" fill="#3F3D56"/>
<path d="M417.429 418.033C415.22 416.916 378.686 422.617 378.686 422.617C378.686 422.617 372.669 420.897 358.124 418.506C343.58 416.116 342.651 401.893 342.651 401.893L341.061 373.421L345.969 369.121L366.996 382.88C366.996 382.88 367.322 389.837 366.996 391.092C366.789 391.952 366.239 392.975 366.291 393.672C366.307 393.86 366.384 394.039 366.512 394.179C366.639 394.318 366.809 394.412 366.996 394.446C368.422 394.807 387.867 397.954 387.867 397.954C387.867 397.954 432.937 394.867 444.172 410.053C445.062 411.168 445.736 412.44 446.157 413.803C448.943 424.182 419.432 419.022 417.429 418.033Z" fill="#FBBEBE"/>
<path opacity="0.1" d="M446.183 413.863C444.464 414.628 443.398 415.178 443.398 415.178C443.398 415.178 427.272 414.705 418.211 411.421C409.151 408.136 398.139 408.72 398.139 408.72C398.139 408.72 360.385 402.219 366.239 393.732C366.255 393.921 366.333 394.099 366.46 394.239C366.588 394.379 366.758 394.472 366.944 394.506C368.371 394.867 387.815 398.014 387.815 398.014C387.815 398.014 432.885 394.927 444.12 410.113C445.038 411.222 445.738 412.494 446.183 413.863Z" fill="black"/>
<path d="M461.863 363.764C461.863 363.764 464.08 379.423 464.235 380.696C464.39 381.968 465.189 397.301 464.235 399.046C463.281 400.792 461.863 403.63 461.863 403.63C461.863 403.63 463.444 406.949 457.118 408.222C450.791 409.494 443.364 413.278 443.364 413.278C443.364 413.278 427.229 412.805 418.22 409.486C409.211 406.166 398.139 406.794 398.139 406.794C398.139 406.794 350.216 398.565 370.778 388.521C391.34 378.477 405.885 392.081 405.885 392.081L428.81 390.662C428.81 390.662 437.355 385.434 439.728 385.915C441.403 386.129 443.104 385.854 444.627 385.124L444.791 368.51L461.863 363.764Z" fill="#FBBEBE"/>
<path opacity="0.1" d="M345.608 325.325L341.018 325.085L327.109 379.26C327.109 379.26 342.127 375.459 348.6 379.26C355.073 383.06 366.944 383.843 366.944 383.843L362.517 340.658L345.608 325.325Z" fill="black"/>
<path d="M345.608 324.371L341.018 324.13L327.109 378.305C327.109 378.305 342.127 374.504 348.6 378.305C355.073 382.106 366.944 382.888 366.944 382.888L362.517 339.703L345.608 324.371Z" fill="#6C63FF"/>
<path opacity="0.1" d="M450.8 336.238L457.118 337.665C457.118 337.665 473.253 360.883 474.517 362.181C475.78 363.48 468.499 368.201 465.499 368.201C462.499 368.201 447.791 369.921 443.519 373.893C439.246 377.866 441.026 357.873 441.026 357.417C441.026 356.962 446.33 344.347 446.33 344.347L450.8 336.238Z" fill="black"/>
<path d="M450.8 335.292L457.118 336.711C457.118 336.711 473.253 359.972 474.517 361.236C475.78 362.5 468.499 367.255 465.499 367.255C462.499 367.255 447.791 368.975 443.519 372.948C439.246 376.921 441.026 356.927 441.026 356.472C441.026 356.016 446.364 343.358 446.364 343.358L450.8 335.292Z" fill="#6C63FF"/>
<g opacity="0.1">
<path opacity="0.1" d="M408.266 246.685C408.229 246.026 408.243 245.365 408.309 244.708C407 246.672 406.1 248.88 405.661 251.2V253.195C405.661 253.195 405.661 253.152 405.661 253.126V253.599C405.661 254.992 405.661 256.394 405.618 257.787H405.498V258.432C405.498 258.208 405.498 257.993 405.455 257.77C403.736 257.495 402.506 256.05 401.226 254.898C399.945 253.745 397.942 252.645 396.377 253.53C395.628 254.039 395.033 254.744 394.658 255.568L392.105 260.074C392.094 259.6 391.981 259.134 391.775 258.707C391.569 258.28 391.274 257.901 390.91 257.598C388.582 258.617 386.608 260.306 385.242 262.449C383.875 264.593 383.176 267.095 383.234 269.637C380.885 268.164 378.92 266.154 377.502 263.772C376.083 261.39 375.252 258.705 375.076 255.938C374.927 259.028 375.604 262.101 377.038 264.842C378.472 267.582 380.611 269.891 383.234 271.528C383.178 268.987 383.878 266.486 385.245 264.343C386.611 262.2 388.583 260.511 390.91 259.49C391.274 259.796 391.568 260.176 391.774 260.604C391.98 261.032 392.093 261.5 392.105 261.975L394.632 257.469C395.007 256.644 395.602 255.939 396.352 255.431C397.916 254.571 399.867 255.585 401.2 256.798C402.532 258.01 403.83 259.515 405.618 259.713C405.618 257.512 405.641 255.316 405.687 253.126C406.109 250.829 406.986 248.639 408.266 246.685Z" fill="black"/>
<path opacity="0.1" d="M405.36 255.345C405.403 254.76 405.472 254.175 405.558 253.625L405.653 251.251C405.394 252.6 405.296 253.974 405.36 255.345Z" fill="black"/>
<path opacity="0.1" d="M431.441 265.604C429.094 266.859 426.103 265.81 424.109 264.056C422.114 262.301 420.765 259.937 419.003 257.942C418.872 258.303 418.854 258.695 418.951 259.066C419.048 259.438 419.254 259.771 419.544 260.023C419.372 260.023 419.209 259.937 419.046 259.894C420.765 261.872 422.132 264.193 424.109 265.913C426.086 267.633 429.094 268.716 431.441 267.461C433.788 266.206 434.458 263.265 434.252 260.401C434.097 262.654 433.289 264.606 431.441 265.604Z" fill="black"/>
<path opacity="0.1" d="M418.994 259.877C416.119 259.093 413.553 257.449 411.638 255.165C409.724 252.881 408.553 250.066 408.283 247.098C407.793 253.849 412.882 260.616 419.544 261.915C419.26 261.668 419.056 261.342 418.958 260.979C418.86 260.616 418.873 260.232 418.994 259.877Z" fill="black"/>
</g>
<path opacity="0.1" d="M114.097 721.371C160.357 721.371 197.858 715.345 197.858 707.913C197.858 700.48 160.357 694.455 114.097 694.455C67.8369 694.455 30.3358 700.48 30.3358 707.913C30.3358 715.345 67.8369 721.371 114.097 721.371Z" fill="#6C63FF"/>
<path d="M116.796 450.1H111.406V571.495H116.796V450.1Z" fill="#535461"/>
<path d="M150.673 571.134L150.33 576.603L149.857 584.342L149.659 587.558L149.178 595.298L148.971 598.514L148.499 606.253L143.057 694.025C142.825 697.801 141.162 701.347 138.406 703.939C135.651 706.531 132.011 707.974 128.229 707.973H99.9733C96.1807 707.975 92.5312 706.524 89.7738 703.919C87.0164 701.315 85.3601 697.753 85.1449 693.965L79.7036 606.193L79.2308 598.453L79.0331 595.237L78.5431 587.498L78.3454 584.282L77.8726 576.543L77.5287 571.074C77.4692 570.025 77.6236 568.976 77.9824 567.989C78.3413 567.002 78.897 566.099 79.616 565.334C80.3349 564.569 81.2019 563.958 82.1642 563.539C83.1266 563.12 84.1641 562.901 85.2137 562.896H142.997C144.051 562.902 145.093 563.123 146.059 563.547C147.024 563.97 147.893 564.586 148.612 565.358C149.331 566.129 149.885 567.04 150.239 568.033C150.594 569.026 150.741 570.081 150.673 571.134Z" fill="#3F3D56"/>
<path d="M150.33 576.594L149.848 584.316H78.3455L77.8641 576.594H150.33Z" fill="#9D9CB5"/>
<path d="M149.65 587.532L149.178 595.254H79.0244L78.5431 587.532H149.65Z" fill="#9D9CB5"/>
<path d="M148.972 598.479L148.499 606.193H79.7037L79.2223 598.479H148.972Z" fill="#9D9CB5"/>
<path d="M69.6718 495.607C101.065 518.326 114.14 553.858 114.14 553.858C114.14 553.858 76.3167 552.559 44.9149 529.84C13.5131 507.121 0.421204 471.615 0.421204 471.615C0.421204 471.615 38.2443 472.888 69.6718 495.607Z" fill="#6C63FF"/>
<path d="M0.421204 471.615C0.421204 471.615 39.6798 493.414 52.2732 511.464C64.8666 529.513 114.105 553.875 114.105 553.875" stroke="#535461" stroke-width="2" stroke-miterlimit="10"/>
<path d="M89.8986 449.842C106.988 462.199 114.105 481.539 114.105 481.539C114.105 481.539 93.4746 480.833 76.4284 468.476C59.3823 456.119 52.2216 436.771 52.2216 436.771C52.2216 436.771 72.818 437.476 89.8986 449.842Z" fill="#6C63FF"/>
<path d="M52.2216 436.771C52.2216 436.771 73.5917 448.638 80.4514 458.458C87.3112 468.279 114.105 481.539 114.105 481.539" stroke="#535461" stroke-width="2" stroke-miterlimit="10"/>
<path d="M138.931 480.558C119.306 502.134 115.154 530.33 115.154 530.33C115.154 530.33 142.825 523.537 162.433 501.953C182.041 480.369 186.21 452.181 186.21 452.181C186.21 452.181 158.556 458.983 138.931 480.558Z" fill="#6C63FF"/>
<path d="M186.227 452.189C186.227 452.189 160.662 474.307 154.163 489.544C147.665 504.782 115.154 530.33 115.154 530.33" stroke="#535461" stroke-width="2" stroke-miterlimit="10"/>
</g>
<defs>
<linearGradient id="paint0_linear_164_191" x1="400.177" y1="718.515" x2="400.177" y2="221.782" gradientUnits="userSpaceOnUse">
<stop stop-color="#808080" stop-opacity="0.25"/>
<stop offset="0.54" stop-color="#808080" stop-opacity="0.12"/>
<stop offset="1" stop-color="#808080" stop-opacity="0.1"/>
</linearGradient>
<clipPath id="clip0_164_191">
<rect width="665" height="742" fill="white"/>
</clipPath>
</defs>
</svg>
