<svg width="18" height="18" viewBox="0 0 18 18" fill="none" xmlns="http://www.w3.org/2000/svg">
<circle cx="9" cy="9" r="9" fill="#DB2763"/>
<path d="M11.83 7.21854L9 4L6.17 7.21854C5.39 8.1072 5 9.29208 5 10.4314C5 11.5707 5.39 12.7727 6.17 13.6613C6.95 14.55 7.975 15 9 15C10.025 15 11.05 14.55 11.83 13.6613C12.61 12.7727 13 11.5707 13 10.4314C13 9.29208 12.61 8.1072 11.83 7.21854ZM6 10.6365C6.005 9.49715 6.31 8.77369 6.88 8.12998L9 5.66339L11.12 8.15847C11.69 8.79648 11.995 9.49715 12 10.6365H6Z" fill="white"/>
</svg>
