<svg width="34" height="34" viewBox="0 0 34 34" fill="none" xmlns="http://www.w3.org/2000/svg">
<circle cx="17" cy="17" r="17" fill="#DB2763"/>
<path d="M22.3459 13.6353L17.0004 7.55579L11.6548 13.6353C10.1815 15.3138 9.44482 17.5519 9.44482 19.704C9.44482 21.856 10.1815 24.1264 11.6548 25.8049C13.1282 27.4835 15.0643 28.3336 17.0004 28.3336C18.9365 28.3336 20.8726 27.4835 22.3459 25.8049C23.8193 24.1264 24.5559 21.856 24.5559 19.704C24.5559 17.5519 23.8193 15.3138 22.3459 13.6353ZM11.3337 20.0913C11.3432 17.9393 11.9193 16.5728 12.9959 15.3569L17.0004 10.6977L21.0048 15.4107C22.0815 16.6158 22.6576 17.9393 22.667 20.0913H11.3337Z" fill="white"/>
</svg>
