<svg width="329" height="279" viewBox="0 0 329 279" fill="none" xmlns="http://www.w3.org/2000/svg">
<rect width="329" height="279" rx="30" fill="#8A82FF"/>
<path d="M56.6992 28.1641H52.6953L52.6758 27.1484H56.123C56.8262 27.1484 57.4251 27.0475 57.9199 26.8457C58.4147 26.6439 58.7891 26.3444 59.043 25.9473C59.3034 25.5436 59.4336 25.0488 59.4336 24.4629C59.4336 23.8639 59.3066 23.3691 59.0527 22.9785C58.7988 22.5814 58.418 22.2884 57.9102 22.0996C57.4023 21.9108 56.7643 21.8164 55.9961 21.8164H53.0078V35H51.8066V20.7812H55.9961C56.7188 20.7812 57.3665 20.8529 57.9395 20.9961C58.5124 21.1393 59.0007 21.3639 59.4043 21.6699C59.8079 21.9759 60.1139 22.3633 60.3223 22.832C60.5371 23.2943 60.6445 23.8477 60.6445 24.4922C60.6445 25.0781 60.5143 25.6087 60.2539 26.084C59.9935 26.5527 59.6257 26.9368 59.1504 27.2363C58.6816 27.5293 58.1185 27.7116 57.4609 27.7832L56.6992 28.1641ZM56.6113 35H52.3145L52.9297 33.9746H56.6113C57.3145 33.9746 57.9134 33.8574 58.4082 33.623C58.9095 33.3822 59.2936 33.0404 59.5605 32.5977C59.8275 32.1549 59.9609 31.6276 59.9609 31.0156C59.9609 30.4753 59.8438 29.9902 59.6094 29.5605C59.375 29.1309 59.0169 28.7923 58.5352 28.5449C58.0534 28.291 57.4414 28.1641 56.6992 28.1641H54.209L54.2285 27.1484H57.7539L57.9688 27.5098C58.6068 27.5749 59.1634 27.7734 59.6387 28.1055C60.1204 28.431 60.4915 28.8444 60.752 29.3457C61.0189 29.847 61.1523 30.3971 61.1523 30.9961C61.1523 31.8555 60.9603 32.5846 60.5762 33.1836C60.1986 33.776 59.668 34.2285 58.9844 34.541C58.3073 34.847 57.5163 35 56.6113 35ZM65.0977 20V35H63.9355V20H65.0977ZM67.6465 29.8828V29.5605C67.6465 28.7923 67.7572 28.0827 67.9785 27.4316C68.1999 26.7806 68.5156 26.2174 68.9258 25.7422C69.3424 25.2669 69.8405 24.8991 70.4199 24.6387C70.9993 24.3717 71.6439 24.2383 72.3535 24.2383C73.0697 24.2383 73.7174 24.3717 74.2969 24.6387C74.8763 24.8991 75.3743 25.2669 75.791 25.7422C76.2077 26.2174 76.5267 26.7806 76.748 27.4316C76.9694 28.0827 77.0801 28.7923 77.0801 29.5605V29.8828C77.0801 30.651 76.9694 31.3607 76.748 32.0117C76.5267 32.6562 76.2077 33.2161 75.791 33.6914C75.3809 34.1667 74.8861 34.5378 74.3066 34.8047C73.7272 35.0651 73.0827 35.1953 72.373 35.1953C71.6569 35.1953 71.0091 35.0651 70.4297 34.8047C69.8503 34.5378 69.3522 34.1667 68.9355 33.6914C68.5189 33.2161 68.1999 32.6562 67.9785 32.0117C67.7572 31.3607 67.6465 30.651 67.6465 29.8828ZM68.8086 29.5605V29.8828C68.8086 30.4622 68.8867 31.0124 69.043 31.5332C69.1992 32.0475 69.4271 32.5065 69.7266 32.9102C70.026 33.3073 70.3971 33.6198 70.8398 33.8477C71.2826 34.0755 71.7936 34.1895 72.373 34.1895C72.946 34.1895 73.4505 34.0755 73.8867 33.8477C74.3294 33.6198 74.7005 33.3073 75 32.9102C75.2995 32.5065 75.5241 32.0475 75.6738 31.5332C75.8301 31.0124 75.9082 30.4622 75.9082 29.8828V29.5605C75.9082 28.9876 75.8301 28.444 75.6738 27.9297C75.5241 27.4154 75.2962 26.9564 74.9902 26.5527C74.6908 26.1491 74.3197 25.8301 73.877 25.5957C73.4342 25.3613 72.9264 25.2441 72.3535 25.2441C71.7806 25.2441 71.2728 25.3613 70.8301 25.5957C70.3939 25.8301 70.0228 26.1491 69.7168 26.5527C69.4173 26.9564 69.1895 27.4154 69.0332 27.9297C68.8835 28.444 68.8086 28.9876 68.8086 29.5605ZM78.8574 29.8828V29.5605C78.8574 28.7923 78.9681 28.0827 79.1895 27.4316C79.4108 26.7806 79.7266 26.2174 80.1367 25.7422C80.5534 25.2669 81.0514 24.8991 81.6309 24.6387C82.2103 24.3717 82.8548 24.2383 83.5645 24.2383C84.2806 24.2383 84.9284 24.3717 85.5078 24.6387C86.0872 24.8991 86.5853 25.2669 87.002 25.7422C87.4186 26.2174 87.7376 26.7806 87.959 27.4316C88.1803 28.0827 88.291 28.7923 88.291 29.5605V29.8828C88.291 30.651 88.1803 31.3607 87.959 32.0117C87.7376 32.6562 87.4186 33.2161 87.002 33.6914C86.5918 34.1667 86.097 34.5378 85.5176 34.8047C84.9382 35.0651 84.2936 35.1953 83.584 35.1953C82.8678 35.1953 82.2201 35.0651 81.6406 34.8047C81.0612 34.5378 80.5632 34.1667 80.1465 33.6914C79.7298 33.2161 79.4108 32.6562 79.1895 32.0117C78.9681 31.3607 78.8574 30.651 78.8574 29.8828ZM80.0195 29.5605V29.8828C80.0195 30.4622 80.0977 31.0124 80.2539 31.5332C80.4102 32.0475 80.638 32.5065 80.9375 32.9102C81.237 33.3073 81.6081 33.6198 82.0508 33.8477C82.4935 34.0755 83.0046 34.1895 83.584 34.1895C84.1569 34.1895 84.6615 34.0755 85.0977 33.8477C85.5404 33.6198 85.9115 33.3073 86.2109 32.9102C86.5104 32.5065 86.735 32.0475 86.8848 31.5332C87.041 31.0124 87.1191 30.4622 87.1191 29.8828V29.5605C87.1191 28.9876 87.041 28.444 86.8848 27.9297C86.735 27.4154 86.5072 26.9564 86.2012 26.5527C85.9017 26.1491 85.5306 25.8301 85.0879 25.5957C84.6452 25.3613 84.1374 25.2441 83.5645 25.2441C82.9915 25.2441 82.4837 25.3613 82.041 25.5957C81.6048 25.8301 81.2337 26.1491 80.9277 26.5527C80.6283 26.9564 80.4004 27.4154 80.2441 27.9297C80.0944 28.444 80.0195 28.9876 80.0195 29.5605ZM97.5781 32.9492V20H98.75V35H97.6562L97.5781 32.9492ZM90.2441 29.8242V29.6191C90.2441 28.7988 90.3385 28.0599 90.5273 27.4023C90.7161 26.7383 90.9863 26.1719 91.3379 25.7031C91.696 25.2279 92.1257 24.8665 92.627 24.6191C93.1283 24.3652 93.6947 24.2383 94.3262 24.2383C94.9447 24.2383 95.4915 24.3392 95.9668 24.541C96.4421 24.7428 96.849 25.0326 97.1875 25.4102C97.5326 25.7878 97.8092 26.237 98.0176 26.7578C98.2324 27.2786 98.3887 27.8581 98.4863 28.4961V31.1035C98.4082 31.7025 98.265 32.2526 98.0566 32.7539C97.8483 33.2487 97.5716 33.6816 97.2266 34.0527C96.8815 34.4173 96.4648 34.7005 95.9766 34.9023C95.4948 35.0977 94.9382 35.1953 94.3066 35.1953C93.6816 35.1953 93.1185 35.0651 92.6172 34.8047C92.1159 34.5443 91.6895 34.1764 91.3379 33.7012C90.9863 33.2194 90.7161 32.6497 90.5273 31.9922C90.3385 31.3346 90.2441 30.612 90.2441 29.8242ZM91.416 29.6191V29.8242C91.416 30.4427 91.4779 31.0156 91.6016 31.543C91.7253 32.0703 91.9141 32.5293 92.168 32.9199C92.4219 33.3105 92.7441 33.6165 93.1348 33.8379C93.5254 34.0592 93.9876 34.1699 94.5215 34.1699C95.1921 34.1699 95.7552 34.043 96.2109 33.7891C96.6667 33.5286 97.0312 33.1868 97.3047 32.7637C97.5781 32.334 97.7767 31.8652 97.9004 31.3574V28.3203C97.8223 27.9753 97.7083 27.6237 97.5586 27.2656C97.4089 26.9076 97.2038 26.5788 96.9434 26.2793C96.6895 25.9733 96.3639 25.7292 95.9668 25.5469C95.5762 25.3581 95.1009 25.2637 94.541 25.2637C94.0007 25.2637 93.5352 25.3743 93.1445 25.5957C92.7539 25.8171 92.4284 26.1263 92.168 26.5234C91.9141 26.9141 91.7253 27.373 91.6016 27.9004C91.4779 28.4277 91.416 29.0007 91.416 29.6191ZM117.236 28.2422V33.3008C117.074 33.5417 116.794 33.8086 116.396 34.1016C115.999 34.3945 115.465 34.6517 114.795 34.873C114.124 35.0879 113.291 35.1953 112.295 35.1953C111.462 35.1953 110.697 35.0456 110 34.7461C109.303 34.4466 108.698 34.0137 108.184 33.4473C107.676 32.8743 107.282 32.1875 107.002 31.3867C106.729 30.5859 106.592 29.6875 106.592 28.6914V26.9727C106.592 25.9961 106.719 25.1172 106.973 24.3359C107.227 23.5482 107.594 22.8743 108.076 22.3145C108.558 21.7546 109.137 21.3281 109.814 21.0352C110.498 20.7357 111.263 20.5859 112.109 20.5859C113.164 20.5859 114.053 20.7682 114.775 21.1328C115.498 21.4974 116.061 21.9987 116.465 22.6367C116.875 23.2682 117.129 23.9844 117.227 24.7852H116.025C115.934 24.2188 115.745 23.6979 115.459 23.2227C115.173 22.7409 114.756 22.3535 114.209 22.0605C113.669 21.7676 112.969 21.6211 112.109 21.6211C111.419 21.6211 110.804 21.748 110.264 22.002C109.73 22.2559 109.281 22.6172 108.916 23.0859C108.551 23.5547 108.275 24.1178 108.086 24.7754C107.897 25.4264 107.803 26.1523 107.803 26.9531V28.6914C107.803 29.5247 107.907 30.2767 108.115 30.9473C108.33 31.6178 108.636 32.194 109.033 32.6758C109.43 33.1576 109.906 33.5286 110.459 33.7891C111.012 34.043 111.628 34.1699 112.305 34.1699C113.027 34.1699 113.643 34.1016 114.15 33.9648C114.658 33.8281 115.065 33.6654 115.371 33.4766C115.684 33.2812 115.908 33.099 116.045 32.9297V29.2676H112.227V28.2422H117.236ZM121.699 20V35H120.537V20H121.699ZM131.66 32.5586V24.4336H132.832V35H131.709L131.66 32.5586ZM131.875 30.6055L132.48 30.5859C132.48 31.25 132.402 31.862 132.246 32.4219C132.09 32.9818 131.846 33.4701 131.514 33.8867C131.182 34.3034 130.752 34.6257 130.225 34.8535C129.697 35.0814 129.062 35.1953 128.32 35.1953C127.806 35.1953 127.334 35.1237 126.904 34.9805C126.481 34.8307 126.117 34.5964 125.811 34.2773C125.505 33.9583 125.267 33.5449 125.098 33.0371C124.935 32.5293 124.854 31.9141 124.854 31.1914V24.4336H126.016V31.2109C126.016 31.7773 126.077 32.2493 126.201 32.627C126.331 33.0046 126.507 33.3073 126.729 33.5352C126.956 33.763 127.217 33.9258 127.51 34.0234C127.803 34.1211 128.118 34.1699 128.457 34.1699C129.316 34.1699 129.993 34.0039 130.488 33.6719C130.99 33.3398 131.344 32.9036 131.553 32.3633C131.768 31.8164 131.875 31.2305 131.875 30.6055ZM139.785 34.1895C140.28 34.1895 140.742 34.0983 141.172 33.916C141.608 33.7272 141.966 33.4505 142.246 33.0859C142.533 32.7148 142.695 32.2624 142.734 31.7285H143.848C143.815 32.3991 143.61 32.998 143.232 33.5254C142.861 34.0462 142.373 34.4564 141.768 34.7559C141.169 35.0488 140.508 35.1953 139.785 35.1953C139.049 35.1953 138.398 35.0618 137.832 34.7949C137.272 34.528 136.803 34.1569 136.426 33.6816C136.048 33.1999 135.762 32.64 135.566 32.002C135.378 31.3574 135.283 30.6641 135.283 29.9219V29.5117C135.283 28.7695 135.378 28.0794 135.566 27.4414C135.762 26.7969 136.048 26.237 136.426 25.7617C136.803 25.2799 137.272 24.9056 137.832 24.6387C138.392 24.3717 139.04 24.2383 139.775 24.2383C140.531 24.2383 141.208 24.3913 141.807 24.6973C142.412 25.0033 142.894 25.4362 143.252 25.9961C143.617 26.556 143.815 27.2201 143.848 27.9883H142.734C142.702 27.4219 142.552 26.9336 142.285 26.5234C142.018 26.1133 141.667 25.7975 141.23 25.5762C140.794 25.3548 140.309 25.2441 139.775 25.2441C139.176 25.2441 138.665 25.3613 138.242 25.5957C137.819 25.8236 137.474 26.1393 137.207 26.543C136.947 26.9401 136.755 27.3958 136.631 27.9102C136.507 28.418 136.445 28.9518 136.445 29.5117V29.9219C136.445 30.4883 136.504 31.0286 136.621 31.543C136.745 32.0508 136.937 32.5033 137.197 32.9004C137.464 33.2975 137.809 33.6133 138.232 33.8477C138.662 34.0755 139.18 34.1895 139.785 34.1895ZM145.557 29.8828V29.5605C145.557 28.7923 145.667 28.0827 145.889 27.4316C146.11 26.7806 146.426 26.2174 146.836 25.7422C147.253 25.2669 147.751 24.8991 148.33 24.6387C148.91 24.3717 149.554 24.2383 150.264 24.2383C150.98 24.2383 151.628 24.3717 152.207 24.6387C152.786 24.8991 153.285 25.2669 153.701 25.7422C154.118 26.2174 154.437 26.7806 154.658 27.4316C154.88 28.0827 154.99 28.7923 154.99 29.5605V29.8828C154.99 30.651 154.88 31.3607 154.658 32.0117C154.437 32.6562 154.118 33.2161 153.701 33.6914C153.291 34.1667 152.796 34.5378 152.217 34.8047C151.637 35.0651 150.993 35.1953 150.283 35.1953C149.567 35.1953 148.919 35.0651 148.34 34.8047C147.76 34.5378 147.262 34.1667 146.846 33.6914C146.429 33.2161 146.11 32.6562 145.889 32.0117C145.667 31.3607 145.557 30.651 145.557 29.8828ZM146.719 29.5605V29.8828C146.719 30.4622 146.797 31.0124 146.953 31.5332C147.109 32.0475 147.337 32.5065 147.637 32.9102C147.936 33.3073 148.307 33.6198 148.75 33.8477C149.193 34.0755 149.704 34.1895 150.283 34.1895C150.856 34.1895 151.361 34.0755 151.797 33.8477C152.24 33.6198 152.611 33.3073 152.91 32.9102C153.21 32.5065 153.434 32.0475 153.584 31.5332C153.74 31.0124 153.818 30.4622 153.818 29.8828V29.5605C153.818 28.9876 153.74 28.444 153.584 27.9297C153.434 27.4154 153.206 26.9564 152.9 26.5527C152.601 26.1491 152.23 25.8301 151.787 25.5957C151.344 25.3613 150.837 25.2441 150.264 25.2441C149.691 25.2441 149.183 25.3613 148.74 25.5957C148.304 25.8301 147.933 26.1491 147.627 26.5527C147.327 26.9564 147.1 27.4154 146.943 27.9297C146.794 28.444 146.719 28.9876 146.719 29.5605ZM163.74 32.3047C163.74 32.0182 163.669 31.735 163.525 31.4551C163.382 31.1751 163.105 30.918 162.695 30.6836C162.292 30.4492 161.696 30.2507 160.908 30.0879C160.322 29.9577 159.798 29.8112 159.336 29.6484C158.88 29.4857 158.496 29.2904 158.184 29.0625C157.871 28.8346 157.633 28.5612 157.471 28.2422C157.308 27.9232 157.227 27.5456 157.227 27.1094C157.227 26.7188 157.311 26.3509 157.48 26.0059C157.656 25.6543 157.904 25.3483 158.223 25.0879C158.548 24.821 158.939 24.6126 159.395 24.4629C159.857 24.3132 160.374 24.2383 160.947 24.2383C161.761 24.2383 162.458 24.3783 163.037 24.6582C163.623 24.9316 164.069 25.306 164.375 25.7812C164.688 26.2565 164.844 26.7936 164.844 27.3926H163.682C163.682 27.028 163.574 26.6829 163.359 26.3574C163.151 26.0319 162.842 25.765 162.432 25.5566C162.028 25.3483 161.533 25.2441 160.947 25.2441C160.342 25.2441 159.85 25.3353 159.473 25.5176C159.095 25.6999 158.818 25.931 158.643 26.2109C158.473 26.4909 158.389 26.7806 158.389 27.0801C158.389 27.3145 158.424 27.5293 158.496 27.7246C158.574 27.9134 158.711 28.0892 158.906 28.252C159.108 28.4147 159.395 28.5677 159.766 28.7109C160.137 28.8542 160.618 28.9941 161.211 29.1309C162.064 29.3197 162.76 29.5508 163.301 29.8242C163.848 30.0911 164.251 30.4232 164.512 30.8203C164.772 31.2109 164.902 31.6862 164.902 32.2461C164.902 32.6823 164.811 33.0827 164.629 33.4473C164.447 33.8053 164.183 34.1146 163.838 34.375C163.499 34.6354 163.089 34.8372 162.607 34.9805C162.132 35.1237 161.598 35.1953 161.006 35.1953C160.114 35.1953 159.359 35.0488 158.74 34.7559C158.128 34.4564 157.663 34.0658 157.344 33.584C157.031 33.0957 156.875 32.5781 156.875 32.0312H158.037C158.076 32.5781 158.249 33.0111 158.555 33.3301C158.861 33.6426 159.235 33.8639 159.678 33.9941C160.127 34.1243 160.57 34.1895 161.006 34.1895C161.605 34.1895 162.106 34.1016 162.51 33.9258C162.913 33.75 163.219 33.5189 163.428 33.2324C163.636 32.946 163.74 32.6367 163.74 32.3047ZM171.631 35.1953C170.941 35.1953 170.306 35.0684 169.727 34.8145C169.154 34.5605 168.652 34.2025 168.223 33.7402C167.799 33.278 167.471 32.7311 167.236 32.0996C167.008 31.4616 166.895 30.765 166.895 30.0098V29.5898C166.895 28.776 167.015 28.0404 167.256 27.3828C167.497 26.7253 167.829 26.1621 168.252 25.6934C168.675 25.2246 169.157 24.8665 169.697 24.6191C170.244 24.3652 170.817 24.2383 171.416 24.2383C172.087 24.2383 172.682 24.3587 173.203 24.5996C173.724 24.834 174.16 25.1693 174.512 25.6055C174.87 26.0352 175.14 26.5462 175.322 27.1387C175.505 27.7246 175.596 28.3724 175.596 29.082V29.7949H167.598V28.7988H174.434V28.6621C174.421 28.0697 174.3 27.5163 174.072 27.002C173.851 26.4811 173.519 26.0579 173.076 25.7324C172.633 25.4069 172.08 25.2441 171.416 25.2441C170.921 25.2441 170.465 25.3483 170.049 25.5566C169.639 25.765 169.284 26.0645 168.984 26.4551C168.691 26.8392 168.464 27.2982 168.301 27.832C168.145 28.3594 168.066 28.9453 168.066 29.5898V30.0098C168.066 30.5957 168.151 31.1426 168.32 31.6504C168.496 32.1517 168.743 32.5944 169.062 32.9785C169.388 33.3626 169.772 33.6621 170.215 33.877C170.658 34.0918 171.146 34.1992 171.68 34.1992C172.305 34.1992 172.858 34.0853 173.34 33.8574C173.822 33.623 174.255 33.2552 174.639 32.7539L175.371 33.3203C175.143 33.6589 174.857 33.9714 174.512 34.2578C174.173 34.5443 173.766 34.7721 173.291 34.9414C172.816 35.1107 172.262 35.1953 171.631 35.1953Z" fill="white"/>
<ellipse cx="32" cy="28.2857" rx="9" ry="10.2857" fill="#DB2763"/>
<path d="M34.7267 25.7968L31.9978 22.2856L29.2688 25.7968C28.5167 26.7662 28.1406 28.0588 28.1406 29.3017C28.1406 30.5446 28.5167 31.8558 29.2688 32.8253C30.021 33.7947 31.0094 34.2856 31.9978 34.2856C32.9862 34.2856 33.9746 33.7947 34.7267 32.8253C35.4788 31.8558 35.8549 30.5446 35.8549 29.3017C35.8549 28.0588 35.4788 26.7662 34.7267 25.7968ZM29.1049 29.5254C29.1097 28.2825 29.4038 27.4933 29.9535 26.7911L31.9978 24.1002L34.0421 26.8222C34.5917 27.5182 34.8858 28.2825 34.8906 29.5254H29.1049Z" fill="white"/>
<rect x="10.5" y="46.5" width="309" height="210" rx="25.5" stroke="white" stroke-width="5"/>
<g clip-path="url(#clip0_4473_6653)">
<g opacity="0.4">
<g opacity="0.8">
<rect width="11" height="24" rx="2" transform="matrix(0 -1 -1 0 113.566 230)" fill="white"/>
</g>
</g>
<g opacity="0.4">
<g opacity="0.8">
<rect width="8" height="24" rx="2" transform="matrix(0 -1 -1 0 81.5664 230)" fill="white"/>
</g>
</g>
</g>
<rect width="8" height="12" rx="2" transform="matrix(0 -1 -1 0 58.5664 230)" fill="white"/>
<g opacity="0.4">
<g opacity="0.8">
<rect width="11" height="11" rx="2" transform="matrix(0 -1 -1 0 73.5664 230)" fill="white"/>
</g>
</g>
<g opacity="0.4">
<g opacity="0.8">
<rect width="13" height="11" rx="2" transform="matrix(0 -1 -1 0 88.5664 230)" fill="white"/>
</g>
</g>
<g opacity="0.4">
<g opacity="0.8">
<rect width="15" height="12" rx="2" transform="matrix(0 -1 -1 0 104.566 230)" fill="white"/>
</g>
</g>
<g opacity="0.4">
<g opacity="0.8">
<rect width="19" height="11" rx="2" transform="matrix(0 -1 -1 0 119.566 230)" fill="white"/>
</g>
</g>
<g opacity="0.4">
<g opacity="0.8">
<rect width="23" height="12" rx="2" transform="matrix(0 -1 -1 0 135.566 230)" fill="white"/>
</g>
</g>
<g opacity="0.4">
<g opacity="0.8">
<rect width="34" height="12" rx="2" transform="matrix(0 -1 -1 0 150.566 230)" fill="white"/>
</g>
</g>
<g opacity="0.4">
<g opacity="0.8">
<rect x="2" y="2" width="60" height="15" rx="4" transform="matrix(0 -1 -1 0 169.566 234)" fill="white" stroke="#7569F2" stroke-width="4"/>
</g>
<path d="M165.566 230H166.566V231H165.566V230ZM165.566 174V173H166.566V174H165.566ZM154.566 174H153.566V173H154.566V174ZM154.566 230V231H153.566V230H154.566ZM164.566 230V174H166.566V230H164.566ZM165.566 175H154.566V173H165.566V175ZM155.566 174V230H153.566V174H155.566ZM154.566 229H165.566V231H154.566V229Z" fill="#7569F2"/>
</g>
<g opacity="0.4">
<g opacity="0.8">
<rect width="61" height="12" rx="2" transform="matrix(0 -1 -1 0 181.566 230)" fill="white"/>
</g>
</g>
<g opacity="0.4">
<g opacity="0.8">
<rect width="66" height="11" rx="2" transform="matrix(0 -1 -1 0 196.566 230)" fill="white"/>
</g>
</g>
<g opacity="0.4">
<g opacity="0.8">
<rect width="75" height="12" rx="2" transform="matrix(0 -1 -1 0 212.566 230)" fill="white"/>
</g>
</g>
<g opacity="0.4">
<g opacity="0.8">
<rect width="81" height="12" rx="2" transform="matrix(0 -1 -1 0 227.566 230)" fill="white"/>
</g>
</g>
<g opacity="0.4">
<g opacity="0.8">
<rect width="98" height="11" rx="2" transform="matrix(0 -1 -1 0 242.566 230)" fill="white"/>
</g>
</g>
<g opacity="0.4">
<g opacity="0.8">
<rect width="122" height="12" rx="2" transform="matrix(0 -1 -1 0 258.566 230)" fill="white"/>
</g>
</g>
<g opacity="0.4">
<g opacity="0.8">
<rect width="164" height="11" rx="2" transform="matrix(0 -1 -1 0 273.566 230)" fill="white"/>
</g>
</g>
<path d="M272.207 237.453L272.458 237.862L270.716 239.129L270.465 238.72L271.154 238.219L269.93 236.225C269.926 236.287 269.908 236.364 269.876 236.456C269.841 236.545 269.798 236.639 269.746 236.736C269.693 236.833 269.636 236.924 269.575 237.008C269.512 237.088 269.449 237.152 269.384 237.199L269.12 236.769C269.191 236.718 269.256 236.641 269.315 236.539C269.376 236.431 269.428 236.318 269.474 236.202C269.519 236.085 269.553 235.981 269.577 235.89C269.604 235.796 269.616 235.736 269.613 235.708L270.05 235.39L271.591 237.901L272.207 237.453ZM274.314 237.614C274.068 237.793 273.809 237.892 273.536 237.913C273.264 237.934 273.015 237.879 272.789 237.747L272.905 237.307C273.092 237.398 273.289 237.437 273.496 237.425C273.707 237.409 273.899 237.338 274.074 237.211C274.223 237.103 274.335 236.972 274.409 236.82C274.484 236.667 274.518 236.506 274.513 236.337C274.506 236.165 274.454 236 274.358 235.844C274.263 235.69 274.147 235.58 274.008 235.514C273.872 235.445 273.728 235.419 273.575 235.437C273.425 235.452 273.28 235.51 273.141 235.612C273.002 235.713 272.891 235.84 272.808 235.995C272.728 236.147 272.686 236.31 272.682 236.486L272.298 236.765L271.409 234.401L273.083 233.183L273.337 233.598L271.979 234.586L272.479 235.894C272.502 235.763 272.554 235.637 272.633 235.515C272.714 235.388 272.82 235.275 272.953 235.179C273.167 235.024 273.388 234.934 273.617 234.911C273.849 234.885 274.067 234.924 274.27 235.027C274.477 235.128 274.651 235.292 274.791 235.521C274.938 235.759 275.011 236.009 275.012 236.27C275.018 236.532 274.96 236.779 274.836 237.012C274.714 237.248 274.54 237.449 274.314 237.614ZM273.62 245.646L271.919 242.875L272.093 245.833L271.826 246.027L269.377 244.724L271.078 247.496L270.642 247.814L268.413 244.183L268.874 243.848L271.568 245.298L271.373 242.03L271.829 241.698L274.057 245.329L273.62 245.646ZM274.118 244.168C274.013 243.997 273.968 243.818 273.984 243.629C274 243.435 274.068 243.244 274.188 243.059C274.308 242.873 274.474 242.702 274.688 242.547C274.801 242.464 274.927 242.388 275.066 242.316C275.202 242.242 275.331 242.188 275.451 242.155L275.331 241.96C275.206 241.756 275.049 241.638 274.862 241.607C274.672 241.572 274.471 241.632 274.257 241.788C274.118 241.889 274.001 242.014 273.905 242.163C273.81 242.305 273.722 242.478 273.64 242.681L273.29 242.476C273.382 242.237 273.492 242.028 273.622 241.85C273.749 241.669 273.902 241.514 274.08 241.384C274.403 241.149 274.717 241.058 275.022 241.113C275.325 241.164 275.58 241.358 275.787 241.696L276.48 242.826C276.514 242.88 276.549 242.914 276.585 242.927C276.622 242.935 276.666 242.922 276.717 242.891L276.93 243.238C276.892 243.276 276.858 243.308 276.828 243.335C276.801 243.359 276.778 243.379 276.758 243.393C276.658 243.466 276.564 243.492 276.477 243.472C276.393 243.449 276.328 243.408 276.281 243.348L276.168 243.186C276.15 243.416 276.077 243.637 275.95 243.848C275.822 244.059 275.671 244.228 275.496 244.355C275.328 244.478 275.156 244.551 274.979 244.576C274.8 244.598 274.636 244.574 274.487 244.506C274.335 244.434 274.212 244.321 274.118 244.168ZM275.883 243.157C275.893 243.081 275.894 243.011 275.888 242.946C275.879 242.879 275.864 242.828 275.843 242.794L275.639 242.461C275.514 242.493 275.39 242.539 275.267 242.599C275.143 242.655 275.027 242.722 274.92 242.799C274.703 242.957 274.555 243.131 274.476 243.322C274.398 243.507 274.407 243.678 274.503 243.835C274.555 243.92 274.628 243.989 274.72 244.04C274.813 244.085 274.918 244.103 275.033 244.093C275.152 244.081 275.274 244.029 275.401 243.937C275.533 243.84 275.643 243.721 275.729 243.58C275.813 243.435 275.864 243.294 275.883 243.157ZM277.419 239.59C277.208 239.749 277.054 239.945 276.958 240.177C276.864 240.404 276.842 240.639 276.893 240.883L277.904 242.53L277.477 242.84L275.839 240.171L276.236 239.882L276.616 240.5C276.59 240.253 276.614 240.021 276.688 239.805C276.762 239.583 276.874 239.408 277.024 239.279C277.057 239.255 277.084 239.235 277.107 239.219C277.129 239.202 277.15 239.19 277.168 239.181L277.419 239.59Z" fill="#F0EFFF"/>
<path d="M244.604 238.359L244.855 238.768L243.114 240.036L242.863 239.627L243.551 239.125L242.327 237.131C242.323 237.193 242.305 237.27 242.273 237.363C242.239 237.452 242.196 237.545 242.143 237.642C242.091 237.74 242.034 237.83 241.973 237.914C241.91 237.995 241.846 238.058 241.781 238.105L241.518 237.676C241.589 237.624 241.654 237.547 241.713 237.445C241.773 237.337 241.826 237.225 241.871 237.108C241.916 236.991 241.951 236.887 241.974 236.796C242.001 236.703 242.013 236.642 242.01 236.615L242.447 236.297L243.988 238.808L244.604 238.359ZM245.181 238.531C245.098 238.395 245.029 238.26 244.975 238.126C244.925 237.991 244.893 237.848 244.881 237.699C244.873 237.548 244.89 237.385 244.932 237.211C244.973 237.033 245.047 236.837 245.153 236.621C245.214 236.493 245.278 236.367 245.344 236.246C245.413 236.122 245.471 236 245.52 235.881C245.572 235.759 245.602 235.646 245.612 235.54C245.62 235.431 245.596 235.33 245.539 235.238C245.491 235.16 245.422 235.101 245.333 235.062C245.245 235.018 245.144 235.005 245.029 235.025C244.916 235.038 244.796 235.091 244.67 235.182C244.573 235.253 244.492 235.331 244.428 235.417C244.367 235.501 244.318 235.589 244.281 235.68C244.244 235.766 244.217 235.85 244.197 235.933C244.179 236.01 244.166 236.08 244.156 236.141L243.695 236.018C243.702 235.968 243.72 235.896 243.751 235.8C243.778 235.7 243.823 235.589 243.883 235.467C243.943 235.344 244.023 235.219 244.123 235.092C244.224 234.959 244.349 234.839 244.498 234.731C244.699 234.585 244.893 234.497 245.081 234.469C245.271 234.435 245.443 234.452 245.598 234.522C245.751 234.588 245.875 234.698 245.969 234.851C246.05 234.984 246.094 235.12 246.1 235.259C246.109 235.396 246.094 235.532 246.056 235.668C246.021 235.802 245.975 235.929 245.918 236.05C245.862 236.164 245.81 236.266 245.762 236.356C245.663 236.536 245.58 236.695 245.514 236.832C245.448 236.969 245.4 237.092 245.37 237.203C245.341 237.308 245.325 237.408 245.323 237.504C245.324 237.597 245.342 237.695 245.377 237.797L247.089 236.551L247.34 236.96L245.181 238.531ZM245.956 246.597L244.255 243.826L244.429 246.784L244.162 246.978L241.713 245.676L243.414 248.447L242.978 248.765L240.749 245.134L241.21 244.799L243.904 246.249L243.709 242.981L244.165 242.649L246.393 246.28L245.956 246.597ZM246.454 245.119C246.349 244.948 246.304 244.769 246.319 244.58C246.336 244.386 246.404 244.196 246.524 244.01C246.644 243.824 246.81 243.653 247.024 243.498C247.137 243.416 247.263 243.339 247.402 243.267C247.538 243.193 247.667 243.139 247.787 243.106L247.667 242.911C247.542 242.707 247.385 242.589 247.198 242.558C247.008 242.523 246.806 242.584 246.593 242.739C246.454 242.84 246.336 242.965 246.241 243.114C246.146 243.257 246.058 243.429 245.976 243.632L245.626 243.428C245.718 243.188 245.828 242.98 245.958 242.802C246.085 242.62 246.238 242.465 246.416 242.335C246.739 242.1 247.053 242.01 247.358 242.064C247.661 242.115 247.915 242.309 248.123 242.647L248.816 243.777C248.85 243.831 248.885 243.865 248.921 243.878C248.958 243.886 249.002 243.874 249.053 243.842L249.266 244.189C249.228 244.227 249.194 244.259 249.164 244.286C249.137 244.311 249.114 244.33 249.094 244.344C248.994 244.417 248.9 244.443 248.813 244.423C248.729 244.4 248.664 244.359 248.617 244.299L248.504 244.137C248.486 244.367 248.413 244.588 248.286 244.799C248.158 245.01 248.007 245.18 247.832 245.307C247.664 245.429 247.492 245.503 247.315 245.528C247.136 245.549 246.972 245.525 246.822 245.457C246.671 245.385 246.548 245.272 246.454 245.119ZM248.219 244.108C248.229 244.032 248.23 243.962 248.224 243.897C248.215 243.83 248.2 243.779 248.179 243.745L247.975 243.413C247.85 243.445 247.726 243.49 247.603 243.55C247.479 243.606 247.363 243.673 247.256 243.751C247.039 243.908 246.891 244.083 246.812 244.274C246.734 244.459 246.743 244.63 246.839 244.786C246.891 244.872 246.964 244.94 247.056 244.991C247.149 245.037 247.254 245.054 247.369 245.044C247.488 245.032 247.61 244.98 247.737 244.888C247.869 244.791 247.979 244.672 248.065 244.531C248.149 244.386 248.2 244.245 248.219 244.108ZM249.755 240.542C249.544 240.7 249.39 240.896 249.294 241.129C249.199 241.355 249.178 241.591 249.229 241.834L250.24 243.481L249.813 243.792L248.174 241.122L248.572 240.833L248.952 241.452C248.926 241.204 248.95 240.972 249.023 240.756C249.098 240.534 249.21 240.359 249.36 240.23C249.393 240.206 249.42 240.186 249.443 240.17C249.465 240.153 249.486 240.141 249.504 240.133L249.755 240.542Z" fill="#F0EFFF"/>
<path d="M213.579 236.127C213.719 236.356 213.897 236.524 214.114 236.633C214.333 236.74 214.567 236.781 214.815 236.759C215.063 236.736 215.297 236.645 215.517 236.485C215.653 236.386 215.765 236.27 215.852 236.138C215.939 236.005 215.999 235.863 216.032 235.711C216.068 235.556 216.073 235.404 216.047 235.256C216.228 235.558 216.346 235.842 216.402 236.107C216.46 236.371 216.458 236.607 216.394 236.816C216.334 237.022 216.215 237.19 216.037 237.32C215.869 237.442 215.684 237.507 215.483 237.515C215.286 237.521 215.103 237.471 214.936 237.366L214.84 237.828C215.067 237.954 215.305 238.007 215.556 237.988C215.811 237.97 216.05 237.879 216.274 237.717C216.532 237.529 216.71 237.284 216.805 236.982C216.903 236.684 216.908 236.338 216.82 235.943C216.732 235.549 216.542 235.113 216.249 234.635C216.048 234.308 215.823 234.067 215.574 233.913C215.326 233.753 215.071 233.68 214.808 233.694C214.546 233.702 214.291 233.797 214.042 233.978C213.812 234.145 213.638 234.353 213.52 234.602C213.401 234.851 213.345 235.111 213.353 235.382C213.361 235.647 213.436 235.895 213.579 236.127ZM214.276 234.37C214.424 234.262 214.584 234.202 214.755 234.191C214.93 234.178 215.095 234.21 215.251 234.289C215.405 234.365 215.53 234.481 215.626 234.638C215.722 234.794 215.773 234.965 215.778 235.148C215.783 235.332 215.748 235.508 215.673 235.676C215.599 235.843 215.485 235.983 215.333 236.093C215.184 236.202 215.023 236.262 214.849 236.276C214.678 236.287 214.515 236.255 214.361 236.179C214.207 236.104 214.082 235.988 213.986 235.831C213.888 235.671 213.836 235.499 213.831 235.315C213.826 235.131 213.861 234.955 213.935 234.788C214.013 234.617 214.127 234.478 214.276 234.37ZM215.671 245.646L213.97 242.875L214.144 245.833L213.877 246.027L211.428 244.724L213.129 247.496L212.692 247.814L210.464 244.183L210.925 243.848L213.619 245.298L213.423 242.03L213.88 241.698L216.108 245.329L215.671 245.646ZM216.168 244.168C216.064 243.997 216.019 243.818 216.034 243.629C216.051 243.435 216.119 243.244 216.239 243.059C216.359 242.873 216.525 242.702 216.739 242.547C216.852 242.464 216.978 242.388 217.117 242.316C217.253 242.242 217.381 242.188 217.502 242.155L217.382 241.96C217.257 241.756 217.1 241.638 216.913 241.607C216.723 241.572 216.521 241.632 216.308 241.788C216.169 241.889 216.051 242.014 215.955 242.163C215.861 242.305 215.772 242.478 215.691 242.681L215.341 242.476C215.433 242.237 215.543 242.028 215.673 241.85C215.8 241.669 215.953 241.514 216.13 241.384C216.454 241.149 216.768 241.058 217.073 241.113C217.375 241.164 217.63 241.358 217.837 241.696L218.531 242.826C218.565 242.88 218.599 242.914 218.636 242.927C218.673 242.935 218.717 242.922 218.767 242.891L218.981 243.238C218.943 243.276 218.909 243.308 218.879 243.335C218.852 243.359 218.828 243.379 218.809 243.393C218.709 243.466 218.615 243.492 218.528 243.472C218.444 243.449 218.378 243.408 218.332 243.348L218.219 243.186C218.201 243.416 218.128 243.637 218 243.848C217.873 244.059 217.722 244.228 217.547 244.355C217.379 244.478 217.206 244.551 217.03 244.576C216.851 244.598 216.687 244.574 216.537 244.506C216.386 244.434 216.263 244.321 216.168 244.168ZM217.934 243.157C217.944 243.081 217.945 243.011 217.938 242.946C217.93 242.879 217.915 242.828 217.894 242.794L217.69 242.461C217.564 242.493 217.441 242.539 217.318 242.599C217.193 242.655 217.078 242.722 216.971 242.799C216.754 242.957 216.606 243.131 216.527 243.322C216.449 243.507 216.458 243.678 216.554 243.835C216.606 243.92 216.679 243.989 216.771 244.04C216.864 244.085 216.969 244.103 217.084 244.093C217.203 244.081 217.325 244.029 217.451 243.937C217.584 243.84 217.693 243.721 217.78 243.58C217.864 243.435 217.915 243.294 217.934 243.157ZM219.47 239.59C219.259 239.749 219.105 239.945 219.009 240.177C218.914 240.404 218.893 240.639 218.944 240.883L219.955 242.53L219.528 242.84L217.889 240.171L218.287 239.882L218.667 240.5C218.641 240.253 218.665 240.021 218.738 239.805C218.813 239.583 218.925 239.408 219.075 239.279C219.107 239.255 219.135 239.235 219.158 239.219C219.18 239.202 219.201 239.19 219.219 239.181L219.47 239.59Z" fill="#F0EFFF"/>
<path d="M190.417 235.432C190.277 235.203 190.097 235.036 189.877 234.929C189.66 234.821 189.428 234.778 189.18 234.8C188.935 234.821 188.701 234.912 188.478 235.074C188.345 235.171 188.234 235.286 188.143 235.421C188.056 235.554 187.996 235.696 187.963 235.848C187.928 235.997 187.923 236.149 187.948 236.303C187.767 236.001 187.647 235.718 187.589 235.455C187.533 235.19 187.537 234.952 187.601 234.743C187.665 234.534 187.784 234.366 187.958 234.239C188.13 234.115 188.314 234.049 188.512 234.044C188.708 234.034 188.89 234.084 189.06 234.193L189.155 233.731C188.928 233.605 188.688 233.553 188.435 233.575C188.182 233.59 187.945 233.68 187.722 233.842C187.463 234.03 187.286 234.275 187.19 234.577C187.092 234.875 187.087 235.221 187.175 235.616C187.263 236.01 187.453 236.446 187.746 236.924C187.945 237.247 188.168 237.489 188.416 237.649C188.667 237.807 188.925 237.88 189.19 237.87C189.453 237.856 189.708 237.76 189.953 237.581C190.186 237.412 190.36 237.204 190.476 236.957C190.594 236.708 190.649 236.451 190.641 236.186C190.634 235.915 190.559 235.663 190.417 235.432ZM189.72 237.189C189.571 237.297 189.409 237.358 189.235 237.371C189.064 237.382 188.902 237.35 188.748 237.275C188.592 237.196 188.466 237.078 188.369 236.921C188.273 236.765 188.222 236.594 188.217 236.411C188.212 236.227 188.247 236.051 188.322 235.883C188.4 235.713 188.513 235.574 188.662 235.466C188.811 235.357 188.971 235.298 189.142 235.287C189.316 235.273 189.48 235.304 189.634 235.38C189.788 235.455 189.913 235.571 190.009 235.728C190.105 235.885 190.157 236.057 190.164 236.244C190.17 236.428 190.133 236.605 190.055 236.775C189.98 236.943 189.868 237.081 189.72 237.189ZM189.757 246.28L188.056 243.508L188.23 246.467L187.963 246.661L185.514 245.358L187.215 248.13L186.778 248.448L184.55 244.817L185.011 244.481L187.705 245.932L187.509 242.663L187.965 242.332L190.194 245.962L189.757 246.28ZM190.254 244.801C190.15 244.631 190.105 244.451 190.12 244.263C190.137 244.068 190.205 243.878 190.325 243.692C190.444 243.507 190.611 243.336 190.825 243.181C190.938 243.098 191.064 243.021 191.202 242.95C191.339 242.875 191.467 242.821 191.587 242.788L191.468 242.594C191.343 242.389 191.186 242.272 190.999 242.24C190.809 242.206 190.607 242.266 190.394 242.422C190.255 242.523 190.137 242.648 190.041 242.796C189.947 242.939 189.858 243.112 189.777 243.314L189.427 243.11C189.519 242.871 189.629 242.662 189.759 242.484C189.886 242.303 190.038 242.147 190.216 242.018C190.54 241.783 190.854 241.692 191.159 241.747C191.461 241.798 191.716 241.992 191.923 242.329L192.617 243.46C192.651 243.514 192.685 243.548 192.721 243.561C192.759 243.568 192.803 243.556 192.853 243.524L193.067 243.872C193.029 243.909 192.995 243.942 192.965 243.969C192.938 243.993 192.914 244.013 192.895 244.027C192.795 244.1 192.701 244.126 192.614 244.106C192.529 244.083 192.464 244.042 192.418 243.982L192.305 243.82C192.287 244.05 192.214 244.27 192.086 244.482C191.959 244.693 191.808 244.862 191.633 244.989C191.465 245.112 191.292 245.185 191.116 245.21C190.937 245.232 190.773 245.208 190.623 245.139C190.471 245.067 190.348 244.955 190.254 244.801ZM192.02 243.79C192.03 243.714 192.031 243.644 192.024 243.58C192.016 243.512 192.001 243.462 191.98 243.428L191.776 243.095C191.65 243.127 191.526 243.173 191.404 243.233C191.279 243.289 191.164 243.356 191.057 243.433C190.84 243.591 190.692 243.765 190.613 243.956C190.535 244.141 190.544 244.312 190.64 244.469C190.692 244.554 190.764 244.623 190.857 244.674C190.95 244.719 191.055 244.737 191.17 244.727C191.289 244.714 191.411 244.662 191.537 244.571C191.67 244.474 191.779 244.355 191.866 244.213C191.95 244.068 192.001 243.927 192.02 243.79ZM193.556 240.224C193.345 240.383 193.191 240.579 193.095 240.811C193 241.038 192.979 241.273 193.03 241.517L194.041 243.164L193.614 243.474L191.975 240.805L192.373 240.515L192.753 241.134C192.727 240.886 192.751 240.655 192.824 240.439C192.899 240.217 193.011 240.041 193.161 239.912C193.193 239.889 193.221 239.869 193.244 239.852C193.266 239.836 193.287 239.824 193.305 239.815L193.556 240.224Z" fill="#F0EFFF"/>
<path d="M160.741 237.876L160.21 237.012L158.653 238.145L158.408 237.747L158.686 234.208L158.977 233.996L160.386 236.293L160.813 235.982L161.064 236.391L160.637 236.702L161.168 237.566L160.741 237.876ZM158.844 237.415L160.003 236.571L159.021 234.971L158.844 237.415ZM159.761 246.28L158.06 243.508L158.234 246.467L157.967 246.661L155.518 245.358L157.219 248.13L156.782 248.448L154.554 244.817L155.015 244.481L157.708 245.932L157.513 242.663L157.969 242.332L160.198 245.962L159.761 246.28ZM160.258 244.801C160.154 244.631 160.109 244.451 160.124 244.263C160.141 244.068 160.209 243.878 160.329 243.692C160.448 243.507 160.615 243.336 160.829 243.181C160.942 243.098 161.068 243.021 161.206 242.95C161.343 242.875 161.471 242.821 161.591 242.788L161.472 242.594C161.347 242.389 161.19 242.272 161.002 242.24C160.813 242.206 160.611 242.266 160.398 242.422C160.259 242.523 160.141 242.648 160.045 242.796C159.95 242.939 159.862 243.112 159.781 243.314L159.431 243.11C159.523 242.871 159.633 242.662 159.762 242.484C159.89 242.303 160.042 242.147 160.22 242.018C160.544 241.783 160.858 241.692 161.163 241.747C161.465 241.798 161.72 241.992 161.927 242.329L162.621 243.46C162.654 243.514 162.689 243.548 162.725 243.561C162.763 243.568 162.807 243.556 162.857 243.524L163.071 243.872C163.033 243.909 162.999 243.942 162.968 243.969C162.941 243.993 162.918 244.013 162.899 244.027C162.799 244.1 162.705 244.126 162.617 244.106C162.533 244.083 162.468 244.042 162.422 243.982L162.309 243.82C162.291 244.05 162.218 244.27 162.09 244.482C161.963 244.693 161.811 244.862 161.637 244.989C161.469 245.112 161.296 245.185 161.12 245.21C160.941 245.232 160.777 245.208 160.627 245.139C160.475 245.067 160.352 244.955 160.258 244.801ZM162.024 243.79C162.033 243.714 162.035 243.644 162.028 243.58C162.019 243.512 162.005 243.462 161.984 243.428L161.78 243.095C161.654 243.127 161.53 243.173 161.408 243.233C161.283 243.289 161.168 243.356 161.061 243.433C160.844 243.591 160.696 243.765 160.617 243.956C160.539 244.141 160.548 244.312 160.644 244.469C160.696 244.554 160.768 244.623 160.861 244.674C160.954 244.719 161.058 244.737 161.174 244.727C161.293 244.714 161.415 244.662 161.541 244.571C161.674 244.474 161.783 244.355 161.869 244.213C161.954 244.068 162.005 243.927 162.024 243.79ZM163.56 240.224C163.348 240.383 163.195 240.579 163.099 240.811C163.004 241.038 162.982 241.273 163.034 241.517L164.044 243.164L163.617 243.474L161.979 240.805L162.377 240.515L162.757 241.134C162.731 240.886 162.755 240.655 162.828 240.439C162.903 240.217 163.015 240.041 163.165 239.912C163.197 239.889 163.225 239.869 163.247 239.852C163.27 239.836 163.291 239.824 163.309 239.815L163.56 240.224Z" fill="#F0EFFF"/>
<path d="M133.068 238.848C132.984 238.712 132.916 238.577 132.862 238.443C132.811 238.308 132.78 238.165 132.768 238.016C132.759 237.865 132.776 237.702 132.819 237.528C132.86 237.35 132.933 237.154 133.04 236.938C133.101 236.809 133.165 236.684 133.23 236.563C133.299 236.438 133.358 236.317 133.407 236.198C133.458 236.076 133.489 235.963 133.499 235.857C133.507 235.747 133.482 235.647 133.426 235.555C133.378 235.476 133.309 235.418 133.22 235.379C133.132 235.335 133.031 235.322 132.916 235.341C132.803 235.355 132.683 235.408 132.557 235.499C132.46 235.57 132.379 235.648 132.315 235.734C132.254 235.818 132.205 235.906 132.167 235.997C132.131 236.083 132.103 236.167 132.084 236.25C132.066 236.327 132.052 236.396 132.043 236.458L131.582 236.335C131.589 236.285 131.607 236.212 131.637 236.117C131.665 236.017 131.709 235.906 131.77 235.784C131.83 235.661 131.91 235.536 132.01 235.409C132.111 235.276 132.236 235.156 132.385 235.047C132.585 234.902 132.78 234.814 132.968 234.786C133.158 234.752 133.33 234.769 133.485 234.839C133.638 234.905 133.761 235.015 133.856 235.168C133.937 235.301 133.981 235.437 133.986 235.576C133.995 235.713 133.981 235.849 133.943 235.985C133.908 236.119 133.862 236.246 133.805 236.367C133.749 236.481 133.697 236.583 133.649 236.672C133.549 236.853 133.467 237.012 133.401 237.149C133.335 237.285 133.287 237.409 133.257 237.52C133.227 237.625 133.212 237.725 133.209 237.821C133.21 237.914 133.228 238.011 133.263 238.114L134.976 236.868L135.227 237.277L133.068 238.848ZM133.843 246.914L132.142 244.143L132.316 247.101L132.049 247.295L129.6 245.992L131.301 248.764L130.864 249.082L128.636 245.451L129.097 245.116L131.791 246.566L131.595 243.298L132.051 242.966L134.28 246.597L133.843 246.914ZM134.34 245.436C134.236 245.265 134.191 245.086 134.206 244.897C134.223 244.703 134.291 244.513 134.411 244.327C134.53 244.141 134.697 243.97 134.911 243.815C135.024 243.733 135.15 243.656 135.288 243.584C135.425 243.51 135.553 243.456 135.673 243.423L135.554 243.228C135.429 243.024 135.272 242.906 135.084 242.875C134.895 242.84 134.693 242.9 134.48 243.056C134.341 243.157 134.223 243.282 134.127 243.431C134.033 243.574 133.944 243.746 133.863 243.949L133.513 243.745C133.605 243.505 133.715 243.297 133.844 243.119C133.972 242.937 134.124 242.782 134.302 242.652C134.626 242.417 134.94 242.327 135.245 242.381C135.547 242.432 135.802 242.626 136.009 242.964L136.703 244.094C136.736 244.148 136.771 244.182 136.807 244.195C136.845 244.203 136.889 244.19 136.939 244.159L137.153 244.506C137.115 244.544 137.081 244.576 137.05 244.603C137.023 244.627 137 244.647 136.981 244.661C136.881 244.734 136.787 244.76 136.699 244.74C136.615 244.717 136.55 244.676 136.504 244.616L136.391 244.454C136.373 244.684 136.3 244.905 136.172 245.116C136.045 245.327 135.894 245.496 135.719 245.624C135.551 245.746 135.378 245.82 135.202 245.844C135.023 245.866 134.859 245.842 134.709 245.774C134.557 245.702 134.434 245.589 134.34 245.436ZM136.106 244.425C136.115 244.349 136.117 244.279 136.11 244.214C136.101 244.147 136.087 244.096 136.066 244.062L135.862 243.729C135.736 243.761 135.612 243.807 135.49 243.867C135.365 243.923 135.25 243.99 135.143 244.068C134.926 244.225 134.778 244.4 134.699 244.59C134.621 244.776 134.63 244.947 134.726 245.103C134.778 245.189 134.85 245.257 134.943 245.308C135.036 245.353 135.141 245.371 135.256 245.361C135.375 245.349 135.497 245.297 135.623 245.205C135.756 245.108 135.865 244.989 135.952 244.848C136.036 244.703 136.087 244.562 136.106 244.425ZM137.642 240.859C137.431 241.017 137.277 241.213 137.181 241.445C137.086 241.672 137.064 241.907 137.116 242.151L138.126 243.798L137.699 244.108L136.061 241.439L136.459 241.15L136.839 241.768C136.813 241.521 136.837 241.289 136.91 241.073C136.985 240.851 137.097 240.676 137.247 240.547C137.279 240.523 137.307 240.503 137.329 240.487C137.352 240.47 137.373 240.458 137.391 240.449L137.642 240.859Z" fill="#F0EFFF"/>
<path d="M108.911 240.324C108.827 240.187 108.758 240.052 108.704 239.919C108.654 239.783 108.623 239.641 108.611 239.492C108.602 239.34 108.619 239.177 108.662 239.003C108.702 238.826 108.776 238.629 108.882 238.414C108.944 238.285 109.007 238.16 109.073 238.038C109.142 237.914 109.201 237.792 109.249 237.673C109.301 237.552 109.332 237.438 109.342 237.332C109.349 237.223 109.325 237.122 109.269 237.03C109.22 236.952 109.152 236.893 109.063 236.855C108.974 236.81 108.873 236.798 108.759 236.817C108.645 236.83 108.525 236.883 108.399 236.975C108.302 237.045 108.222 237.124 108.158 237.21C108.097 237.294 108.048 237.381 108.01 237.473C107.974 237.558 107.946 237.643 107.927 237.726C107.909 237.803 107.895 237.872 107.886 237.933L107.424 237.81C107.431 237.761 107.45 237.688 107.48 237.592C107.508 237.493 107.552 237.382 107.612 237.259C107.673 237.136 107.753 237.011 107.853 236.884C107.954 236.752 108.079 236.631 108.227 236.523C108.428 236.377 108.622 236.29 108.811 236.261C109 236.227 109.172 236.245 109.327 236.314C109.48 236.381 109.604 236.49 109.698 236.644C109.78 236.777 109.823 236.913 109.829 237.052C109.838 237.188 109.823 237.324 109.785 237.461C109.75 237.594 109.705 237.722 109.647 237.842C109.592 237.957 109.539 238.059 109.491 238.148C109.392 238.329 109.309 238.488 109.243 238.624C109.177 238.761 109.129 238.885 109.099 238.995C109.07 239.101 109.054 239.201 109.052 239.296C109.053 239.389 109.071 239.487 109.106 239.59L110.819 238.344L111.07 238.753L108.911 240.324ZM113.331 235.62C113.463 235.835 113.521 236.064 113.507 236.306C113.495 236.547 113.423 236.779 113.289 237.005C113.159 237.227 112.984 237.419 112.764 237.579C112.535 237.746 112.3 237.848 112.06 237.884C111.819 237.917 111.594 237.89 111.387 237.804C111.183 237.716 111.018 237.57 110.893 237.365C110.801 237.215 110.75 237.057 110.742 236.89C110.733 236.724 110.752 236.565 110.799 236.412C110.847 236.254 110.91 236.117 110.989 236.001C110.868 236.025 110.745 236.03 110.62 236.017C110.495 236.005 110.379 235.968 110.272 235.908C110.165 235.848 110.077 235.761 110.008 235.649C109.914 235.496 109.864 235.337 109.857 235.174C109.849 235.008 109.873 234.845 109.929 234.686C109.986 234.526 110.066 234.379 110.17 234.244C110.274 234.109 110.391 233.994 110.521 233.9C110.65 233.806 110.792 233.732 110.946 233.679C111.101 233.626 111.257 233.601 111.414 233.605C111.572 233.604 111.72 233.639 111.858 233.711C111.994 233.78 112.109 233.891 112.203 234.045C112.272 234.157 112.312 234.281 112.324 234.415C112.335 234.546 112.32 234.677 112.279 234.81C112.242 234.94 112.189 235.063 112.119 235.178C112.265 235.141 112.414 235.132 112.565 235.15C112.718 235.162 112.86 235.207 112.991 235.283C113.126 235.358 113.239 235.47 113.331 235.62ZM112.881 235.904C112.814 235.795 112.731 235.714 112.634 235.662C112.534 235.606 112.428 235.578 112.314 235.576C112.199 235.571 112.085 235.588 111.972 235.625C111.863 235.66 111.761 235.712 111.668 235.78C111.538 235.874 111.432 235.994 111.347 236.139C111.267 236.282 111.221 236.433 111.212 236.593C111.2 236.749 111.238 236.899 111.326 237.042C111.391 237.148 111.472 237.227 111.57 237.279C111.668 237.331 111.772 237.361 111.884 237.368C112 237.373 112.112 237.358 112.221 237.323C112.334 237.285 112.437 237.232 112.531 237.164C112.66 237.07 112.766 236.952 112.846 236.809C112.931 236.664 112.977 236.511 112.987 236.352C113 236.19 112.964 236.04 112.881 235.904ZM110.449 235.35C110.522 235.469 110.619 235.547 110.739 235.583C110.86 235.619 110.985 235.621 111.116 235.59C111.244 235.556 111.359 235.502 111.459 235.429C111.563 235.354 111.651 235.257 111.724 235.14C111.8 235.021 111.846 234.893 111.862 234.759C111.877 234.624 111.848 234.495 111.772 234.373C111.701 234.257 111.608 234.181 111.493 234.147C111.382 234.11 111.26 234.107 111.13 234.138C111.002 234.166 110.88 234.223 110.764 234.308C110.651 234.39 110.557 234.493 110.483 234.616C110.41 234.733 110.368 234.857 110.359 234.986C110.348 235.113 110.378 235.234 110.449 235.35ZM109.711 248.372L107.482 244.741L109.758 243.085L110.009 243.494L108.17 244.832L108.914 246.044L110.462 244.918L110.697 245.302L109.149 246.428L110.147 248.054L109.711 248.372ZM113.467 245.712C113.276 245.851 113.08 245.943 112.877 245.986C112.676 246.024 112.478 246.023 112.284 245.981C112.092 245.934 111.912 245.85 111.745 245.73C111.581 245.608 111.441 245.453 111.326 245.266C111.171 245.013 111.085 244.743 111.067 244.455C111.05 244.167 111.099 243.89 111.216 243.622C111.336 243.353 111.522 243.126 111.774 242.942C112.029 242.757 112.291 242.66 112.558 242.653C112.826 242.64 113.076 242.7 113.307 242.833C113.539 242.96 113.729 243.143 113.875 243.381C113.896 243.415 113.915 243.451 113.933 243.487C113.952 243.518 113.965 243.543 113.972 243.562L111.871 245.091C111.991 245.255 112.131 245.377 112.293 245.457C112.455 245.531 112.624 245.562 112.798 245.548C112.97 245.532 113.129 245.47 113.274 245.364C113.43 245.251 113.55 245.105 113.636 244.924C113.725 244.741 113.754 244.564 113.724 244.394L114.159 244.233C114.183 244.402 114.172 244.578 114.125 244.76C114.081 244.94 114.002 245.113 113.889 245.28C113.779 245.443 113.638 245.588 113.467 245.712ZM111.665 244.789L113.393 243.533C113.273 243.368 113.132 243.249 112.969 243.175C112.807 243.101 112.64 243.072 112.467 243.089C112.295 243.106 112.133 243.169 111.981 243.28C111.832 243.388 111.718 243.526 111.638 243.693C111.558 243.859 111.518 244.039 111.519 244.23C111.523 244.42 111.572 244.606 111.665 244.789ZM116.513 243.496C116.316 243.64 116.105 243.719 115.88 243.735C115.656 243.75 115.446 243.71 115.252 243.615L115.56 244.116L115.181 244.391L112.89 240.658L113.317 240.348L114.296 241.943C114.296 241.691 114.342 241.456 114.432 241.238C114.522 241.019 114.671 240.834 114.878 240.684C115.053 240.557 115.234 240.482 115.421 240.459C115.606 240.433 115.788 240.451 115.967 240.513C116.146 240.57 116.313 240.663 116.468 240.792C116.623 240.916 116.756 241.068 116.867 241.249C116.982 241.436 117.06 241.636 117.101 241.848C117.144 242.054 117.149 242.261 117.119 242.471C117.086 242.677 117.019 242.869 116.918 243.046C116.819 243.222 116.684 243.371 116.513 243.496ZM116.168 243.185C116.294 243.093 116.394 242.981 116.467 242.849C116.54 242.717 116.587 242.577 116.608 242.428C116.63 242.28 116.625 242.13 116.593 241.981C116.562 241.831 116.508 241.693 116.43 241.566C116.324 241.393 116.188 241.255 116.022 241.153C115.86 241.049 115.688 240.997 115.505 240.997C115.324 240.991 115.151 241.048 114.986 241.168C114.866 241.255 114.772 241.365 114.704 241.498C114.636 241.632 114.591 241.775 114.569 241.93C114.548 242.078 114.546 242.228 114.563 242.378L115.037 243.15C115.106 243.223 115.188 243.277 115.283 243.311C115.379 243.345 115.481 243.362 115.589 243.362C115.694 243.359 115.797 243.344 115.897 243.316C116 243.285 116.09 243.242 116.168 243.185Z" fill="#F0EFFF"/>
<path d="M82.954 240.989C82.8703 240.853 82.8015 240.718 82.7477 240.584C82.6971 240.448 82.6658 240.306 82.6538 240.157C82.6451 240.005 82.6621 239.843 82.705 239.668C82.7457 239.491 82.8192 239.294 82.9256 239.079C82.9871 238.95 83.0506 238.825 83.1163 238.703C83.1852 238.579 83.2439 238.458 83.2924 238.339C83.3441 238.217 83.375 238.103 83.3849 237.998C83.3927 237.888 83.3684 237.788 83.3119 237.696C83.2637 237.617 83.1951 237.559 83.1058 237.52C83.0178 237.476 82.9165 237.463 82.8019 237.482C82.6885 237.496 82.5688 237.548 82.4426 237.64C82.3456 237.711 82.265 237.789 82.2009 237.875C82.14 237.959 82.0908 238.046 82.0533 238.138C82.017 238.224 81.9892 238.308 81.97 238.391C81.9519 238.468 81.9382 238.537 81.9289 238.598L81.4674 238.475C81.4745 238.426 81.493 238.353 81.5231 238.257C81.5511 238.158 81.5952 238.047 81.6555 237.924C81.7159 237.802 81.796 237.677 81.8959 237.55C81.9969 237.417 82.1218 237.297 82.2706 237.188C82.4711 237.042 82.6656 236.955 82.8539 236.927C83.0434 236.892 83.2157 236.91 83.3707 236.98C83.5237 237.046 83.6472 237.156 83.7414 237.309C83.823 237.442 83.8666 237.578 83.8723 237.717C83.8813 237.853 83.8667 237.99 83.8286 238.126C83.7938 238.26 83.7478 238.387 83.6907 238.507C83.6348 238.622 83.5828 238.724 83.5346 238.813C83.4351 238.994 83.3524 239.153 83.2866 239.29C83.2207 239.426 83.1727 239.55 83.1424 239.661C83.1133 239.766 83.0976 239.866 83.0953 239.961C83.0963 240.054 83.1142 240.152 83.1492 240.255L84.8619 239.009L85.1129 239.418L82.954 240.989ZM87.3308 236.066C87.1906 235.838 87.0107 235.67 86.7909 235.564C86.5744 235.455 86.3421 235.412 86.0941 235.435C85.8492 235.455 85.6152 235.546 85.392 235.709C85.2594 235.805 85.1479 235.921 85.0575 236.056C84.9704 236.188 84.9104 236.33 84.8774 236.483C84.8424 236.631 84.8373 236.783 84.862 236.938C84.6811 236.635 84.5613 236.353 84.5028 236.089C84.4474 235.824 84.4515 235.587 84.5151 235.378C84.5787 235.169 84.6978 235.001 84.8724 234.874C85.0439 234.749 85.2284 234.684 85.4261 234.678C85.6217 234.669 85.8042 234.718 85.9737 234.827L86.0693 234.365C85.8424 234.239 85.6022 234.187 85.3488 234.209C85.0965 234.225 84.8588 234.314 84.6356 234.476C84.3769 234.665 84.1996 234.909 84.1039 235.211C84.0061 235.509 84.0011 235.855 84.089 236.25C84.1768 236.645 84.3672 237.081 84.6602 237.558C84.8589 237.882 85.0823 238.124 85.3301 238.284C85.5812 238.441 85.8393 238.515 86.1043 238.504C86.3672 238.491 86.6216 238.394 86.8674 238.215C87.1003 238.046 87.2744 237.838 87.3897 237.591C87.5083 237.342 87.5634 237.085 87.555 236.82C87.5478 236.549 87.4731 236.298 87.3308 236.066ZM86.6338 237.823C86.485 237.932 86.3234 237.992 86.1492 238.006C85.9781 238.017 85.8157 237.985 85.6618 237.909C85.5058 237.83 85.3797 237.712 85.2834 237.556C85.1872 237.399 85.1365 237.229 85.1313 237.045C85.1262 236.861 85.1611 236.685 85.2358 236.518C85.3139 236.347 85.4273 236.208 85.5761 236.1C85.7248 235.992 85.8847 235.932 86.0558 235.921C86.23 235.908 86.3941 235.939 86.548 236.014C86.7019 236.09 86.827 236.206 86.9233 236.362C87.0195 236.519 87.0712 236.691 87.0785 236.878C87.0836 237.062 87.0471 237.239 86.9691 237.409C86.8943 237.577 86.7825 237.715 86.6338 237.823ZM83.7966 249.006L81.5682 245.375L83.8436 243.72L84.0947 244.129L82.2559 245.467L82.9998 246.679L84.5475 245.552L84.7829 245.936L83.2352 247.062L84.2332 248.688L83.7966 249.006ZM87.553 246.347C87.3622 246.486 87.1655 246.577 86.9631 246.621C86.7618 246.659 86.5642 246.657 86.3704 246.615C86.1777 246.568 85.9977 246.485 85.8305 246.365C85.6665 246.242 85.527 246.087 85.4119 245.9C85.2571 245.648 85.1708 245.378 85.1531 245.09C85.1355 244.802 85.185 244.524 85.3016 244.257C85.4215 243.987 85.6076 243.76 85.8599 243.577C86.1154 243.391 86.3767 243.294 86.6438 243.287C86.9121 243.275 87.1618 243.335 87.3929 243.467C87.6252 243.594 87.8145 243.777 87.961 244.016C87.9819 244.05 88.0012 244.085 88.0189 244.121C88.0378 244.152 88.0508 244.177 88.058 244.197L85.9573 245.725C86.0769 245.89 86.2174 246.012 86.3787 246.092C86.5412 246.166 86.7095 246.196 86.8838 246.183C87.056 246.166 87.2148 246.105 87.3604 245.999C87.5157 245.886 87.6361 245.739 87.7217 245.558C87.8106 245.375 87.8401 245.198 87.8102 245.028L88.2449 244.867C88.2694 245.036 88.2581 245.212 88.2109 245.395C88.1669 245.575 88.0883 245.748 87.9751 245.914C87.8651 246.078 87.7244 246.222 87.553 246.347ZM85.7512 245.424L87.4784 244.167C87.3588 244.003 87.2177 243.883 87.0553 243.809C86.8928 243.735 86.7255 243.706 86.5533 243.723C86.3811 243.74 86.219 243.804 86.067 243.914C85.9182 244.022 85.8038 244.16 85.7237 244.327C85.6436 244.494 85.6039 244.673 85.6046 244.865C85.6086 245.054 85.6575 245.24 85.7512 245.424ZM90.599 244.131C90.4017 244.274 90.1908 244.354 89.9663 244.369C89.7418 244.384 89.5324 244.344 89.3382 244.249L89.6458 244.75L89.2673 245.025L86.9762 241.292L87.4031 240.982L88.3824 242.577C88.3824 242.326 88.4276 242.091 88.518 241.872C88.6084 241.653 88.7571 241.469 88.9641 241.318C89.1387 241.191 89.3197 241.116 89.5069 241.093C89.692 241.067 89.8738 241.085 90.0525 241.148C90.2323 241.204 90.3993 241.297 90.5536 241.427C90.709 241.55 90.8421 241.702 90.953 241.883C91.0681 242.071 91.1462 242.27 91.1873 242.482C91.2295 242.688 91.2354 242.896 91.2049 243.105C91.1724 243.311 91.1053 243.503 91.0037 243.681C90.9053 243.856 90.7704 244.006 90.599 244.131ZM90.2537 243.82C90.3798 243.728 90.4795 243.616 90.5528 243.484C90.6261 243.351 90.6732 243.211 90.6944 243.062C90.7155 242.914 90.7105 242.765 90.6793 242.615C90.6481 242.465 90.5938 242.327 90.5164 242.201C90.4097 242.027 90.2737 241.889 90.1084 241.787C89.9463 241.683 89.7739 241.631 89.5913 241.631C89.4098 241.625 89.2366 241.682 89.0716 241.802C88.9519 241.889 88.8581 241.999 88.7902 242.133C88.7223 242.266 88.6772 242.41 88.6549 242.564C88.6337 242.712 88.6318 242.862 88.6491 243.012L89.1231 243.784C89.1915 243.858 89.2736 243.911 89.3693 243.945C89.465 243.979 89.5668 243.996 89.6747 243.997C89.7804 243.994 89.8832 243.978 89.9829 243.95C90.0858 243.92 90.1761 243.876 90.2537 243.82Z" fill="#F0EFFF"/>
<path d="M61.9303 235.215C61.9368 235.567 61.8765 235.883 61.7496 236.161C61.6226 236.436 61.4465 236.654 61.2214 236.815C60.9963 236.976 60.7378 237.059 60.4459 237.066C60.154 237.072 59.8926 237 59.6618 236.849C59.431 236.698 59.2471 236.488 59.1102 236.219C58.9732 235.945 58.9015 235.633 58.895 235.281C58.8886 234.929 58.9489 234.616 59.0759 234.341C59.2028 234.062 59.3788 233.842 59.6039 233.681C59.8289 233.516 60.0874 233.431 60.3794 233.424C60.6713 233.418 60.9327 233.492 61.1636 233.647C61.3944 233.799 61.5783 234.011 61.7153 234.284C61.8522 234.553 61.9239 234.863 61.9303 235.215ZM61.3964 235.227C61.3916 234.963 61.3454 234.732 61.2578 234.534C61.1701 234.336 61.0513 234.182 60.9013 234.073C60.7513 233.964 60.5803 233.912 60.3883 233.916C60.1924 233.921 60.0215 233.98 59.8755 234.095C59.7296 234.211 59.6165 234.369 59.5362 234.571C59.4558 234.773 59.4181 235.006 59.4229 235.27C59.4277 235.534 59.474 235.765 59.5616 235.963C59.6492 236.157 59.7679 236.308 59.918 236.417C60.068 236.526 60.2409 236.578 60.4369 236.574C60.6289 236.57 60.7978 236.51 60.9437 236.395C61.0896 236.28 61.2028 236.123 61.2832 235.925C61.3635 235.724 61.4013 235.491 61.3964 235.227Z" fill="#F0EFFF"/>
<path d="M56.9412 192.572L56.9196 191.389L54.6731 191.438L54.6631 190.892L57.0479 187.683L57.4678 187.674L57.5252 190.816L58.141 190.803L58.1513 191.363L57.5354 191.376L57.557 192.559L56.9412 192.572ZM55.2997 190.864L56.9723 190.828L56.9323 188.637L55.2997 190.864Z" fill="#F0EFFF"/>
<path d="M58.6287 149.668C58.6341 149.962 58.5571 150.22 58.3978 150.443C58.2432 150.665 58.0317 150.84 57.7633 150.968C57.4996 151.095 57.2091 151.162 56.8919 151.169C56.5606 151.176 56.2632 151.117 55.9995 150.992C55.7357 150.862 55.5248 150.687 55.3668 150.466C55.2134 150.246 55.1341 149.995 55.129 149.715C55.1253 149.51 55.1686 149.325 55.2589 149.159C55.3492 148.994 55.4633 148.854 55.6013 148.739C55.7438 148.619 55.8892 148.53 56.0374 148.47C55.901 148.413 55.7736 148.336 55.6552 148.241C55.5367 148.145 55.4413 148.033 55.369 147.904C55.2966 147.775 55.259 147.633 55.2562 147.479C55.2524 147.269 55.2957 147.084 55.3861 146.923C55.4764 146.758 55.5975 146.618 55.7494 146.502C55.9013 146.387 56.0701 146.299 56.2557 146.239C56.4413 146.179 56.6274 146.147 56.814 146.143C57.0007 146.139 57.1878 146.163 57.3754 146.215C57.5631 146.267 57.7349 146.347 57.8909 146.456C58.0515 146.56 58.18 146.692 58.2763 146.854C58.3725 147.01 58.4225 147.193 58.4263 147.403C58.4291 147.557 58.3968 147.703 58.3293 147.84C58.2617 147.972 58.1681 148.088 58.0486 148.189C57.9338 148.289 57.8069 148.371 57.6681 148.435C57.8372 148.497 57.9929 148.587 58.1351 148.705C58.2818 148.819 58.3987 148.956 58.4857 149.118C58.5773 149.279 58.625 149.462 58.6287 149.668ZM58.0051 149.639C58.0024 149.49 57.9673 149.358 57.8998 149.242C57.8323 149.122 57.7418 149.024 57.6284 148.947C57.5149 148.866 57.3901 148.805 57.254 148.766C57.1226 148.727 56.9893 148.709 56.854 148.712C56.6674 148.716 56.4885 148.759 56.3173 148.842C56.1508 148.925 56.0152 149.04 55.9105 149.187C55.8058 149.33 55.7552 149.499 55.7588 149.695C55.7614 149.839 55.7964 149.969 55.8639 150.085C55.9313 150.2 56.0195 150.298 56.1283 150.38C56.2418 150.461 56.3643 150.522 56.4957 150.561C56.6318 150.6 56.7675 150.618 56.9028 150.615C57.0894 150.611 57.2659 150.568 57.4325 150.485C57.6036 150.402 57.7416 150.287 57.8462 150.14C57.9556 149.993 58.0085 149.826 58.0051 149.639ZM55.8794 147.487C55.8824 147.65 55.934 147.789 56.0341 147.903C56.1342 148.018 56.2594 148.104 56.4098 148.161C56.5602 148.214 56.7076 148.239 56.8523 148.236C57.0016 148.232 57.148 148.199 57.2915 148.135C57.4397 148.071 57.5617 147.98 57.6576 147.861C57.7534 147.742 57.7998 147.599 57.7967 147.431C57.7938 147.272 57.7447 147.138 57.6493 147.028C57.5587 146.918 57.4381 146.834 57.2877 146.777C57.142 146.719 56.9851 146.692 56.8171 146.696C56.6539 146.7 56.4982 146.736 56.35 146.804C56.2065 146.868 56.0915 146.959 56.005 147.078C55.9184 147.192 55.8765 147.328 55.8794 147.487Z" fill="#F0EFFF"/>
<path d="M54.1952 111.276L54.2054 111.836L51.693 111.891L51.6828 111.331L52.6765 111.309L52.6267 108.58C52.5857 108.637 52.5215 108.699 52.434 108.766C52.3465 108.829 52.2472 108.889 52.1363 108.947C52.0253 109.006 51.9142 109.055 51.8029 109.095C51.6915 109.13 51.5892 109.148 51.4959 109.15L51.4852 108.562C51.5878 108.56 51.6993 108.53 51.8195 108.471C51.9444 108.408 52.0644 108.335 52.1796 108.253C52.2948 108.172 52.3914 108.095 52.4695 108.023C52.5522 107.951 52.6003 107.901 52.6137 107.873L53.2436 107.859L53.3064 111.296L54.1952 111.276ZM54.6757 111.826C54.6722 111.64 54.683 111.464 54.7081 111.3C54.7377 111.136 54.7909 110.979 54.8674 110.828C54.9487 110.677 55.0627 110.532 55.2096 110.393C55.3563 110.25 55.5475 110.111 55.783 109.975C55.9215 109.892 56.0601 109.815 56.1988 109.742C56.3422 109.669 56.4738 109.591 56.5936 109.509C56.7182 109.427 56.8169 109.339 56.8898 109.244C56.9627 109.144 56.998 109.031 56.9957 108.905C56.9937 108.798 56.9592 108.696 56.8921 108.599C56.8295 108.498 56.7347 108.418 56.6077 108.361C56.4852 108.298 56.3329 108.268 56.151 108.272C56.011 108.275 55.883 108.297 55.7671 108.337C55.6558 108.376 55.554 108.428 55.4618 108.49C55.3742 108.548 55.296 108.611 55.2272 108.677C55.163 108.74 55.108 108.797 55.0623 108.849L54.6695 108.424C54.706 108.381 54.768 108.323 54.8554 108.251C54.9427 108.175 55.0533 108.098 55.1872 108.02C55.3211 107.943 55.4763 107.876 55.6526 107.821C55.8336 107.761 56.0314 107.729 56.246 107.724C56.5352 107.718 56.7834 107.764 56.9906 107.862C57.2024 107.956 57.3658 108.087 57.4809 108.258C57.596 108.423 57.6554 108.611 57.6592 108.821C57.6626 109.003 57.6258 109.162 57.549 109.299C57.4768 109.436 57.381 109.557 57.2615 109.663C57.1468 109.768 57.0248 109.859 56.8955 109.937C56.7708 110.009 56.6576 110.072 56.5559 110.126C56.3478 110.233 56.1699 110.33 56.0221 110.418C55.8744 110.505 55.7523 110.592 55.6558 110.678C55.564 110.759 55.4885 110.845 55.4295 110.935C55.3751 111.024 55.3351 111.13 55.3093 111.252L57.7797 111.199L57.7899 111.759L54.6757 111.826Z" fill="#F0EFFF"/>
<path d="M54.1063 71.9629L54.1166 72.5228L51.6041 72.5772L51.5939 72.0173L52.5877 71.9958L52.5378 69.2663C52.4968 69.3232 52.4326 69.3852 52.3452 69.4525C52.2576 69.5151 52.1584 69.5756 52.0474 69.634C51.9365 69.6924 51.8254 69.7415 51.7141 69.7812C51.6027 69.8163 51.5004 69.8349 51.407 69.8369L51.3963 69.249C51.4989 69.2468 51.6104 69.2163 51.7307 69.1577C51.8556 69.0943 51.9756 69.0217 52.0908 68.9399C52.206 68.858 52.3026 68.7813 52.3806 68.7095C52.4633 68.6377 52.5114 68.5877 52.5249 68.5594L53.1547 68.5457L53.2175 71.9822L54.1063 71.9629ZM56.1385 73.5223C55.7839 73.53 55.4628 73.4529 55.1751 73.2911C54.8875 73.1293 54.6687 72.91 54.519 72.6331L54.8978 72.2889C55.0323 72.5007 55.2081 72.6696 55.4251 72.7956C55.6468 72.9214 55.8836 72.9817 56.1355 72.9762C56.3501 72.9716 56.5406 72.9208 56.7068 72.8238C56.8731 72.7268 57.0037 72.5957 57.0987 72.4302C57.1936 72.2601 57.2391 72.0678 57.2352 71.8531C57.2314 71.6432 57.179 71.4599 57.0781 71.3034C56.9819 71.1468 56.8513 71.0259 56.6864 70.9408C56.5262 70.8556 56.3457 70.8152 56.1451 70.8195C55.9445 70.8239 55.7564 70.8723 55.5807 70.9648C55.4097 71.0572 55.2697 71.1862 55.1607 71.3519L54.6078 71.3639L55.1156 68.5033L57.5301 68.451L57.5404 69.0179L55.5809 69.0603L55.3089 70.6486C55.4096 70.539 55.5363 70.4523 55.6892 70.3883C55.8466 70.3195 56.021 70.2831 56.2123 70.2789C56.5202 70.2723 56.7967 70.334 57.0418 70.464C57.2915 70.594 57.4886 70.7764 57.6329 71.0113C57.7819 71.2462 57.8592 71.5199 57.8649 71.8325C57.8709 72.1591 57.7968 72.4478 57.6427 72.6985C57.4933 72.9538 57.2869 73.152 57.0235 73.2931C56.7601 73.4388 56.4651 73.5152 56.1385 73.5223Z" fill="#F0EFFF"/>
<rect x="181.066" y="133.5" width="29" height="9" rx="4.5" fill="white" stroke="#7569F2" stroke-width="3"/>
<path d="M185.393 137.49H183.568V137.085H186.088L184.303 140.635H183.803L185.393 137.49ZM186.111 140V139.44H186.481V140H186.111ZM189.547 138.995C189.547 139.205 189.488 139.388 189.372 139.545C189.258 139.702 189.105 139.823 188.912 139.91C188.722 139.997 188.513 140.04 188.287 140.04C188.05 140.04 187.838 139.993 187.652 139.9C187.465 139.803 187.317 139.675 187.207 139.515C187.1 139.355 187.047 139.175 187.047 138.975C187.047 138.828 187.08 138.697 187.147 138.58C187.213 138.463 187.297 138.365 187.397 138.285C187.5 138.202 187.605 138.14 187.712 138.1C187.615 138.057 187.525 138 187.442 137.93C187.358 137.86 187.292 137.778 187.242 137.685C187.192 137.592 187.167 137.49 187.167 137.38C187.167 137.23 187.2 137.098 187.267 136.985C187.333 136.868 187.422 136.77 187.532 136.69C187.642 136.61 187.763 136.55 187.897 136.51C188.03 136.47 188.163 136.45 188.297 136.45C188.43 136.45 188.563 136.47 188.697 136.51C188.83 136.55 188.952 136.61 189.062 136.69C189.175 136.767 189.265 136.863 189.332 136.98C189.398 137.093 189.432 137.225 189.432 137.375C189.432 137.485 189.407 137.588 189.357 137.685C189.307 137.778 189.238 137.86 189.152 137.93C189.068 138 188.977 138.057 188.877 138.1C188.997 138.147 189.107 138.213 189.207 138.3C189.31 138.383 189.392 138.483 189.452 138.6C189.515 138.717 189.547 138.848 189.547 138.995ZM189.102 138.965C189.102 138.858 189.078 138.763 189.032 138.68C188.985 138.593 188.922 138.522 188.842 138.465C188.762 138.405 188.673 138.36 188.577 138.33C188.483 138.3 188.388 138.285 188.292 138.285C188.158 138.285 188.03 138.313 187.907 138.37C187.787 138.427 187.688 138.507 187.612 138.61C187.535 138.71 187.497 138.83 187.497 138.97C187.497 139.073 187.52 139.167 187.567 139.25C187.613 139.333 187.675 139.405 187.752 139.465C187.832 139.525 187.918 139.57 188.012 139.6C188.108 139.63 188.205 139.645 188.302 139.645C188.435 139.645 188.562 139.617 188.682 139.56C188.805 139.503 188.905 139.423 188.982 139.32C189.062 139.217 189.102 139.098 189.102 138.965ZM187.612 137.395C187.612 137.512 187.647 137.612 187.717 137.695C187.787 137.778 187.875 137.842 187.982 137.885C188.088 137.925 188.193 137.945 188.297 137.945C188.403 137.945 188.508 137.923 188.612 137.88C188.718 137.837 188.807 137.773 188.877 137.69C188.947 137.607 188.982 137.505 188.982 137.385C188.982 137.272 188.948 137.175 188.882 137.095C188.818 137.015 188.733 136.953 188.627 136.91C188.523 136.867 188.412 136.845 188.292 136.845C188.175 136.845 188.063 136.868 187.957 136.915C187.853 136.958 187.77 137.022 187.707 137.105C187.643 137.185 187.612 137.282 187.612 137.395ZM193.675 140H193.235V138.54C193.235 138.263 193.191 138.062 193.105 137.935C193.021 137.805 192.893 137.74 192.72 137.74C192.6 137.74 192.48 137.77 192.36 137.83C192.243 137.89 192.138 137.972 192.045 138.075C191.955 138.175 191.89 138.292 191.85 138.425V140H191.41V137.39H191.81V137.95C191.88 137.827 191.97 137.72 192.08 137.63C192.19 137.54 192.315 137.47 192.455 137.42C192.595 137.37 192.741 137.345 192.895 137.345C193.045 137.345 193.17 137.373 193.27 137.43C193.373 137.483 193.453 137.56 193.51 137.66C193.57 137.757 193.611 137.872 193.635 138.005C193.661 138.138 193.675 138.283 193.675 138.44V140ZM198.294 140H197.854V138.54C197.854 138.267 197.809 138.065 197.719 137.935C197.632 137.805 197.502 137.74 197.329 137.74C197.152 137.74 196.992 137.805 196.849 137.935C196.706 138.062 196.604 138.227 196.544 138.43V140H196.104V138.54C196.104 138.263 196.061 138.062 195.974 137.935C195.887 137.805 195.757 137.74 195.584 137.74C195.411 137.74 195.251 137.803 195.104 137.93C194.961 138.053 194.859 138.218 194.799 138.425V140H194.359V137.39H194.759V137.95C194.866 137.757 195.004 137.608 195.174 137.505C195.344 137.398 195.536 137.345 195.749 137.345C195.966 137.345 196.139 137.405 196.269 137.525C196.399 137.642 196.479 137.793 196.509 137.98C196.626 137.773 196.767 137.617 196.934 137.51C197.101 137.4 197.291 137.345 197.504 137.345C197.654 137.345 197.779 137.373 197.879 137.43C197.982 137.483 198.064 137.56 198.124 137.66C198.184 137.757 198.227 137.872 198.254 138.005C198.281 138.138 198.294 138.283 198.294 138.44V140ZM200.118 140.05C199.921 140.05 199.743 140.015 199.583 139.945C199.423 139.872 199.285 139.773 199.168 139.65C199.051 139.523 198.961 139.378 198.898 139.215C198.835 139.052 198.803 138.88 198.803 138.7C198.803 138.517 198.835 138.343 198.898 138.18C198.961 138.017 199.051 137.873 199.168 137.75C199.285 137.623 199.423 137.525 199.583 137.455C199.746 137.382 199.925 137.345 200.118 137.345C200.315 137.345 200.493 137.382 200.653 137.455C200.813 137.525 200.951 137.623 201.068 137.75C201.188 137.873 201.28 138.017 201.343 138.18C201.406 138.343 201.438 138.517 201.438 138.7C201.438 138.88 201.406 139.052 201.343 139.215C201.28 139.378 201.19 139.523 201.073 139.65C200.956 139.773 200.816 139.872 200.653 139.945C200.493 140.015 200.315 140.05 200.118 140.05ZM199.253 138.705C199.253 138.885 199.291 139.048 199.368 139.195C199.448 139.342 199.553 139.458 199.683 139.545C199.813 139.628 199.958 139.67 200.118 139.67C200.278 139.67 200.423 139.627 200.553 139.54C200.686 139.453 200.791 139.337 200.868 139.19C200.948 139.04 200.988 138.875 200.988 138.695C200.988 138.515 200.948 138.352 200.868 138.205C200.791 138.058 200.686 137.942 200.553 137.855C200.423 137.768 200.278 137.725 200.118 137.725C199.958 137.725 199.813 137.77 199.683 137.86C199.553 137.947 199.448 138.063 199.368 138.21C199.291 138.357 199.253 138.522 199.253 138.705ZM204.641 136.45L202.241 140H201.751L204.146 136.45H204.641ZM205.205 140V136.45H205.655V139.6H207.635V140H205.205Z" fill="#8D8E94"/>
<line x1="205.066" y1="155" x2="205.066" y2="144" stroke="#7569F2" stroke-width="3" stroke-dasharray="2 2"/>
<line x1="275.566" y1="230.5" x2="61.5664" y2="230.5" stroke="white"/>
<line x1="275.566" y1="189.5" x2="61.5664" y2="189.5" stroke="white"/>
<line x1="275.566" y1="110.5" x2="61.5664" y2="110.5" stroke="white"/>
<line x1="275.566" y1="71.5" x2="61.5664" y2="71.5" stroke="white"/>
<line x1="275.566" y1="150.5" x2="61.5664" y2="150.5" stroke="white"/>
<defs>
<clipPath id="clip0_4473_6653">
<rect width="14" height="45" fill="white" transform="matrix(0 -1 -1 0 113.566 230)"/>
</clipPath>
</defs>
</svg>
