<svg width="223" height="76" viewBox="0 0 223 76" fill="none" xmlns="http://www.w3.org/2000/svg">
<path d="M64.0988 5.85448C60.2906 2.07852 55.227 0.000920888 49.8439 0.000920888C45.5621 0.000920888 41.4298 1.34763 37.9986 3.81278L52.0781 17.7696L49.244 20.5781L33.6454 5.11346C29.9347 1.81802 25.1459 0 20.1575 0C14.7734 0 9.71071 2.07852 5.90252 5.85356C-1.64606 13.3364 -1.99708 25.3768 5.09557 33.2895L35.0002 63.0194L64.9039 33.2895C71.9965 25.3777 71.6465 13.3374 64.0988 5.85448ZM28.2474 24.0558H24.4764V27.7941C24.4764 29.8229 22.817 31.4669 20.7703 31.4669C18.7237 31.4669 17.0652 29.8229 17.0652 27.7941V24.0558H13.2942C11.2475 24.0558 9.58814 22.4109 9.58814 20.3821C9.58814 18.3532 11.2475 16.7092 13.2942 16.7092H17.0652V12.9701C17.0652 10.9422 18.7237 9.29721 20.7703 9.29721C22.817 9.29721 24.4764 10.9422 24.4764 12.9701V16.7092H28.2474C30.2941 16.7092 31.9535 18.3532 31.9535 20.3821C31.9535 22.4109 30.2941 24.0558 28.2474 24.0558Z" fill="#6C63FF"/>
<path d="M97.4521 28.0151H92.8086L92.8379 24.5874H97.4521C98.6045 24.5874 99.5762 24.3286 100.367 23.811C101.158 23.2837 101.754 22.5171 102.154 21.5112C102.564 20.5054 102.77 19.2896 102.77 17.8638V16.8237C102.77 15.73 102.652 14.7681 102.418 13.938C102.193 13.1079 101.856 12.4097 101.407 11.8433C100.958 11.2769 100.406 10.8521 99.752 10.5688C99.0977 10.2759 98.3457 10.1294 97.4961 10.1294H92.7207V6.68701H97.4961C98.9219 6.68701 100.226 6.93115 101.407 7.41943C102.599 7.89795 103.629 8.58643 104.498 9.48486C105.367 10.3833 106.036 11.4575 106.505 12.7075C106.983 13.9478 107.223 15.3296 107.223 16.853V17.8638C107.223 19.3774 106.983 20.7593 106.505 22.0093C106.036 23.2593 105.367 24.3335 104.498 25.2319C103.639 26.1206 102.608 26.8091 101.407 27.2974C100.216 27.7759 98.8975 28.0151 97.4521 28.0151ZM95.2988 6.68701V28.0151H90.9043V6.68701H95.2988ZM114.605 12.1655V28.0151H110.372V12.1655H114.605ZM110.108 8.03467C110.108 7.41943 110.323 6.91162 110.753 6.51123C111.183 6.11084 111.759 5.91064 112.481 5.91064C113.194 5.91064 113.766 6.11084 114.195 6.51123C114.635 6.91162 114.854 7.41943 114.854 8.03467C114.854 8.6499 114.635 9.15771 114.195 9.55811C113.766 9.9585 113.194 10.1587 112.481 10.1587C111.759 10.1587 111.183 9.9585 110.753 9.55811C110.323 9.15771 110.108 8.6499 110.108 8.03467ZM126.646 24.4409V17.3804C126.646 16.8726 126.563 16.438 126.397 16.0767C126.231 15.7056 125.973 15.4175 125.621 15.2124C125.279 15.0073 124.835 14.9048 124.288 14.9048C123.819 14.9048 123.414 14.9878 123.072 15.1538C122.73 15.3101 122.467 15.5396 122.281 15.8423C122.096 16.1353 122.003 16.4819 122.003 16.8823H117.784C117.784 16.2085 117.94 15.5688 118.253 14.9634C118.565 14.3579 119.02 13.8257 119.615 13.3667C120.211 12.8979 120.919 12.5317 121.739 12.2681C122.569 12.0044 123.497 11.8726 124.522 11.8726C125.753 11.8726 126.847 12.0776 127.804 12.4878C128.761 12.8979 129.513 13.5132 130.06 14.3335C130.616 15.1538 130.895 16.1792 130.895 17.4097V24.1919C130.895 25.061 130.948 25.7739 131.056 26.3306C131.163 26.8774 131.319 27.356 131.524 27.7661V28.0151H127.262C127.057 27.5854 126.9 27.0483 126.793 26.4038C126.695 25.7495 126.646 25.0952 126.646 24.4409ZM127.203 18.3618L127.232 20.7495H124.874C124.317 20.7495 123.834 20.813 123.424 20.9399C123.014 21.0669 122.677 21.2476 122.413 21.4819C122.149 21.7065 121.954 21.9702 121.827 22.2729C121.71 22.5757 121.651 22.9077 121.651 23.269C121.651 23.6304 121.734 23.9575 121.9 24.2505C122.066 24.5337 122.306 24.7583 122.618 24.9243C122.931 25.0806 123.297 25.1587 123.717 25.1587C124.352 25.1587 124.903 25.0317 125.372 24.7778C125.841 24.5239 126.202 24.2114 126.456 23.8403C126.72 23.4692 126.856 23.1177 126.866 22.7856L127.979 24.5728C127.823 24.9731 127.608 25.3882 127.335 25.8179C127.071 26.2476 126.734 26.6528 126.324 27.0337C125.914 27.4048 125.421 27.7124 124.845 27.9565C124.269 28.1909 123.585 28.3081 122.794 28.3081C121.788 28.3081 120.875 28.1079 120.055 27.7075C119.244 27.2974 118.6 26.7358 118.121 26.0229C117.652 25.3003 117.418 24.48 117.418 23.562C117.418 22.7319 117.574 21.9946 117.887 21.3501C118.199 20.7056 118.658 20.1636 119.264 19.7241C119.879 19.2749 120.646 18.938 121.563 18.7134C122.481 18.479 123.546 18.3618 124.757 18.3618H127.203ZM134.146 5.51514H138.365V24.3823L137.94 28.0151H134.146V5.51514ZM148.399 19.9292V20.2368C148.399 21.4185 148.272 22.5024 148.019 23.4888C147.774 24.4751 147.394 25.3296 146.876 26.0522C146.358 26.7651 145.714 27.3218 144.942 27.7222C144.181 28.1128 143.282 28.3081 142.247 28.3081C141.28 28.3081 140.44 28.1128 139.728 27.7222C139.024 27.3315 138.434 26.7798 137.955 26.0669C137.477 25.354 137.091 24.519 136.798 23.562C136.505 22.605 136.285 21.5601 136.139 20.4272V19.7534C136.285 18.6206 136.505 17.5757 136.798 16.6187C137.091 15.6616 137.477 14.8267 137.955 14.1138C138.434 13.4009 139.024 12.8491 139.728 12.4585C140.431 12.0679 141.261 11.8726 142.218 11.8726C143.263 11.8726 144.171 12.0728 144.942 12.4731C145.724 12.8638 146.368 13.4204 146.876 14.1431C147.394 14.856 147.774 15.7056 148.019 16.6919C148.272 17.6685 148.399 18.7476 148.399 19.9292ZM144.181 20.2368V19.9292C144.181 19.2847 144.132 18.6792 144.034 18.1128C143.946 17.5366 143.79 17.0337 143.565 16.604C143.341 16.1646 143.033 15.8179 142.643 15.564C142.262 15.3101 141.769 15.1831 141.163 15.1831C140.587 15.1831 140.099 15.2808 139.698 15.4761C139.298 15.6714 138.966 15.9448 138.702 16.2964C138.448 16.6479 138.258 17.0679 138.131 17.5562C138.004 18.0347 137.926 18.562 137.896 19.1382V21.0571C137.926 21.8286 138.053 22.5122 138.277 23.1079C138.512 23.6938 138.863 24.1577 139.332 24.4995C139.811 24.8315 140.431 24.9976 141.192 24.9976C141.788 24.9976 142.281 24.8804 142.672 24.646C143.062 24.4116 143.365 24.0796 143.58 23.6499C143.805 23.2202 143.961 22.7173 144.049 22.1411C144.137 21.5552 144.181 20.9204 144.181 20.2368ZM158.316 28.3081C157.086 28.3081 155.982 28.1128 155.006 27.7222C154.029 27.3218 153.199 26.77 152.516 26.0669C151.842 25.3638 151.324 24.5483 150.963 23.6206C150.602 22.6831 150.421 21.687 150.421 20.6323V20.0464C150.421 18.8452 150.592 17.7466 150.934 16.7505C151.275 15.7544 151.764 14.8901 152.398 14.1577C153.043 13.4253 153.824 12.8638 154.742 12.4731C155.66 12.0728 156.695 11.8726 157.848 11.8726C158.971 11.8726 159.967 12.0581 160.836 12.4292C161.705 12.8003 162.433 13.3276 163.019 14.0112C163.614 14.6948 164.063 15.5151 164.366 16.4722C164.669 17.4194 164.82 18.4741 164.82 19.6362V21.394H152.223V18.5815H160.675V18.2593C160.675 17.6733 160.567 17.1509 160.353 16.6919C160.147 16.2231 159.835 15.8521 159.415 15.5786C158.995 15.3052 158.458 15.1685 157.804 15.1685C157.247 15.1685 156.769 15.2905 156.368 15.5347C155.968 15.7788 155.641 16.1206 155.387 16.5601C155.143 16.9995 154.957 17.5171 154.83 18.1128C154.713 18.6987 154.654 19.3433 154.654 20.0464V20.6323C154.654 21.2671 154.742 21.853 154.918 22.3901C155.104 22.9272 155.362 23.3911 155.694 23.7817C156.036 24.1724 156.446 24.4751 156.925 24.6899C157.413 24.9048 157.965 25.0122 158.58 25.0122C159.342 25.0122 160.05 24.8657 160.704 24.5728C161.368 24.27 161.939 23.8159 162.418 23.2104L164.469 25.437C164.137 25.9155 163.683 26.3745 163.106 26.814C162.54 27.2534 161.856 27.6147 161.056 27.8979C160.255 28.1714 159.342 28.3081 158.316 28.3081ZM174.986 12.1655V15.1538H165.758V12.1655H174.986ZM168.043 8.25439H172.262V23.2397C172.262 23.6987 172.32 24.0503 172.438 24.2944C172.564 24.5386 172.75 24.7095 172.994 24.8071C173.238 24.895 173.546 24.939 173.917 24.939C174.181 24.939 174.415 24.9292 174.62 24.9097C174.835 24.8804 175.016 24.8511 175.162 24.8218L175.177 27.9272C174.815 28.0444 174.425 28.1372 174.005 28.2056C173.585 28.2739 173.121 28.3081 172.613 28.3081C171.686 28.3081 170.875 28.1567 170.182 27.854C169.498 27.5415 168.971 27.0435 168.6 26.3599C168.229 25.6763 168.043 24.7778 168.043 23.6646V8.25439ZM184.684 28.3081C183.453 28.3081 182.35 28.1128 181.373 27.7222C180.396 27.3218 179.566 26.77 178.883 26.0669C178.209 25.3638 177.691 24.5483 177.33 23.6206C176.969 22.6831 176.788 21.687 176.788 20.6323V20.0464C176.788 18.8452 176.959 17.7466 177.301 16.7505C177.643 15.7544 178.131 14.8901 178.766 14.1577C179.41 13.4253 180.191 12.8638 181.109 12.4731C182.027 12.0728 183.062 11.8726 184.215 11.8726C185.338 11.8726 186.334 12.0581 187.203 12.4292C188.072 12.8003 188.8 13.3276 189.386 14.0112C189.981 14.6948 190.431 15.5151 190.733 16.4722C191.036 17.4194 191.188 18.4741 191.188 19.6362V21.394H178.59V18.5815H187.042V18.2593C187.042 17.6733 186.935 17.1509 186.72 16.6919C186.515 16.2231 186.202 15.8521 185.782 15.5786C185.362 15.3052 184.825 15.1685 184.171 15.1685C183.614 15.1685 183.136 15.2905 182.735 15.5347C182.335 15.7788 182.008 16.1206 181.754 16.5601C181.51 16.9995 181.324 17.5171 181.197 18.1128C181.08 18.6987 181.021 19.3433 181.021 20.0464V20.6323C181.021 21.2671 181.109 21.853 181.285 22.3901C181.471 22.9272 181.729 23.3911 182.062 23.7817C182.403 24.1724 182.813 24.4751 183.292 24.6899C183.78 24.9048 184.332 25.0122 184.947 25.0122C185.709 25.0122 186.417 24.8657 187.071 24.5728C187.735 24.27 188.307 23.8159 188.785 23.2104L190.836 25.437C190.504 25.9155 190.05 26.3745 189.474 26.814C188.907 27.2534 188.224 27.6147 187.423 27.8979C186.622 28.1714 185.709 28.3081 184.684 28.3081ZM202.159 23.6353C202.159 23.3325 202.071 23.0591 201.896 22.8149C201.72 22.5708 201.393 22.3462 200.914 22.1411C200.445 21.9263 199.767 21.731 198.878 21.5552C198.077 21.3794 197.33 21.1597 196.637 20.896C195.953 20.6226 195.357 20.2954 194.85 19.9146C194.352 19.5337 193.961 19.0845 193.678 18.5669C193.395 18.0396 193.253 17.439 193.253 16.7651C193.253 16.1011 193.395 15.4761 193.678 14.8901C193.971 14.3042 194.386 13.7866 194.923 13.3374C195.47 12.8784 196.134 12.522 196.915 12.2681C197.706 12.0044 198.595 11.8726 199.581 11.8726C200.958 11.8726 202.14 12.0923 203.126 12.5317C204.122 12.9712 204.884 13.5767 205.411 14.3481C205.948 15.1099 206.217 15.979 206.217 16.9556H201.998C201.998 16.5454 201.91 16.1792 201.734 15.8569C201.568 15.5249 201.305 15.2661 200.943 15.0806C200.592 14.8853 200.133 14.7876 199.566 14.7876C199.098 14.7876 198.692 14.8706 198.351 15.0366C198.009 15.1929 197.745 15.4077 197.56 15.6812C197.384 15.9448 197.296 16.2378 197.296 16.5601C197.296 16.8042 197.345 17.0239 197.442 17.2192C197.55 17.4048 197.721 17.5757 197.955 17.7319C198.189 17.8882 198.492 18.0347 198.863 18.1714C199.244 18.2983 199.713 18.4155 200.27 18.5229C201.412 18.7573 202.433 19.0649 203.331 19.4458C204.229 19.8169 204.942 20.3247 205.47 20.9692C205.997 21.604 206.261 22.439 206.261 23.4741C206.261 24.1772 206.104 24.8218 205.792 25.4077C205.479 25.9937 205.03 26.5063 204.444 26.9458C203.858 27.3755 203.155 27.7124 202.335 27.9565C201.524 28.1909 200.611 28.3081 199.596 28.3081C198.121 28.3081 196.871 28.0444 195.846 27.5171C194.83 26.9897 194.059 26.3208 193.531 25.5103C193.014 24.6899 192.755 23.8501 192.755 22.9907H196.754C196.773 23.5669 196.92 24.0308 197.193 24.3823C197.477 24.7339 197.833 24.9878 198.263 25.144C198.702 25.3003 199.176 25.3784 199.684 25.3784C200.23 25.3784 200.685 25.3052 201.046 25.1587C201.407 25.0024 201.681 24.7974 201.866 24.5435C202.062 24.2798 202.159 23.9771 202.159 23.6353ZM142.481 50.3735V53.8013H131.349V50.3735H142.481ZM132.652 41.687V63.0151H128.258V41.687H132.652ZM145.616 41.687V63.0151H141.236V41.687H145.616ZM148.502 55.2515V54.9438C148.502 53.7817 148.668 52.7124 149 51.7358C149.332 50.7495 149.815 49.895 150.45 49.1724C151.085 48.4497 151.866 47.8882 152.794 47.4878C153.722 47.0776 154.786 46.8726 155.987 46.8726C157.188 46.8726 158.258 47.0776 159.195 47.4878C160.133 47.8882 160.919 48.4497 161.554 49.1724C162.198 49.895 162.687 50.7495 163.019 51.7358C163.351 52.7124 163.517 53.7817 163.517 54.9438V55.2515C163.517 56.4038 163.351 57.4731 163.019 58.4595C162.687 59.436 162.198 60.2905 161.554 61.0229C160.919 61.7456 160.138 62.3071 159.21 62.7075C158.282 63.1079 157.218 63.3081 156.017 63.3081C154.815 63.3081 153.746 63.1079 152.809 62.7075C151.881 62.3071 151.095 61.7456 150.45 61.0229C149.815 60.2905 149.332 59.436 149 58.4595C148.668 57.4731 148.502 56.4038 148.502 55.2515ZM152.721 54.9438V55.2515C152.721 55.9155 152.779 56.5356 152.896 57.1118C153.014 57.688 153.199 58.1958 153.453 58.6353C153.717 59.0649 154.059 59.4019 154.479 59.646C154.898 59.8901 155.411 60.0122 156.017 60.0122C156.603 60.0122 157.105 59.8901 157.525 59.646C157.945 59.4019 158.282 59.0649 158.536 58.6353C158.79 58.1958 158.976 57.688 159.093 57.1118C159.22 56.5356 159.283 55.9155 159.283 55.2515V54.9438C159.283 54.2993 159.22 53.6938 159.093 53.1274C158.976 52.5513 158.785 52.0435 158.521 51.604C158.268 51.1548 157.931 50.8032 157.511 50.5493C157.091 50.2954 156.583 50.1685 155.987 50.1685C155.392 50.1685 154.884 50.2954 154.464 50.5493C154.054 50.8032 153.717 51.1548 153.453 51.604C153.199 52.0435 153.014 52.5513 152.896 53.1274C152.779 53.6938 152.721 54.2993 152.721 54.9438ZM170.328 50.4468V63.0151H166.095V47.1655H170.064L170.328 50.4468ZM169.742 54.5337H168.57C168.57 53.4302 168.702 52.4146 168.966 51.4868C169.239 50.5493 169.635 49.7388 170.152 49.0552C170.68 48.3618 171.329 47.8247 172.101 47.4438C172.872 47.063 173.766 46.8726 174.781 46.8726C175.484 46.8726 176.129 46.98 176.715 47.1948C177.301 47.3999 177.804 47.7271 178.224 48.1763C178.653 48.6157 178.985 49.1919 179.22 49.9048C179.454 50.6079 179.571 51.4526 179.571 52.439V63.0151H175.353V52.9077C175.353 52.1851 175.255 51.6284 175.06 51.2378C174.864 50.8472 174.586 50.5737 174.225 50.4175C173.873 50.2612 173.448 50.1831 172.95 50.1831C172.403 50.1831 171.925 50.2954 171.515 50.52C171.114 50.7446 170.782 51.0571 170.519 51.4575C170.255 51.8481 170.06 52.3071 169.933 52.8345C169.806 53.3618 169.742 53.9282 169.742 54.5337ZM179.176 54.0503L177.667 54.2407C177.667 53.2056 177.794 52.2437 178.048 51.355C178.312 50.4663 178.697 49.6851 179.205 49.0112C179.723 48.3374 180.362 47.8149 181.124 47.4438C181.886 47.063 182.765 46.8726 183.761 46.8726C184.522 46.8726 185.216 46.9849 185.841 47.2095C186.466 47.4243 186.998 47.771 187.438 48.2495C187.887 48.7183 188.229 49.3335 188.463 50.0952C188.707 50.8569 188.829 51.7896 188.829 52.8931V63.0151H184.596V52.8931C184.596 52.1606 184.498 51.604 184.303 51.2231C184.117 50.8325 183.844 50.564 183.482 50.4175C183.131 50.2612 182.711 50.1831 182.223 50.1831C181.715 50.1831 181.271 50.2856 180.89 50.4907C180.509 50.686 180.191 50.9595 179.938 51.311C179.684 51.6626 179.493 52.0728 179.366 52.5415C179.239 53.0005 179.176 53.5034 179.176 54.0503ZM199.391 63.3081C198.16 63.3081 197.057 63.1128 196.08 62.7222C195.104 62.3218 194.273 61.77 193.59 61.0669C192.916 60.3638 192.398 59.5483 192.037 58.6206C191.676 57.6831 191.495 56.687 191.495 55.6323V55.0464C191.495 53.8452 191.666 52.7466 192.008 51.7505C192.35 50.7544 192.838 49.8901 193.473 49.1577C194.117 48.4253 194.898 47.8638 195.816 47.4731C196.734 47.0728 197.77 46.8726 198.922 46.8726C200.045 46.8726 201.041 47.0581 201.91 47.4292C202.779 47.8003 203.507 48.3276 204.093 49.0112C204.688 49.6948 205.138 50.5151 205.44 51.4722C205.743 52.4194 205.895 53.4741 205.895 54.6362V56.394H193.297V53.5815H201.749V53.2593C201.749 52.6733 201.642 52.1509 201.427 51.6919C201.222 51.2231 200.909 50.8521 200.489 50.5786C200.069 50.3052 199.532 50.1685 198.878 50.1685C198.321 50.1685 197.843 50.2905 197.442 50.5347C197.042 50.7788 196.715 51.1206 196.461 51.5601C196.217 51.9995 196.031 52.5171 195.904 53.1128C195.787 53.6987 195.729 54.3433 195.729 55.0464V55.6323C195.729 56.2671 195.816 56.853 195.992 57.3901C196.178 57.9272 196.437 58.3911 196.769 58.7817C197.11 59.1724 197.521 59.4751 197.999 59.6899C198.487 59.9048 199.039 60.0122 199.654 60.0122C200.416 60.0122 201.124 59.8657 201.778 59.5728C202.442 59.27 203.014 58.8159 203.492 58.2104L205.543 60.437C205.211 60.9155 204.757 61.3745 204.181 61.814C203.614 62.2534 202.931 62.6147 202.13 62.8979C201.329 63.1714 200.416 63.3081 199.391 63.3081Z" fill="#6C63FF"/>
<path d="M118.685 56.6891C118.23 57.805 117.654 58.8644 116.957 59.8674C116.276 60.8631 115.477 61.7072 114.56 62.3995C113.658 63.0847 112.656 63.5348 111.553 63.7498C110.454 63.9535 109.265 63.8234 107.986 63.3594C107.239 63.0884 106.618 62.7159 106.123 62.242C105.629 61.768 105.272 61.2157 105.052 60.5851C104.836 59.9432 104.763 59.244 104.832 58.4875C104.905 57.7198 105.126 56.9159 105.495 56.0758L109.876 46.6913L113.069 47.8492L108.705 57.2399C108.403 57.8607 108.223 58.3913 108.166 58.8318C108.109 59.2723 108.136 59.6407 108.246 59.937C108.361 60.2219 108.526 60.4549 108.742 60.6358C108.97 60.8208 109.208 60.9585 109.457 61.0488C110.035 61.2583 110.617 61.2773 111.205 61.1059C111.807 60.9274 112.389 60.5939 112.951 60.1056C113.512 59.6173 114.035 59.0061 114.518 58.2719C115.006 57.5265 115.438 56.6899 115.812 55.7624C116.442 54.2357 116.882 52.7745 117.132 51.3789C117.393 49.9873 117.444 48.6799 117.285 47.4564C117.126 46.233 116.752 45.1106 116.161 44.0893C115.575 43.0566 114.768 42.1363 113.741 41.3284C112.714 40.5204 111.442 39.8414 109.925 39.2912C108.533 38.7861 107.167 38.5409 105.83 38.5555C104.496 38.5587 103.214 38.7919 101.983 39.2551C100.763 39.7224 99.6158 40.3954 98.5415 41.2742C97.4672 42.1529 96.4872 43.2133 95.6016 44.4551C94.7272 45.7011 93.9709 47.0987 93.3325 48.6481C92.65 50.2839 92.185 51.8321 91.9375 53.2925C91.7055 54.7458 91.6838 56.096 91.8723 57.343C92.0723 58.5942 92.4789 59.7346 93.0922 60.7641C93.7055 61.7937 94.5239 62.6991 95.5475 63.4802C96.5711 64.2614 97.7849 64.9066 99.1889 65.4157C100.174 65.773 101.217 66.0231 102.318 66.1662C103.431 66.3134 104.402 66.3387 105.231 66.2423L105.008 68.8713C104.031 69.0934 102.903 69.1135 101.624 68.9314C100.356 68.7535 99.1953 68.4736 98.1422 68.0918C96.3646 67.4471 94.8198 66.6371 93.5079 65.6617C92.2073 64.6904 91.1545 63.5655 90.3496 62.2871C89.5446 61.0087 88.9963 59.6055 88.7045 58.0776C88.4127 56.5497 88.3888 54.9011 88.6329 53.1319C88.877 51.3627 89.4018 49.4903 90.2074 47.5148C90.9597 45.6865 91.8748 44.0453 92.9526 42.5913C94.0346 41.1259 95.2479 39.8812 96.5927 38.8571C97.9375 37.833 99.3787 37.0552 100.916 36.5239C102.47 35.9853 104.088 35.7266 105.771 35.7477C107.455 35.7688 109.174 36.0976 110.929 36.734C112.695 37.3746 114.213 38.1877 115.483 39.1735C116.753 40.1592 117.773 41.2851 118.544 42.5512C119.315 43.8173 119.831 45.2025 120.093 46.7068C120.355 48.2111 120.367 49.8041 120.129 51.4858C119.895 53.1562 119.414 54.8906 118.685 56.6891ZM100.859 52.1654C100.52 52.8881 100.276 53.5618 100.126 54.1866C99.9809 54.8001 99.9325 55.3399 99.9814 55.806C100.042 56.2762 100.197 56.6785 100.447 57.0127C100.702 57.3356 101.05 57.5771 101.491 57.7373C101.752 57.8317 102.057 57.8721 102.408 57.8584C102.763 57.8334 103.141 57.727 103.542 57.5394C103.959 57.3445 104.395 57.0416 104.852 56.6305C105.324 56.2123 105.797 55.6474 106.273 54.9359L107.053 57.0253C106.477 57.8027 105.871 58.448 105.237 58.9611C104.614 59.4782 103.973 59.8673 103.315 60.1282C102.657 60.3892 101.998 60.5282 101.338 60.5452C100.683 60.551 100.038 60.4389 99.4042 60.2089C98.5776 59.9092 97.9073 59.4611 97.3932 58.8647C96.8791 58.2683 96.5317 57.5658 96.3507 56.7571C96.1739 55.9371 96.1632 55.0299 96.3185 54.0357C96.4739 53.0415 96.8154 51.993 97.3431 50.8904C97.8904 49.7693 98.5011 48.7736 99.1751 47.9034C99.8646 47.026 100.594 46.285 101.364 45.6802C102.134 45.0754 102.924 44.6121 103.732 44.2903C104.556 43.9613 105.376 43.7846 106.192 43.7602C107.019 43.7399 107.823 43.8714 108.605 44.1547C109.895 44.6228 110.841 45.1772 111.442 45.8177C112.046 46.447 112.589 47.1242 113.069 47.8492L110.61 49.4367C110.393 49.0119 110.067 48.5671 109.634 48.1024C109.215 47.6304 108.644 47.263 107.919 47.0002C107.262 46.7621 106.62 46.6958 105.993 46.8013C105.377 46.9109 104.771 47.1847 104.177 47.6226C103.583 48.0605 103.007 48.6589 102.45 49.4178C101.898 50.1655 101.367 51.0813 100.859 52.1654Z" fill="#6C63FF"/>
</svg>
