<svg width="34" height="34" viewBox="0 0 34 34" fill="none" xmlns="http://www.w3.org/2000/svg">
<circle cx="17" cy="17" r="17" fill="#F9A620"/>
<path d="M18.6425 9.81598C19.8546 9.81598 20.8462 8.82431 20.8462 7.61227C20.8462 6.40024 19.8546 5.40857 18.6425 5.40857C17.4305 5.40857 16.4388 6.40024 16.4388 7.61227C16.4388 8.82431 17.4305 9.81598 18.6425 9.81598ZM14.6759 25.1317L15.7777 20.2836L18.0916 22.4873V29.0984H20.2953V20.8345L17.9814 18.6308L18.6425 15.3252C20.0749 16.978 22.2786 18.0799 24.7027 18.0799V15.8762C22.6092 15.8762 20.8462 14.7743 19.9647 13.2317L18.8629 11.4688C18.4221 10.8076 17.761 10.3669 16.9897 10.3669C16.6592 10.3669 16.4388 10.4771 16.1083 10.4771L10.3786 12.9012V18.0799H12.5823V14.3336L14.5657 13.5623L12.8027 22.4873L7.40363 21.3854L6.96289 23.5891L14.6759 25.1317Z" fill="white"/>
</svg>
