<svg width="51" height="51" viewBox="0 0 51 51" fill="none" xmlns="http://www.w3.org/2000/svg">
<path d="M25.4998 0.916626C11.9298 0.916626 0.916504 11.93 0.916504 25.5C0.916504 39.07 11.9298 50.0833 25.4998 50.0833C39.0698 50.0833 50.0832 39.07 50.0832 25.5C50.0832 11.93 39.0698 0.916626 25.4998 0.916626ZM25.4998 45.1666C14.6586 45.1666 5.83317 36.3412 5.83317 25.5C5.83317 14.6587 14.6586 5.83329 25.4998 5.83329C36.3411 5.83329 45.1665 14.6587 45.1665 25.5C45.1665 36.3412 36.3411 45.1666 25.4998 45.1666ZM36.7836 14.6341L20.5832 30.8345L14.2161 24.492L10.7498 27.9583L20.5832 37.7916L40.2498 18.125L36.7836 14.6341Z" fill="white"/>
</svg>
