<svg width="34" height="34" viewBox="0 0 34 34" fill="none" xmlns="http://www.w3.org/2000/svg">
<circle cx="17" cy="17" r="17" fill="#55C000"/>
<path d="M24.7136 7.08337H9.28769C8.07565 7.08337 7.08398 8.07504 7.08398 9.28708V24.713C7.08398 25.925 8.07565 26.9167 9.28769 26.9167H24.7136C25.9257 26.9167 26.9173 25.925 26.9173 24.713V9.28708C26.9173 8.07504 25.9257 7.08337 24.7136 7.08337ZM24.7136 24.713H9.28769V9.28708H24.7136V24.713ZM17.0007 10.3889C15.1716 10.3889 13.6951 11.8654 13.6951 13.6945C13.6951 15.5236 15.1716 17 17.0007 17C18.8297 17 20.3062 15.5236 20.3062 13.6945C20.3062 11.8654 18.8297 10.3889 17.0007 10.3889ZM15.8988 14.2454H14.7969V13.1436H15.8988V14.2454ZM17.5516 14.2454H16.4497V13.1436H17.5516V14.2454ZM19.2044 14.2454H18.1025V13.1436H19.2044V14.2454Z" fill="white"/>
</svg>
