<svg width="16" height="21" viewBox="0 0 16 21" fill="none" xmlns="http://www.w3.org/2000/svg">
<path d="M12.9011 6.07946L7.55556 0L2.21 6.07946C0.736667 7.75804 0 9.99615 0 12.1482C0 14.3002 0.736667 16.5706 2.21 18.2492C3.68333 19.9277 5.61945 20.7778 7.55556 20.7778C9.49167 20.7778 11.4278 19.9277 12.9011 18.2492C14.3744 16.5706 15.1111 14.3002 15.1111 12.1482C15.1111 9.99615 14.3744 7.75804 12.9011 6.07946ZM1.88889 12.5355C1.89833 10.3835 2.47445 9.01698 3.55111 7.80108L7.55556 3.14195L11.56 7.85488C12.6367 9.06001 13.2128 10.3835 13.2222 12.5355H1.88889Z" fill="white"/>
</svg>
