<svg width="12" height="23" viewBox="0 0 12 23" fill="none" xmlns="http://www.w3.org/2000/svg">
<path d="M9.91667 3.85648H6.61111V2.2037H7.16204C7.76806 2.2037 8.26389 1.70787 8.26389 1.10185C8.26389 0.495833 7.76806 0 7.16204 0H3.85648C3.25046 0 2.75463 0.495833 2.75463 1.10185C2.75463 1.70787 3.25046 2.2037 3.85648 2.2037H4.40741V3.85648H1.10185C0.495833 3.85648 0 4.35231 0 4.95833C0 5.56435 0.495833 6.06019 1.10185 6.06019V14.3241C1.10185 15.5361 2.09352 16.5278 3.30556 16.5278H4.40741V20.9352L6.61111 22.588V16.5278H7.71296C8.925 16.5278 9.91667 15.5361 9.91667 14.3241V6.06019C10.5227 6.06019 11.0185 5.56435 11.0185 4.95833C11.0185 4.35231 10.5227 3.85648 9.91667 3.85648ZM7.71296 7.71296H5.78472C5.33296 7.71296 4.95833 8.08759 4.95833 8.53935C4.95833 8.99111 5.33296 9.36574 5.78472 9.36574H7.71296V11.0185H5.78472C5.33296 11.0185 4.95833 11.3931 4.95833 11.8449C4.95833 12.2967 5.33296 12.6713 5.78472 12.6713H7.71296V14.3241H3.30556V6.06019H7.71296V7.71296Z" fill="white"/>
</svg>
