<svg width="18" height="24" viewBox="0 0 18 24" fill="none" xmlns="http://www.w3.org/2000/svg">
<path d="M11.6796 4.40741C12.8917 4.40741 13.8833 3.41574 13.8833 2.2037C13.8833 0.991667 12.8917 0 11.6796 0C10.4676 0 9.47593 0.991667 9.47593 2.2037C9.47593 3.41574 10.4676 4.40741 11.6796 4.40741ZM7.71296 19.7231L8.81482 14.875L11.1287 17.0787V23.6898H13.3324V15.4259L11.0185 13.2222L11.6796 9.91667C13.112 11.5694 15.3157 12.6713 17.7398 12.6713V10.4676C15.6463 10.4676 13.8833 9.36574 13.0019 7.82315L11.9 6.06018C11.4593 5.39907 10.7981 4.95833 10.0269 4.95833C9.6963 4.95833 9.47593 5.06852 9.14537 5.06852L3.41574 7.49259V12.6713H5.61944V8.925L7.60278 8.1537L5.83981 17.0787L0.440741 15.9768L0 18.1806L7.71296 19.7231Z" fill="white"/>
</svg>
