<svg width="20" height="20" viewBox="0 0 20 20" fill="none" xmlns="http://www.w3.org/2000/svg">
<path d="M17.7778 0H2.22222C1 0 0 1 0 2.22222V17.7778C0 19 1 20 2.22222 20H17.7778C19 20 20 19 20 17.7778V2.22222C20 1 19 0 17.7778 0ZM17.7778 17.7778H2.22222V2.22222H17.7778V17.7778ZM10 3.33333C8.15556 3.33333 6.66667 4.82222 6.66667 6.66667C6.66667 8.51111 8.15556 10 10 10C11.8444 10 13.3333 8.51111 13.3333 6.66667C13.3333 4.82222 11.8444 3.33333 10 3.33333ZM8.88889 7.22222H7.77778V6.11111H8.88889V7.22222ZM10.5556 7.22222H9.44444V6.11111H10.5556V7.22222ZM12.2222 7.22222H11.1111V6.11111H12.2222V7.22222Z" fill="white"/>
</svg>
