<svg width="45" height="44" viewBox="0 0 45 44" fill="none" xmlns="http://www.w3.org/2000/svg">
<circle cx="22.7588" cy="22" r="22" fill="#55C000"/>
<path d="M32.6305 9.30762H12.8869C11.3356 9.30762 10.0664 10.5768 10.0664 12.1281V31.8717C10.0664 33.423 11.3356 34.6922 12.8869 34.6922H32.6305C34.1818 34.6922 35.451 33.423 35.451 31.8717V12.1281C35.451 10.5768 34.1818 9.30762 32.6305 9.30762ZM32.6305 31.8717H12.8869V12.1281H32.6305V31.8717ZM22.7587 13.5384C20.4177 13.5384 18.5279 15.4281 18.5279 17.7692C18.5279 20.1102 20.4177 21.9999 22.7587 21.9999C25.0997 21.9999 26.9895 20.1102 26.9895 17.7692C26.9895 15.4281 25.0997 13.5384 22.7587 13.5384ZM21.3485 18.4743H19.9382V17.064H21.3485V18.4743ZM23.4638 18.4743H22.0536V17.064H23.4638V18.4743ZM25.5792 18.4743H24.169V17.064H25.5792V18.4743Z" fill="white"/>
</svg>
