<svg width="580" height="619" viewBox="0 0 580 619" fill="none" xmlns="http://www.w3.org/2000/svg">
<g clip-path="url(#clip0_164_369)">
<path opacity="0.1" d="M213.652 618.447C256.176 618.447 290.648 612.907 290.648 606.075C290.648 599.242 256.176 593.702 213.652 593.702C171.128 593.702 136.656 599.242 136.656 606.075C136.656 612.907 171.128 618.447 213.652 618.447Z" fill="#6C63FF"/>
<path opacity="0.1" d="M33.6306 267.356V376.72H204.92V267.356H33.6306ZM33.6306 380.096V474.013C34.6104 474.219 35.5823 474.416 36.5464 474.582C37.8581 474.835 39.1619 475.065 40.4973 475.262C40.7502 475.302 41.0109 475.341 41.2875 475.365C41.809 475.452 42.3464 475.523 42.8679 475.594C44.1875 475.776 45.4992 475.926 46.8188 476.045C47.4431 476.108 48.0752 476.163 48.7074 476.211L50.2325 476.329C51.0622 476.393 51.884 476.44 52.6979 476.464C53.2036 476.464 53.7093 476.511 54.2308 476.527C54.6259 476.527 55.021 476.527 55.4319 476.527C55.8428 476.527 56.4276 476.527 56.9254 476.527C57.6049 476.527 58.2845 476.527 58.9562 476.527H59.8649C60.5445 476.527 61.224 476.527 61.8957 476.464H61.9431C62.4093 476.464 62.8834 476.464 63.3575 476.401C63.4891 476.408 63.621 476.408 63.7526 476.401C64.1477 476.401 64.5428 476.401 64.9221 476.345H65.1987L67.8458 476.14C68.715 476.061 69.5921 475.958 70.4771 475.863L72.2788 475.65C79.6084 474.622 86.8566 473.079 93.9695 471.033C109.947 466.574 125.577 460.337 141.547 455.767C162.195 449.878 185.007 446.984 204.96 454.186V380.096H33.6306ZM204.92 145.603V0.00780156C186.167 -0.195467 167.464 1.99894 149.267 6.53774C105.894 17.4394 66.9766 41.0847 33.6306 71.2837V145.595H42.2278V148.971H33.6306V263.98H204.92V148.979H77.5257V145.603H204.92ZM424.933 96.4232C414.202 96.0437 403.535 92.6443 393.886 87.3951C375.436 77.3551 360.698 61.8525 344.231 48.7689C310.016 21.5186 267.582 5.07522 224.051 0.995988V145.603H468.575L469.184 144.963L424.933 96.4232ZM447.209 92.4704L470.827 118.4V85.6717C462.918 86.652 455.988 88.9841 447.24 92.4388L447.209 92.4704ZM470.827 497.334V380.096H420.5C420.366 379.598 420.231 379.092 420.073 378.586C420.224 379.092 420.35 379.598 420.492 380.096H224.082V464.882C225.947 466.266 227.788 467.72 229.614 469.199C231.581 470.78 233.525 472.448 235.477 474.084L237.444 475.713C238.385 476.503 239.333 477.294 240.289 478.037C242.186 479.576 244.101 481.094 246.034 482.591C246.99 483.381 247.97 484.093 248.942 484.836C264.372 496.638 280.649 507.289 297.641 516.703C301.45 518.811 305.293 520.869 309.17 522.877C311.754 524.197 314.354 525.509 316.961 526.782C320.881 528.695 324.832 530.54 328.814 532.316C365.532 548.806 404.357 560.121 444.182 565.938C453.027 567.245 461.906 568.273 470.819 569.021V497.326H471.61L470.827 497.334ZM224.082 148.979V263.98H470.859V148.979H224.082ZM224.082 267.356V376.72H470.859V267.356H224.082Z" fill="#6C63FF"/>
<path opacity="0.1" d="M93.93 165.446V263.98H33.6306V165.446H42.2278V132.085H77.5178V165.446H93.93Z" fill="#6C63FF"/>
<path opacity="0.1" d="M93.93 267.356H33.6385V376.712H93.93V267.356Z" fill="#6C63FF"/>
<path opacity="0.1" d="M33.6306 380.104H93.93V471.017C86.8171 473.062 79.5689 474.602 72.2393 475.626L70.4376 475.847C69.5526 475.95 68.6755 476.037 67.8063 476.124C66.9371 476.211 66.0363 476.274 65.1592 476.33H64.8826C64.5033 476.33 64.0924 476.377 63.721 476.385H63.318C62.8439 476.385 62.3698 476.432 61.8957 476.448C61.224 476.488 60.5524 476.496 59.8649 476.504C59.5725 476.504 59.296 476.504 59.0036 476.504C58.324 476.504 57.6523 476.504 56.9728 476.504H55.4793C55.0763 476.504 54.6891 476.504 54.2703 476.504L52.7453 476.448C51.9551 476.448 51.1017 476.361 50.2799 476.306L48.7627 476.195L46.8741 476.021C45.5466 475.903 44.227 475.753 42.9232 475.571L41.3428 475.349L40.5526 475.239C39.233 475.033 37.9292 474.812 36.6017 474.559C35.6297 474.393 34.6657 474.187 33.6859 473.99L33.6306 380.104Z" fill="#6C63FF"/>
<path opacity="0.1" d="M470.859 153.809H421.14V263.972H470.859V153.809Z" fill="#6C63FF"/>
<path opacity="0.1" d="M470.867 267.356V376.72H224.082V329.548H355.531V357.376H421.14V267.356H470.867Z" fill="#6C63FF"/>
<path opacity="0.1" d="M471.649 497.358H470.859V569.1C461.956 568.347 453.08 567.322 444.229 566.025C404.385 560.189 365.543 548.85 328.814 532.332C318.21 527.557 307.821 522.345 297.649 516.695C280.657 507.277 264.378 496.626 248.942 484.828C245.065 481.855 241.237 478.814 237.46 475.705C234.845 473.547 232.245 471.333 229.614 469.183C227.788 467.705 225.947 466.25 224.082 464.859V380.104H420.484C420.35 379.598 420.216 379.092 420.073 378.594C420.223 379.092 420.366 379.598 420.5 380.104H470.859V497.311C471.128 497.319 471.388 497.342 471.649 497.358Z" fill="#6C63FF"/>
<path opacity="0.1" d="M470.867 184.435H444.23V218.974H470.867V184.435Z" fill="#6C63FF"/>
<path opacity="0.1" d="M470.867 256.027H444.23V263.98H470.867V256.027Z" fill="#6C63FF"/>
<path opacity="0.1" d="M470.867 267.356H444.23V290.558H470.867V267.356Z" fill="#6C63FF"/>
<path opacity="0.1" d="M470.867 327.619H444.23V362.158H470.867V327.619Z" fill="#6C63FF"/>
<path opacity="0.1" d="M470.867 399.211H444.23V433.75H470.867V399.211Z" fill="#6C63FF"/>
<path opacity="0.1" d="M470.859 497.311C471.128 497.311 471.388 497.311 471.649 497.358H470.859V505.382H444.23V470.804H470.859V497.311Z" fill="#6C63FF"/>
<path opacity="0.1" d="M470.859 542.38V569.061C461.956 568.307 453.08 567.282 444.23 565.986V542.38H470.859Z" fill="#6C63FF"/>
<path opacity="0.1" d="M338.241 374.183H224.082V376.721H338.241V374.183Z" fill="#6C63FF"/>
<path opacity="0.1" d="M338.241 380.096H224.082V389.82H338.241V380.096Z" fill="#6C63FF"/>
<path opacity="0.1" d="M338.241 421.695H224.082V437.332H338.241V421.695Z" fill="#6C63FF"/>
<path opacity="0.1" d="M338.233 469.207V484.844H248.942C245.064 481.882 241.235 478.841 237.452 475.721C234.837 473.563 232.245 471.349 229.606 469.207H338.233Z" fill="#6C63FF"/>
<path opacity="0.1" d="M338.233 516.711V532.332H328.806C318.213 527.552 307.827 522.337 297.649 516.687L338.233 516.711Z" fill="#6C63FF"/>
<path opacity="0.1" d="M72.2946 173.201H49.8215V195.685H72.2946V173.201Z" fill="#6C63FF"/>
<path opacity="0.1" d="M72.2946 225.425H49.8215V247.908H72.2946V225.425Z" fill="#6C63FF"/>
<path opacity="0.1" d="M72.2946 277.649H49.8215V300.132H72.2946V277.649Z" fill="#6C63FF"/>
<path opacity="0.1" d="M72.2946 329.865H49.8215V352.348H72.2946V329.865Z" fill="#6C63FF"/>
<path opacity="0.1" d="M72.2946 382.088H49.8215V404.572H72.2946V382.088Z" fill="#6C63FF"/>
<path opacity="0.1" d="M72.2946 434.312H49.8215V456.795H72.2946V434.312Z" fill="#6C63FF"/>
<path opacity="0.1" d="M519.535 263.98H519.582H519.535ZM470.859 497.303H471.649H470.859ZM420.073 378.586C420.223 379.092 420.35 379.598 420.492 380.096C420.366 379.598 420.231 379.092 420.073 378.586ZM519.535 263.956H519.582H519.535ZM42.2594 145.58V148.955H77.5572V145.58H42.2594ZM470.859 497.303H471.649H470.859ZM420.073 378.586C420.223 379.092 420.35 379.598 420.492 380.096C420.366 379.598 420.231 379.092 420.073 378.586ZM519.535 263.956H519.582H519.535ZM470.859 497.279H471.649H470.859ZM420.073 378.586C420.223 379.092 420.35 379.598 420.492 380.096C420.366 379.598 420.231 379.092 420.073 378.586Z" fill="#6C63FF"/>
<path d="M288.103 300.148C288.103 300.148 284.99 299.713 284.99 295.175C284.99 290.638 282.762 282.163 282.762 282.163C282.762 282.123 280.834 267.403 278.171 265.063C275.508 262.723 272.086 248.983 272.086 248.983C272.086 248.983 271.502 241.529 270.308 239.924C269.115 238.319 267.503 234.39 265.125 228.785C262.746 223.18 252.829 219.298 252.829 219.298C252.829 219.298 234.9 208.895 229.819 205.503C229.357 205.225 228.925 204.899 228.531 204.531C227.646 203.369 223.79 203.345 223.79 203.345C223.387 200.8 223 197.874 222.873 195.226C222.873 194.942 222.873 194.657 222.834 194.372C228.499 191.022 232.767 185.739 234.852 179.494C234.947 179.194 235.026 178.878 235.113 178.577C235.453 178.465 235.765 178.284 236.03 178.044C236.296 177.805 236.508 177.512 236.654 177.186C237.112 176.166 237.12 174.972 237.689 174.024C238.353 172.901 239.617 172.3 240.613 171.454C243.126 169.32 243.774 165.723 243.655 162.45C243.576 159.802 243.149 157.13 243.315 154.497L243.363 153.833C243.41 153.438 243.466 153.042 243.537 152.663C243.924 150.702 244.769 148.853 245.243 146.908C245.718 144.963 245.765 142.773 244.659 141.097C243.039 138.639 239.665 138.149 236.702 137.896C233.343 137.611 230.34 137.982 228.191 135.192C227.185 133.733 226.054 132.366 224.809 131.105C224.367 130.694 220.068 128.069 220.068 127.895C215.873 125.951 211.117 125.586 206.674 126.867C204.446 127.516 202.344 128.575 200.084 129.105C195.209 130.259 189.598 129.01 185.458 131.8C183.15 133.382 181.767 135.895 180.472 138.346C179.418 140.365 178.349 142.381 177.263 144.394C175.517 147.706 173.739 151.074 173.004 154.742C172.85 155.54 172.755 156.349 172.72 157.161V157.201C172.72 157.493 172.72 157.786 172.72 158.078V158.45C172.72 158.727 172.72 158.995 172.767 159.24C172.815 159.485 172.807 159.564 172.83 159.73C172.854 159.897 172.894 160.268 172.941 160.521C172.988 160.774 173.083 161.217 173.178 161.565C173.218 161.715 173.273 161.857 173.32 161.999C173.399 162.268 173.494 162.529 173.597 162.79C173.652 162.924 173.708 163.067 173.771 163.201C173.889 163.478 174.031 163.746 174.174 163.992C174.237 164.102 174.284 164.205 174.348 164.308C174.568 164.675 174.811 165.029 175.075 165.367C176.766 167.478 179.255 168.822 181.096 170.798C181.096 170.877 181.096 170.956 181.096 171.027C181.096 171.249 181.096 171.462 181.096 171.684C181.193 176.091 182.366 180.408 184.512 184.259C186.657 188.11 189.711 191.378 193.407 193.779C193.407 194.08 193.446 194.388 193.462 194.689C193.616 197.035 193.587 199.39 193.375 201.732C193.054 201.353 192.651 201.051 192.197 200.849C191.743 200.646 191.249 200.548 190.752 200.562C190.412 200.546 190.072 200.575 189.74 200.649L189.669 200.594V200.665C187.931 201.092 185.79 202.902 183.743 208.049C183.743 208.049 177.516 215.069 172.775 214.776C168.034 214.484 156.031 222.081 156.031 222.081C156.031 222.081 144.32 229.686 141.808 237.434C140.403 241.827 138.719 246.126 136.766 250.304L122.29 280.147L119.619 303.824C119.619 303.824 121.097 314.354 120.804 315.959C120.512 317.564 126.881 332.039 126.881 332.039C126.881 332.039 147.924 369.028 156.521 370.926L157.137 370.491C157.505 370.683 157.895 370.829 158.299 370.926L160.069 369.677C160.175 371.069 160.13 372.468 159.934 373.851C158.749 377.503 160.377 401.338 162.447 406.01C164.518 410.682 163.783 471.942 163.783 471.942L163.49 477.349C163.49 477.349 163.49 477.523 163.561 477.824L163.49 479.104L163.704 479.215C163.925 480.93 163.853 482.671 163.49 484.362C162.748 486.733 162.447 493.437 162.447 493.437C162.447 493.437 156.529 531.289 159.334 538.894C162.139 546.499 164.526 554.831 164.526 554.831C164.526 554.831 167.489 564.318 164.668 565.938C161.847 567.559 153.826 570.279 155.478 574.231C156.979 577.884 162.676 587.671 163.522 589.101L163.451 589.853L162.289 602.446C162.477 604.109 162.928 605.731 163.625 607.253C164.897 609.996 167.37 612.842 172.072 612.533C172.862 612.478 173.779 612.383 174.664 612.265C183.269 611.11 193.865 607.268 193.865 607.268C193.315 606.919 192.811 606.502 192.364 606.027C191.941 605.617 191.606 605.125 191.379 604.582C191.152 604.038 191.038 603.454 191.044 602.865C191.171 600.572 186.88 589.647 185.813 586.959C185.647 586.572 185.56 586.35 185.56 586.35C185.56 586.35 195.343 576.121 193.715 567.053C193.715 567.053 182.89 560.729 186.453 557.258C190.017 553.788 196.386 543.819 196.386 543.819C196.386 543.819 196.678 506.544 196.386 500.979C196.081 497.116 196.264 493.23 196.931 489.413C197.05 488.836 197.192 488.275 197.342 487.721C202.271 488.458 207.246 488.835 212.229 488.852C214.047 488.852 215.896 488.852 217.761 488.741C217.761 489.268 217.784 489.837 217.832 490.449C218.243 499.682 219.009 515.873 219.633 521.889C220.518 530.514 225.41 553.756 225.41 553.756C225.41 553.756 216.078 559.748 227.037 574.516C227.037 574.516 227.037 579.868 226.311 580.643C225.534 583.175 224.909 585.752 224.438 588.358C223.979 591.141 223.79 593.955 224.533 595.418C226.311 598.912 236.978 598.628 236.978 598.628L237.239 598.58C239.253 598.372 241.288 598.566 243.226 599.151C245.165 599.736 246.968 600.7 248.531 601.987C252.584 605.244 267.969 603.814 276.298 602.778C279.561 602.367 281.742 601.987 281.742 601.987C281.848 601.618 281.886 601.232 281.853 600.849C281.766 598.802 280.162 594.311 269.289 590.303C269.289 590.303 259.064 583.425 259.206 577.433H258.993H257.807C258.669 577.386 259.222 577.433 259.222 577.433C259.222 577.433 255.216 562.808 256.851 561.622C258.487 560.436 253.588 544.23 253.588 544.23C253.588 544.23 250.783 517.035 250.633 515.13C250.639 513.495 250.886 511.87 251.367 510.307L250.633 495.398C250.633 495.398 250.49 490.441 250.633 488.828C250.609 487.428 250.495 486.032 250.293 484.646C250.222 484.093 250.151 483.516 250.072 482.947C253.904 481.974 256.393 481.073 256.393 481.073L255.951 429.173C259.206 422.849 259.807 408.975 259.791 399.133C259.791 392.808 259.506 388.128 259.506 388.128L263.955 380.863C263.955 380.863 264.982 372.167 263.355 370.262C262.636 369.4 262.96 368.507 263.552 367.771C263.86 367.527 264.185 367.305 264.524 367.107C264.524 367.107 264.477 367.036 264.421 366.933C264.732 366.674 265.062 366.439 265.409 366.23C265.409 366.23 263.829 363.779 265.243 362.743C266.571 363.645 267.756 364.325 268.657 364.878C268.594 365.455 268.53 365.787 268.53 365.787L268.91 364.997C269.779 365.487 270.308 365.787 270.308 365.787C270.308 365.787 277.278 351.897 277.128 349.85C276.978 347.802 281.869 339.177 281.869 339.177C281.869 339.177 282.461 334.647 285.132 332.75C287.803 330.853 287.203 317.105 287.203 317.105C287.203 317.105 287.945 309.943 289.723 307.018C291.501 304.093 288.103 300.148 288.103 300.148ZM154.751 294.053L154.885 297.365C154.095 296.092 153.526 295.175 153.526 295.175L154.751 294.053Z" fill="url(#paint0_linear_164_369)"/>
<path d="M270.688 359.787L268.981 367.06C268.981 367.06 255.311 360.079 252.845 351.209C250.38 342.339 256.97 338.972 256.97 338.972L269.708 344.371L270.688 359.787Z" fill="white"/>
<path opacity="0.1" d="M270.688 359.787L268.981 367.06C268.981 367.06 255.311 360.079 252.845 351.209C250.38 342.339 256.97 338.972 256.97 338.972L269.708 344.371L270.688 359.787Z" fill="black"/>
<path d="M193.968 607.316C193.968 607.316 181.325 611.964 172.633 612.549C168.018 612.858 165.592 610.027 164.344 607.3C163.662 605.784 163.222 604.17 163.04 602.517L164.17 589.987L164.771 583.315L183.237 578.516L185.853 586.516L186.098 587.125C187.149 589.797 191.361 600.667 191.234 602.936C191.229 603.517 191.341 604.093 191.564 604.63C191.786 605.166 192.115 605.652 192.53 606.059C192.954 606.537 193.437 606.96 193.968 607.316Z" fill="white"/>
<path d="M280.328 600.944C280.36 601.324 280.322 601.707 280.217 602.074C280.217 602.074 253.177 606.588 247.646 602.074C246.086 600.756 244.268 599.778 242.309 599.203C240.349 598.629 238.291 598.47 236.267 598.738C236.267 598.738 225.805 599.023 224.058 595.576C223.331 594.129 223.521 591.323 223.972 588.556C224.431 585.963 225.043 583.4 225.805 580.88L226.224 580.548L228.713 578.548L257.855 577.686H258.076C257.934 583.647 267.969 590.485 267.969 590.485C278.629 594.438 280.202 598.904 280.328 600.944Z" fill="white"/>
<path opacity="0.1" d="M280.328 600.944C280.356 601.325 280.316 601.707 280.209 602.074C280.209 602.074 253.177 606.588 247.646 602.074C246.087 600.757 244.271 599.779 242.313 599.205C240.354 598.63 238.298 598.471 236.275 598.738C236.275 598.738 225.805 599.023 224.066 595.576C223.339 594.121 223.521 591.323 223.972 588.556C228.002 588.959 234.363 589.963 236.86 592.358C240.637 596.003 247.037 599.639 250.965 599.924C254.038 600.122 272.426 600.707 280.328 600.944Z" fill="black"/>
<path opacity="0.1" d="M193.968 607.316C193.968 607.316 181.325 611.964 172.633 612.549C168.018 612.857 165.592 610.027 164.352 607.292C167.568 608.375 172.032 609.513 174.379 608.47C177.161 607.237 187.022 606.438 192.554 606.098C192.975 606.559 193.45 606.968 193.968 607.316Z" fill="black"/>
<path d="M212.727 232.714C202.297 228.658 188.879 215.259 192.23 208.997C192.974 207.417 193.416 205.712 193.534 203.97C193.749 201.604 193.781 199.225 193.628 196.855C193.393 192.972 192.926 189.107 192.23 185.281C192.23 185.281 224.793 186.016 222.897 190.815C222.344 192.222 222.257 194.665 222.407 197.4C222.557 200.135 222.952 203.226 223.363 205.843C223.932 209.432 224.501 212.168 224.501 212.168C224.501 212.168 222.51 214.958 221.34 215.108C220.171 215.259 227.693 238.493 212.727 232.714Z" fill="#CF6F80"/>
<path opacity="0.1" d="M186.074 587.125L185.829 587.394C176.094 575.615 164.32 590.295 164.32 590.295L164.146 589.987L164.747 583.315L183.214 578.516L185.829 586.516L186.074 587.125Z" fill="black"/>
<path opacity="0.1" d="M258.084 578.516C258.084 578.516 250.973 578.366 247.18 581.718C243.387 585.07 225.054 582.445 225.845 581.718C226.079 581.357 226.22 580.944 226.255 580.516L228.745 578.516L257.887 577.654C257.997 578.184 258.084 578.516 258.084 578.516Z" fill="black"/>
<path d="M198.188 486.014C197.658 487.324 197.256 488.682 196.987 490.069C196.328 493.868 196.145 497.735 196.441 501.58C196.734 507.113 196.441 544.198 196.441 544.198C196.441 544.198 190.191 554.088 186.706 557.574C183.222 561.061 193.818 567.322 193.818 567.322C195.398 576.334 185.821 586.516 185.821 586.516C176.086 574.737 164.312 589.425 164.312 589.425C164.312 589.425 157.912 578.358 156.316 574.405C154.719 570.452 162.566 567.717 165.324 566.112C168.081 564.507 165.189 555.044 165.189 555.044C165.189 555.044 162.858 546.752 160.093 539.186C157.327 531.621 163.143 493.959 163.143 493.959C163.143 493.959 163.443 487.271 164.162 484.939C164.525 483.256 164.597 481.523 164.375 479.816C164.328 479.239 164.273 478.757 164.233 478.432C164.194 478.108 164.162 477.958 164.162 477.958L164.273 477.768L168.224 470.4C168.224 470.4 200.084 481.373 198.188 486.014Z" fill="#6C63FF"/>
<path d="M258.084 577.646C258.084 577.646 250.973 577.496 247.18 580.809C243.387 584.121 225.054 581.536 225.845 580.809C226.635 580.081 226.572 574.698 226.572 574.698C215.817 560.009 224.991 554.049 224.991 554.049C224.991 554.049 220.187 530.925 219.318 522.347C218.709 516.355 217.958 500.252 217.556 491.058C217.382 487.105 217.279 484.385 217.279 484.385L226.066 482.614L227.196 482.385L248.389 478.132C248.389 478.132 248.973 482.085 249.369 485.318C249.566 486.699 249.676 488.09 249.7 489.484C249.558 491.065 249.7 496.014 249.7 496.014L250.42 510.853C249.95 512.409 249.708 514.026 249.7 515.652C249.843 517.541 252.6 544.594 252.6 544.594C252.6 544.594 257.397 560.737 255.761 561.899C254.126 563.061 258.084 577.646 258.084 577.646Z" fill="#6C63FF"/>
<path opacity="0.1" d="M222.897 190.815C222.344 192.222 222.257 194.665 222.407 197.4C218.045 200.028 213.031 201.371 207.94 201.276C202.85 201.181 197.889 199.651 193.628 196.863C193.394 192.978 192.927 189.11 192.23 185.281C192.23 185.281 224.794 186 222.897 190.815Z" fill="black"/>
<path d="M235.485 173.344C235.491 176.192 235.043 179.024 234.157 181.731C232.177 187.798 228.118 192.969 222.696 196.33C217.274 199.692 210.839 201.027 204.528 200.101C198.217 199.175 192.436 196.047 188.207 191.269C183.979 186.491 181.575 180.372 181.42 173.992C181.42 173.771 181.42 173.565 181.42 173.344C181.358 169.753 182.012 166.185 183.344 162.85C184.675 159.514 186.656 156.478 189.173 153.916C191.69 151.355 194.691 149.321 198.002 147.932C201.312 146.544 204.866 145.829 208.456 145.829C212.046 145.829 215.6 146.544 218.911 147.932C222.222 149.321 225.223 151.355 227.739 153.916C230.256 156.478 232.238 159.514 233.569 162.85C234.9 166.185 235.554 169.753 235.493 173.344H235.485Z" fill="#CF6F80"/>
<path opacity="0.1" d="M212.727 232.714C202.297 228.659 188.879 215.259 192.23 208.998C192.974 207.418 193.416 205.712 193.534 203.97L207.812 215.709L216.647 222.959L223.363 205.851C223.932 209.44 224.501 212.176 224.501 212.176C224.501 212.176 222.51 214.966 221.34 215.116C220.171 215.267 227.693 238.493 212.727 232.714Z" fill="black"/>
<path d="M249.653 284.598L237.729 485.002L222.178 486.022L181.91 369.819L188.516 231.86L189.907 202.713L207.812 217.425L216.654 224.674L223.569 207.069L236.425 218.279L249.653 284.598Z" fill="#6C63FF"/>
<path opacity="0.1" d="M198.188 486.014C197.658 487.324 197.256 488.682 196.987 490.069C185.671 488.321 174.681 484.887 164.383 479.879L164.17 479.768L164.241 478.496L164.281 477.832L168.232 470.464C168.232 470.464 200.084 481.373 198.188 486.014Z" fill="black"/>
<path opacity="0.1" d="M226.248 490.101C223.355 490.593 220.437 490.926 217.508 491.097C217.334 487.144 217.231 484.425 217.231 484.425L226.018 482.654L226.248 490.101Z" fill="black"/>
<path opacity="0.1" d="M249.321 485.357C243.703 486.82 235.026 488.464 227.259 487.437L227.148 482.425L248.341 478.171C248.341 478.171 248.926 482.085 249.321 485.357Z" fill="black"/>
<path opacity="0.1" d="M227.117 488.354C194.719 493.888 165.047 478.021 165.047 478.021L165.332 472.646C165.332 472.646 166.067 411.702 164.028 407.03C161.989 402.358 160.401 378.665 161.555 375.029C162.708 371.392 157.343 316.86 157.343 316.86L156.474 294.725L124.661 281.831L138.884 252.169C140.805 248.011 142.457 243.733 143.831 239.362C146.304 231.663 157.785 224.097 157.785 224.097C157.785 224.097 169.559 216.539 174.213 216.824C178.868 217.108 184.968 210.136 184.968 210.136C189.472 198.649 193.549 203.851 193.549 203.851C193.549 204.396 193.549 203.851 193.328 205.551C191.748 218.16 218.883 258.004 219.27 258.707L221.854 321.682L224.47 401.378L227.117 488.354Z" fill="black"/>
<path d="M226.247 488.354C193.849 493.888 164.17 478.021 164.17 478.021L164.462 472.646C164.462 472.646 165.197 411.702 163.151 407.03C161.104 402.358 159.524 378.665 160.685 375.029C161.847 371.392 156.473 316.86 156.473 316.86L155.596 294.725L123.767 281.783L137.991 252.122C139.908 247.962 141.56 243.684 142.937 239.315C145.403 231.615 156.892 224.05 156.892 224.05C156.892 224.05 168.666 216.492 173.312 216.777C177.959 217.061 184.067 210.088 184.067 210.088C188.579 198.602 193.549 203.804 193.549 203.804C193.549 204.349 193.075 204.594 193.328 205.503C196.805 217.733 218.014 257.956 218.401 258.66L221.016 321.635L223.632 401.33L226.247 488.354Z" fill="white"/>
<path opacity="0.1" d="M217.516 260.454C214.031 259 195.572 237.916 195.572 237.916V233.117C194.901 231.536 190.91 232.5 187.67 233.607L189.061 204.46L190.641 205.772C194.102 217.994 217.113 259.751 217.516 260.454Z" fill="black"/>
<path d="M218.393 258.707C214.9 257.253 196.441 236.169 196.441 236.169V231.37C195.77 229.789 191.779 230.753 188.54 231.86L189.938 202.713L191.519 204.025C194.988 216.247 218.006 258.012 218.393 258.707Z" fill="white"/>
<path opacity="0.1" d="M165.047 363.858C165.482 363.858 187.576 361.534 187.576 361.534C187.576 361.534 200.953 387.851 200.076 394.255C199.199 400.658 197.611 406.326 192.23 405.322C186.849 404.318 163.269 406.113 163.269 406.113L165.047 363.858Z" fill="black"/>
<path d="M164.17 362.111C164.605 362.111 186.698 359.787 186.698 359.787C186.698 359.787 200.068 386.112 199.199 392.507C198.33 398.903 196.726 404.579 191.353 403.575C185.979 402.571 162.392 404.366 162.392 404.366L164.17 362.111Z" fill="white"/>
<path d="M180.819 349.755C180.819 349.755 201.096 360.656 201.53 363.985C201.965 367.313 191.21 362.53 188.887 361.953C187.358 361.584 185.802 361.341 184.233 361.226L168.737 361.645L180.819 349.755Z" fill="#CF6F80"/>
<path opacity="0.1" d="M211.858 261.814C213.036 261.814 213.992 260.858 213.992 259.68C213.992 258.501 213.036 257.545 211.858 257.545C210.68 257.545 209.725 258.501 209.725 259.68C209.725 260.858 210.68 261.814 211.858 261.814Z" fill="black"/>
<path d="M211.858 260.945C213.036 260.945 213.992 259.989 213.992 258.81C213.992 257.631 213.036 256.676 211.858 256.676C210.68 256.676 209.725 257.631 209.725 258.81C209.725 259.989 210.68 260.945 211.858 260.945Z" fill="#3F3D56"/>
<path opacity="0.1" d="M215.785 354.213C216.963 354.213 217.919 353.258 217.919 352.079C217.919 350.9 216.963 349.944 215.785 349.944C214.607 349.944 213.652 350.9 213.652 352.079C213.652 353.258 214.607 354.213 215.785 354.213Z" fill="black"/>
<path d="M215.785 353.336C216.963 353.336 217.919 352.38 217.919 351.202C217.919 350.023 216.963 349.067 215.785 349.067C214.607 349.067 213.652 350.023 213.652 351.202C213.652 352.38 214.607 353.336 215.785 353.336Z" fill="#3F3D56"/>
<path opacity="0.1" d="M213.984 308.014C215.162 308.014 216.117 307.058 216.117 305.879C216.117 304.701 215.162 303.745 213.984 303.745C212.805 303.745 211.85 304.701 211.85 305.879C211.85 307.058 212.805 308.014 213.984 308.014Z" fill="black"/>
<path d="M213.984 307.144C215.162 307.144 216.117 306.189 216.117 305.01C216.117 303.831 215.162 302.875 213.984 302.875C212.805 302.875 211.85 303.831 211.85 305.01C211.85 306.189 212.805 307.144 213.984 307.144Z" fill="#3F3D56"/>
<path d="M263.165 360.783C263.165 360.783 264.619 362.965 263.165 363.985C261.711 365.004 263.307 367.471 263.307 367.471C263.307 367.471 259.68 369.598 261.277 371.511C262.873 373.424 261.861 382.064 261.861 382.064L257.5 389.29C257.5 389.29 257.76 393.946 257.776 400.239C257.776 410.058 257.199 423.861 254.007 430.154L254.449 481.784C254.449 481.784 239.175 487.366 226.39 485.666L224.493 402.816C224.493 402.816 227.259 355.834 228.278 346.822C228.875 342.143 229.118 337.426 229.005 332.71C229.005 332.71 228.571 318.607 227.109 312.061C227.109 312.061 225.528 283.704 225.37 275.854C225.299 272.099 225.497 261.142 225.718 250.723C225.963 239.331 226.24 228.587 226.24 228.587L223.355 205.756C223.355 205.756 226.24 205.464 227.109 206.626C227.498 206.99 227.922 207.315 228.373 207.598C233.351 210.966 250.941 221.322 250.941 221.322C250.941 221.322 260.676 225.196 263.007 230.745C265.338 236.295 266.958 240.232 268.088 241.813C269.218 243.394 269.834 250.825 269.834 250.825C269.834 250.825 273.185 264.502 275.8 266.818C278.416 269.135 280.328 283.87 280.328 283.87L257.215 302.053C257.215 302.053 255.184 332.299 254.75 333.469C254.315 334.639 263.165 360.783 263.165 360.783Z" fill="white"/>
<path d="M264.042 360.783C264.042 360.783 265.488 362.965 264.042 363.985C262.596 365.005 264.176 367.471 264.176 367.471C264.176 367.471 260.573 369.621 262.154 371.534C263.734 373.448 262.738 382.088 262.738 382.088L258.376 389.314C258.376 389.314 258.637 393.97 258.661 400.263C258.661 410.082 258.084 423.885 254.892 430.177L255.326 481.808C255.326 481.808 240.028 487.389 227.259 485.69L225.37 402.84C225.37 402.84 228.136 355.858 229.155 346.846C229.752 342.167 229.993 337.449 229.874 332.734C229.874 332.734 229.44 318.631 227.986 312.085C227.986 312.085 226.405 283.728 226.239 275.878C226.168 272.123 226.374 261.166 226.587 250.746C226.832 239.355 227.109 228.611 227.109 228.611L223.3 205.472C223.3 205.472 227.109 205.472 227.986 206.65C228.371 207.018 228.795 207.344 229.25 207.622C234.228 210.99 251.826 221.346 251.826 221.346C251.826 221.346 261.553 225.22 263.884 230.769C266.215 236.319 267.835 240.256 268.973 241.837C270.111 243.418 270.711 250.849 270.711 250.849C270.711 250.849 274.062 264.526 276.677 266.842C279.293 269.158 281.181 283.863 281.181 283.863L258.068 302.045C258.068 302.045 256.037 332.292 255.595 333.462C255.152 334.632 264.042 360.783 264.042 360.783Z" fill="white"/>
<path opacity="0.1" d="M236.362 235.323L238.448 241.41L227.464 252.478C227.709 241.094 227.986 230.342 227.986 230.342L224.177 207.203C224.177 207.203 227.986 207.203 228.863 208.381C229.248 208.748 229.672 209.072 230.127 209.346L239.467 236.303L236.362 235.323Z" fill="black"/>
<path d="M235.485 233.576L237.579 239.663L226.595 250.731C226.84 239.339 227.116 228.595 227.116 228.595L223.3 205.456C223.3 205.456 227.117 205.456 227.986 206.634C228.373 207 228.797 207.325 229.25 207.606L238.598 234.556L235.485 233.576Z" fill="white"/>
<path opacity="0.1" d="M235.485 173.344C235.491 176.192 235.043 179.024 234.157 181.731C234.008 181.755 233.855 181.748 233.709 181.711C233.562 181.674 233.425 181.609 233.304 181.518C233.098 174.403 229.598 167.723 225.291 162.039C224.082 160.323 222.616 158.803 220.945 157.533C219.256 156.263 217.154 155.668 215.05 155.865C212.68 156.189 210.586 157.801 208.192 158.007C205.031 158.268 202.202 156.078 199.065 155.967C197.79 155.979 196.531 156.264 195.375 156.801C194.218 157.338 193.189 158.116 192.356 159.082C190.708 161.033 189.484 163.305 188.761 165.754C187.518 169.469 186.842 173.349 186.754 177.265C186.714 179.478 186.501 182.253 184.446 183.059C184.601 181.432 184.416 179.789 183.903 178.237C183.39 176.684 182.561 175.255 181.467 174.039L181.42 173.992C181.42 173.771 181.42 173.565 181.42 173.344C181.358 169.753 182.012 166.185 183.344 162.85C184.675 159.514 186.656 156.478 189.173 153.916C191.69 151.355 194.691 149.321 198.002 147.932C201.312 146.544 204.866 145.829 208.456 145.829C212.046 145.829 215.6 146.544 218.911 147.932C222.222 149.321 225.223 151.355 227.739 153.916C230.256 156.478 232.238 159.514 233.569 162.85C234.9 166.185 235.554 169.753 235.493 173.344H235.485Z" fill="black"/>
<path d="M219.649 130.393C215.543 128.461 210.873 128.096 206.516 129.366C204.328 130.014 202.265 131.065 200.045 131.595C195.304 132.741 189.772 131.5 185.703 134.275C183.443 135.856 182.084 138.354 180.819 140.781L177.659 146.805C175.936 150.102 174.198 153.454 173.479 157.082C172.76 160.711 173.194 164.774 175.494 167.691C177.169 169.818 179.642 171.154 181.46 173.154C182.548 174.371 183.374 175.799 183.886 177.35C184.397 178.901 184.582 180.541 184.431 182.166C186.493 181.376 186.691 178.593 186.738 176.38C186.826 172.464 187.503 168.584 188.745 164.869C189.466 162.419 190.691 160.146 192.34 158.197C193.174 157.231 194.203 156.454 195.36 155.917C196.516 155.38 197.774 155.095 199.049 155.082C202.21 155.193 205.047 157.375 208.176 157.114C210.546 156.916 212.648 155.296 215.035 154.979C217.139 154.78 219.241 155.375 220.93 156.648C222.6 157.916 224.064 159.436 225.268 161.154C229.582 166.838 233.083 173.502 233.288 180.633C234.181 181.289 235.469 180.435 235.912 179.423C236.354 178.411 236.37 177.225 236.931 176.261C237.579 175.146 238.819 174.553 239.791 173.715C242.257 171.589 242.873 168.008 242.778 164.759C242.684 161.509 242.051 158.213 242.668 155.019C243.039 153.058 243.877 151.224 244.335 149.287C244.793 147.351 244.849 145.177 243.766 143.509C242.186 141.058 238.859 140.576 235.959 140.346C232.664 140.062 229.716 140.425 227.615 137.651C226.628 136.203 225.517 134.843 224.296 133.587C223.877 133.176 219.649 130.567 219.649 130.393Z" fill="#512E4E"/>
<path opacity="0.1" d="M133.764 297.104L125.506 281.831L122.891 305.397C122.891 305.397 124.344 315.864 124.052 317.469C123.76 319.074 130.01 333.462 130.01 333.462C130.01 333.462 150.658 370.254 159.089 372.151L187.576 351.787L180.021 342.189C180.021 342.189 177.406 341.169 176.75 342.189C176.75 342.189 162.724 318.046 161.27 316.299C159.816 314.552 160.101 311.065 160.101 311.065C160.101 311.065 157.92 308.741 158.647 306.559C159.374 304.377 154.435 296.812 154.435 296.812L158.939 292.598L133.764 297.104Z" fill="black"/>
<path d="M125.941 280.092L123.76 281.831L121.144 305.397C121.144 305.397 122.598 315.864 122.306 317.469C122.013 319.074 128.272 333.462 128.272 333.462C128.272 333.462 148.911 370.254 157.343 372.151L185.837 351.786L178.275 342.189C178.275 342.189 175.659 341.169 175.004 342.189C175.004 342.189 160.978 318.046 159.524 316.299C158.07 314.552 158.362 311.065 158.362 311.065C158.362 311.065 156.181 308.741 156.908 306.559C157.635 304.377 152.689 296.812 152.689 296.812L157.193 292.598L125.941 280.092Z" fill="white"/>
<path opacity="0.1" d="M261.276 372.412C262.857 374.333 261.861 382.958 261.861 382.958L257.499 390.184C257.499 390.184 257.76 394.848 257.776 401.133L250.443 403.425C249.78 403.632 249.078 403.678 248.394 403.558C247.71 403.438 247.064 403.156 246.512 402.736C245.959 402.316 245.514 401.77 245.215 401.143C244.916 400.516 244.771 399.827 244.793 399.133L246.057 358.332L263.165 364.878C261.711 365.89 263.307 368.372 263.307 368.372C263.307 368.372 259.68 370.491 261.276 372.412Z" fill="black"/>
<path d="M262.154 371.534C263.734 373.455 262.739 382.088 262.739 382.088L258.377 389.314C258.377 389.314 258.637 393.97 258.661 400.263L251.194 402.595C250.545 402.797 249.857 402.841 249.188 402.723C248.518 402.605 247.887 402.329 247.346 401.917C246.805 401.506 246.37 400.971 246.077 400.357C245.784 399.744 245.642 399.069 245.663 398.389L246.935 357.463L264.05 364.008C262.588 365.02 264.185 367.495 264.185 367.495C264.185 367.495 260.573 369.621 262.154 371.534Z" fill="white"/>
<path d="M267.819 352.087C267.819 352.087 266.658 359.51 263.75 359.945C260.842 360.38 259.538 371.953 256.638 371.542C253.738 371.131 255.658 360.783 255.761 358.775C255.864 356.767 252.6 348.45 255.042 346.561C257.484 344.672 265.212 346.561 265.212 346.561L267.819 352.087Z" fill="#CF6F80"/>
<path opacity="0.1" d="M274.007 294.922L279.491 283.854C279.491 283.854 281.671 292.29 281.671 296.796C281.671 301.302 284.722 301.745 284.722 301.745C284.722 301.745 288.064 305.697 286.302 308.575C284.54 311.453 283.829 318.615 283.829 318.615C283.829 318.615 284.405 332.284 281.79 334.173C279.174 336.062 278.629 340.576 278.629 340.576C278.629 340.576 273.825 349.154 273.975 351.193C274.125 353.233 267.29 367.044 267.29 367.044C267.29 367.044 270.632 349.881 251.154 342.466C251.154 342.466 251.004 336.639 252.458 335.043C253.912 333.446 256.18 332.718 254.758 324.647C253.335 316.575 254.347 306.931 254.347 304.994C254.347 303.057 258.708 290.977 258.708 290.977L274.007 294.922Z" fill="black"/>
<path d="M276.377 282.273L281.166 283.855C281.166 283.855 283.355 292.29 283.355 296.796C283.355 301.302 286.405 301.745 286.405 301.745C286.405 301.745 289.747 305.697 287.985 308.575C286.223 311.453 285.52 318.615 285.52 318.615C285.52 318.615 286.097 332.284 283.481 334.173C280.865 336.062 280.281 340.576 280.281 340.576C280.281 340.576 275.484 349.154 275.634 351.194C275.785 353.233 268.941 367.044 268.941 367.044C268.941 367.044 272.292 349.881 252.806 342.466C252.806 342.466 252.664 336.64 254.118 335.043C255.571 333.446 257.839 332.718 256.417 324.647C254.995 316.575 256.006 306.931 256.006 304.994C256.006 303.057 260.368 290.977 260.368 290.977L276.377 282.273Z" fill="white"/>
<path opacity="0.1" d="M170.61 569.14C170.61 569.14 178.243 564.341 183.253 567.828C188.263 571.314 170.61 569.14 170.61 569.14Z" fill="black"/>
<path opacity="0.1" d="M229.922 554.301C229.922 554.301 236.678 553.432 242.352 559.543C248.025 565.654 229.922 554.301 229.922 554.301Z" fill="black"/>
<g opacity="0.1">
<path opacity="0.1" d="M239.807 171.984C238.835 172.822 237.587 173.423 236.939 174.537C236.386 175.494 236.37 176.672 235.927 177.7C235.485 178.727 234.197 179.565 233.304 178.917C233.098 171.802 229.59 165.122 225.283 159.43C224.079 157.712 222.616 156.192 220.945 154.924C219.254 153.652 217.149 153.057 215.042 153.256C212.672 153.58 210.586 155.193 208.192 155.39C205.031 155.659 202.194 153.469 199.057 153.359C197.782 153.371 196.525 153.657 195.369 154.195C194.213 154.734 193.186 155.513 192.356 156.481C190.707 158.428 189.482 160.698 188.761 163.146C187.519 166.86 186.842 170.74 186.754 174.656C186.706 176.862 186.501 179.613 184.462 180.435C184.51 181.019 184.51 181.606 184.462 182.19C186.517 181.399 186.722 178.617 186.769 176.403C186.858 172.487 187.534 168.607 188.777 164.893C189.498 162.443 190.722 160.17 192.372 158.221C193.204 157.255 194.231 156.478 195.387 155.941C196.542 155.404 197.799 155.119 199.073 155.106C202.234 155.216 205.078 157.398 208.207 157.137C210.578 156.94 212.68 155.319 215.058 155.003C217.165 154.804 219.27 155.399 220.961 156.671C222.632 157.939 224.095 159.459 225.299 161.177C229.606 166.861 233.114 173.526 233.32 180.656C234.213 181.312 235.501 180.459 235.943 179.447C236.386 178.435 236.401 177.249 236.954 176.285C237.602 175.17 238.851 174.577 239.823 173.739C242.288 171.612 242.905 168.031 242.81 164.782C242.81 164.679 242.81 164.577 242.81 164.482C242.66 167.296 241.909 170.166 239.807 171.984Z" fill="black"/>
<path opacity="0.1" d="M181.475 171.423C179.658 169.423 177.177 168.087 175.509 165.968C174.105 164.092 173.303 161.835 173.21 159.493C172.961 162.419 173.778 165.336 175.509 167.707C177.177 169.834 179.658 171.17 181.475 173.17C183.22 175.126 184.268 177.606 184.454 180.222C184.575 178.63 184.374 177.03 183.862 175.518C183.35 174.006 182.538 172.613 181.475 171.423Z" fill="black"/>
<path opacity="0.1" d="M244.351 147.556C243.885 149.493 243.055 151.335 242.676 153.287C242.451 154.592 242.369 155.918 242.431 157.24C242.457 156.487 242.539 155.736 242.676 154.995C243.055 153.035 243.885 151.2 244.351 149.264C244.623 148.195 244.711 147.089 244.612 145.991C244.562 146.518 244.475 147.041 244.351 147.556Z" fill="black"/>
</g>
<path d="M481.116 40.6499H480.523C456.944 40.6499 436.091 53.1327 424.095 71.5525C412.1 53.1327 391.247 40.6499 367.668 40.6499H367.075C349.38 40.8186 332.466 47.9672 320.009 60.5423C307.552 73.1173 300.559 90.1026 300.549 107.807C300.549 129.792 310.174 160.987 328.941 186.656C364.697 235.568 424.095 278.36 424.095 278.36C424.095 278.36 483.494 235.576 519.242 186.656C538.017 160.987 547.634 129.792 547.634 107.807C547.624 90.104 540.632 73.1199 528.177 60.545C515.722 47.9702 498.81 40.8207 481.116 40.6499ZM472.637 190.419C469.951 190.409 467.332 189.587 465.122 188.06C462.912 186.534 461.216 184.374 460.255 181.866H446.158C445.229 181.86 444.326 181.564 443.574 181.02C442.821 180.476 442.258 179.71 441.962 178.83L437.631 165.778L423.929 213.677C423.663 214.599 423.104 215.41 422.337 215.987C421.571 216.565 420.638 216.878 419.678 216.879H419.402C418.401 216.831 417.446 216.44 416.698 215.772C415.951 215.105 415.454 214.201 415.293 213.211L401.172 128.243L390.852 178.522C390.615 179.477 390.066 180.325 389.291 180.931C388.516 181.537 387.561 181.866 386.577 181.866H366.72C366.124 181.891 365.53 181.795 364.973 181.585C364.415 181.374 363.906 181.053 363.476 180.641C363.046 180.228 362.704 179.733 362.47 179.185C362.236 178.636 362.116 178.047 362.116 177.45C362.116 176.854 362.236 176.265 362.47 175.716C362.704 175.168 363.046 174.673 363.476 174.26C363.906 173.848 364.415 173.527 364.973 173.316C365.53 173.106 366.124 173.01 366.72 173.035H383.1L397.719 105.435C397.959 104.436 398.538 103.551 399.358 102.932C400.178 102.312 401.188 101.997 402.214 102.04C403.241 102.083 404.221 102.481 404.986 103.167C405.752 103.853 406.255 104.783 406.411 105.799L420.832 192.475L433.111 149.619C433.367 148.717 433.908 147.921 434.653 147.351C435.397 146.781 436.307 146.468 437.244 146.457H437.331C438.26 146.457 439.165 146.751 439.917 147.296C440.669 147.841 441.23 148.61 441.519 149.493L449.35 173.059H460.081C460.844 170.74 462.232 168.677 464.093 167.098C465.954 165.518 468.215 164.484 470.626 164.109C473.037 163.734 475.505 164.033 477.758 164.973C480.01 165.912 481.959 167.456 483.389 169.434C484.82 171.412 485.677 173.747 485.865 176.181C486.053 178.615 485.565 181.054 484.455 183.228C483.345 185.402 481.656 187.227 479.575 188.502C477.494 189.776 475.101 190.451 472.661 190.451L472.637 190.419Z" fill="#6C63FF"/>
</g>
<defs>
<linearGradient id="paint0_linear_164_369" x1="204.92" y1="612.573" x2="204.92" y2="126.116" gradientUnits="userSpaceOnUse">
<stop stop-color="#808080" stop-opacity="0.25"/>
<stop offset="0.54" stop-color="#808080" stop-opacity="0.12"/>
<stop offset="1" stop-color="#808080" stop-opacity="0.1"/>
</linearGradient>
<clipPath id="clip0_164_369">
<rect width="580" height="619" fill="white"/>
</clipPath>
</defs>
</svg>
