<svg width="708" height="574" viewBox="0 0 708 574" fill="none" xmlns="http://www.w3.org/2000/svg">
<path d="M188.573 348.953C186.667 348.953 184.741 348.924 182.851 348.867L182.894 347.541C185.608 347.623 188.378 347.646 191.105 347.609L191.123 348.936C190.274 348.947 189.424 348.953 188.573 348.953ZM199.391 348.645L199.31 347.321C202.028 347.166 204.781 346.949 207.493 346.674L207.636 347.993C204.904 348.27 202.13 348.49 199.391 348.645ZM174.591 348.439C171.85 348.236 169.08 347.97 166.358 347.648L166.526 346.331C169.227 346.65 171.975 346.915 174.696 347.116L174.591 348.439ZM215.841 346.98L215.635 345.668C218.336 345.272 221.057 344.813 223.722 344.302L223.99 345.603C221.304 346.118 218.563 346.581 215.841 346.98ZM158.173 346.494C155.465 346.051 152.732 345.542 150.05 344.98L150.341 343.683C153.003 344.241 155.715 344.746 158.402 345.186L158.173 346.494ZM232.065 343.866L231.735 342.578C234.386 341.945 237.052 341.245 239.658 340.499L240.049 341.771C237.422 342.524 234.736 343.229 232.065 343.866ZM142.008 343.105C139.352 342.423 136.679 341.673 134.064 340.874L134.478 339.61C137.073 340.402 139.725 341.146 142.361 341.823L142.008 343.105ZM247.924 339.323L247.473 338.07C250.046 337.207 252.633 336.273 255.164 335.295L255.674 336.527C253.124 337.512 250.517 338.453 247.924 339.323H247.924ZM126.214 338.284C123.635 337.369 121.039 336.381 118.5 335.348L119.033 334.125C121.553 335.15 124.128 336.13 126.688 337.039L126.214 338.284ZM263.265 333.396L262.696 332.188C265.167 331.104 267.65 329.947 270.077 328.749L270.702 329.931C268.257 331.138 265.755 332.304 263.265 333.396H263.265ZM277.967 326.139L277.287 324.987C279.656 323.682 282.021 322.31 284.315 320.908L285.049 322.029C282.738 323.442 280.355 324.825 277.968 326.139H277.967ZM291.931 317.61L291.144 316.522C293.375 315.017 295.602 313.441 297.761 311.838L298.599 312.891C296.423 314.506 294.179 316.094 291.931 317.61ZM82.4967 315.741C80.2789 314.186 78.0633 312.556 75.9112 310.897L76.7687 309.86C78.9043 311.507 81.1031 313.124 83.3038 314.667L82.4967 315.741ZM305.038 307.883L304.152 306.868C306.232 305.174 308.301 303.408 310.304 301.62L311.236 302.595C309.219 304.396 307.133 306.175 305.038 307.883H305.038ZM69.5626 305.769C67.4971 304.023 65.445 302.206 63.4636 300.369L64.415 299.412C66.3816 301.235 68.418 303.038 70.4678 304.772L69.5626 305.769ZM317.18 297.038L316.202 296.106C318.119 294.231 320.015 292.29 321.837 290.338L322.858 291.225C321.022 293.193 319.112 295.148 317.18 297.038ZM57.6269 294.708C55.7318 292.784 53.8601 290.795 52.064 288.797L53.1019 287.928C54.8843 289.911 56.7416 291.884 58.6226 293.794L57.6269 294.708ZM328.256 285.169L327.194 284.326C328.926 282.291 330.631 280.192 332.264 278.084L333.364 278.879C331.719 281.002 330.001 283.119 328.256 285.169L328.256 285.169ZM46.7865 282.65C45.0847 280.573 43.4089 278.43 41.8057 276.278L42.9208 275.503C44.512 277.638 46.1749 279.765 47.8641 281.827L46.7865 282.65ZM338.169 272.369L337.033 271.624C338.565 269.445 340.066 267.203 341.493 264.958L342.665 265.652C341.226 267.914 339.713 270.174 338.169 272.369L338.169 272.369ZM37.1325 269.696C35.6353 267.479 34.1699 265.199 32.7767 262.916L33.9602 262.242C35.3431 264.508 36.7974 266.771 38.2832 268.97L37.1325 269.696ZM346.837 258.742L345.634 258.101C346.954 255.796 348.235 253.429 349.445 251.065L350.677 251.653C349.458 254.034 348.166 256.42 346.837 258.742ZM354.175 244.399L352.916 243.866C354.011 241.452 355.063 238.979 356.042 236.517L357.325 236.992C356.338 239.474 355.278 241.965 354.175 244.399ZM21.7041 241.536C20.6507 239.095 19.6419 236.597 18.7059 234.112L19.9976 233.659C20.9262 236.125 21.9272 238.603 22.9722 241.025L21.7041 241.536ZM360.117 229.451L358.813 229.034C359.67 226.539 360.479 223.989 361.217 221.454L362.541 221.813C361.796 224.368 360.981 226.938 360.117 229.451ZM16.059 226.544C15.2415 224.015 14.4732 221.432 13.7757 218.865L15.1049 218.528C15.797 221.076 16.5596 223.639 17.3707 226.148L16.059 226.544ZM364.596 214.075L363.257 213.774C363.872 211.217 364.435 208.606 364.929 206.014L366.281 206.253C365.783 208.866 365.216 211.497 364.596 214.075V214.075ZM11.8622 211.094C11.2892 208.502 10.7705 205.862 10.321 203.245L11.6763 203.028C12.1229 205.625 12.6375 208.245 13.2061 210.816L11.8622 211.094ZM367.59 198.367L366.228 198.187C366.598 195.588 366.91 192.939 367.156 190.311L368.525 190.43C368.277 193.078 367.962 195.748 367.59 198.367V198.367ZM9.1542 195.338C8.83013 192.711 8.5641 190.036 8.36314 187.387L9.73391 187.29C9.93285 189.92 10.1972 192.574 10.5189 195.181L9.1542 195.338ZM369.084 182.461L367.712 182.402C367.834 179.773 367.896 177.106 367.896 174.477H369.27C369.27 177.126 369.208 179.813 369.084 182.461ZM7.94681 179.409C7.89985 177.782 7.87604 176.122 7.87569 174.477C7.87569 173.455 7.88474 172.436 7.90286 171.419L9.27698 171.443C9.25887 172.452 9.24981 173.463 9.24981 174.477C9.25015 176.11 9.27397 177.757 9.32026 179.372L7.94681 179.409ZM9.60307 163.522L8.23164 163.439C8.40306 160.788 8.63992 158.11 8.9348 155.48L10.3009 155.623C10.008 158.233 9.77348 160.89 9.60305 163.522H9.60307ZM367.009 155.427C366.734 152.811 366.357 151.536 365.958 148.931L367.318 148.738C367.719 151.362 368.063 153.365 368.34 156.001L367.009 155.427ZM11.3707 147.764L10.0127 147.561C10.4337 144.936 10.9228 142.29 11.4666 139.697L12.8133 139.96C12.2738 142.534 11.7884 145.159 11.3707 147.764ZM364.572 141.119C364.048 138.531 363.456 135.926 362.814 133.376L364.149 133.062C364.796 135.631 365.392 138.257 365.92 140.865L364.572 141.119ZM14.6255 132.229L13.2927 131.906C13.9599 129.336 14.699 126.745 15.4894 124.204L16.8051 124.586C16.0211 127.107 15.2878 129.679 14.6255 132.229ZM360.688 125.718C359.922 123.192 359.084 120.651 358.199 118.164L359.498 117.733C360.391 120.238 361.235 122.8 362.007 125.345L360.688 125.718ZM19.3558 117.028L18.0595 116.588C18.9727 114.079 19.9586 111.559 20.9899 109.097L22.264 109.595C21.2405 112.038 20.2619 114.539 19.3558 117.028ZM355.352 110.729C354.349 108.287 353.276 105.836 352.161 103.445L353.414 102.9C354.538 105.31 355.62 107.779 356.629 110.24L355.352 110.729ZM25.5232 102.302L24.2746 101.748C25.4222 99.3344 26.6437 96.9144 27.9051 94.5548L29.1263 95.1632C27.8743 97.5049 26.6622 99.9065 25.5232 102.302ZM348.627 96.3073C347.397 93.965 346.094 91.6178 344.754 89.3318L345.95 88.6781C347.3 90.9819 348.613 93.3469 349.852 95.7074L348.627 96.3073ZM33.0651 88.1942L31.8742 87.5321C33.245 85.2338 34.6905 82.9333 36.171 80.6949L37.3291 81.4089C35.86 83.6303 34.4252 85.9134 33.0651 88.1942ZM340.554 82.5319C339.102 80.3 337.582 78.0766 336.035 75.9231L337.164 75.167C338.722 77.337 340.255 79.5773 341.717 81.8264L340.554 82.5319ZM41.9097 74.8207L40.7865 74.0563C42.3707 71.8869 44.0269 69.7247 45.7104 67.6295L46.796 68.4426C45.1256 70.5222 43.4814 72.6679 41.9097 74.8207ZM331.207 69.5186C329.551 67.4244 327.826 65.3425 326.08 63.3309L327.133 62.4787C328.893 64.5058 330.63 66.6033 332.299 68.7134L331.207 69.5186ZM51.9775 62.2882L50.9314 61.4279C52.7091 59.4117 54.562 57.405 56.4383 55.4633L57.4428 56.3684C55.5808 58.2954 53.7421 60.2873 51.9775 62.2882ZM320.667 57.3736C318.821 55.4335 316.906 53.5107 314.976 51.6591L315.945 50.7178C317.89 52.5839 319.819 54.521 321.678 56.4756L320.667 57.3736ZM63.1798 50.697L62.219 49.7485C64.1839 47.8924 66.2172 46.0573 68.262 44.2945L69.1771 45.2845C67.1478 47.0337 65.1299 48.8548 63.1798 50.697ZM309.023 46.1992C307 44.4277 304.911 42.6804 302.815 41.006L303.691 39.9837C305.803 41.6707 307.908 43.4313 309.946 45.2164L309.023 46.1992ZM75.4221 40.1411L74.5546 39.1123C76.6798 37.4412 78.8762 35.793 81.083 34.2135L81.9016 35.2792C79.7112 36.8471 77.5313 38.4826 75.4221 40.1411ZM88.6014 30.7092L87.8345 29.6085C90.1091 28.1308 92.4507 26.6838 94.7947 25.3067L95.5086 26.4405C93.1827 27.8068 90.8589 29.2431 88.6014 30.7092ZM102.609 22.4821L101.949 21.3179C104.356 20.0464 106.823 18.8129 109.283 17.651L109.887 18.843C107.446 19.9959 104.997 21.22 102.609 22.4821ZM268.445 19.408C266 18.2317 263.496 17.0954 261.001 16.0307L261.557 14.8172C264.071 15.8901 266.595 17.0352 269.058 18.2204L268.445 19.408ZM117.327 15.5309L116.781 14.3135C119.296 13.261 121.868 12.2517 124.427 11.3133L124.914 12.5539C122.375 13.4849 119.823 14.4865 117.327 15.5309ZM253.401 12.987C250.857 12.0344 248.253 11.1254 245.661 10.2858L246.098 9.02761C248.71 9.87404 251.334 10.7898 253.898 11.7502L253.401 12.987ZM132.655 9.91099L132.227 8.65025C134.838 7.82358 137.502 7.04518 140.145 6.33739L140.513 7.61562C137.89 8.31822 135.246 9.09047 132.655 9.91099ZM237.819 7.93825C235.198 7.21686 232.525 6.54503 229.874 5.94155L230.189 4.65036C232.861 5.25838 235.554 5.93539 238.196 6.66197L237.819 7.93825ZM148.472 5.67236L148.166 4.37891C150.843 3.78838 153.57 3.25034 156.271 2.77999L156.516 4.08543C153.835 4.55254 151.129 5.08638 148.472 5.67236ZM221.842 4.30116C219.166 3.81625 216.441 3.38477 213.741 3.01873L213.931 1.70487C216.652 2.07382 219.399 2.50854 222.095 2.99702L221.842 4.30116ZM164.626 2.85742L164.445 1.54227C167.165 1.19178 169.931 0.896997 172.667 0.667013L172.786 1.98864C170.071 2.21733 167.326 2.50951 164.626 2.85742ZM205.586 2.09619C202.88 1.85 200.125 1.66018 197.397 1.53287L197.465 0.207383C200.212 0.335984 202.988 0.527106 205.715 0.775261L205.586 2.09619ZM180.98 1.47975L180.922 0.154257C183.447 0.052543 186.021 0.000711176 188.573 6.10352e-05L189.195 0.00103662L189.191 1.32785L188.573 1.32688C186.041 1.32749 183.486 1.379 180.98 1.47973V1.47975Z" fill="#3F3D56"/>
<path d="M409.655 62.4972V492.519C409.649 497.641 407.539 502.552 403.786 506.173C400.033 509.794 394.946 511.829 389.641 511.83H208.84C206.212 511.835 203.608 511.339 201.179 510.37C198.749 509.401 196.542 507.979 194.683 506.185C192.823 504.391 191.349 502.26 190.344 499.915C189.339 497.57 188.823 495.057 188.826 492.519V62.4972C188.826 59.9593 189.343 57.4462 190.349 55.1015C191.355 52.7568 192.829 50.6263 194.688 48.8318C196.546 47.0372 198.752 45.6137 201.181 44.6427C203.609 43.6716 206.212 43.1718 208.84 43.1721H235.897V46.5223C235.896 50.7423 237.632 54.7896 240.721 57.7742C243.811 60.7588 248.002 62.4362 252.372 62.4374H344.329C347.847 62.4447 351.273 61.3558 354.099 59.3327C354.67 58.9315 355.212 58.4926 355.72 58.0191C357.33 56.5351 358.61 54.7508 359.484 52.7746C360.358 50.7983 360.808 48.6712 360.805 46.5223V43.1721H389.641C392.269 43.1713 394.872 43.6706 397.301 44.6415C399.729 45.6124 401.936 47.0359 403.794 48.8305C405.653 50.6252 407.127 52.7559 408.133 55.1008C409.138 57.4458 409.655 59.9591 409.655 62.4972Z" fill="#3F3D56"/>
<path d="M383.222 198.191H215.259V321.585H383.222V198.191Z" fill="url(#paint0_linear_159_49)"/>
<path d="M126.812 177.4C141.766 177.71 153.663 188.174 153.663 188.174C153.663 188.174 141.313 198.136 126.358 197.826C111.404 197.516 99.5077 187.052 99.5077 187.052C99.5077 187.052 111.858 177.09 126.812 177.4Z" fill="url(#paint1_linear_159_49)"/>
<path d="M51.6285 128.11C65.1392 134.308 80.6317 130.105 80.6317 130.105C80.6317 130.105 74.2189 115.854 60.7082 109.656C47.1975 103.458 31.7051 107.661 31.7051 107.661C31.7051 107.661 38.1178 121.912 51.6285 128.11Z" fill="url(#paint2_linear_159_49)"/>
<path d="M53.002 121.951C67.8978 120.637 80.9361 129.744 80.9361 129.744C80.9361 129.744 69.8235 140.983 54.9277 142.297C40.0319 143.611 26.9936 134.504 26.9936 134.504C26.9936 134.504 38.1062 123.266 53.002 121.951Z" fill="#3F3D56"/>
<path d="M107.605 124.441C106.178 138.818 115.552 151.448 115.552 151.448C115.552 151.448 127.24 140.768 128.668 126.391C130.096 112.014 120.722 99.3845 120.722 99.3845C120.722 99.3845 109.033 110.064 107.605 124.441Z" fill="#3F3D56"/>
<path d="M177.757 212.615C169.944 224.931 172.632 240.251 172.632 240.251C172.632 240.251 187.988 235.603 195.801 223.287C203.614 210.97 200.926 195.65 200.926 195.65C200.926 195.65 185.57 200.299 177.757 212.615Z" fill="#3F3D56"/>
<path d="M155.091 346.523L156.23 345.78C152.216 340.156 150.025 333.508 149.934 326.679C149.966 316.69 155.047 307.45 159.962 298.515C160.874 296.856 161.783 295.203 162.658 293.551C166.329 286.814 169.255 279.722 171.386 272.393C179.009 245.041 171.504 212.77 151.311 186.069C135.292 164.887 111.412 146.365 78.3079 129.443L77.6651 130.616C110.581 147.441 134.307 165.836 150.201 186.852C170.151 213.231 177.575 245.081 170.059 272.048C167.952 279.288 165.062 286.293 161.435 292.947C160.563 294.593 159.657 296.24 158.748 297.893C153.756 306.97 148.593 316.357 148.56 326.675C148.651 333.77 150.924 340.679 155.091 346.523Z" fill="#3F3D56"/>
<path d="M13.0545 131.187C20.2641 131.187 26.1086 125.543 26.1086 118.582C26.1086 111.621 20.2641 105.977 13.0545 105.977C5.84483 105.977 0.000274658 111.621 0.000274658 118.582C0.000274658 125.543 5.84483 131.187 13.0545 131.187Z" fill="#3F3D56"/>
<path d="M196.817 323.187L114.872 316.593V200.544L196.817 196.589V323.187Z" fill="url(#paint3_linear_159_49)"/>
<path d="M401.663 323.187L483.608 316.593V200.544L401.663 196.589V323.187Z" fill="url(#paint4_linear_159_49)"/>
<path d="M327.724 244.506C325.287 242.472 322.282 241.178 319.086 240.786C315.89 240.394 312.645 240.92 309.758 242.3C307.25 243.471 304.552 244.217 301.783 244.503C301.714 238.711 302.815 232.961 305.025 227.576L305.387 226.673H300.571L300.433 227.161C299.896 229.065 299.473 230.998 299.167 232.949C298.906 232.103 298.569 231.281 298.159 230.493C294.781 224.025 286.975 221.38 286.644 221.271L285.979 221.051L285.766 221.698C285.661 222.02 283.224 229.653 286.602 236.121C289.02 240.751 293.708 243.422 296.297 244.606C293.02 244.402 289.817 243.574 286.872 242.171C285.036 241.257 282.97 240.862 280.912 241.03C278.853 241.197 276.886 241.922 275.234 243.12C266.242 249.718 261.084 259.39 261.084 269.656C261.084 283.141 270.129 295.492 284.127 301.119C285.39 301.625 286.744 301.884 288.111 301.883C290.009 301.883 291.873 301.39 293.505 300.454C295.675 299.236 298.139 298.591 300.65 298.586C303.16 298.582 305.627 299.216 307.802 300.426C309.208 301.227 310.788 301.702 312.417 301.813C314.046 301.923 315.679 301.667 317.187 301.064C331.104 295.415 340.096 283.086 340.096 269.656C340.096 260.042 335.702 251.111 327.724 244.506ZM301.622 227.999H303.391C301.402 233.143 300.388 238.591 300.398 244.081H300.082C299.656 238.675 300.177 233.238 301.622 227.999ZM287.829 235.523C285.264 230.614 286.389 224.761 286.886 222.787C288.826 223.573 294.362 226.171 296.932 231.09C299.496 235.999 298.372 241.85 297.874 243.826C295.934 243.038 290.393 240.432 287.829 235.523ZM316.655 299.841C315.343 300.365 313.924 300.587 312.508 300.49C311.093 300.393 309.72 299.979 308.499 299.282C306.112 297.952 303.403 297.254 300.647 297.26C297.89 297.265 295.185 297.974 292.803 299.314C291.585 300.014 290.214 300.431 288.8 300.532C287.386 300.632 285.967 300.414 284.655 299.894C271.171 294.474 262.458 282.604 262.458 269.656C262.458 259.808 267.418 250.521 276.066 244.176C277.725 242.966 279.748 242.314 281.827 242.319C283.363 242.318 284.876 242.671 286.242 243.35C290.006 245.084 294.119 245.996 298.289 246.02C302.46 246.044 306.584 245.179 310.369 243.488C313.015 242.225 315.988 241.743 318.916 242.103C321.844 242.463 324.596 243.649 326.829 245.513C334.498 251.862 338.722 260.436 338.722 269.656C338.722 282.551 330.06 294.399 316.655 299.841Z" fill="white"/>
<path d="M155.62 231.968V230.41H156.261V225.558C156.264 225.198 156.164 224.845 155.972 224.536C155.781 224.228 155.505 223.976 155.175 223.808C152.339 222.38 149.292 222.381 146.117 223.815C145.767 223.976 145.471 224.229 145.264 224.546C145.057 224.863 144.947 225.23 144.948 225.605V230.41H145.589V231.82C143.229 232.459 141.152 233.827 139.675 235.715C138.198 237.604 137.403 239.908 137.413 242.274V252.773L138.634 253.167L137.413 253.952V257.107L138.634 257.501L137.413 258.287V261.442L138.634 261.835L137.413 262.621V286.651C137.415 288.526 138.187 290.323 139.56 291.648C140.932 292.974 142.794 293.719 144.735 293.722H155.529C157.466 293.72 159.323 292.976 160.692 291.653C162.062 290.331 162.832 288.538 162.834 286.668V262.621L161.613 261.835L162.834 261.442V258.287L161.613 257.501L162.834 257.107V253.952L161.613 253.167L162.834 252.773V241.732C162.826 239.584 162.128 237.491 160.836 235.742C159.543 233.993 157.721 232.674 155.62 231.968ZM146.699 225.017C149.505 223.751 152.07 223.741 154.539 224.985C154.645 225.041 154.734 225.124 154.795 225.225C154.856 225.326 154.888 225.441 154.887 225.558V228.155H146.322V225.605C146.321 225.482 146.356 225.362 146.422 225.258C146.489 225.154 146.585 225.071 146.699 225.017ZM161.46 251.817L158.513 252.766L161.46 254.662V256.151L158.513 257.1L161.46 258.997V260.486L158.513 261.434L161.46 263.331V286.668C161.458 288.186 160.833 289.642 159.721 290.715C158.609 291.789 157.101 292.393 155.529 292.395H144.735C143.158 292.393 141.646 291.787 140.531 290.711C139.416 289.634 138.789 288.174 138.787 286.652V263.331L141.734 261.434L138.787 260.486V258.997L141.734 257.1L138.787 256.151V254.662L141.734 252.766L138.787 251.817V242.274C138.778 240.117 139.531 238.021 140.92 236.332C142.309 234.643 144.253 233.461 146.431 232.981L146.963 232.862V230.41H154.246V232.951L154.741 233.09C156.676 233.64 158.374 234.778 159.585 236.335C160.795 237.892 161.453 239.785 161.46 241.732V251.817Z" fill="white"/>
<path d="M478.583 250.137L475.123 249.469L475.938 247.896L474.351 247.589L474.625 245.996L472.893 245.717V244.206L471.487 243.818L472.822 242.208H470.506L470.99 241.042L469.278 240.767L469.859 238.8H468.006V236.966H467.319C465.155 236.966 463.948 239.448 463.551 240.442C451.602 242.455 416.906 265.66 412.946 268.328C411.3 267.813 408.86 269.021 408.351 269.289L407.544 269.714L408.708 270.837L408.361 271.841L410.496 272.614L410.028 273.742L411.373 274.825L410.165 275.7L411.983 276.754L411.663 278.293L413.694 278.573V280.114L414.873 280.342L414.285 282.331H415.594V283.904H416.871L417.45 285.579L418.045 285.464C419.427 285.197 420.611 283.351 421.074 282.532C432.582 280.549 468.112 256.411 471.571 254.048C475.608 254.515 477.092 253.473 477.251 253.351L477.908 252.843L476.339 251.581L478.583 250.137ZM471.483 252.699L471.215 252.665L470.994 252.816C470.602 253.085 431.636 279.741 420.527 281.273L420.171 281.322L420.01 281.633C419.584 282.471 419.009 283.231 418.311 283.877L417.862 282.577H416.968V281.004H416.106L416.604 279.324L415.068 279.027V277.423L413.297 277.178L413.521 276.097L412.624 275.577L413.587 274.879L411.675 273.341L412.293 271.848L410.084 271.048L410.281 270.479L409.854 270.066C410.886 269.652 412.134 269.344 412.67 269.654L413.053 269.876L413.418 269.628C413.808 269.364 452.509 243.227 464.154 241.694L464.589 241.637L464.719 241.232C464.919 240.605 465.63 239.02 466.632 238.478V240.127H468.038L467.533 241.831L469.079 242.08L468.476 243.535H469.962L469.124 244.546L471.519 245.207V246.841L473.045 247.087L472.777 248.639L473.905 248.856L473.09 250.429L475.06 250.81L474.046 251.463L475.504 252.637C474.179 252.897 472.816 252.918 471.483 252.699Z" fill="white"/>
<path d="M299.24 377.974C310.244 377.974 319.165 369.361 319.165 358.736C319.165 348.11 310.244 339.497 299.24 339.497C288.236 339.497 279.315 348.11 279.315 358.736C279.315 369.361 288.236 377.974 299.24 377.974Z" fill="url(#paint5_linear_159_49)"/>
<path d="M311.785 356.836H301.208V346.622H297.272V356.836H286.695V360.636H297.272V370.849H301.208V360.636H311.785V356.836Z" fill="white"/>
<path d="M362.082 359.399L351.776 354.755V357.409H327.729V361.389H351.776V364.043L362.082 359.399Z" fill="white"/>
<path d="M236.399 359.399L246.705 354.755V357.409H270.752V361.389H246.705V364.043L236.399 359.399Z" fill="white"/>
<path d="M551.048 511.983H47.4323V513.31H551.048V511.983Z" fill="#3F3D56"/>
<path d="M365.198 105.977H233.282V107.304H365.198V105.977Z" fill="white"/>
<path d="M365.517 468.198H233.602V469.525H365.517V468.198Z" fill="white"/>
<path d="M577.476 337.175L574.041 349.78C574.041 349.78 561.674 376.316 574.041 377.643C586.408 378.97 587.095 343.146 587.095 343.146L577.476 337.175Z" fill="#A0616A"/>
<path d="M598.775 246.288L574.041 340.492C574.041 340.492 583.66 343.146 588.469 346.463L598.775 246.288Z" fill="#D0CDE1"/>
<path d="M676.413 317.936L683.284 420.764C683.284 420.764 699.773 461.232 699.086 499.71C699.086 499.71 692.903 514.968 697.712 517.622C702.521 520.276 705.27 522.266 702.521 524.256C699.773 526.246 697.712 530.89 699.773 532.217C701.834 533.544 702.521 535.534 701.834 535.534H681.222C681.222 535.534 685.345 525.583 679.161 522.929C672.978 520.276 676.413 513.642 676.413 513.642L630.38 383.614L593.966 503.027C593.966 503.027 600.149 507.008 595.34 508.998C590.53 510.988 588.469 507.008 590.53 510.988C592.591 514.968 589.843 516.959 589.843 517.622C589.843 518.285 569.231 515.632 569.231 515.632C569.231 515.632 579.537 507.008 574.728 505.017C569.918 503.027 567.857 501.037 569.231 499.71C570.606 498.383 576.102 485.778 576.102 485.778C576.102 485.778 578.85 438.013 579.537 436.023C580.224 434.033 579.537 424.745 579.537 420.101C579.537 415.457 578.85 396.882 580.911 392.238C582.973 387.594 585.034 330.541 596.027 323.907C607.02 317.273 676.413 317.936 676.413 317.936Z" fill="#2F2E41"/>
<path d="M589.156 514.305C589.156 514.305 602.897 541.505 593.279 544.822C583.66 548.139 571.293 545.485 568.544 549.466C565.796 553.446 535.565 558.09 534.878 548.139C534.191 538.188 567.857 519.612 567.857 519.612L572.243 512.794L589.156 514.305Z" fill="#2F2E41"/>
<path d="M700.46 534.207C700.46 534.207 714.201 561.407 704.583 564.724C694.964 568.041 682.597 565.388 679.848 569.368C677.1 573.348 646.869 577.992 646.182 568.041C645.495 558.09 679.161 539.515 679.161 539.515L683.547 532.696L700.46 534.207Z" fill="#2F2E41"/>
<path d="M636.907 192.883C649.429 192.883 659.58 183.082 659.58 170.991C659.58 158.9 649.429 149.099 636.907 149.099C624.385 149.099 614.234 158.9 614.234 170.991C614.234 183.082 624.385 192.883 636.907 192.883Z" fill="#A0616A"/>
<path d="M652.366 182.601L649.618 201.839L629.006 217.098L623.509 209.8V184.591L652.366 182.601Z" fill="#A0616A"/>
<path d="M620.074 207.147C620.074 207.147 641.373 209.137 652.366 201.84L674.352 327.224C674.352 327.224 596.714 333.194 593.279 329.214V290.073L607.02 226.386L620.074 207.147Z" fill="#3F3D56"/>
<path d="M650.474 195.845L657.862 201.84C657.862 201.84 688.093 206.483 686.032 214.444L677.787 308.648L680.535 340.492C680.535 340.492 657.175 334.521 639.312 340.492C621.448 346.463 635.64 212.187 635.64 212.187C635.64 212.187 652.017 197.811 650.474 195.845Z" fill="#D0CDE1"/>
<path d="M623.509 203.106C623.509 203.106 601.523 218.425 598.775 228.376C596.027 238.327 587.095 343.146 587.095 343.146C587.095 343.146 591.217 341.155 593.279 344.472C595.34 347.789 626.945 208.353 623.509 203.106Z" fill="#D0CDE1"/>
<path d="M683.971 341.819L679.046 357.337C679.046 357.337 677.787 386.267 661.298 382.287C644.808 378.306 666.107 344.472 666.107 344.472L670.917 337.175L683.971 341.819Z" fill="#A0616A"/>
<path d="M614.245 170.037C614.245 170.037 611.79 166.482 612.734 162.654C613.298 160.48 613.521 158.237 613.395 156C613.395 156 615.378 149.801 617.36 146.337C619.343 142.873 618.399 141.415 624.629 140.321C630.86 139.227 628.311 131.388 644.737 139.865C645.291 140.612 646.062 141.184 646.953 141.509C647.843 141.833 648.813 141.896 649.741 141.688C653.139 141.05 654.366 145.608 654.366 145.608C654.366 145.608 656.632 144.332 657.482 146.155C658.331 147.978 664.389 145.061 664.389 157.366C664.389 169.672 657.496 180.664 657.496 180.664C657.496 180.664 658.001 159.965 646.767 157.868C635.533 155.772 623.449 149.664 620.523 157.504C618.943 161.903 616.836 166.11 614.245 170.037Z" fill="#2F2E41"/>
<path d="M657.742 174.959C658.966 174.959 659.958 173.682 659.958 172.106C659.958 170.53 658.966 169.253 657.742 169.253C656.518 169.253 655.526 170.53 655.526 172.106C655.526 173.682 656.518 174.959 657.742 174.959Z" fill="#A0616A"/>
<path d="M680.535 209.8C680.535 209.8 691.528 207.147 694.964 225.059C698.399 242.971 702.521 294.053 702.521 294.053L686.032 347.789C686.032 347.789 669.542 339.165 666.107 340.492L679.083 293.84L668.168 246.288C668.168 246.288 677.787 209.8 680.535 209.8Z" fill="#D0CDE1"/>
<path opacity="0.15" d="M664.552 247.195L678.98 293.634L664.552 340.736L672.797 293.634L664.552 247.195Z" fill="black"/>
<defs>
<linearGradient id="paint0_linear_159_49" x1="299.24" y1="198.191" x2="299.24" y2="321.585" gradientUnits="userSpaceOnUse">
<stop stop-color="#6C63FF"/>
<stop offset="1" stop-color="#6159E5"/>
</linearGradient>
<linearGradient id="paint1_linear_159_49" x1="126.585" y1="177.393" x2="126.585" y2="197.833" gradientUnits="userSpaceOnUse">
<stop stop-color="#6C63FF"/>
<stop offset="1" stop-color="#6159E5"/>
</linearGradient>
<linearGradient id="paint2_linear_159_49" x1="56.1684" y1="106.269" x2="56.1684" y2="131.497" gradientUnits="userSpaceOnUse">
<stop stop-color="#6C63FF"/>
<stop offset="1" stop-color="#6159E5"/>
</linearGradient>
<linearGradient id="paint3_linear_159_49" x1="155.844" y1="196.589" x2="155.844" y2="323.187" gradientUnits="userSpaceOnUse">
<stop stop-color="#6C63FF"/>
<stop offset="1" stop-color="#6159E5"/>
</linearGradient>
<linearGradient id="paint4_linear_159_49" x1="2.69563" y1="87.574" x2="473.311" y2="399.313" gradientUnits="userSpaceOnUse">
<stop stop-color="#6C63FF"/>
<stop offset="1" stop-color="#6159E5"/>
</linearGradient>
<linearGradient id="paint5_linear_159_49" x1="299.24" y1="339.497" x2="299.24" y2="377.974" gradientUnits="userSpaceOnUse">
<stop stop-color="#6C63FF"/>
<stop offset="1" stop-color="#6159E5"/>
</linearGradient>
</defs>
</svg>
