<svg width="44" height="44" viewBox="0 0 44 44" fill="none" xmlns="http://www.w3.org/2000/svg">
<circle cx="22" cy="22" r="22" fill="#DB2763"/>
<path d="M28.6435 17.8696L21.8588 10.1533L15.074 17.8696C13.204 20.0001 12.269 22.8407 12.269 25.5722C12.269 28.3036 13.204 31.1852 15.074 33.3157C16.944 35.4462 19.4014 36.5251 21.8588 36.5251C24.3162 36.5251 26.7735 35.4462 28.6435 33.3157C30.5135 31.1852 31.4485 28.3036 31.4485 25.5722C31.4485 22.8407 30.5135 20.0001 28.6435 17.8696ZM14.6665 26.0638C14.6785 23.3324 15.4097 21.5979 16.7762 20.0547L21.8588 14.1412L26.9414 20.123C28.3079 21.6526 29.0391 23.3324 29.0511 26.0638H14.6665Z" fill="white"/>
</svg>
