<svg width="45" height="44" viewBox="0 0 45 44" fill="none" xmlns="http://www.w3.org/2000/svg">
<circle cx="22.1753" cy="22" r="22" fill="#12EAEA"/>
<path d="M26.497 12.6369H22.1756V10.4762H22.8958C23.6881 10.4762 24.3363 9.82795 24.3363 9.03569C24.3363 8.24343 23.6881 7.59521 22.8958 7.59521H18.5744C17.7821 7.59521 17.1339 8.24343 17.1339 9.03569C17.1339 9.82795 17.7821 10.4762 18.5744 10.4762H19.2946V12.6369H14.9732C14.1809 12.6369 13.5327 13.2851 13.5327 14.0774C13.5327 14.8696 14.1809 15.5178 14.9732 15.5178V26.3214C14.9732 27.9059 16.2696 29.2024 17.8541 29.2024H19.2946V34.9643L22.1756 37.125V29.2024H23.6161C25.2006 29.2024 26.497 27.9059 26.497 26.3214V15.5178C27.2893 15.5178 27.9375 14.8696 27.9375 14.0774C27.9375 13.2851 27.2893 12.6369 26.497 12.6369ZM23.6161 17.6785H21.0952C20.5046 17.6785 20.0149 18.1683 20.0149 18.7589C20.0149 19.3495 20.5046 19.8393 21.0952 19.8393H23.6161V22H21.0952C20.5046 22 20.0149 22.4897 20.0149 23.0803C20.0149 23.6709 20.5046 24.1607 21.0952 24.1607H23.6161V26.3214H17.8541V15.5178H23.6161V17.6785Z" fill="white"/>
</svg>
