<svg width="45" height="44" viewBox="0 0 45 44" fill="none" xmlns="http://www.w3.org/2000/svg">
<circle cx="22.5933" cy="22" r="22" fill="#F9A620"/>
<path d="M24.7398 12.6081C26.3243 12.6081 27.6207 11.3117 27.6207 9.72714C27.6207 8.14262 26.3243 6.84619 24.7398 6.84619C23.1552 6.84619 21.8588 8.14262 21.8588 9.72714C21.8588 11.3117 23.1552 12.6081 24.7398 12.6081ZM19.554 32.6307L20.9945 26.2926L24.0195 29.1736V37.8164H26.9005V27.0129L23.8755 24.1319L24.7398 19.8105C26.6124 21.9712 29.4933 23.4117 32.6624 23.4117V20.5307C29.9255 20.5307 27.6207 19.0902 26.4683 17.0736L25.0278 14.7688C24.4517 13.9045 23.5874 13.3283 22.579 13.3283C22.1469 13.3283 21.8588 13.4724 21.4267 13.4724L13.9362 16.6414V23.4117H16.8171V18.514L19.41 17.5057L17.1052 29.1736L10.0469 27.7331L9.4707 30.614L19.554 32.6307Z" fill="white"/>
</svg>
