<svg width="802" height="617" viewBox="0 0 802 617" fill="none" xmlns="http://www.w3.org/2000/svg">
<g clip-path="url(#clip0_1303_13063)">
<path opacity="0.1" d="M412.326 174.127C372.899 172.757 335.318 160.033 299.487 146.115C263.656 132.196 228.142 116.773 189.638 109.397C164.883 104.649 136.571 103.981 116.629 117.248C97.4334 130.012 91.2332 152.046 87.8981 172.491C85.3897 187.875 83.9345 204.063 90.7915 218.468C95.5649 228.464 104.036 236.869 109.896 246.446C130.28 279.767 115.87 320.859 93.7756 353.422C83.4136 368.704 71.3925 383.245 63.3973 399.495C55.4021 415.745 51.699 434.361 58.6976 450.934C65.6339 467.349 82.1565 479.699 100.061 488.376C136.424 505.985 179.271 511.022 221.053 513.909C313.541 520.231 406.527 517.492 499.259 514.752C533.578 513.733 568.05 512.709 601.809 507.394C620.557 504.445 639.916 499.77 653.529 488.483C670.804 474.152 675.091 449.893 663.511 431.922C644.089 401.788 590.394 394.299 576.816 361.957C569.347 344.156 577.019 324.323 587.88 307.813C611.169 272.397 650.216 241.323 652.271 200.837C653.687 173.028 634.916 145.186 605.891 132.027C575.474 118.222 533.289 119.965 510.85 142.781C487.742 166.287 447.132 175.332 412.326 174.127Z" fill="#6C63FF"/>
<path opacity="0.1" d="M474.85 217.813C441.446 196.825 415.341 166.946 391.349 136.913C367.357 106.88 344.395 75.705 314.806 49.9876C295.785 33.4468 271.639 18.6486 247.731 20.1037C224.722 21.4987 208.293 37.4379 195.14 53.4408C185.243 65.4836 175.854 78.7503 174.548 94.6505C173.654 105.691 176.757 117.214 177.014 128.439C177.904 167.491 144.803 195.785 109.342 212.844C92.7055 220.854 75.0072 227.389 59.9314 237.425C44.8556 247.46 32.3028 261.697 30.0301 279.543C27.7831 297.221 35.8667 316.199 46.9901 332.695C69.5887 366.186 104.108 392.064 138.787 415.547C215.585 467.47 297.367 511.807 378.927 556.017C409.115 572.374 439.437 588.803 471.298 601.164C488.991 608.031 508.079 613.713 525.518 610.791C547.655 607.076 563.547 588.252 562.561 566.897C560.903 531.084 518.234 497.638 522.738 462.852C525.221 443.708 541.818 430.412 559.502 421.59C597.428 402.665 646.801 395.408 668.914 361.432C684.106 338.097 681.86 304.594 663.372 278.636C644.004 251.42 606.652 231.739 575.788 240.196C544 248.915 504.341 236.338 474.85 217.813Z" fill="#6C63FF"/>
<path d="M192.169 506.381C192.169 506.381 161.027 482.846 155.144 452.91C152.758 440.337 146.358 428.876 136.905 420.245C132.383 416.186 127.499 412.548 122.313 409.378" stroke="#535461" stroke-width="2" stroke-miterlimit="10"/>
<path d="M118.503 390.518C121.232 394.209 122.466 409.848 122.466 409.848C122.466 409.848 107.875 404.102 105.14 400.418C103.826 398.646 103.271 396.426 103.595 394.245C103.92 392.064 105.098 390.102 106.87 388.789C108.642 387.476 110.863 386.921 113.044 387.245C115.226 387.57 117.19 388.747 118.503 390.518Z" fill="#6C63FF"/>
<path d="M144.674 402.789C144.957 407.368 137.5 421.168 137.5 421.168C137.5 421.168 128.367 408.41 128.078 403.831C127.968 401.648 128.723 399.51 130.18 397.879C131.636 396.249 133.676 395.258 135.859 395.121C138.041 394.984 140.189 395.712 141.838 397.147C143.487 398.583 144.504 400.61 144.668 402.789H144.674Z" fill="#6C63FF"/>
<path d="M170.041 438.063C167.98 442.161 154.566 450.311 154.566 450.311C154.566 450.311 153.134 434.69 155.195 430.592C156.209 428.665 157.94 427.213 160.015 426.548C162.09 425.884 164.342 426.061 166.288 427.04C168.234 428.019 169.718 429.723 170.419 431.784C171.121 433.846 170.986 436.101 170.041 438.063Z" fill="#6C63FF"/>
<path d="M183.228 469.058C181.886 473.444 170.047 483.74 170.047 483.74C170.047 483.74 165.987 468.588 167.329 464.196C167.974 462.088 169.43 460.323 171.377 459.289C173.324 458.254 175.602 458.035 177.71 458.68C179.819 459.325 181.585 460.78 182.62 462.726C183.654 464.673 183.873 466.95 183.228 469.058Z" fill="#6C63FF"/>
<path d="M124.001 432.262C128.531 432.873 142.85 426.409 142.85 426.409C142.85 426.409 130.767 416.402 126.215 415.791C124.03 415.497 121.817 416.084 120.065 417.42C118.312 418.757 117.163 420.736 116.869 422.92C116.575 425.104 117.162 427.315 118.499 429.067C119.837 430.819 121.816 431.968 124.001 432.262Z" fill="#6C63FF"/>
<path d="M139.884 468.322C144.414 467.547 156.117 457.104 156.117 457.104C156.117 457.104 141.588 451.172 137.064 451.947C135.981 452.125 134.943 452.515 134.012 453.095C133.08 453.676 132.273 454.435 131.636 455.329C131 456.223 130.547 457.234 130.303 458.303C130.06 459.373 130.031 460.481 130.218 461.562C130.405 462.643 130.804 463.677 131.392 464.603C131.981 465.529 132.747 466.329 133.647 466.958C134.547 467.586 135.562 468.03 136.635 468.265C137.707 468.499 138.815 468.518 139.895 468.322H139.884Z" fill="#6C63FF"/>
<path d="M160.127 501.258C164.719 501.258 178.025 492.944 178.025 492.944C178.025 492.944 164.713 484.64 160.121 484.64C157.916 484.64 155.802 485.516 154.243 487.074C152.684 488.632 151.809 490.745 151.809 492.949C151.809 495.153 152.684 497.266 154.243 498.825C155.802 500.383 157.916 501.258 160.121 501.258H160.127Z" fill="#6C63FF"/>
<path d="M494.707 302.826C494.707 302.826 513.902 268.837 542.836 259.045C554.986 255.012 565.5 247.149 572.801 236.637C576.225 231.611 579.18 226.281 581.629 220.715" stroke="#535461" stroke-width="2" stroke-miterlimit="10"/>
<path d="M599.793 214.489C596.497 217.681 581.158 220.987 581.158 220.987C581.158 220.987 584.924 205.761 588.219 202.563C589.81 201.074 591.922 200.269 594.1 200.322C596.278 200.374 598.349 201.279 599.866 202.843C601.384 204.406 602.226 206.503 602.212 208.681C602.199 210.859 601.33 212.945 599.793 214.489Z" fill="#6C63FF"/>
<path d="M591.119 242.014C586.589 242.908 571.94 237.35 571.94 237.35C571.94 237.35 583.378 226.596 587.88 225.718C588.961 225.479 590.079 225.457 591.168 225.655C592.257 225.853 593.296 226.267 594.223 226.871C595.15 227.476 595.947 228.26 596.567 229.177C597.187 230.094 597.618 231.125 597.834 232.211C598.049 233.296 598.046 234.414 597.824 235.498C597.601 236.582 597.165 237.611 596.539 238.524C595.914 239.438 595.112 240.217 594.181 240.816C593.25 241.415 592.209 241.822 591.119 242.014Z" fill="#6C63FF"/>
<path d="M559.546 271.831C555.208 270.331 545.35 258.128 545.35 258.128C545.35 258.128 560.638 254.63 564.987 256.13C566.032 256.477 566.997 257.027 567.828 257.75C568.658 258.472 569.336 259.352 569.824 260.339C570.311 261.326 570.597 262.399 570.666 263.498C570.735 264.596 570.585 265.697 570.224 266.737C569.864 267.776 569.3 268.734 568.567 269.555C567.833 270.375 566.944 271.041 565.95 271.515C564.957 271.989 563.879 272.261 562.78 272.316C561.68 272.37 560.581 272.205 559.546 271.831Z" fill="#6C63FF"/>
<path d="M530.532 289.015C526.002 288.268 514.247 277.882 514.247 277.882C514.247 277.882 528.737 271.848 533.261 272.595C535.439 272.953 537.385 274.161 538.671 275.954C539.958 277.746 540.479 279.976 540.121 282.152C539.763 284.329 538.554 286.274 536.761 287.56C534.968 288.846 532.738 289.368 530.56 289.01L530.532 289.015Z" fill="#6C63FF"/>
<path d="M559.149 225.447C559.143 230.037 567.473 243.355 567.473 243.355C567.473 243.355 575.79 230.054 575.79 225.469C575.819 224.36 575.626 223.257 575.221 222.224C574.817 221.19 574.209 220.249 573.435 219.454C572.66 218.66 571.735 218.028 570.712 217.597C569.689 217.166 568.591 216.943 567.481 216.943C566.371 216.943 565.273 217.166 564.25 217.597C563.227 218.028 562.302 218.66 561.527 219.454C560.753 220.249 560.145 221.19 559.741 222.224C559.336 223.257 559.143 224.36 559.172 225.469L559.149 225.447Z" fill="#6C63FF"/>
<path d="M525.498 245.97C526.868 250.351 538.782 260.568 538.782 260.568C538.782 260.568 542.745 245.387 541.364 241.006C540.647 238.976 539.171 237.304 537.245 236.341C535.32 235.377 533.095 235.198 531.041 235.842C528.986 236.485 527.261 237.9 526.229 239.79C525.198 241.679 524.939 243.894 525.509 245.97H525.498Z" fill="#6C63FF"/>
<path d="M495.561 270.405C496.173 274.933 506.184 287.029 506.184 287.029C506.184 287.029 512.645 272.737 512.033 268.192C511.912 267.091 511.571 266.025 511.032 265.057C510.492 264.089 509.765 263.239 508.892 262.557C508.019 261.874 507.018 261.373 505.948 261.083C504.879 260.792 503.762 260.719 502.663 260.867C501.565 261.014 500.507 261.38 499.552 261.942C498.597 262.504 497.764 263.252 497.103 264.141C496.441 265.029 495.964 266.041 495.699 267.117C495.434 268.193 495.388 269.311 495.561 270.405Z" fill="#6C63FF"/>
<path opacity="0.25" d="M599.793 214.489C596.497 217.681 581.158 220.987 581.158 220.987C581.158 220.987 584.924 205.761 588.219 202.563C589.81 201.074 591.922 200.269 594.1 200.322C596.278 200.374 598.349 201.279 599.866 202.843C601.384 204.406 602.226 206.503 602.212 208.681C602.199 210.859 601.33 212.945 599.793 214.489Z" fill="black"/>
<path opacity="0.25" d="M591.119 242.014C586.589 242.908 571.94 237.35 571.94 237.35C571.94 237.35 583.378 226.596 587.88 225.718C588.961 225.479 590.079 225.457 591.168 225.655C592.257 225.853 593.296 226.267 594.223 226.871C595.15 227.476 595.947 228.26 596.567 229.177C597.187 230.094 597.618 231.125 597.834 232.211C598.049 233.296 598.046 234.414 597.824 235.498C597.601 236.582 597.165 237.611 596.539 238.524C595.914 239.438 595.112 240.217 594.181 240.816C593.25 241.415 592.209 241.822 591.119 242.014Z" fill="black"/>
<path opacity="0.25" d="M559.546 271.831C555.208 270.331 545.35 258.128 545.35 258.128C545.35 258.128 560.638 254.63 564.987 256.13C566.032 256.477 566.997 257.027 567.828 257.75C568.658 258.472 569.336 259.352 569.824 260.339C570.311 261.326 570.597 262.399 570.666 263.498C570.735 264.596 570.585 265.697 570.224 266.737C569.864 267.776 569.3 268.734 568.567 269.555C567.833 270.375 566.944 271.041 565.95 271.515C564.957 271.989 563.879 272.261 562.78 272.316C561.68 272.37 560.581 272.205 559.546 271.831Z" fill="black"/>
<path opacity="0.25" d="M530.532 289.015C526.002 288.268 514.247 277.882 514.247 277.882C514.247 277.882 528.737 271.848 533.261 272.595C535.439 272.953 537.385 274.161 538.671 275.954C539.958 277.746 540.479 279.976 540.121 282.152C539.763 284.329 538.554 286.274 536.761 287.56C534.968 288.846 532.738 289.368 530.56 289.01L530.532 289.015Z" fill="black"/>
<path opacity="0.25" d="M559.149 225.447C559.143 230.037 567.473 243.355 567.473 243.355C567.473 243.355 575.79 230.054 575.79 225.469C575.819 224.36 575.626 223.257 575.221 222.224C574.817 221.19 574.209 220.249 573.435 219.454C572.66 218.66 571.735 218.028 570.712 217.597C569.689 217.166 568.591 216.943 567.481 216.943C566.371 216.943 565.273 217.166 564.25 217.597C563.227 218.028 562.302 218.66 561.527 219.454C560.753 220.249 560.145 221.19 559.741 222.224C559.336 223.257 559.143 224.36 559.172 225.469L559.149 225.447Z" fill="black"/>
<path opacity="0.25" d="M525.498 245.97C526.868 250.351 538.782 260.568 538.782 260.568C538.782 260.568 542.745 245.387 541.364 241.006C540.647 238.976 539.171 237.304 537.245 236.341C535.32 235.377 533.095 235.198 531.041 235.842C528.986 236.485 527.261 237.9 526.229 239.79C525.198 241.679 524.939 243.894 525.509 245.97H525.498Z" fill="black"/>
<path opacity="0.25" d="M495.561 270.405C496.173 274.933 506.184 287.029 506.184 287.029C506.184 287.029 512.645 272.737 512.033 268.192C511.912 267.091 511.571 266.025 511.032 265.057C510.492 264.089 509.765 263.239 508.892 262.557C508.019 261.874 507.018 261.373 505.948 261.083C504.879 260.792 503.762 260.719 502.663 260.867C501.565 261.014 500.507 261.38 499.552 261.942C498.597 262.504 497.764 263.252 497.103 264.141C496.441 265.029 495.964 266.041 495.699 267.117C495.434 268.193 495.388 269.311 495.561 270.405Z" fill="black"/>
<path d="M495.811 302.152C495.811 302.152 499.582 263.301 522.038 242.642C531.51 234.032 537.935 222.585 540.35 210.017C541.449 204.043 541.997 197.98 541.987 191.905" stroke="#535461" stroke-width="2" stroke-miterlimit="10"/>
<path d="M556.063 178.796C554.364 183.052 541.658 192.29 541.658 192.29C541.658 192.29 538.929 176.843 540.645 172.587C541.47 170.543 543.075 168.911 545.105 168.05C547.134 167.188 549.423 167.168 551.468 167.994C553.513 168.819 555.145 170.423 556.007 172.452C556.869 174.481 556.889 176.769 556.063 178.813V178.796Z" fill="#6C63FF"/>
<path d="M559.296 207.504C555.542 210.142 539.875 211.008 539.875 211.008C539.875 211.008 545.978 196.552 549.733 193.914C550.623 193.248 551.638 192.767 552.717 192.5C553.797 192.233 554.919 192.186 556.017 192.36C557.116 192.535 558.168 192.928 559.111 193.516C560.055 194.104 560.871 194.875 561.511 195.784C562.151 196.693 562.602 197.722 562.837 198.808C563.073 199.895 563.087 201.017 562.881 202.109C562.674 203.202 562.251 204.241 561.635 205.167C561.019 206.093 560.224 206.885 559.296 207.498V207.504Z" fill="#6C63FF"/>
<path d="M542.502 247.566C537.927 247.951 523.963 240.774 523.963 240.774C523.963 240.774 536.534 231.378 541.109 230.994C543.306 230.809 545.486 231.504 547.17 232.927C548.855 234.349 549.905 236.382 550.089 238.578C550.274 240.774 549.578 242.954 548.155 244.637C546.733 246.321 544.699 247.37 542.502 247.555V247.566Z" fill="#6C63FF"/>
<path d="M522.961 275.012C518.516 276.144 503.545 271.463 503.545 271.463C503.545 271.463 514.343 260.081 518.788 258.926C520.922 258.373 523.188 258.69 525.088 259.807C526.989 260.924 528.367 262.75 528.921 264.883C529.474 267.017 529.157 269.282 528.039 271.182C526.922 273.081 525.095 274.459 522.961 275.012Z" fill="#6C63FF"/>
<path d="M523.357 205.308C525.215 209.502 538.204 218.326 538.204 218.326C538.204 218.326 540.412 202.795 538.555 198.601C537.63 196.639 535.973 195.116 533.939 194.358C531.906 193.601 529.657 193.668 527.672 194.546C525.687 195.424 524.125 197.043 523.319 199.057C522.513 201.071 522.527 203.321 523.357 205.325V205.308Z" fill="#6C63FF"/>
<path d="M500.912 237.695C503.941 241.142 518.969 245.659 518.969 245.659C518.969 245.659 516.432 230.179 513.403 226.732C512.688 225.894 511.814 225.207 510.831 224.711C509.848 224.214 508.776 223.917 507.677 223.838C506.579 223.759 505.476 223.899 504.432 224.25C503.388 224.601 502.424 225.156 501.596 225.882C500.769 226.609 500.094 227.492 499.611 228.482C499.128 229.471 498.846 230.547 498.782 231.646C498.719 232.745 498.874 233.846 499.24 234.884C499.605 235.923 500.174 236.878 500.912 237.695Z" fill="#6C63FF"/>
<path d="M483.421 272.176C485.822 276.082 499.87 283.072 499.87 283.072C499.87 283.072 499.989 267.388 497.605 263.477C496.419 261.671 494.575 260.398 492.465 259.928C490.356 259.459 488.146 259.829 486.305 260.96C484.463 262.092 483.135 263.896 482.602 265.99C482.069 268.084 482.373 270.303 483.45 272.176H483.421Z" fill="#6C63FF"/>
<path d="M466.933 150.003C467.873 146.556 469.005 143.092 469.798 139.6C468.846 143.092 467.708 146.567 466.933 150.003Z" fill="url(#paint0_linear_1303_13063)"/>
<path d="M462.72 183.205C462.641 183.069 462.584 182.934 462.522 182.809C462.522 182.752 462.465 182.707 462.443 182.651C462.319 182.709 462.193 182.76 462.063 182.803C461.814 182.9 461.559 182.99 461.299 183.064C461.038 183.137 460.931 183.177 460.733 183.222C460.568 183.279 460.4 183.322 460.229 183.352L460.274 183.454C460.484 183.409 460.687 183.369 460.897 183.313L460.954 184.015C461.191 184.015 461.412 183.981 461.627 183.981C461.729 183.975 461.831 183.975 461.933 183.981C462.375 183.981 462.76 183.981 463.066 183.981C462.947 183.726 462.822 183.46 462.72 183.205ZM577.665 366.1C575.004 362.518 569.692 324.063 569.692 324.063C569.692 324.063 559.245 296.719 562.094 285.806C564.942 274.893 554.314 246.972 554.314 246.972C554.314 246.972 547.292 243.921 546.913 239.393C546.913 239.393 518.245 230.337 516.903 223.545C515.816 217.975 498.036 213.979 491.649 212.717C489.701 204.861 487.742 197.531 486.298 193.529C485.907 192.284 485.539 191.209 485.2 190.36C482.759 184.134 475.217 183.568 469.747 184.066C469.51 183.004 469.07 181.999 468.45 181.105C468.36 180.798 468.181 180.524 467.935 180.319C467.818 180.219 467.693 180.128 467.561 180.047C467.462 179.864 467.332 179.699 467.176 179.56C467.021 179.42 466.85 179.299 466.667 179.198C466.535 179.127 466.399 179.064 466.259 179.011C465.931 178.886 465.592 178.793 465.246 178.734C464.842 178.651 464.434 178.598 464.022 178.575C465.022 178.138 465.913 177.487 466.633 176.668C467.122 176.093 467.487 175.422 467.703 174.698C467.882 174.096 467.963 173.469 467.941 172.842C467.794 173.1 467.623 173.345 467.431 173.572C467.669 171.064 466.344 168.517 465.585 166.021C464.666 162.772 464.496 159.356 465.087 156.031C465.846 151.016 467.726 145.945 469 140.839C469.003 140.811 469.003 140.783 469 140.754C469.668 138.219 470.081 135.623 470.234 133.006C470.455 127.725 469.102 122.455 466.927 117.644C464.996 113.382 462.148 109.188 457.788 107.456C454.549 106.149 450.92 106.358 447.432 106.143C439.607 105.656 432.144 102.905 424.703 100.404C417.263 97.9018 409.608 95.6264 401.777 96.0622C393.946 96.498 385.888 100.273 382.315 107.201C381.183 109.363 380.532 111.769 379.179 113.801C376.642 117.633 372.101 119.552 368.313 122.195C364.524 124.838 361.189 128.591 359.819 133.068C359.071 135.48 358.965 138.046 359.513 140.511C359.637 141.068 359.795 141.616 359.989 142.153C360.526 143.648 361.365 145.018 362.452 146.177C363.272 147.034 364.215 147.764 365.249 148.345C366.548 149.064 367.939 149.605 369.383 149.952C369.332 150.122 369.281 150.303 369.224 150.479C369.134 150.767 369.054 151.045 368.969 151.356C368.783 152.052 368.607 152.76 368.46 153.473C368.454 153.523 368.454 153.575 368.46 153.626C367.764 156.845 367.415 160.13 367.418 163.423C367.417 164.981 367.496 166.538 367.656 168.087C369.921 191.056 388.889 209.174 412.326 210.351C413.13 210.391 413.939 210.413 414.76 210.413C415.134 210.413 415.502 210.413 415.893 210.413C416.261 210.9 416.623 211.398 416.969 211.885C417.314 212.372 417.631 212.87 417.931 213.357L417.11 212.508L416.289 211.755C416.067 212.06 415.818 212.346 415.547 212.61C415.012 212.421 414.466 212.266 413.911 212.145C411.561 211.625 407.983 211.432 403.272 212.853C398.94 214.149 393.646 216.815 387.451 221.881L357.265 239.993L340.935 249.921L335.052 264.298C335.052 264.298 330.63 281.38 325.709 300.953C325.517 301.009 325.33 301.066 325.143 301.134C324.745 301.088 324.344 301.066 323.943 301.066C321.088 301.059 318.341 302.159 316.28 304.133C314.219 306.108 313.004 308.804 312.89 311.656C303.105 323.542 302.551 335.428 304.849 340.885C305.058 341.396 305.32 341.884 305.631 342.339C307.137 344.513 309.951 350.116 312.805 356.088C312.731 356.58 312.686 356.993 312.663 357.305C312.658 357.406 312.658 357.509 312.663 357.61C312.663 357.61 314.362 383.256 308.7 390.609C307.46 392.211 307.647 394.316 308.7 396.648C312.494 405.036 327.493 416.238 327.493 416.238C327.493 416.238 345.482 416.142 355.504 415.049C355.476 416.057 355.453 417.058 355.431 418.038C355.204 427.932 355.204 436.224 355.204 436.224L354.831 446.599C354.831 446.599 351.433 468.464 349.735 474.492C348.664 478.273 349.899 513.28 350.975 539.017H528.216C530.3 523.791 527.361 477.531 527.361 477.531C527.361 477.531 524.57 465.571 524.468 455.145C524.462 455.134 524.459 455.121 524.459 455.109C524.459 455.096 524.462 455.083 524.468 455.072C524.468 454.161 524.468 453.272 524.502 452.4L525.787 452.355L528.097 452.276H528.307C528.307 452.276 528.363 452.061 528.493 451.71C528.799 450.836 529.216 450.004 529.734 449.236C530.719 447.782 532.259 446.355 534.575 446.259C535.854 446.208 537.836 445.172 540.073 443.644C540.088 443.647 540.103 443.647 540.118 443.644C546.137 439.574 554.093 432.063 556.024 430.83C558.679 429.132 571.397 417.811 571.397 417.811C571.397 417.811 573.294 415.411 575.315 412.519L575.389 412.417C577.903 408.795 580.575 404.465 579.919 403.101C578.786 400.655 580.677 394.809 580.677 394.809C586.583 384.003 580.326 369.683 577.665 366.1ZM468.173 192.007C468.227 192.176 468.261 192.351 468.275 192.528C468.133 192.341 467.992 192.143 467.85 191.961L467.714 191.78L467.618 191.645L467.833 191.35C467.833 191.35 467.833 191.35 467.833 191.39C467.983 191.573 468.098 191.782 468.173 192.007ZM466.27 186.992C465.653 187.116 465.166 187.23 464.849 187.315C464.447 186.601 464.062 185.888 463.717 185.164C464.624 185.69 465.48 186.302 466.27 186.992ZM465.206 187.886C465.204 187.875 465.204 187.864 465.206 187.852L465.251 187.886C465.483 188.039 465.71 188.186 465.919 188.339C466.106 188.475 466.276 188.605 466.446 188.741C466.333 188.939 466.208 189.143 466.084 189.307C465.885 188.996 465.699 188.696 465.517 188.384C465.404 188.26 465.302 188.09 465.206 187.886ZM461.809 180.902C462.902 180.794 464.004 180.794 465.098 180.902C465.251 180.902 465.387 180.93 465.523 180.953C465.83 181 466.132 181.078 466.423 181.185C467.092 182.12 467.504 183.215 467.618 184.36L467.312 184.405L467.012 184.462C466.446 184.558 465.88 184.654 465.438 184.745L464.872 184.864C464.119 185.028 463.683 185.152 463.666 185.158C463.592 185.005 463.519 184.864 463.439 184.717C463.315 184.473 463.184 184.224 463.071 183.981C462.958 183.737 462.811 183.46 462.692 183.205C462.613 183.069 462.556 182.934 462.494 182.809C462.494 182.752 462.437 182.707 462.414 182.651C462.381 182.591 462.353 182.528 462.329 182.464C461.984 181.762 461.667 181.06 461.361 180.37C461.327 180.302 461.299 180.228 461.271 180.16L461.701 180.132V180.279L461.809 180.902ZM326.712 532.021C326.666 523.593 326.055 514.475 324.356 505.917C323.631 502.277 322.884 498.638 322.125 495.06C321.933 494.166 321.746 493.283 321.559 492.4L319.815 492.632H319.656C314.9 470.213 309.928 450.459 309.928 450.459C309.928 450.459 300.053 412.768 301.197 409.763C301.344 409.372 301.158 408.319 300.739 406.774C298.349 398.205 288.372 374.591 284.884 366.519C284.884 366.485 284.856 366.446 284.844 366.417C284.278 365.065 283.871 364.153 283.746 363.887L284.567 351.843L284.612 351.118L284.72 349.579L284.675 349.539L284.72 348.826C284.72 348.826 276.102 341.762 261.504 336.662C260.938 336.458 260.338 336.26 259.743 336.068C260.474 331.195 261.442 325.693 262.705 320.333C262.824 319.795 262.954 319.274 263.09 318.748C263.209 318.222 263.345 317.712 263.481 317.197C263.696 316.359 263.928 315.533 264.166 314.718C264.953 314.469 265.729 314.192 266.493 313.897L266.787 313.784C276.204 310.121 283.975 303.172 288.659 294.222C293.344 285.272 294.626 274.929 292.268 265.107C290.923 259.537 288.44 254.305 284.975 249.74C284.714 249.389 284.437 249.038 284.159 248.693C283.882 248.348 283.548 247.963 283.236 247.612C284.873 243.893 286.804 240.355 286.962 236.739C286.99 236.281 286.99 235.821 286.962 235.363V235.307C286.753 232.98 285.722 230.626 283.321 228.152C279.816 224.524 274.828 222.685 269.839 221.802C264.851 220.919 259.766 220.896 254.749 220.302C246.431 219.305 238.329 216.741 230.011 215.955C219.765 215.006 209.45 216.763 200.097 221.049C193.908 223.879 187.64 228.826 187.266 235.612C186.96 241.221 190.867 246.599 189.882 252.14C188.902 257.585 183.353 261.87 183.84 267.377C184.027 269.528 185.131 271.452 186.513 273.167C186.989 273.733 187.492 274.299 188.013 274.865C190.029 276.999 192.249 279.048 193.376 281.737C193.421 281.85 193.466 281.963 193.506 282.076C194.463 284.731 194.032 288.087 191.666 289.61C191.679 289.62 191.689 289.634 191.694 289.649C191.728 289.695 191.762 289.729 191.79 289.774C191.794 289.765 191.794 289.755 191.79 289.746C192.629 290.74 193.761 291.445 195.023 291.761L195.505 291.908C195.114 292.332 194.746 292.774 194.372 293.238L194.129 293.561C193.505 294.399 192.937 295.278 192.43 296.192C192.141 296.702 191.864 297.211 191.632 297.721C190.855 299.273 190.294 300.924 189.961 302.628C189.355 306.375 190.21 310.28 189.293 313.948C188.161 318.476 184.576 321.952 182.555 326.157C178.727 334.081 180.896 343.381 181.666 352.131C182.713 364.018 181.015 375.955 179.322 387.762C178.423 394.041 177.525 400.325 176.626 406.616C174.362 422.404 172.097 438.191 169.832 453.979C169.005 459.764 168.025 465.866 164.169 470.331H164.209C164.209 470.331 164.209 470.365 164.169 470.377C165.327 470.883 166.558 471.2 167.816 471.316C172.85 471.82 178.184 469.386 182.713 466.726C186.301 464.654 189.698 462.269 192.866 459.6C192.402 461.298 191.903 463.149 191.371 465.141C191.373 465.16 191.373 465.179 191.371 465.198C184.978 489.536 174.696 534.155 174.696 534.155C174.696 534.155 173.761 536.096 172.55 538.989H332.227C330.358 536.725 328.62 534.557 327.261 532.808L326.712 532.021ZM208.483 306.975C208.522 306.907 208.551 306.845 208.59 306.783C208.59 306.964 208.59 307.139 208.59 307.309C208.59 307.479 208.59 307.632 208.59 307.79C208.59 307.949 208.59 307.932 208.59 308.011C208.59 308.09 208.59 308.011 208.59 308.011C208.59 308.243 208.539 308.475 208.5 308.707C208.5 308.707 208.5 308.735 208.5 308.758L209.066 308.967L209.723 309.239C213.603 310.771 217.533 312.158 221.512 313.399C221.919 313.529 222.333 313.654 222.746 313.773L222.831 314.475C222.933 315.193 223.029 315.924 223.12 316.654C223.12 316.654 223.12 316.688 223.12 316.71C223.375 318.731 223.624 320.746 223.844 322.716C223.844 322.716 213.448 318.754 213.579 324.77C213.573 324.878 213.573 324.986 213.579 325.093C213.567 325.236 213.567 325.38 213.579 325.523C213.675 330.21 215.142 332.989 215.436 334.415C215.418 334.474 215.387 334.528 215.345 334.574C215.094 335.12 215.008 335.728 215.096 336.323C215.086 337.335 215.166 338.347 215.334 339.345C215.028 339.532 214.728 339.719 214.428 339.911C214.202 340.053 213.986 340.211 213.766 340.37C212.376 335.553 210.559 330.871 208.335 326.378C206.778 323.174 205.029 319.835 205.046 316.32C205.046 316.093 205.046 315.861 205.074 315.629C205.137 314.611 205.331 313.604 205.651 312.635C205.782 312.267 205.923 311.905 206.082 311.548C206.452 310.701 206.866 309.874 207.322 309.069C207.616 308.537 207.928 308.011 208.228 307.479C208.324 307.32 208.415 307.156 208.505 306.998L208.483 306.975ZM462.72 183.205C462.641 183.069 462.584 182.934 462.522 182.809C462.522 182.752 462.465 182.707 462.443 182.651C462.319 182.709 462.193 182.76 462.063 182.803C461.814 182.9 461.559 182.99 461.299 183.064C461.038 183.137 460.931 183.177 460.733 183.222L460.229 183.352L460.274 183.454C460.484 183.409 460.687 183.369 460.897 183.313L460.954 184.015C461.191 184.015 461.412 183.981 461.627 183.981H461.933C462.375 183.981 462.76 183.981 463.066 183.981C462.947 183.726 462.822 183.46 462.72 183.205Z" fill="url(#paint1_linear_1303_13063)"/>
<path d="M338.999 266.341L335.601 267.841C335.601 267.841 313.456 353.841 313.456 360.791C313.456 367.742 360.414 406.418 360.414 406.418L367.741 356.982C367.741 356.982 357.22 243.616 338.999 266.341Z" fill="#E8F5FF"/>
<path d="M442.002 238.986L422.382 228.752C421.283 224.069 419.333 219.628 416.629 215.649C413.758 211.506 409.942 207.436 405.185 205.314C393.164 199.925 456.033 171.642 456.033 171.642C457.023 175.039 458.189 178.383 459.527 181.66C462.765 189.652 468.139 199.987 475.064 202.931C486.836 207.94 442.002 238.986 442.002 238.986Z" fill="#FFC1C7"/>
<path opacity="0.1" d="M459.526 181.66C456.84 191.104 451.254 199.466 443.557 205.564C435.86 211.663 426.44 215.191 416.629 215.649C413.758 211.506 409.942 207.436 405.185 205.314C393.164 199.925 456.033 171.642 456.033 171.642C457.023 175.039 458.189 178.383 459.526 181.66Z" fill="black"/>
<path d="M461.293 167.38C461.295 176.642 458.55 185.696 453.403 193.399C448.257 201.101 440.942 207.104 432.382 210.65C423.822 214.196 414.403 215.124 405.315 213.318C396.227 211.512 387.879 207.053 381.327 200.504C374.775 193.955 370.313 185.611 368.505 176.527C366.697 167.443 367.625 158.027 371.171 149.47C374.717 140.913 380.722 133.6 388.426 128.455C396.131 123.309 405.189 120.564 414.454 120.565C420.613 120.536 426.716 121.728 432.411 124.07C438.106 126.413 443.281 129.86 447.636 134.213C451.991 138.566 455.44 143.738 457.784 149.43C460.128 155.123 461.321 161.224 461.293 167.38Z" fill="#FFC1C7"/>
<path d="M468.054 232.975L455.28 262.77L444.012 282.546H407.943L397.422 255.508L401.686 227.467H429.233L447.019 226.466L453.026 224.462L456.899 226.658L468.054 232.975Z" fill="#575A89"/>
<path opacity="0.1" d="M463.654 193.258C463.654 193.258 471.621 194.956 464.487 200.802C457.352 206.649 432.738 225.243 432.738 225.243C432.738 225.243 441.385 232.941 439.595 241.957L468.241 225.996L473.337 200.457C473.337 200.457 473.909 192.782 463.654 193.258Z" fill="black"/>
<path opacity="0.1" d="M438.372 225.243L420.151 228.249C420.151 228.249 423.911 242.144 422.031 246.089C421.974 246.212 421.927 246.339 421.889 246.469L414.455 266.556L420.026 282.331L439.312 256.04L432.738 246.089C432.738 246.089 439.686 236.886 443.819 233.694C447.953 230.501 438.372 225.243 438.372 225.243Z" fill="black"/>
<path d="M438.372 224.468L420.151 227.468C420.151 227.468 423.911 241.363 422.031 245.308C421.974 245.431 421.927 245.558 421.889 245.688L414.455 265.775L420.026 281.55L439.312 255.242L432.738 245.291C432.738 245.291 439.686 236.088 443.819 232.896C447.953 229.703 438.372 224.468 438.372 224.468Z" fill="#DCE6F2"/>
<path d="M464.419 191.758C464.419 191.758 472.386 193.456 465.246 199.302C458.105 205.149 432.738 225.243 432.738 225.243C432.738 225.243 442.132 231.441 440.348 240.451L468.994 224.496L474.09 198.957C474.09 198.957 474.656 191.282 464.419 191.758Z" fill="#575A89"/>
<path opacity="0.1" d="M417.88 217.421C417.88 217.421 419.618 220.67 427.291 226.528C427.291 226.528 414.517 233.32 419.403 242.869L399.863 237.775L396.856 228.385L417.88 217.421Z" fill="black"/>
<path d="M417.127 216.674C417.127 216.674 418.865 219.923 426.538 225.781C426.538 225.781 413.763 232.539 418.65 242.116L399.115 237.022L396.108 227.637L417.127 216.674Z" fill="#575A89"/>
<path opacity="0.1" d="M468.054 232.975L455.28 262.77L444.034 282.546H407.943L397.422 255.508L401.68 227.468H409.342C409.217 234.011 411.606 241.697 411.454 244.555C411.193 249.253 418.464 274.599 418.464 274.599C418.464 274.599 433.678 250.001 439.686 247.81C443.463 246.435 451.463 234.99 456.894 226.658L468.054 232.975Z" fill="black"/>
<path d="M518.375 389.765L517.078 391.395C517.078 391.395 526.472 438.527 523.873 449.23C523.431 451.16 523.179 453.127 523.12 455.106V455.19C522.661 466.081 525.951 480.214 525.951 480.214C525.951 480.214 528.578 521.872 527.083 539.005H351.201C350.17 513.671 349.06 480.848 350.068 477.208C351.767 471.203 355.164 449.417 355.164 449.417L355.538 439.093C355.538 439.093 355.538 429.114 355.844 417.998C355.974 413 356.166 407.753 356.444 403.1C356.801 397.248 357.299 392.318 357.984 389.895C358.406 388.059 358.649 386.186 358.709 384.303C358.709 384.128 358.709 383.947 358.743 383.766C358.743 383.2 358.799 382.588 358.822 381.96C358.822 381.784 358.822 381.609 358.822 381.394C358.93 377.749 358.89 373.424 358.771 368.942C358.771 368.698 358.771 368.449 358.771 368.2C358.675 364.838 358.533 361.408 358.375 358.148C357.882 347.96 357.242 339.345 357.242 339.345L335.641 267.801L341.461 253.47L357.616 243.576L387.485 225.548C402.054 213.577 411.646 215.015 415.304 216.328C415.659 216.449 416.007 216.591 416.345 216.753C416.459 216.809 416.549 216.854 416.634 216.905C416.751 216.96 416.862 217.025 416.968 217.098C415.967 217.58 415.096 218.296 414.432 219.186C413.683 220.2 413.149 221.355 412.863 222.582C412.672 223.343 412.537 224.117 412.461 224.897C412.388 225.718 412.359 226.567 412.359 227.422C412.4 229.296 412.56 231.166 412.84 233.02C412.84 233.054 412.84 233.099 412.84 233.144C413.027 234.469 413.259 235.765 413.486 236.982C413.483 237.002 413.483 237.023 413.486 237.044C413.746 238.465 414.007 239.778 414.182 240.91C414.216 241.114 414.245 241.3 414.273 241.476C414.398 242.224 414.457 242.982 414.449 243.74C414.512 245.571 414.759 247.391 415.185 249.174C415.332 249.921 415.502 250.719 415.689 251.551C415.943 252.683 416.221 253.917 416.521 255.173C416.685 255.864 416.861 256.577 417.042 257.285C417.11 257.568 417.183 257.851 417.251 258.139L417.365 258.586C418.571 263.381 419.879 268.152 420.683 271.039C421.158 272.737 421.459 273.784 421.459 273.784C421.459 273.784 429.986 260.001 436.792 252.157C436.894 252.043 436.985 251.936 437.081 251.834C437.755 251.059 438.417 250.351 439.051 249.728C440.439 248.347 441.684 247.362 442.687 247C442.9 246.922 443.107 246.825 443.304 246.712C446.09 245.132 450.585 239.399 454.793 233.393C455.206 232.827 455.608 232.21 456.016 231.627C456.95 230.28 457.856 228.927 458.711 227.631C459.368 226.641 459.996 225.679 460.591 224.762C463.422 220.358 465.415 217.075 465.415 217.075L469.345 216.9L470.03 216.866H470.488L488.33 216.039C488.33 216.039 489.1 216.17 490.369 216.424C490.437 216.424 490.505 216.424 490.578 216.47C496.909 217.726 514.496 221.705 515.572 227.224C516.885 233.982 545.254 242.999 545.254 242.999C545.627 247.527 552.575 250.51 552.575 250.51C552.575 250.51 563.095 278.301 560.281 289.191C557.501 299.945 567.518 326.547 567.784 327.295L565.864 329.717L518.375 389.765Z" fill="#E8F5FF"/>
<path opacity="0.1" d="M463.649 191.282C463.649 191.282 481.015 186.358 484.962 196.495C488.908 206.632 497.736 247.572 497.736 247.572C497.736 247.572 474.815 251.891 468.807 247.572C465.283 245.009 460.921 243.869 456.593 244.38L443.632 253.204L439.805 252.072C439.805 252.072 460.54 221.258 465.047 210.787C469.554 200.316 471.078 195.635 463.649 191.282Z" fill="black"/>
<path d="M462.896 189.019C462.896 189.019 480.273 184.094 484.237 194.231C488.2 204.369 497.011 245.308 497.011 245.308C497.011 245.308 474.096 249.627 468.082 245.308C464.56 242.745 460.201 241.605 455.874 242.116L442.902 250.94L439.074 249.808C439.074 249.808 459.81 218.994 464.317 208.523C468.824 198.052 470.324 193.382 462.896 189.019Z" fill="#E8F5FF"/>
<path opacity="0.1" d="M346.326 352.341C346.326 352.341 359.287 355.533 361.733 362.857C364.179 370.181 352.152 370.368 352.152 370.368C352.152 370.368 344.825 357.412 346.326 352.341Z" fill="black"/>
<path opacity="0.1" d="M394.603 406.417C394.603 406.417 362.86 471.39 370.187 477.588C377.514 483.786 394.603 406.417 394.603 406.417Z" fill="black"/>
<path opacity="0.1" d="M438.372 358.539C438.372 358.539 463.734 421.649 458.66 431.396C453.587 441.142 469.554 431.396 469.554 431.396L438.372 358.539Z" fill="black"/>
<path d="M473.688 420.879C473.688 420.879 388.029 425.011 413.016 451.676C438.004 478.34 489.282 452.808 489.282 452.808L473.688 420.879Z" fill="#FFC1C7"/>
<path opacity="0.1" d="M461.293 167.38C461.301 173.521 460.094 179.603 457.743 185.277C456.956 185.367 456.169 185.424 455.41 185.458C454.277 182.973 454.883 180.103 454.906 177.37C454.928 174.636 453.921 171.421 451.288 170.685C446.039 169.208 442.415 179.017 437.239 177.245C433.276 175.898 434.312 169.887 432.03 166.417C430.224 163.672 426.606 162.897 423.791 161.176C417.806 157.503 417.988 151.627 415.207 146.069C412.297 140.245 406.148 141.966 400.808 145.401C396.754 148.016 393.255 151.52 388.917 153.603C385.163 155.414 380.945 156.071 376.783 156.167C374.221 156.266 371.658 155.995 369.173 155.363C372.096 144.379 378.915 134.833 388.36 128.504C397.805 122.175 409.23 119.497 420.505 120.968C431.78 122.438 442.134 127.958 449.638 136.498C457.142 145.037 461.282 156.014 461.287 167.38H461.293Z" fill="black"/>
<path d="M400.825 143.902C396.765 146.517 393.272 150.015 388.934 152.109C385.18 153.914 380.962 154.571 376.8 154.667C371.704 154.78 366.217 153.886 362.735 150.207C359.536 146.811 358.771 141.587 360.124 137.132C361.478 132.678 364.722 128.982 368.533 126.304C372.344 123.627 376.766 121.776 379.291 117.944C380.628 115.918 381.273 113.529 382.383 111.373C385.933 104.473 393.917 100.738 401.635 100.273C409.353 99.8094 417.002 102.107 424.352 104.598C431.702 107.088 439.108 109.828 446.865 110.343C450.319 110.558 453.909 110.343 457.114 111.65C461.423 113.399 464.249 117.582 466.174 121.839C468.331 126.638 469.673 131.88 469.447 137.121C468.971 148.311 461.576 159.291 464.826 170.012C465.687 172.87 467.301 175.802 466.44 178.66C465.183 182.832 459.798 183.783 455.444 183.981C454.311 181.496 454.917 178.621 454.94 175.893C454.962 173.164 453.955 169.944 451.327 169.208C446.073 167.742 442.449 177.534 437.285 175.768C433.349 174.415 434.369 168.41 432.081 164.94C430.275 162.189 426.651 161.42 423.842 159.699C417.857 156.026 418.039 150.15 415.258 144.592C412.325 138.74 406.17 140.46 400.825 143.902Z" fill="#99607E"/>
<path d="M317.765 359.286L313.444 360.791C313.444 360.791 315.143 386.33 309.481 393.654C303.818 400.978 328.076 419.187 328.076 419.187C328.076 419.187 361.325 419 362.265 416.357C363.205 413.713 360.566 369.038 360.566 369.038C360.566 369.038 342.718 362.088 344.219 351.011C344.219 351.011 338.772 377.109 330.697 375.983C322.623 374.857 313.456 368.116 317.765 359.286Z" fill="#E8F5FF"/>
<path opacity="0.1" d="M332.176 383.885C338.471 383.885 343.574 379.219 343.574 373.464C343.574 367.709 338.471 363.044 332.176 363.044C325.881 363.044 320.777 367.709 320.777 373.464C320.777 379.219 325.881 383.885 332.176 383.885Z" fill="black"/>
<path d="M344.638 360.039C344.638 360.039 342.373 290.94 322.657 306.336C302.941 321.731 302.748 340.143 306.502 345.583C310.257 351.022 322.295 378.253 322.295 378.253C324.178 379.344 326.292 379.973 328.466 380.09C330.639 380.206 332.809 379.806 334.798 378.922C336.786 378.039 338.538 376.697 339.907 375.006C341.277 373.316 342.227 371.325 342.679 369.197L344.638 360.039Z" fill="#FFC1C7"/>
<path opacity="0.1" d="M467.629 185.011C467.537 184.707 467.361 184.436 467.12 184.23C466.146 183.341 464.051 183.03 460.891 183.302L461.021 184.796C465.234 184.434 466.067 185.271 466.174 185.413V185.554L466.304 185.741C466.83 186.447 467.202 187.254 467.397 188.112C467.592 188.97 467.605 189.859 467.437 190.722C466.514 195.335 460.846 199.008 460.789 199.048L460.653 199.127L460.568 199.257C458.122 202.886 444.289 213.125 440.671 215.774L440.354 215.411C438.735 216.815 424.5 229.273 423.73 234.044C423.231 237.039 419.857 238.199 418.633 238.522C417.342 237.542 413.152 234.209 410.972 230.473C408.928 226.958 417.156 220.098 417.88 217.421L416.748 216.26C416.629 216.691 406.063 226.562 409.002 231.605C411.357 235.652 415.661 239.116 417.167 240.259C416.686 244.629 413.69 270.286 409.087 276.365C403.368 283.921 398.561 322.003 399.093 335.298C399.563 347.111 396.477 369.423 386.171 379.006C384.387 380.737 382.235 382.044 379.875 382.828C377.515 383.612 375.009 383.853 372.542 383.534H372.418H372.293C372.146 383.534 357.197 385.062 344.638 374.478C334.361 365.835 328.541 351.73 327.329 332.542H327.08L326.978 326.955C329.764 326.521 332.274 325.023 333.979 322.778C335.684 320.532 336.452 317.713 336.122 314.914C335.792 312.114 334.388 309.551 332.208 307.764C330.027 305.977 327.237 305.104 324.426 305.329C321.615 305.554 319.001 306.86 317.132 308.971C315.264 311.083 314.287 313.837 314.407 316.653C314.527 319.47 315.734 322.13 317.775 324.076C319.816 326.021 322.532 327.1 325.353 327.085H325.477L325.579 332.638L325.081 332.672C326.327 352.482 332.442 367.136 343.2 376.187C351.377 382.96 361.822 386.377 372.423 385.747C373.176 385.829 373.932 385.871 374.688 385.871C379.547 385.896 384.223 384.017 387.712 380.636C398.566 370.532 401.867 347.4 401.352 335.185C400.786 321.097 405.831 284.386 410.893 277.701C415.853 271.141 418.86 245.58 419.387 240.627C421.181 240.123 425.241 238.533 425.932 234.401C426.43 231.413 435.937 222.204 441.787 217.104L441.611 216.9C444.759 214.602 454.549 207.357 459.402 202.704C460.908 201.261 462.403 199.818 463.966 198.442C465.846 196.778 468.235 194.135 468.864 191.011C469.078 189.979 469.079 188.915 468.867 187.883C468.654 186.852 468.233 185.874 467.629 185.011Z" fill="black"/>
<path d="M416.974 239.903C416.736 239.739 411.097 235.703 408.271 230.847C405.338 225.804 415.904 215.938 416.017 215.508L417.15 216.668C416.43 219.34 408.203 226.205 410.247 229.715C412.824 234.147 418.248 238.024 418.305 238.063L416.974 239.903Z" fill="#353146"/>
<path d="M439.935 216.872L439.052 215.655C439.233 215.524 457.018 202.665 459.821 198.504L459.912 198.38L460.042 198.295C460.099 198.255 465.767 194.588 466.69 189.969C466.86 189.107 466.847 188.218 466.652 187.361C466.457 186.504 466.084 185.698 465.557 184.994L465.427 184.801V184.666C465.314 184.518 464.481 183.686 460.268 184.049L460.138 182.549C463.303 182.277 465.393 182.588 466.367 183.477C466.609 183.685 466.788 183.958 466.882 184.264C467.494 185.124 467.924 186.101 468.144 187.134C468.364 188.167 468.37 189.234 468.162 190.269C467.533 193.399 465.149 196.042 463.264 197.701C461.707 199.076 460.206 200.531 458.706 201.963C453.015 207.414 440.558 216.424 439.935 216.872Z" fill="#E8F5FF"/>
<path d="M326.247 324.985L324.747 325.012L324.914 334.129L326.414 334.102L326.247 324.985Z" fill="#E8F5FF"/>
<path d="M324.622 326.367C330.673 326.367 335.579 321.463 335.579 315.414C335.579 309.365 330.673 304.462 324.622 304.462C318.571 304.462 313.666 309.365 313.666 315.414C313.666 321.463 318.571 326.367 324.622 326.367Z" fill="#6C63FF"/>
<path d="M324.622 324.51C329.647 324.51 333.721 320.438 333.721 315.414C333.721 310.391 329.647 306.318 324.622 306.318C319.596 306.318 315.522 310.391 315.522 315.414C315.522 320.438 319.596 324.51 324.622 324.51Z" fill="#E8F5FF"/>
<path d="M373.975 385.141C373.218 385.142 372.462 385.102 371.71 385.022C361.11 385.646 350.667 382.23 342.487 375.462C331.728 366.406 325.624 351.769 324.367 331.942L326.632 331.8C327.844 350.988 333.665 365.099 343.947 373.736C356.506 384.292 371.449 382.792 371.597 382.792H371.721H371.846C374.313 383.11 376.82 382.868 379.18 382.084C381.541 381.3 383.694 379.994 385.48 378.264C395.78 368.681 398.866 346.369 398.396 334.557C397.83 321.25 402.637 283.168 408.362 275.618C413.373 269.001 416.482 239.178 416.516 238.878L416.6 238.029L417.439 237.882C417.49 237.882 422.382 236.954 422.993 233.297C423.786 228.531 437.998 216.073 439.612 214.664L441.09 216.362C435.218 221.456 425.711 230.671 425.236 233.665C424.545 237.808 420.485 239.393 418.696 239.891C418.129 244.849 415.145 270.405 410.202 276.965C405.14 283.65 400.095 320.361 400.661 334.449C401.148 346.664 397.881 369.802 387.026 379.9C383.531 383.289 378.844 385.171 373.975 385.141Z" fill="#353146"/>
<g opacity="0.1">
<path opacity="0.1" d="M466.117 153.999C467.046 150.569 468.167 147.116 468.948 143.641C468.014 147.133 466.887 150.569 466.117 153.999Z" fill="black"/>
<path opacity="0.1" d="M456.644 180.953C455.512 178.468 456.118 175.593 456.14 172.864C456.163 170.136 455.155 166.944 452.528 166.18C447.273 164.714 443.649 174.511 438.485 172.74C434.522 171.387 435.569 165.382 433.282 161.912C431.475 159.161 427.857 158.391 425.049 156.671C419.058 152.997 419.239 147.122 416.464 141.564C413.548 135.734 407.405 137.455 402.06 140.896C398 143.511 394.506 147.015 390.169 149.103C386.415 150.909 382.196 151.565 378.034 151.662C372.967 151.78 367.452 150.88 363.969 147.201C361.285 144.371 360.317 140.222 360.872 136.334C360.776 136.6 360.691 136.866 360.606 137.132C359.247 141.587 360.04 146.822 363.216 150.207C366.698 153.886 372.214 154.78 377.281 154.667C381.449 154.571 385.662 153.914 389.421 152.109C393.77 150.014 397.264 146.517 401.312 143.902C406.657 140.46 412.807 138.74 415.717 144.569C418.492 150.128 418.316 156.003 424.301 159.676C427.132 161.374 430.728 162.167 432.54 164.918C434.805 168.399 433.802 174.393 437.743 175.745C442.902 177.511 446.526 167.719 451.78 169.185C454.408 169.921 455.421 173.147 455.393 175.87C455.365 178.592 454.776 181.473 455.897 183.958C460.251 183.76 465.636 182.826 466.899 178.638C467.072 178.037 467.153 177.412 467.136 176.787C465.296 179.962 460.563 180.777 456.644 180.953Z" fill="black"/>
</g>
<path opacity="0.1" d="M558.979 320.418L565.553 327.368C565.553 327.368 570.814 365.67 573.441 369.253C576.068 372.836 582.274 387.088 576.448 397.792C576.448 397.792 574.568 403.616 575.695 406.055C576.821 408.495 567.246 420.704 567.246 420.704C567.246 420.704 554.659 431.967 552.026 433.66C549.393 435.352 535.498 448.868 530.804 449.055C526.11 449.242 524.575 455.066 524.575 455.066L498.087 456.006C498.087 456.006 483.456 455.242 480.273 457.308C480.273 457.308 481.972 434.962 465.625 420.313L486.474 412.802C486.474 412.802 494.367 409.406 496.807 405.857C498.343 403.682 500.521 402.041 503.036 401.165C503.036 401.165 508.857 397.033 509.044 394.78C509.23 392.528 516.161 389.766 516.161 389.766L512.237 356.286L514.304 300.704C514.304 300.704 520.878 254.132 534.779 256.764C548.68 259.396 558.979 320.418 558.979 320.418Z" fill="black"/>
<path d="M561.244 320.418L567.818 327.368C567.818 327.368 573.078 365.67 575.706 369.253C578.333 372.836 584.539 387.088 578.712 397.792C578.712 397.792 576.838 403.616 577.965 406.055C579.092 408.495 569.511 420.704 569.511 420.704C569.511 420.704 556.924 431.967 554.291 433.66C551.658 435.352 537.762 448.868 533.068 449.055C528.374 449.242 526.84 455.066 526.84 455.066L500.352 456.006C500.352 456.006 485.709 455.242 482.538 457.308C482.538 457.308 484.237 434.962 467.89 420.313L488.738 412.802C488.738 412.802 496.632 409.406 499.072 405.857C500.607 403.682 502.785 402.041 505.3 401.165C505.3 401.165 511.121 397.033 511.308 394.78C511.495 392.528 518.426 389.766 518.426 389.766L514.502 356.286L516.568 300.704C516.568 300.704 523.142 254.132 537.043 256.764C550.944 259.396 561.244 320.418 561.244 320.418Z" fill="#E8F5FF"/>
<path opacity="0.1" d="M536.806 376.566C536.806 376.566 556.154 371.472 561.227 377.698C566.301 383.924 536.806 376.566 536.806 376.566Z" fill="black"/>
<path opacity="0.1" d="M532.298 385.107C538.872 389.709 559.16 389.896 559.16 389.896L532.298 385.107Z" fill="black"/>
<path opacity="0.1" d="M542.253 408.11C542.819 408.297 556.199 422.571 561.816 418.253C567.433 413.934 542.253 408.11 542.253 408.11Z" fill="black"/>
<path opacity="0.1" d="M362.056 288.308C362.056 288.308 365.985 315.352 364.049 326.367C362.112 337.381 369.179 351.028 369.179 351.028L362.056 288.308Z" fill="black"/>
<path d="M275.06 299.305C270.53 302.854 267.223 311.254 264.828 320.486C260.649 336.589 259.285 355.261 259.285 355.261C259.285 355.261 223.216 346.997 225.843 343.245C227.497 340.885 225.277 323.1 223.425 310.207C222.321 302.588 221.336 296.673 221.336 296.673C221.336 296.673 287.46 289.536 275.06 299.305Z" fill="#FFCCD0"/>
<path opacity="0.1" d="M275.06 298.553C270.53 302.108 267.223 310.501 264.828 319.733C257.642 321.914 249.999 322.111 242.71 320.303C235.421 318.494 228.757 314.747 223.425 309.46C222.321 301.836 221.336 295.921 221.336 295.921C221.336 295.921 287.46 288.789 275.06 298.553Z" fill="black"/>
<path d="M294.448 278.324C294.451 288.168 290.971 297.697 284.622 305.223C278.273 312.749 269.466 317.788 259.758 319.447C250.05 321.106 240.068 319.278 231.579 314.288C223.09 309.297 216.64 301.466 213.372 292.179C210.104 282.892 210.228 272.749 213.722 263.544C217.216 254.34 223.854 246.668 232.463 241.886C241.072 237.104 251.095 235.521 260.76 237.416C270.424 239.311 279.106 244.563 285.269 252.242C291.208 259.639 294.446 268.839 294.448 278.324Z" fill="#FFCCD0"/>
<path opacity="0.1" d="M327.334 539.006H315.443L314.441 518.012L313.394 496.283C313.394 496.283 316.094 495.881 320.398 495.281L322.136 495.049H322.278C323.218 499.459 324.146 503.987 325.041 508.509C326.53 516.538 327.305 524.682 327.357 532.848C327.357 533.414 327.357 533.98 327.357 534.512C327.391 536.023 327.357 537.534 327.334 539.006Z" fill="black"/>
<path d="M325.052 539.006H175.93C176.575 537.54 177.006 536.651 177.006 536.651C177.006 536.651 188.936 484.476 195 462.402C195.002 462.383 195.002 462.364 195 462.345C195.758 459.347 196.673 456.39 197.741 453.487C197.81 453.29 197.899 453.1 198.007 452.921C201.008 448.042 204.768 442.784 199.508 435.273C194.247 427.762 196.11 394.713 196.11 394.713C196.11 394.713 202.497 366.542 209.258 351.52C210.284 349.193 211.74 347.081 213.55 345.294C214.138 344.719 214.767 344.185 215.43 343.698C215.934 343.319 216.46 342.969 217.004 342.651L217.112 342.583C219.952 340.973 223.106 339.994 226.358 339.713C228.669 339.472 231.001 339.536 233.294 339.906C244.257 341.513 253.033 344.202 260.009 347.264C278.916 355.567 284.64 366.695 284.754 366.927L284.799 367.023C285.558 368.795 296.656 394.696 300.653 406.78C301.689 409.927 302.256 412.14 302.029 412.746C300.897 415.746 310.67 453.3 310.67 453.3C310.67 453.3 315.2 471.413 319.73 492.644C319.928 493.527 320.115 494.41 320.296 495.304C321.105 499.159 321.91 503.087 322.685 507.009C324.188 515.093 324.963 523.295 325.001 531.517C325.084 534.08 325.101 536.576 325.052 539.006Z" fill="#FF748E"/>
<path opacity="0.1" d="M225.469 326.797C225.469 326.797 215.181 322.835 215.305 328.846C215.43 334.857 217.814 337.732 217.061 338.609C216.308 339.487 217.434 344.745 217.434 344.745C217.434 344.745 231.335 344.745 237.722 347.62C244.109 350.496 267.653 356.258 270.66 358.012C273.667 359.767 284.816 367.634 284.816 367.634L285.818 352.737C285.818 352.737 274.295 343.222 255.389 338.343C236.482 333.464 225.469 326.797 225.469 326.797Z" fill="black"/>
<path d="M225.469 326.044C225.469 326.044 215.181 322.082 215.305 328.093C215.43 334.104 217.814 336.979 217.061 337.857C216.308 338.734 217.434 343.992 217.434 343.992C217.434 343.992 231.335 343.992 237.722 346.873C244.109 349.754 267.653 355.51 270.66 357.259C273.667 359.008 284.816 366.882 284.816 366.882L285.829 352.029C285.829 352.029 274.307 342.515 255.4 337.636C236.494 332.757 225.469 326.044 225.469 326.044Z" fill="#FF748E"/>
<path opacity="0.1" d="M256.527 361.895C256.527 361.895 276.187 383.171 275.185 389.064C274.182 394.956 256.527 361.895 256.527 361.895Z" fill="black"/>
<path opacity="0.1" d="M224.592 438.754C224.592 438.754 210.181 452.027 205.935 452.78C201.688 453.532 209.19 456.034 214.071 454.036C218.952 452.038 229.359 446.78 229.359 446.78L224.592 438.754Z" fill="black"/>
<path d="M330.907 539.006H297.302C292.602 534.93 288.157 531.155 285.326 528.885C280.796 525.252 277.529 519.903 275.445 515.601C274.975 514.622 274.567 513.705 274.222 512.873C273.604 511.44 273.059 509.975 272.591 508.486L297.477 493.713C298.852 494.882 300.145 496.146 301.344 497.494L301.645 497.84C303.026 499.47 304.244 501.321 304.351 502.837C304.476 504.603 309.391 511.435 314.413 517.995C319.509 524.669 324.73 531.047 325.075 531.478C325.075 531.478 325.936 532.649 327.34 534.449C328.331 535.751 329.554 537.313 330.907 539.006Z" fill="#FFCCD0"/>
<path opacity="0.1" d="M285.269 252.242C284.074 254.936 283.004 257.732 282.845 260.732C282.398 269.392 283.123 288.755 273.531 293.102C268.78 295.242 263.695 290.544 258.486 290.43C254.738 290.351 251.301 292.728 249.013 295.7C246.726 298.672 245.304 302.198 243.645 305.56C242.135 308.612 240.396 311.544 238.442 314.333C237.858 315.187 237.214 315.998 236.516 316.761C230.668 314.294 225.459 310.525 221.288 305.741C217.118 300.957 214.094 295.285 212.449 289.156C210.803 283.027 210.579 276.604 211.793 270.375C213.007 264.147 215.627 258.277 219.454 253.214C223.281 248.151 228.214 244.028 233.876 241.16C239.539 238.291 245.782 236.752 252.129 236.661C258.477 236.569 264.762 237.927 270.505 240.631C276.247 243.335 281.297 247.314 285.269 252.264V252.242Z" fill="black"/>
<path d="M282.092 259.204C281.639 267.864 282.37 287.227 272.772 291.568C268.021 293.708 262.937 289.016 257.727 288.902C253.979 288.817 250.548 291.2 248.254 294.166C245.961 297.132 244.551 300.664 242.887 304.032C241.376 307.083 239.636 310.016 237.683 312.805C236.516 314.458 235.225 316.116 233.43 317.044C230.305 318.675 226.517 317.758 223.165 316.711C218.816 315.341 214.532 313.797 210.311 312.081C210.408 311.444 210.457 310.8 210.458 310.156C210.334 310.394 210.198 310.615 210.062 310.852L209.796 311.316C209.315 312.165 208.845 313.014 208.414 313.886C208.25 314.22 208.092 314.565 207.95 314.911C207.381 316.195 207.023 317.564 206.891 318.963C206.602 322.739 208.465 326.321 210.119 329.717C216.478 342.855 220.407 358.216 215.622 371.998C213.55 377.993 209.96 383.319 207.339 389.109C202.756 399.365 201.407 410.772 203.471 421.813C204.779 428.673 207.401 435.465 206.755 442.422C205.623 454.393 195.295 463.302 184.95 469.426C179.361 472.72 172.521 475.652 166.587 473.048C170.369 468.634 171.343 462.526 172.159 456.764C174.39 441.048 176.626 425.324 178.868 409.593C179.763 403.333 180.656 397.073 181.547 390.813C183.211 379.051 184.899 367.159 183.857 355.324C183.098 346.602 180.958 337.342 184.74 329.446C186.739 325.263 190.301 321.799 191.41 317.293C192.322 313.631 191.473 309.737 192.073 306.007C192.401 304.31 192.958 302.665 193.726 301.117C194.705 299.016 195.983 297.067 197.52 295.332C196.003 294.891 194.587 294.285 193.726 293.017C196.161 291.432 196.529 287.861 195.425 285.178C194.321 282.495 192.113 280.452 190.125 278.335C188.138 276.218 186.224 273.75 185.975 270.864C185.493 265.368 190.986 261.111 191.954 255.689C192.934 250.17 189.061 244.804 189.372 239.218C189.734 232.465 195.94 227.558 202.067 224.711C211.312 220.433 221.525 218.675 231.669 219.617C239.925 220.398 247.915 222.951 256.148 223.941C261.113 224.507 266.147 224.564 271.079 225.436C276.011 226.307 280.954 228.147 284.425 231.764C293.575 241.301 282.613 249.151 282.092 259.204Z" fill="#FFE0D0"/>
<path opacity="0.1" d="M274.437 515.607C271.549 514.356 266.295 515.103 257.275 512.358C248.255 509.613 246.516 497.206 246.516 497.206V497.166C246.409 496.883 245.571 495.038 239.897 488.574C233.629 481.437 220.079 445.387 220.079 445.387C220.079 445.387 208.064 432.488 208.443 427.734C208.822 422.979 206.308 410.329 206.557 396.178C206.807 382.028 233.606 372.644 233.606 372.644C285.207 363.503 273.056 422.968 271.68 427.473C270.304 431.979 277.444 444.148 277.444 444.148C276.436 449.446 281.577 457.647 281.577 457.647C281.577 457.647 282.823 464.904 283.078 467.66C283.092 467.787 283.12 467.913 283.163 468.034C283.989 470.632 290.728 472.986 293.468 474.418C296.35 475.924 305.619 489.067 305.619 489.067C307.618 498.717 277.314 516.875 274.437 515.607Z" fill="black"/>
<path d="M275.937 513.343C273.055 512.086 267.795 512.839 258.781 510.088C249.766 507.337 248.022 494.942 248.022 494.942V494.902C247.92 494.613 247.077 492.774 241.403 486.31C235.135 479.173 221.585 443.118 221.585 443.118C221.585 443.118 209.57 430.224 209.943 425.469C210.317 420.715 207.814 408.065 208.063 393.926C208.313 379.787 235.095 370.408 235.095 370.408C286.696 361.267 274.545 420.732 273.169 425.237C271.793 429.743 278.933 441.912 278.933 441.912C277.925 447.21 283.066 455.411 283.066 455.411C283.066 455.411 284.312 462.668 284.572 465.424C284.582 465.552 284.609 465.677 284.652 465.798C285.478 468.396 292.217 470.75 294.963 472.182C297.839 473.682 307.114 486.831 307.114 486.831C309.124 496.464 278.82 514.622 275.937 513.343Z" fill="#FF748E"/>
<path opacity="0.1" d="M236.114 401.454C236.114 401.454 258.656 425.226 264.539 425.226C270.422 425.226 236.114 401.454 236.114 401.454Z" fill="black"/>
<path d="M275.938 513.343C273.056 512.086 267.795 512.839 258.781 510.088C249.766 507.338 248.022 494.942 248.022 494.942V494.902C253.996 490.94 269.126 479.75 275.088 475.658C279.284 472.788 282.71 468.571 284.714 465.775C285.541 468.373 292.279 470.728 295.025 472.16C297.902 473.66 307.177 486.808 307.177 486.808C309.124 496.465 278.82 514.622 275.938 513.343Z" fill="#FF748E"/>
<g opacity="0.1">
<path opacity="0.1" d="M193.76 293.079C193.789 293.125 193.828 293.164 193.862 293.21C194.032 292.995 194.208 292.779 194.389 292.576C194.196 292.763 193.985 292.932 193.76 293.079Z" fill="black"/>
<path opacity="0.1" d="M206.897 319.025C207.135 315.884 208.816 313.116 210.391 310.354C209.36 309.958 208.329 309.556 207.31 309.137C207.407 308.502 207.457 307.861 207.457 307.218C205.866 310.048 204.134 312.833 203.89 316.02C203.601 319.801 205.464 323.378 207.118 326.774C213.482 339.905 217.406 355.267 212.621 369.055C210.543 375.043 206.959 380.375 204.338 386.166C199.756 396.42 198.409 407.825 200.476 418.864C201.772 425.73 204.4 432.516 203.754 439.472C202.622 451.444 192.299 460.353 181.949 466.471C177.719 468.973 172.776 471.265 168.048 471.101C167.61 471.805 167.122 472.477 166.587 473.111C172.527 475.731 179.361 472.782 184.95 469.477C195.306 463.364 205.651 454.477 206.784 442.484C207.429 435.527 204.802 428.741 203.499 421.875C201.432 410.838 202.775 399.433 207.35 389.177C209.955 383.392 213.578 378.055 215.634 372.066C220.418 358.278 216.489 342.917 210.13 329.785C208.482 326.366 206.608 322.806 206.897 319.025Z" fill="black"/>
<path opacity="0.1" d="M284.414 231.831C283.857 231.26 283.259 230.731 282.624 230.247C289.487 239.144 279.578 246.706 279.085 256.283C278.644 264.943 279.369 284.312 269.771 288.648C265.026 290.793 259.935 286.095 254.732 285.982C250.978 285.902 247.546 288.285 245.253 291.251C242.96 294.217 241.55 297.749 239.891 301.111C238.377 304.162 236.636 307.095 234.682 309.884C233.549 311.543 232.224 313.196 230.424 314.129C227.309 315.754 223.521 314.843 220.163 313.79C216.898 312.763 213.663 311.631 210.458 310.394C210.452 310.983 210.402 311.572 210.311 312.154C214.535 313.875 218.821 315.418 223.17 316.784C226.522 317.837 230.31 318.748 233.43 317.124C235.225 316.19 236.528 314.531 237.688 312.873C239.644 310.087 241.384 307.156 242.892 304.105C244.557 300.743 245.961 297.206 248.26 294.24C250.559 291.274 253.984 288.897 257.733 288.976C262.942 289.089 268.033 293.787 272.778 291.642C282.375 287.306 281.645 267.937 282.092 259.277C282.613 249.208 293.575 241.363 284.414 231.831Z" fill="black"/>
</g>
<path opacity="0.1" d="M209.802 311.322C209.32 312.171 208.85 313.02 208.42 313.892C208.256 314.226 208.097 314.571 207.956 314.916C204.989 311.928 197.763 304.824 193.732 302.623C194.712 300.522 195.99 298.574 197.526 296.838C197.526 296.838 207.135 301.915 209.802 311.322Z" fill="black"/>
<path d="M210.068 310.858C207.842 300.789 197.526 295.338 197.526 295.338C195.989 297.073 194.711 299.022 193.732 301.123C197.984 303.449 205.821 311.248 208.42 313.892L210.068 310.858Z" fill="#FF748E"/>
</g>
<defs>
<linearGradient id="paint0_linear_1303_13063" x1="468.365" y1="150.003" x2="468.365" y2="139.6" gradientUnits="userSpaceOnUse">
<stop stop-color="#808080" stop-opacity="0.25"/>
<stop offset="0.54" stop-color="#808080" stop-opacity="0.12"/>
<stop offset="1" stop-color="#808080" stop-opacity="0.1"/>
</linearGradient>
<linearGradient id="paint1_linear_1303_13063" x1="373.692" y1="539.006" x2="373.692" y2="96" gradientUnits="userSpaceOnUse">
<stop stop-color="#808080" stop-opacity="0.25"/>
<stop offset="0.54" stop-color="#808080" stop-opacity="0.12"/>
<stop offset="1" stop-color="#808080" stop-opacity="0.1"/>
</linearGradient>
<clipPath id="clip0_1303_13063">
<rect width="802" height="617" fill="white"/>
</clipPath>
</defs>
</svg>