<svg width="611" height="440" viewBox="0 0 611 440" fill="none" xmlns="http://www.w3.org/2000/svg">
<path d="M525.23 62.6401C587.857 138.657 535.018 272.971 407.21 362.64C279.402 452.309 125.023 463.376 62.3963 387.36C-0.230831 311.343 52.6087 177.029 180.417 87.3599C308.225 -2.30901 462.603 -13.3764 525.23 62.6401Z" fill="#E2E0FF"/>
<path d="M195.326 10.4662C276.095 -23.6354 385.04 36.394 438.661 144.546C492.281 252.697 470.273 368.016 389.504 402.118C308.735 436.22 199.79 376.19 146.169 268.039C92.5486 159.887 114.557 44.5678 195.326 10.4662Z" fill="#CAC7FF"/>
<path d="M467.451 435.83C459.642 429.747 454.898 420.137 456.142 410.781C457.386 401.426 465.091 392.826 475.085 390.839C485.079 388.852 496.471 394.352 499.507 403.352C501.177 386 503.102 367.92 513.109 353.143C522.171 339.763 537.865 330.189 554.873 328.476C571.882 326.763 589.79 333.232 600.398 345.609C611.005 357.985 613.603 375.978 606.173 390.187C600.7 400.655 590.617 408.445 580.053 414.782C545.915 435.089 504.971 443.347 464.754 438.037L467.451 435.83Z" fill="#6C63FF"/>
<path d="M583.578 333.591C569.544 344.129 556.669 355.916 545.139 368.78C527.096 388.843 512.495 411.338 501.845 435.48C501.065 437.241 504.167 438.008 504.938 436.266C522.363 397.03 550.181 362.448 585.846 335.682C587.448 334.48 585.166 332.398 583.578 333.591Z" fill="#535461"/>
<path d="M196.808 434.177C207.533 425.822 214.048 412.622 212.34 399.773C210.631 386.923 200.049 375.111 186.322 372.382C172.596 369.653 156.948 377.207 152.779 389.569C150.484 365.735 147.84 340.903 134.095 320.607C121.65 302.229 100.094 289.079 76.7329 286.726C53.3714 284.374 28.7747 293.259 14.205 310.258C-0.364702 327.257 -3.93203 351.97 6.27221 371.487C13.7893 385.864 27.6385 396.564 42.149 405.268C88.4424 433.039 145.869 444.621 200.512 437.208" fill="#6C63FF"/>
<path d="M37.3068 293.751C56.5829 308.226 74.2667 324.415 90.1024 342.084C105.941 359.734 119.884 378.76 131.738 398.893C138.364 410.186 144.316 421.805 149.567 433.697C150.638 436.116 146.377 437.169 145.318 434.776C136.016 413.811 124.508 393.737 110.958 374.842C97.4742 356.015 82.0411 338.438 64.8757 322.358C55.1668 313.268 44.9231 304.677 34.1911 296.624C31.9913 294.972 35.1252 292.114 37.3068 293.751Z" fill="#535461"/>
<path d="M438.29 438.896H182.388V196.835C182.388 145.335 227.835 103.436 283.697 103.436H336.981C392.843 103.436 438.29 145.335 438.29 196.835V438.896Z" fill="#665FC7"/>
<path d="M385.006 438.896L182.388 438.896V196.835C182.332 177.101 189.11 157.866 201.735 141.931C202.201 141.346 202.665 140.769 203.144 140.198C209.251 132.814 216.518 126.311 224.706 120.904C225.168 120.593 225.632 120.288 226.104 119.984C232.955 115.612 240.366 112.039 248.169 109.345C248.632 109.183 249.104 109.021 249.576 108.865C256.632 106.544 263.948 104.953 271.386 104.124C271.847 104.066 272.32 104.02 272.794 103.975C280.043 103.26 287.353 103.26 294.602 103.975C295.074 104.02 295.548 104.066 296.014 104.124C303.451 104.954 310.764 106.544 317.819 108.865C318.291 109.021 318.762 109.183 319.227 109.345C326.933 112.006 334.257 115.526 341.036 119.827C341.507 120.125 341.978 120.43 342.442 120.735C347.032 123.755 351.343 127.12 355.331 130.795C358.53 133.742 361.51 136.884 364.252 140.2C364.729 140.769 365.194 141.346 365.658 141.93C378.284 157.866 385.062 177.101 385.006 196.835V438.896Z" fill="#8880FF"/>
<path d="M368.531 330.631C374.726 330.631 379.748 326.001 379.748 320.289C379.748 314.578 374.726 309.948 368.531 309.948C362.335 309.948 357.313 314.578 357.313 320.289C357.313 326.001 362.335 330.631 368.531 330.631Z" fill="#6C63FF"/>
<path d="M417.327 431.646H408.731L404.641 401.081L417.328 401.082L417.327 431.646Z" fill="#FFB8B8"/>
<path d="M402.591 429.382H419.168V439.004H392.154C392.154 437.74 392.424 436.489 392.949 435.322C393.473 434.154 394.242 433.093 395.211 432.2C396.18 431.306 397.331 430.598 398.597 430.114C399.863 429.631 401.221 429.382 402.591 429.382Z" fill="#2F2E41"/>
<path d="M460.094 431.646H451.498L447.409 401.081L460.095 401.082L460.094 431.646Z" fill="#FFB8B8"/>
<path d="M445.358 429.382H461.935V439.004H434.921C434.921 437.74 435.191 436.489 435.716 435.322C436.24 434.154 437.009 433.093 437.978 432.2C438.947 431.306 440.098 430.598 441.364 430.114C442.631 429.631 443.988 429.382 445.358 429.382Z" fill="#2F2E41"/>
<path d="M374.208 322.338C373.589 321.498 373.178 320.544 373.004 319.541C372.829 318.539 372.894 317.514 373.196 316.537C373.497 315.561 374.027 314.658 374.749 313.891C375.47 313.124 376.365 312.512 377.37 312.098L406.589 237.853L420.967 245.087L387.605 316.038C388.247 317.641 388.229 319.406 387.553 320.998C386.878 322.589 385.593 323.897 383.942 324.674C382.29 325.451 380.387 325.642 378.593 325.211C376.799 324.781 375.239 323.759 374.208 322.338Z" fill="#FFB8B8"/>
<path d="M455.703 336.289C454.748 335.784 453.924 335.092 453.291 334.262C452.657 333.432 452.228 332.484 452.035 331.485C451.841 330.486 451.888 329.459 452.171 328.478C452.455 327.497 452.968 326.586 453.675 325.807L444.623 247.269L460.985 247.958L464.747 325.211C466.086 326.393 466.909 327.986 467.06 329.689C467.21 331.393 466.677 333.088 465.562 334.454C464.448 335.819 462.828 336.76 461.011 337.098C459.194 337.437 457.305 337.149 455.703 336.289Z" fill="#FFB8B8"/>
<path d="M429.601 224.101C439.111 224.101 446.82 216.993 446.82 208.226C446.82 199.458 439.111 192.35 429.601 192.35C420.09 192.35 412.381 199.458 412.381 208.226C412.381 216.993 420.09 224.101 429.601 224.101Z" fill="#FFB8B8"/>
<path d="M455.593 318.427H403.679L403.741 318.055C403.834 317.498 412.993 262.184 406.238 244.088C405.56 242.31 405.62 240.363 406.406 238.623C407.191 236.883 408.647 235.472 410.494 234.662C420.149 230.47 438.683 225.308 454.327 237.835C456.629 239.709 458.426 242.05 459.577 244.675C460.728 247.3 461.201 250.135 460.959 252.957L455.593 318.427Z" fill="#6C63FF"/>
<path d="M413.65 270.359L390.277 265.987L401.233 242.053C401.888 239.735 403.515 237.751 405.755 236.536C407.995 235.322 410.666 234.976 413.182 235.575C415.698 236.174 417.854 237.669 419.176 239.731C420.499 241.793 420.88 244.255 420.237 246.576L413.65 270.359Z" fill="#6C63FF"/>
<path d="M443.584 278.475L442.179 248.781C441.113 243.199 444.579 237.922 449.91 237.059C455.242 236.2 460.449 240.071 461.519 245.694L466.8 273.441L443.584 278.475Z" fill="#6C63FF"/>
<path d="M453.866 314.872C462.219 344.202 463.131 381.492 460.877 422.168L449.659 420.875L429.327 343.312L418.11 422.168L405.49 421.521C401.72 378.842 398.049 342.203 404.088 318.104L453.866 314.872Z" fill="#2F2E41"/>
<path d="M440.947 220.494C437.734 223.649 431.768 221.956 431.35 217.646C431.317 217.311 431.319 216.974 431.357 216.64C431.573 214.731 432.769 212.998 432.483 210.982C432.418 210.481 432.215 210.003 431.894 209.593C429.334 206.433 423.325 211.007 420.909 208.146C419.427 206.392 421.169 203.63 420.032 201.669C418.532 199.081 414.087 200.358 411.301 198.941C408.2 197.364 408.385 192.978 410.426 190.31C412.916 187.057 417.28 185.321 421.59 185.07C425.9 184.82 430.181 185.894 434.205 187.34C438.777 188.983 443.31 191.253 446.124 194.959C449.545 199.466 449.875 205.526 448.163 210.796C447.122 214.002 443.57 217.918 440.947 220.494Z" fill="#2F2E41"/>
<path d="M589.365 439.312H71.7455C71.5245 439.311 71.3128 439.23 71.1568 439.086C71.0008 438.942 70.9131 438.746 70.9131 438.542C70.9131 438.339 71.0008 438.143 71.1568 437.999C71.3128 437.855 71.5245 437.773 71.7455 437.773H589.365C589.586 437.773 589.797 437.855 589.953 437.999C590.11 438.143 590.197 438.339 590.197 438.542C590.197 438.746 590.11 438.942 589.953 439.086C589.797 439.23 589.586 439.311 589.365 439.312Z" fill="#3F3D56"/>
<path d="M329.269 368.766H238.126C236.925 368.772 235.771 368.339 234.917 367.562C234.063 366.784 233.578 365.726 233.568 364.62V177.066C233.578 175.96 234.063 174.902 234.917 174.124C235.771 173.347 236.925 172.914 238.126 172.92H329.269C330.469 172.914 331.623 173.347 332.478 174.124C333.332 174.902 333.817 175.96 333.826 177.066V364.62C333.817 365.726 333.332 366.784 332.478 367.562C331.623 368.339 330.469 368.772 329.269 368.766Z" fill="#23253E"/>
<path d="M334.946 232.917H234.106V237.46H334.946V232.917Z" fill="#37354C"/>
<path d="M334.946 305.608H234.106V310.151H334.946V305.608Z" fill="#37354C"/>
<path d="M270.998 173.856H266.079V369.213H270.998V173.856Z" fill="#37354C"/>
<path d="M305.431 173.856H300.512V369.213H305.431V173.856Z" fill="#37354C"/>
</svg>
