<svg fill="none" xmlns="http://www.w3.org/2000/svg" viewBox="62 89.13 735.02 572.87">
<ellipse cx="415.5" cy="381.736" rx="350.298" ry="225.773" transform="rotate(-37.2447 415.5 381.736)" fill="#E2E0FF"/>
<ellipse cx="413.815" cy="357.308" rx="281.2" ry="193.795" transform="rotate(-114.585 413.815 357.308)" fill="#CAC7FF"/>
<g clip-path="url(#clip0_1523_6653)">
<path d="M624.734 657.036C615.324 649.092 609.608 636.543 611.107 624.327C612.606 612.111 621.89 600.881 633.933 598.287C645.975 595.692 659.703 602.873 663.361 614.626C665.374 591.968 667.694 568.36 679.752 549.064C690.671 531.592 709.582 519.09 730.078 516.854C750.573 514.617 772.152 523.064 784.935 539.225C797.717 555.387 800.847 578.881 791.894 597.436C785.299 611.104 773.149 621.276 760.419 629.552C719.283 656.068 669.945 666.851 621.484 659.917L624.734 657.036Z" fill="#6C63FF"/>
<path d="M764.667 523.533C747.755 537.294 732.241 552.684 718.348 569.482C696.605 595.681 679.011 625.054 666.178 656.579C665.239 658.878 668.977 659.879 669.906 657.605C690.903 606.371 724.423 561.214 767.4 526.263C769.33 524.693 766.581 521.976 764.667 523.533Z" fill="#535461"/>
<path d="M298.608 654.877C311.533 643.967 319.384 626.731 317.325 609.952C315.266 593.174 302.514 577.749 285.974 574.186C269.433 570.622 250.577 580.486 245.553 596.628C242.788 565.506 239.602 533.081 223.04 506.578C208.043 482.581 182.069 465.409 153.918 462.337C125.768 459.265 96.1287 470.868 78.5722 493.065C61.0157 515.262 56.7171 547.533 69.0132 573.017C78.0713 591.79 94.7595 605.762 112.245 617.128C168.028 653.391 237.228 668.515 303.072 658.834" fill="#6C63FF"/>
<path d="M106.41 471.511C129.638 490.412 150.947 511.551 170.029 534.623C189.114 557.671 205.916 582.514 220.2 608.803C228.184 623.55 235.356 638.721 241.684 654.25C242.974 657.408 237.84 658.783 236.564 655.66C225.355 628.284 211.487 602.071 195.16 577.398C178.912 552.814 160.315 529.862 139.631 508.866C127.931 496.996 115.588 485.777 102.656 475.262C100.005 473.105 103.781 469.372 106.41 471.511L106.41 471.511Z" fill="#535461"/>
<path d="M589.595 661.039H281.233V344.959C281.233 277.71 335.997 223 403.31 223H467.518C534.831 223 589.595 277.71 589.595 344.959V661.039Z" fill="#665FC7"/>
<path d="M525.388 661.039H281.233V344.959C281.165 319.191 289.333 294.074 304.546 273.265C305.107 272.502 305.667 271.748 306.244 271.002C313.602 261.361 322.359 252.869 332.225 245.808C332.783 245.403 333.342 245.005 333.91 244.607C342.166 238.899 351.097 234.234 360.499 230.716C361.057 230.504 361.626 230.292 362.194 230.089C370.697 227.058 379.512 224.981 388.475 223.898C389.031 223.822 389.601 223.762 390.172 223.703C398.907 222.77 407.716 222.77 416.451 223.703C417.02 223.762 417.59 223.822 418.152 223.898C427.113 224.982 435.926 227.058 444.427 230.089C444.995 230.292 445.564 230.504 446.124 230.716C455.41 234.19 464.235 238.786 472.403 244.402C472.971 244.792 473.539 245.19 474.098 245.588C479.629 249.532 484.823 253.925 489.629 258.724C493.483 262.573 497.075 266.676 500.379 271.005C500.954 271.748 501.514 272.502 502.073 273.264C517.287 294.073 525.455 319.19 525.388 344.959V661.039Z" fill="#8880FF"/>
<path d="M505.534 519.668C513 519.668 519.052 513.622 519.052 506.164C519.052 498.706 513 492.66 505.534 492.66C498.069 492.66 492.017 498.706 492.017 506.164C492.017 513.622 498.069 519.668 505.534 519.668Z" fill="#6C63FF"/>
<path d="M564.334 651.572H553.976L549.048 611.661L564.336 611.661L564.334 651.572Z" fill="#FFB8B8"/>
<path d="M546.578 648.615H566.553V661.18H534.001C534.001 659.53 534.326 657.896 534.958 656.371C535.59 654.847 536.517 653.462 537.685 652.295C538.853 651.128 540.239 650.203 541.765 649.572C543.291 648.94 544.926 648.615 546.578 648.615V648.615Z" fill="#2F2E41"/>
<path d="M615.868 651.572H605.51L600.583 611.661L615.87 611.661L615.868 651.572Z" fill="#FFB8B8"/>
<path d="M598.112 648.615H618.087V661.18H585.535C585.535 659.53 585.861 657.896 586.493 656.371C587.125 654.847 588.051 653.462 589.219 652.295C590.387 651.128 591.773 650.203 593.299 649.572C594.825 648.94 596.46 648.615 598.112 648.615V648.615Z" fill="#2F2E41"/>
<path d="M512.375 508.839C511.63 507.742 511.135 506.496 510.924 505.187C510.714 503.878 510.793 502.54 511.156 501.265C511.519 499.99 512.158 498.81 513.027 497.808C513.896 496.807 514.974 496.008 516.186 495.468L551.395 398.519L568.72 407.965L528.519 500.612C529.292 502.706 529.27 505.01 528.457 507.089C527.643 509.167 526.095 510.875 524.105 511.889C522.115 512.903 519.822 513.153 517.66 512.591C515.498 512.029 513.618 510.694 512.375 508.839V508.839Z" fill="#FFB8B8"/>
<path d="M610.577 527.056C609.426 526.397 608.434 525.493 607.67 524.41C606.907 523.326 606.39 522.088 606.157 520.783C605.924 519.478 605.98 518.138 606.322 516.857C606.663 515.576 607.282 514.386 608.133 513.369L597.226 410.815L616.942 411.714L621.475 512.59C623.09 514.133 624.081 516.214 624.262 518.438C624.443 520.663 623.801 522.876 622.458 524.659C621.115 526.442 619.163 527.671 616.974 528.113C614.784 528.555 612.508 528.179 610.577 527.056V527.056Z" fill="#FFB8B8"/>
<path d="M579.124 380.562C590.584 380.562 599.874 371.281 599.874 359.832C599.874 348.384 590.584 339.103 579.124 339.103C567.664 339.103 558.374 348.384 558.374 359.832C558.374 371.281 567.664 380.562 579.124 380.562Z" fill="#FFB8B8"/>
<path d="M610.445 503.732H547.888L547.963 503.246C548.076 502.519 559.112 430.291 550.973 406.661C550.156 404.339 550.228 401.797 551.174 399.525C552.121 397.252 553.875 395.41 556.1 394.353H556.1C567.735 388.879 590.069 382.139 608.919 398.496C611.693 400.943 613.859 404 615.246 407.428C616.633 410.855 617.203 414.557 616.911 418.242L610.445 503.732Z" fill="#6C63FF"/>
<path d="M559.903 440.965L531.739 435.257L544.941 404.003C545.731 400.976 547.69 398.386 550.39 396.8C553.089 395.215 556.307 394.763 559.339 395.545C562.371 396.327 564.969 398.279 566.563 400.971C568.156 403.664 568.616 406.879 567.84 409.909L559.903 440.965Z" fill="#6C63FF"/>
<path d="M595.973 451.564L594.28 412.789C592.996 405.5 597.173 398.609 603.596 397.483C610.022 396.361 616.296 401.416 617.585 408.759L623.95 444.99L595.973 451.564Z" fill="#6C63FF"/>
<path d="M608.364 499.09C618.429 537.388 619.528 586.081 616.812 639.195L603.295 637.507L578.795 536.226L565.277 639.195L550.07 638.351C545.527 582.622 541.104 534.779 548.381 503.31L608.364 499.09Z" fill="#2F2E41"/>
<path d="M592.796 375.853C588.925 379.972 581.736 377.761 581.231 372.133C581.192 371.696 581.195 371.257 581.24 370.82C581.5 368.327 582.942 366.064 582.597 363.432C582.519 362.777 582.274 362.153 581.887 361.618C578.802 357.492 571.561 363.464 568.65 359.728C566.865 357.438 568.963 353.831 567.593 351.271C565.786 347.892 560.43 349.559 557.072 347.708C553.336 345.649 553.559 339.922 556.019 336.439C559.018 332.19 564.278 329.923 569.471 329.597C574.665 329.27 579.823 330.672 584.672 332.56C590.181 334.705 595.644 337.669 599.034 342.509C603.157 348.394 603.554 356.307 601.492 363.189C600.238 367.375 595.957 372.489 592.796 375.853Z" fill="#2F2E41"/>
<path d="M771.639 661.582H147.908C147.642 661.581 147.387 661.475 147.199 661.287C147.011 661.098 146.905 660.843 146.905 660.577C146.905 660.311 147.011 660.056 147.199 659.868C147.387 659.679 147.642 659.573 147.908 659.572H771.639C771.906 659.573 772.161 659.679 772.349 659.868C772.537 660.056 772.642 660.311 772.642 660.577C772.642 660.843 772.537 661.098 772.349 661.287C772.161 661.475 771.906 661.581 771.639 661.582V661.582Z" fill="#3F3D56"/>
<path d="M458.224 569.464H348.397C346.95 569.472 345.56 568.907 344.53 567.891C343.501 566.876 342.916 565.495 342.905 564.05V319.145C342.916 317.7 343.501 316.319 344.53 315.304C345.56 314.289 346.95 313.723 348.397 313.731H458.224C459.671 313.723 461.061 314.289 462.091 315.304C463.12 316.319 463.705 317.7 463.716 319.145V564.05C463.705 565.495 463.12 566.876 462.091 567.891C461.061 568.907 459.671 569.472 458.224 569.464Z" fill="#23253E"/>
<path d="M465.064 392.074H343.552V398.007H465.064V392.074Z" fill="#37354C"/>
<path d="M465.064 486.993H343.552V492.926H465.064V486.993Z" fill="#37354C"/>
<path d="M388.008 314.953H382.081V570.047H388.008V314.953Z" fill="#37354C"/>
<path d="M429.5 314.953H423.573V570.047H429.5V314.953Z" fill="#37354C"/>
</g>
<defs>
<clipPath id="clip0_1523_6653">
<rect width="735" height="439" fill="white" transform="translate(62 223)"/>
</clipPath>
</defs>
</svg>