<svg width="68" height="65" viewBox="0 0 68 65" fill="none" xmlns="http://www.w3.org/2000/svg">
<path d="M30.818 63.5057C32.5754 65.2631 35.4246 65.2631 37.182 63.5057L65.8198 34.8679C67.5772 33.1105 67.5772 30.2613 65.8198 28.5039C64.0624 26.7465 61.2132 26.7465 59.4558 28.5039L34 53.9598L8.54416 28.5039C6.7868 26.7465 3.93755 26.7465 2.18019 28.5039C0.422836 30.2613 0.422836 33.1105 2.18019 34.8679L30.818 63.5057ZM29.5 58.3672V60.3237H38.5V58.3672H29.5Z" fill="#6C63FF"/>
<path d="M30.818 36.7589C32.5754 38.5162 35.4246 38.5162 37.182 36.7589L65.8198 8.12106C67.5772 6.3637 67.5772 3.51446 65.8198 1.7571C64.0624 -0.000259399 61.2132 -0.000259399 59.4558 1.7571L34 27.2129L8.54416 1.7571C6.7868 -0.000259399 3.93755 -0.000259399 2.18019 1.7571C0.422836 3.51446 0.422836 6.3637 2.18019 8.12106L30.818 36.7589ZM29.5 30.315V33.5769H38.5V30.315H29.5Z" fill="#6C63FF"/>
</svg>
